<svg width="2037" height="401" viewBox="0 0 2037 401" fill="none" xmlns="http://www.w3.org/2000/svg">
<path d="M1443.33 165.334H1464.67V186.667H1443.33V165.334ZM1475.33 202.667V198.4H1383.6L1454 77.8671L1497.84 154.027C1503.28 149.334 1509.47 145.6 1516.29 143.04L1454 35.2004L1347.33 219.734H1477.68C1476.19 214.294 1475.33 208.64 1475.33 202.667ZM1464.67 112H1443.33V154.667H1464.67V112ZM1561.95 164.907L1539.33 187.627L1516.72 164.907L1501.68 180.054L1524.29 202.667L1501.68 225.28L1516.72 240.427L1539.33 217.707L1561.95 240.427L1577.09 225.28L1554.37 202.667L1577.09 180.054L1561.95 164.907V164.907Z" fill="#2396ED"/>
<path d="M1134.72 106.497C1128.95 102.497 1115.74 100.997 1105.41 102.997C1104.21 92.997 1098.69 84.248 1089.08 76.498L1083.55 72.498L1079.71 78.248C1074.91 85.748 1072.51 96.248 1073.23 106.248C1073.47 109.747 1074.67 115.997 1078.27 121.497C1074.91 123.497 1067.94 125.997 1058.81 125.997H885.155L884.675 127.997C882.993 137.996 882.993 169.245 902.689 193.244C917.581 211.493 939.679 220.743 968.742 220.743C1031.67 220.743 1078.27 190.493 1100.13 135.746C1108.77 135.996 1127.27 135.746 1136.64 116.996C1136.88 116.496 1137.36 115.496 1139.04 111.747L1140 109.747L1134.72 106.497ZM1023.99 36H997.566V60.999H1023.99V36ZM1023.99 65.999H997.566V90.998H1023.99V65.998V65.999ZM992.761 65.999H966.341V90.998H992.761V65.998V65.999ZM961.536 65.999H935.115V90.998H961.536V65.998V65.999ZM930.311 95.998H903.89V120.997H930.31V95.997L930.311 95.998ZM961.536 95.998H935.115V120.997H961.536V95.997V95.998ZM992.761 95.998H966.341V120.997H992.761V95.997V95.998ZM1023.99 95.998H997.565V120.997H1023.99V95.997V95.998ZM1055.21 95.998H1028.79V120.997H1055.21V95.997V95.998Z" fill="#2396ED"/>
<path d="M602 42.6667C624.632 42.6667 646.337 51.6572 662.34 67.6603C678.343 83.6634 687.333 105.368 687.333 128C687.333 150.632 678.343 172.337 662.34 188.34C646.337 204.343 624.632 213.333 602 213.333C579.368 213.333 557.663 204.343 541.66 188.34C525.657 172.337 516.667 150.632 516.667 128C516.667 105.368 525.657 83.6634 541.66 67.6603C557.663 51.6572 579.368 42.6667 602 42.6667V42.6667ZM602 64.0001C585.026 64.0001 568.748 70.7429 556.745 82.7452C544.743 94.7476 538 111.026 538 128C538 144.974 544.743 161.253 556.745 173.255C568.748 185.257 585.026 192 602 192C618.974 192 635.253 185.257 647.255 173.255C659.257 161.253 666 144.974 666 128C666 111.026 659.257 94.7476 647.255 82.7452C635.253 70.7429 618.974 64.0001 602 64.0001ZM591.333 85.3334H607.333V125.653L632.187 150.507L620.88 161.813L591.333 132.267V85.3334ZM463.333 192C460.504 192 457.791 190.876 455.791 188.876C453.791 186.875 452.667 184.162 452.667 181.333C452.667 178.504 453.791 175.791 455.791 173.791C457.791 171.791 460.504 170.667 463.333 170.667H504.187C507.493 178.24 511.76 185.387 516.667 192H463.333ZM474 138.667C471.171 138.667 468.458 137.543 466.458 135.543C464.457 133.542 463.333 130.829 463.333 128C463.333 125.171 464.457 122.458 466.458 120.458C468.458 118.457 471.171 117.333 474 117.333H495.867L495.333 128L495.867 138.667H474ZM484.667 85.3334C481.838 85.3334 479.125 84.2096 477.124 82.2092C475.124 80.2088 474 77.4957 474 74.6667C474 71.8378 475.124 69.1247 477.124 67.1243C479.125 65.1239 481.838 64.0001 484.667 64.0001H516.667C511.76 70.6134 507.493 77.7601 504.187 85.3334H484.667Z" fill="#2396ED"/>
<path d="M239.814 256H159.892C155.396 256 151.608 254.417 148.528 251.25C145.448 248.083 143.908 244.333 143.908 240V16C143.908 11.6667 145.448 7.91667 148.528 4.75C151.608 1.58333 155.396 0 159.892 0H239.814C244.143 0 247.889 1.58333 251.053 4.75C254.217 7.91667 255.798 11.6667 255.798 16V240C255.798 244.5 254.258 248.292 251.178 251.375C248.098 254.458 244.31 256 239.814 256ZM159.892 208.125C159.892 212.542 161.432 216.292 164.512 219.375C167.593 222.458 171.339 224 175.752 224C180.164 224 183.952 222.458 187.115 219.375C190.279 216.292 191.861 212.542 191.861 208.125C191.861 203.708 190.279 199.917 187.115 196.75C183.952 193.583 180.205 192 175.876 192C171.547 192 167.801 193.583 164.637 196.75C161.474 199.917 159.892 203.708 159.892 208.125ZM239.814 24C239.814 21.8333 239.023 19.9583 237.441 18.375C235.859 16.7917 233.986 16 231.822 16H167.884C165.72 16 163.846 16.7917 162.265 18.375C160.683 19.9583 159.892 21.8333 159.892 24V40C159.892 42.1667 160.683 44.0417 162.265 45.625C163.846 47.2083 165.72 48 167.884 48H231.822C233.986 48 235.859 47.2083 237.441 45.625C239.023 44.0417 239.814 42.1667 239.814 40V24ZM239.814 72C239.814 69.8333 239.023 67.9583 237.441 66.375C235.859 64.7917 233.986 64 231.822 64H167.884C165.72 64 163.846 64.7917 162.265 66.375C160.683 67.9583 159.892 69.8333 159.892 72V88C159.892 90.1667 160.683 92.0417 162.265 93.625C163.846 95.2083 165.72 96 167.884 96H231.822C233.986 96 235.859 95.2083 237.441 93.625C239.023 92.0417 239.814 90.1667 239.814 88V72ZM239.814 120C239.814 117.833 239.023 115.958 237.441 114.375C235.859 112.792 233.986 112 231.822 112H167.884C165.72 112 163.846 112.792 162.265 114.375C160.683 115.958 159.892 117.833 159.892 120V136C159.892 138.167 160.683 140.042 162.265 141.625C163.846 143.208 165.72 144 167.884 144H231.822C233.986 144 235.859 143.208 237.441 141.625C239.023 140.042 239.814 138.167 239.814 136V120ZM95.9544 256H16.0325C11.5369 256 7.74891 254.417 4.66858 251.25C1.58826 248.083 0.0480957 244.333 0.0480957 240V16C0.0480957 11.6667 1.58826 7.91667 4.66858 4.75C7.74891 1.58333 11.5369 0 16.0325 0H95.9544C100.45 0 104.238 1.58333 107.318 4.75C110.399 7.91667 111.939 11.6667 111.939 16V240C111.939 244.5 110.399 248.292 107.318 251.375C104.238 254.458 100.45 256 95.9544 256ZM16.0325 208.125C16.0325 212.542 17.5726 216.292 20.653 219.375C23.7333 222.458 27.5213 224 32.0169 224C36.5125 224 40.3005 222.458 43.3808 219.375C46.4611 216.292 48.0013 212.542 48.0013 208.125C48.0013 203.708 46.4611 199.917 43.3808 196.75C40.3005 193.583 36.5541 192 32.1418 192C27.7294 192 23.9414 193.583 20.7779 196.75C17.6143 199.917 16.0325 203.708 16.0325 208.125ZM95.9544 24C95.9544 21.8333 95.1635 19.9583 93.5818 18.375C92 16.7917 90.1268 16 87.9622 16H24.0247C21.8601 16 19.987 16.7917 18.4052 18.375C16.8234 19.9583 16.0325 21.8333 16.0325 24V40C16.0325 42.1667 16.8234 44.0417 18.4052 45.625C19.987 47.2083 21.8601 48 24.0247 48H87.9622C90.1268 48 92 47.2083 93.5818 45.625C95.1635 44.0417 95.9544 42.1667 95.9544 40V24ZM95.9544 72C95.9544 69.8333 95.1635 67.9583 93.5818 66.375C92 64.7917 90.1268 64 87.9622 64H24.0247C21.8601 64 19.987 64.7917 18.4052 66.375C16.8234 67.9583 16.0325 69.8333 16.0325 72V88C16.0325 90.1667 16.8234 92.0417 18.4052 93.625C19.987 95.2083 21.8601 96 24.0247 96H87.9622C90.1268 96 92 95.2083 93.5818 93.625C95.1635 92.0417 95.9544 90.1667 95.9544 88V72ZM95.9544 120C95.9544 117.833 95.1635 115.958 93.5818 114.375C92 112.792 90.1268 112 87.9622 112H24.0247C21.8601 112 19.987 112.792 18.4052 114.375C16.8234 115.958 16.0325 117.833 16.0325 120V136C16.0325 138.167 16.8234 140.042 18.4052 141.625C19.987 143.208 21.8601 144 24.0247 144H87.9622C90.1268 144 92 143.208 93.5818 141.625C95.1635 140.042 95.9544 138.167 95.9544 136V120Z" fill="#2396ED"/>
<path d="M22.4434 324.135H9.78711V332.705H24.6406V338H3.19531V306.008H24.5967V311.347H9.78711V318.972H22.4434V324.135ZM33.9351 314.226L34.1328 316.972C35.832 314.848 38.1099 313.786 40.9663 313.786C43.4858 313.786 45.3608 314.526 46.5913 316.005C47.8218 317.485 48.4517 319.697 48.481 322.641V338H42.1309V322.795C42.1309 321.447 41.8379 320.473 41.252 319.873C40.666 319.257 39.6919 318.95 38.3296 318.95C36.5425 318.95 35.2021 319.711 34.3086 321.235V338H27.9585V314.226H33.9351ZM62.2139 330.244L66.6304 314.226H73.2661L65.2461 338H59.1816L51.1616 314.226H57.7974L62.2139 330.244ZM82.7803 338H76.4082V314.226H82.7803V338ZM76.0347 308.073C76.0347 307.121 76.3496 306.337 76.9795 305.722C77.624 305.107 78.4956 304.799 79.5942 304.799C80.6782 304.799 81.5425 305.107 82.187 305.722C82.8315 306.337 83.1538 307.121 83.1538 308.073C83.1538 309.04 82.8242 309.831 82.165 310.446C81.5205 311.062 80.6636 311.369 79.5942 311.369C78.5249 311.369 77.6606 311.062 77.0015 310.446C76.3569 309.831 76.0347 309.04 76.0347 308.073ZM101.391 320.18C100.527 320.063 99.7651 320.004 99.106 320.004C96.7036 320.004 95.1289 320.817 94.3818 322.443V338H88.0317V314.226H94.0303L94.2061 317.06C95.4805 314.877 97.2456 313.786 99.5015 313.786C100.205 313.786 100.864 313.881 101.479 314.072L101.391 320.18ZM102.688 325.893C102.688 323.535 103.142 321.433 104.05 319.587C104.958 317.741 106.262 316.313 107.961 315.302C109.675 314.292 111.66 313.786 113.916 313.786C117.124 313.786 119.738 314.768 121.76 316.73C123.796 318.693 124.931 321.359 125.166 324.729L125.209 326.354C125.209 330.002 124.191 332.932 122.155 335.144C120.119 337.341 117.387 338.439 113.959 338.439C110.532 338.439 107.792 337.341 105.742 335.144C103.706 332.946 102.688 329.958 102.688 326.179V325.893ZM109.038 326.354C109.038 328.61 109.462 330.339 110.312 331.54C111.162 332.727 112.377 333.32 113.959 333.32C115.498 333.32 116.699 332.734 117.563 331.562C118.427 330.375 118.859 328.486 118.859 325.893C118.859 323.681 118.427 321.967 117.563 320.751C116.699 319.536 115.483 318.928 113.916 318.928C112.363 318.928 111.162 319.536 110.312 320.751C109.462 321.953 109.038 323.82 109.038 326.354ZM134.965 314.226L135.163 316.972C136.862 314.848 139.14 313.786 141.997 313.786C144.516 313.786 146.391 314.526 147.622 316.005C148.852 317.485 149.482 319.697 149.511 322.641V338H143.161V322.795C143.161 321.447 142.868 320.473 142.282 319.873C141.696 319.257 140.722 318.95 139.36 318.95C137.573 318.95 136.232 319.711 135.339 321.235V338H128.989V314.226H134.965ZM160.3 314.226L160.498 316.884C162.182 314.819 164.46 313.786 167.331 313.786C170.393 313.786 172.495 314.995 173.637 317.412C175.307 314.995 177.688 313.786 180.778 313.786C183.356 313.786 185.275 314.541 186.535 316.049C187.795 317.543 188.425 319.799 188.425 322.817V338H182.053V322.839C182.053 321.491 181.789 320.51 181.262 319.895C180.734 319.265 179.804 318.95 178.471 318.95C176.567 318.95 175.249 319.858 174.516 321.674L174.538 338H168.188V322.861C168.188 321.484 167.917 320.488 167.375 319.873C166.833 319.257 165.91 318.95 164.606 318.95C162.805 318.95 161.501 319.697 160.695 321.191V338H154.345V314.226H160.3ZM204.267 338.439C200.781 338.439 197.939 337.37 195.742 335.231C193.559 333.093 192.468 330.244 192.468 326.684V326.069C192.468 323.681 192.929 321.55 193.852 319.675C194.775 317.785 196.079 316.335 197.763 315.324C199.462 314.299 201.396 313.786 203.564 313.786C206.816 313.786 209.372 314.812 211.232 316.862C213.107 318.913 214.045 321.821 214.045 325.585V328.178H198.906C199.111 329.731 199.726 330.976 200.751 331.914C201.792 332.851 203.103 333.32 204.685 333.32C207.131 333.32 209.042 332.434 210.419 330.661L213.54 334.155C212.587 335.502 211.298 336.557 209.672 337.319C208.046 338.066 206.245 338.439 204.267 338.439ZM203.542 318.928C202.282 318.928 201.257 319.353 200.466 320.202C199.689 321.052 199.191 322.268 198.972 323.85H207.805V323.344C207.775 321.938 207.395 320.854 206.662 320.092C205.93 319.316 204.89 318.928 203.542 318.928ZM223.515 314.226L223.713 316.972C225.412 314.848 227.69 313.786 230.546 313.786C233.066 313.786 234.941 314.526 236.171 316.005C237.402 317.485 238.032 319.697 238.061 322.641V338H231.711V322.795C231.711 321.447 231.418 320.473 230.832 319.873C230.246 319.257 229.272 318.95 227.91 318.95C226.123 318.95 224.782 319.711 223.889 321.235V338H217.539V314.226H223.515ZM250.498 308.381V314.226H254.562V318.884H250.498V330.749C250.498 331.628 250.666 332.258 251.003 332.639C251.34 333.02 251.984 333.21 252.937 333.21C253.64 333.21 254.262 333.159 254.804 333.056V337.868C253.559 338.249 252.277 338.439 250.959 338.439C246.506 338.439 244.235 336.191 244.147 331.694V318.884H240.676V314.226H244.147V308.381H250.498ZM18.708 386.32C19.8799 386.32 20.832 385.998 21.5645 385.353C22.2969 384.708 22.6777 383.852 22.707 382.782H28.6616C28.647 384.394 28.2075 385.873 27.3433 387.221C26.479 388.554 25.2925 389.594 23.7837 390.341C22.2896 391.073 20.6343 391.439 18.8179 391.439C15.4194 391.439 12.7388 390.363 10.7759 388.209C8.81299 386.042 7.83154 383.053 7.83154 379.245V378.827C7.83154 375.165 8.80566 372.243 10.7539 370.06C12.7021 367.877 15.3755 366.786 18.7739 366.786C21.7476 366.786 24.1279 367.636 25.915 369.335C27.7168 371.02 28.6323 373.268 28.6616 376.081H22.707C22.6777 374.85 22.2969 373.854 21.5645 373.092C20.832 372.316 19.8652 371.928 18.6641 371.928C17.1846 371.928 16.064 372.47 15.3022 373.554C14.5552 374.623 14.1816 376.366 14.1816 378.783V379.442C14.1816 381.889 14.5552 383.646 15.3022 384.716C16.0493 385.785 17.1846 386.32 18.708 386.32ZM31.2983 378.893C31.2983 376.535 31.7524 374.433 32.6606 372.587C33.5688 370.741 34.8726 369.313 36.5718 368.302C38.2856 367.292 40.2705 366.786 42.5264 366.786C45.7344 366.786 48.3491 367.768 50.3706 369.73C52.4067 371.693 53.542 374.359 53.7764 377.729L53.8203 379.354C53.8203 383.002 52.8022 385.932 50.7661 388.144C48.73 390.341 45.998 391.439 42.5703 391.439C39.1426 391.439 36.4033 390.341 34.3525 388.144C32.3164 385.946 31.2983 382.958 31.2983 379.179V378.893ZM37.6484 379.354C37.6484 381.61 38.0732 383.339 38.9229 384.54C39.7725 385.727 40.9883 386.32 42.5703 386.32C44.1084 386.32 45.3096 385.734 46.1738 384.562C47.0381 383.375 47.4702 381.486 47.4702 378.893C47.4702 376.681 47.0381 374.967 46.1738 373.751C45.3096 372.536 44.0938 371.928 42.5264 371.928C40.9736 371.928 39.7725 372.536 38.9229 373.751C38.0732 374.953 37.6484 376.82 37.6484 379.354ZM63.5762 367.226L63.7739 369.972C65.4731 367.848 67.751 366.786 70.6074 366.786C73.127 366.786 75.002 367.526 76.2324 369.005C77.4629 370.485 78.0928 372.697 78.1221 375.641V391H71.772V375.795C71.772 374.447 71.479 373.473 70.8931 372.873C70.3071 372.257 69.333 371.95 67.9707 371.95C66.1836 371.95 64.8433 372.711 63.9497 374.235V391H57.5996V367.226H63.5762ZM95.832 384.43C95.832 383.654 95.4438 383.046 94.6675 382.606C93.9058 382.152 92.6753 381.75 90.9761 381.398C85.3218 380.211 82.4946 377.809 82.4946 374.191C82.4946 372.082 83.3662 370.324 85.1094 368.917C86.8672 367.497 89.1597 366.786 91.9868 366.786C95.0044 366.786 97.4141 367.497 99.2158 368.917C101.032 370.338 101.94 372.184 101.94 374.455H95.5903C95.5903 373.546 95.2974 372.799 94.7114 372.213C94.1255 371.613 93.21 371.312 91.9648 371.312C90.8955 371.312 90.0679 371.554 89.4819 372.038C88.896 372.521 88.603 373.136 88.603 373.883C88.603 374.586 88.9326 375.158 89.5918 375.597C90.2656 376.022 91.3936 376.396 92.9756 376.718C94.5576 377.025 95.8906 377.377 96.9746 377.772C100.329 379.003 102.006 381.134 102.006 384.167C102.006 386.334 101.076 388.092 99.2158 389.44C97.3555 390.773 94.9531 391.439 92.0088 391.439C90.0166 391.439 88.2441 391.088 86.6914 390.385C85.1533 389.667 83.9448 388.693 83.0659 387.462C82.187 386.217 81.7476 384.877 81.7476 383.441H87.7681C87.8267 384.569 88.2441 385.434 89.0205 386.034C89.7969 386.635 90.8369 386.935 92.1406 386.935C93.3564 386.935 94.272 386.708 94.8872 386.254C95.5171 385.785 95.832 385.177 95.832 384.43ZM112.817 391H106.445V367.226H112.817V391ZM106.071 361.073C106.071 360.121 106.386 359.337 107.016 358.722C107.661 358.107 108.532 357.799 109.631 357.799C110.715 357.799 111.579 358.107 112.224 358.722C112.868 359.337 113.19 360.121 113.19 361.073C113.19 362.04 112.861 362.831 112.202 363.446C111.557 364.062 110.7 364.369 109.631 364.369C108.562 364.369 107.697 364.062 107.038 363.446C106.394 362.831 106.071 362.04 106.071 361.073ZM130.944 384.43C130.944 383.654 130.556 383.046 129.78 382.606C129.018 382.152 127.788 381.75 126.088 381.398C120.434 380.211 117.607 377.809 117.607 374.191C117.607 372.082 118.479 370.324 120.222 368.917C121.979 367.497 124.272 366.786 127.099 366.786C130.117 366.786 132.526 367.497 134.328 368.917C136.145 370.338 137.053 372.184 137.053 374.455H130.703C130.703 373.546 130.41 372.799 129.824 372.213C129.238 371.613 128.322 371.312 127.077 371.312C126.008 371.312 125.18 371.554 124.594 372.038C124.008 372.521 123.715 373.136 123.715 373.883C123.715 374.586 124.045 375.158 124.704 375.597C125.378 376.022 126.506 376.396 128.088 376.718C129.67 377.025 131.003 377.377 132.087 377.772C135.441 379.003 137.119 381.134 137.119 384.167C137.119 386.334 136.188 388.092 134.328 389.44C132.468 390.773 130.065 391.439 127.121 391.439C125.129 391.439 123.356 391.088 121.804 390.385C120.266 389.667 119.057 388.693 118.178 387.462C117.299 386.217 116.86 384.877 116.86 383.441H122.88C122.939 384.569 123.356 385.434 124.133 386.034C124.909 386.635 125.949 386.935 127.253 386.935C128.469 386.935 129.384 386.708 130 386.254C130.629 385.785 130.944 385.177 130.944 384.43ZM148.83 361.381V367.226H152.895V371.884H148.83V383.749C148.83 384.628 148.999 385.258 149.335 385.639C149.672 386.02 150.317 386.21 151.269 386.21C151.972 386.21 152.595 386.159 153.137 386.056V390.868C151.892 391.249 150.61 391.439 149.292 391.439C144.838 391.439 142.568 389.191 142.48 384.694V371.884H139.008V367.226H142.48V361.381H148.83ZM167.375 391.439C163.889 391.439 161.047 390.37 158.85 388.231C156.667 386.093 155.576 383.244 155.576 379.684V379.069C155.576 376.681 156.037 374.55 156.96 372.675C157.883 370.785 159.187 369.335 160.871 368.324C162.57 367.299 164.504 366.786 166.672 366.786C169.924 366.786 172.48 367.812 174.34 369.862C176.215 371.913 177.153 374.821 177.153 378.585V381.178H162.014C162.219 382.731 162.834 383.976 163.859 384.914C164.899 385.851 166.21 386.32 167.792 386.32C170.239 386.32 172.15 385.434 173.527 383.661L176.647 387.155C175.695 388.502 174.406 389.557 172.78 390.319C171.154 391.066 169.353 391.439 167.375 391.439ZM166.65 371.928C165.39 371.928 164.365 372.353 163.574 373.202C162.797 374.052 162.299 375.268 162.08 376.85H170.913V376.344C170.883 374.938 170.502 373.854 169.77 373.092C169.038 372.316 167.998 371.928 166.65 371.928ZM186.623 367.226L186.821 369.972C188.52 367.848 190.798 366.786 193.654 366.786C196.174 366.786 198.049 367.526 199.279 369.005C200.51 370.485 201.14 372.697 201.169 375.641V391H194.819V375.795C194.819 374.447 194.526 373.473 193.94 372.873C193.354 372.257 192.38 371.95 191.018 371.95C189.23 371.95 187.89 372.711 186.997 374.235V391H180.646V367.226H186.623ZM215.891 386.32C217.062 386.32 218.015 385.998 218.747 385.353C219.479 384.708 219.86 383.852 219.89 382.782H225.844C225.83 384.394 225.39 385.873 224.526 387.221C223.662 388.554 222.475 389.594 220.966 390.341C219.472 391.073 217.817 391.439 216 391.439C212.602 391.439 209.921 390.363 207.958 388.209C205.996 386.042 205.014 383.053 205.014 379.245V378.827C205.014 375.165 205.988 372.243 207.937 370.06C209.885 367.877 212.558 366.786 215.957 366.786C218.93 366.786 221.311 367.636 223.098 369.335C224.899 371.02 225.815 373.268 225.844 376.081H219.89C219.86 374.85 219.479 373.854 218.747 373.092C218.015 372.316 217.048 371.928 215.847 371.928C214.367 371.928 213.247 372.47 212.485 373.554C211.738 374.623 211.364 376.366 211.364 378.783V379.442C211.364 381.889 211.738 383.646 212.485 384.716C213.232 385.785 214.367 386.32 215.891 386.32ZM238.347 382.013L242.741 367.226H249.553L239.995 394.691L239.467 395.944C238.046 399.049 235.703 400.602 232.436 400.602C231.513 400.602 230.576 400.463 229.624 400.185V395.373L230.59 395.395C231.792 395.395 232.685 395.211 233.271 394.845C233.872 394.479 234.34 393.871 234.677 393.021L235.424 391.066L227.097 367.226H233.93L238.347 382.013Z" fill="black"/>
<path d="M530.303 313.926H517.647V327H511.055V295.008H531.885V300.347H517.647V308.609H530.303V313.926ZM548.321 327C548.028 326.429 547.815 325.718 547.684 324.869C546.146 326.583 544.146 327.439 541.685 327.439C539.356 327.439 537.422 326.766 535.884 325.418C534.361 324.07 533.599 322.371 533.599 320.32C533.599 317.801 534.529 315.867 536.39 314.52C538.265 313.172 540.967 312.491 544.498 312.476H547.42V311.114C547.42 310.015 547.134 309.136 546.563 308.477C546.006 307.818 545.12 307.488 543.904 307.488C542.835 307.488 541.993 307.745 541.377 308.257C540.777 308.77 540.477 309.473 540.477 310.367H534.126C534.126 308.99 534.551 307.715 535.401 306.543C536.25 305.372 537.452 304.456 539.004 303.797C540.557 303.123 542.3 302.786 544.234 302.786C547.164 302.786 549.485 303.526 551.199 305.005C552.928 306.47 553.792 308.536 553.792 311.202V321.507C553.807 323.763 554.122 325.469 554.737 326.626V327H548.321ZM543.069 322.583C544.007 322.583 544.871 322.378 545.662 321.968C546.453 321.543 547.039 320.979 547.42 320.276V316.189H545.047C541.868 316.189 540.176 317.288 539.971 319.485L539.949 319.859C539.949 320.65 540.228 321.302 540.784 321.814C541.341 322.327 542.103 322.583 543.069 322.583ZM571.546 320.43C571.546 319.654 571.158 319.046 570.381 318.606C569.62 318.152 568.389 317.75 566.69 317.398C561.036 316.211 558.208 313.809 558.208 310.191C558.208 308.082 559.08 306.324 560.823 304.917C562.581 303.497 564.874 302.786 567.701 302.786C570.718 302.786 573.128 303.497 574.93 304.917C576.746 306.338 577.654 308.184 577.654 310.455H571.304C571.304 309.546 571.011 308.799 570.425 308.213C569.839 307.613 568.924 307.312 567.679 307.312C566.609 307.312 565.782 307.554 565.196 308.038C564.61 308.521 564.317 309.136 564.317 309.883C564.317 310.586 564.646 311.158 565.306 311.597C565.979 312.022 567.107 312.396 568.689 312.718C570.271 313.025 571.604 313.377 572.688 313.772C576.043 315.003 577.72 317.134 577.72 320.167C577.72 322.334 576.79 324.092 574.93 325.44C573.069 326.773 570.667 327.439 567.723 327.439C565.73 327.439 563.958 327.088 562.405 326.385C560.867 325.667 559.659 324.693 558.78 323.462C557.901 322.217 557.461 320.877 557.461 319.441H563.482C563.541 320.569 563.958 321.434 564.734 322.034C565.511 322.635 566.551 322.935 567.854 322.935C569.07 322.935 569.986 322.708 570.601 322.254C571.231 321.785 571.546 321.177 571.546 320.43ZM589.432 297.381V303.226H593.497V307.884H589.432V319.749C589.432 320.628 589.6 321.258 589.937 321.639C590.274 322.02 590.918 322.21 591.871 322.21C592.574 322.21 593.196 322.159 593.738 322.056V326.868C592.493 327.249 591.211 327.439 589.893 327.439C585.44 327.439 583.169 325.191 583.082 320.694V307.884H579.61V303.226H583.082V297.381H589.432ZM443.533 367.893C443.533 365.535 443.987 363.433 444.896 361.587C445.804 359.741 447.107 358.313 448.807 357.302C450.521 356.292 452.505 355.786 454.761 355.786C457.969 355.786 460.584 356.768 462.605 358.73C464.642 360.693 465.777 363.359 466.011 366.729L466.055 368.354C466.055 372.002 465.037 374.932 463.001 377.144C460.965 379.341 458.233 380.439 454.805 380.439C451.377 380.439 448.638 379.341 446.587 377.144C444.551 374.946 443.533 371.958 443.533 368.179V367.893ZM449.883 368.354C449.883 370.61 450.308 372.339 451.158 373.54C452.007 374.727 453.223 375.32 454.805 375.32C456.343 375.32 457.544 374.734 458.409 373.562C459.273 372.375 459.705 370.486 459.705 367.893C459.705 365.681 459.273 363.967 458.409 362.751C457.544 361.536 456.329 360.928 454.761 360.928C453.208 360.928 452.007 361.536 451.158 362.751C450.308 363.953 449.883 365.82 449.883 368.354ZM475.811 356.226L476.009 358.972C477.708 356.848 479.986 355.786 482.842 355.786C485.362 355.786 487.237 356.526 488.467 358.005C489.698 359.485 490.328 361.697 490.357 364.641V380H484.007V364.795C484.007 363.447 483.714 362.473 483.128 361.873C482.542 361.257 481.568 360.95 480.206 360.95C478.418 360.95 477.078 361.711 476.185 363.235V380H469.834V356.226H475.811ZM516.614 368.333C516.614 372.141 515.801 375.115 514.175 377.253C512.549 379.377 510.279 380.439 507.364 380.439C504.786 380.439 502.728 379.451 501.189 377.473L500.904 380H495.191V346.25H501.541V358.357C503.006 356.643 504.932 355.786 507.32 355.786C510.22 355.786 512.491 356.855 514.131 358.994C515.787 361.118 516.614 364.114 516.614 367.981V368.333ZM510.264 367.871C510.264 365.469 509.883 363.718 509.122 362.62C508.36 361.506 507.225 360.95 505.716 360.95C503.694 360.95 502.303 361.777 501.541 363.433V372.815C502.317 374.485 503.724 375.32 505.76 375.32C507.811 375.32 509.158 374.309 509.803 372.288C510.11 371.321 510.264 369.849 510.264 367.871ZM519.559 367.893C519.559 365.535 520.013 363.433 520.921 361.587C521.829 359.741 523.133 358.313 524.832 357.302C526.546 356.292 528.531 355.786 530.787 355.786C533.995 355.786 536.609 356.768 538.631 358.73C540.667 360.693 541.802 363.359 542.037 366.729L542.081 368.354C542.081 372.002 541.062 374.932 539.026 377.144C536.99 379.341 534.258 380.439 530.831 380.439C527.403 380.439 524.664 379.341 522.613 377.144C520.577 374.946 519.559 371.958 519.559 368.179V367.893ZM525.909 368.354C525.909 370.61 526.333 372.339 527.183 373.54C528.033 374.727 529.249 375.32 530.831 375.32C532.369 375.32 533.57 374.734 534.434 373.562C535.298 372.375 535.73 370.486 535.73 367.893C535.73 365.681 535.298 363.967 534.434 362.751C533.57 361.536 532.354 360.928 530.787 360.928C529.234 360.928 528.033 361.536 527.183 362.751C526.333 363.953 525.909 365.82 525.909 368.354ZM559.769 380C559.476 379.429 559.263 378.718 559.131 377.869C557.593 379.583 555.594 380.439 553.133 380.439C550.804 380.439 548.87 379.766 547.332 378.418C545.809 377.07 545.047 375.371 545.047 373.32C545.047 370.801 545.977 368.867 547.837 367.52C549.712 366.172 552.415 365.491 555.945 365.476H558.868V364.114C558.868 363.015 558.582 362.136 558.011 361.477C557.454 360.818 556.568 360.488 555.352 360.488C554.283 360.488 553.44 360.745 552.825 361.257C552.225 361.77 551.924 362.473 551.924 363.367H545.574C545.574 361.99 545.999 360.715 546.849 359.543C547.698 358.372 548.899 357.456 550.452 356.797C552.005 356.123 553.748 355.786 555.682 355.786C558.611 355.786 560.933 356.526 562.647 358.005C564.375 359.47 565.24 361.536 565.24 364.202V374.507C565.254 376.763 565.569 378.469 566.185 379.626V380H559.769ZM554.517 375.583C555.455 375.583 556.319 375.378 557.11 374.968C557.901 374.543 558.487 373.979 558.868 373.276V369.189H556.495C553.316 369.189 551.624 370.288 551.419 372.485L551.397 372.859C551.397 373.65 551.675 374.302 552.232 374.814C552.789 375.327 553.55 375.583 554.517 375.583ZM583.477 362.18C582.613 362.063 581.851 362.004 581.192 362.004C578.79 362.004 577.215 362.817 576.468 364.443V380H570.118V356.226H576.116L576.292 359.06C577.566 356.877 579.332 355.786 581.587 355.786C582.291 355.786 582.95 355.881 583.565 356.072L583.477 362.18ZM585.125 367.937C585.125 364.231 585.953 361.279 587.608 359.082C589.278 356.885 591.556 355.786 594.441 355.786C596.756 355.786 598.667 356.65 600.176 358.379V346.25H606.548V380H600.813L600.506 377.473C598.924 379.451 596.888 380.439 594.397 380.439C591.6 380.439 589.351 379.341 587.652 377.144C585.967 374.932 585.125 371.863 585.125 367.937ZM591.475 368.398C591.475 370.625 591.863 372.332 592.64 373.518C593.416 374.705 594.544 375.298 596.023 375.298C597.986 375.298 599.371 374.47 600.176 372.815V363.433C599.385 361.777 598.016 360.95 596.067 360.95C593.006 360.95 591.475 363.433 591.475 368.398ZM618.172 380H611.8V356.226H618.172V380ZM611.426 350.073C611.426 349.121 611.741 348.337 612.371 347.722C613.016 347.107 613.887 346.799 614.986 346.799C616.07 346.799 616.934 347.107 617.579 347.722C618.223 348.337 618.545 349.121 618.545 350.073C618.545 351.04 618.216 351.831 617.557 352.446C616.912 353.062 616.055 353.369 614.986 353.369C613.917 353.369 613.052 353.062 612.393 352.446C611.749 351.831 611.426 351.04 611.426 350.073ZM629.268 356.226L629.466 358.972C631.165 356.848 633.443 355.786 636.299 355.786C638.819 355.786 640.694 356.526 641.924 358.005C643.155 359.485 643.785 361.697 643.814 364.641V380H637.464V364.795C637.464 363.447 637.171 362.473 636.585 361.873C635.999 361.257 635.025 360.95 633.663 360.95C631.875 360.95 630.535 361.711 629.642 363.235V380H623.292V356.226H629.268ZM647.725 367.937C647.725 364.29 648.589 361.353 650.318 359.126C652.061 356.899 654.405 355.786 657.349 355.786C659.957 355.786 661.985 356.68 663.436 358.467L663.699 356.226H669.456V379.209C669.456 381.289 668.98 383.098 668.028 384.636C667.09 386.174 665.765 387.346 664.051 388.152C662.337 388.958 660.33 389.36 658.03 389.36C656.287 389.36 654.588 389.009 652.933 388.306C651.277 387.617 650.025 386.724 649.175 385.625L651.988 381.758C653.57 383.53 655.489 384.417 657.745 384.417C659.429 384.417 660.74 383.962 661.678 383.054C662.615 382.161 663.084 380.886 663.084 379.231V377.957C661.619 379.612 659.693 380.439 657.305 380.439C654.449 380.439 652.134 379.326 650.362 377.1C648.604 374.858 647.725 371.892 647.725 368.201V367.937ZM654.075 368.398C654.075 370.552 654.507 372.244 655.372 373.474C656.236 374.69 657.422 375.298 658.931 375.298C660.865 375.298 662.249 374.573 663.084 373.123V363.125C662.234 361.675 660.865 360.95 658.975 360.95C657.452 360.95 656.25 361.572 655.372 362.817C654.507 364.062 654.075 365.923 654.075 368.398Z" fill="black"/>
<path d="M985.303 313.926H972.647V327H966.055V295.008H986.885V300.347H972.647V308.609H985.303V313.926ZM1003.32 327C1003.03 326.429 1002.82 325.718 1002.68 324.869C1001.15 326.583 999.146 327.439 996.685 327.439C994.356 327.439 992.422 326.766 990.884 325.418C989.361 324.07 988.599 322.371 988.599 320.32C988.599 317.801 989.529 315.867 991.39 314.52C993.265 313.172 995.967 312.491 999.498 312.476H1002.42V311.114C1002.42 310.015 1002.13 309.136 1001.56 308.477C1001.01 307.818 1000.12 307.488 998.904 307.488C997.835 307.488 996.993 307.745 996.377 308.257C995.777 308.77 995.477 309.473 995.477 310.367H989.126C989.126 308.99 989.551 307.715 990.401 306.543C991.25 305.372 992.452 304.456 994.004 303.797C995.557 303.123 997.3 302.786 999.234 302.786C1002.16 302.786 1004.49 303.526 1006.2 305.005C1007.93 306.47 1008.79 308.536 1008.79 311.202V321.507C1008.81 323.763 1009.12 325.469 1009.74 326.626V327H1003.32ZM998.069 322.583C999.007 322.583 999.871 322.378 1000.66 321.968C1001.45 321.543 1002.04 320.979 1002.42 320.276V316.189H1000.05C996.868 316.189 995.176 317.288 994.971 319.485L994.949 319.859C994.949 320.65 995.228 321.302 995.784 321.814C996.341 322.327 997.103 322.583 998.069 322.583ZM1026.55 320.43C1026.55 319.654 1026.16 319.046 1025.38 318.606C1024.62 318.152 1023.39 317.75 1021.69 317.398C1016.04 316.211 1013.21 313.809 1013.21 310.191C1013.21 308.082 1014.08 306.324 1015.82 304.917C1017.58 303.497 1019.87 302.786 1022.7 302.786C1025.72 302.786 1028.13 303.497 1029.93 304.917C1031.75 306.338 1032.65 308.184 1032.65 310.455H1026.3C1026.3 309.546 1026.01 308.799 1025.43 308.213C1024.84 307.613 1023.92 307.312 1022.68 307.312C1021.61 307.312 1020.78 307.554 1020.2 308.038C1019.61 308.521 1019.32 309.136 1019.32 309.883C1019.32 310.586 1019.65 311.158 1020.31 311.597C1020.98 312.022 1022.11 312.396 1023.69 312.718C1025.27 313.025 1026.6 313.377 1027.69 313.772C1031.04 315.003 1032.72 317.134 1032.72 320.167C1032.72 322.334 1031.79 324.092 1029.93 325.44C1028.07 326.773 1025.67 327.439 1022.72 327.439C1020.73 327.439 1018.96 327.088 1017.41 326.385C1015.87 325.667 1014.66 324.693 1013.78 323.462C1012.9 322.217 1012.46 320.877 1012.46 319.441H1018.48C1018.54 320.569 1018.96 321.434 1019.73 322.034C1020.51 322.635 1021.55 322.935 1022.85 322.935C1024.07 322.935 1024.99 322.708 1025.6 322.254C1026.23 321.785 1026.55 321.177 1026.55 320.43ZM1044.43 297.381V303.226H1048.5V307.884H1044.43V319.749C1044.43 320.628 1044.6 321.258 1044.94 321.639C1045.27 322.02 1045.92 322.21 1046.87 322.21C1047.57 322.21 1048.2 322.159 1048.74 322.056V326.868C1047.49 327.249 1046.21 327.439 1044.89 327.439C1040.44 327.439 1038.17 325.191 1038.08 320.694V307.884H1034.61V303.226H1038.08V297.381H1044.43ZM940.369 373.43C940.369 372.654 939.981 372.046 939.205 371.606C938.443 371.152 937.212 370.75 935.513 370.398C929.859 369.211 927.032 366.809 927.032 363.191C927.032 361.082 927.903 359.324 929.646 357.917C931.404 356.497 933.697 355.786 936.524 355.786C939.542 355.786 941.951 356.497 943.753 357.917C945.569 359.338 946.478 361.184 946.478 363.455H940.127C940.127 362.546 939.834 361.799 939.249 361.213C938.663 360.613 937.747 360.312 936.502 360.312C935.433 360.312 934.605 360.554 934.019 361.038C933.433 361.521 933.14 362.136 933.14 362.883C933.14 363.586 933.47 364.158 934.129 364.597C934.803 365.022 935.931 365.396 937.513 365.718C939.095 366.025 940.428 366.377 941.512 366.772C944.866 368.003 946.543 370.134 946.543 373.167C946.543 375.334 945.613 377.092 943.753 378.44C941.893 379.773 939.49 380.439 936.546 380.439C934.554 380.439 932.781 380.088 931.229 379.385C929.69 378.667 928.482 377.693 927.603 376.462C926.724 375.217 926.285 373.877 926.285 372.441H932.305C932.364 373.569 932.781 374.434 933.558 375.034C934.334 375.635 935.374 375.935 936.678 375.935C937.894 375.935 938.809 375.708 939.424 375.254C940.054 374.785 940.369 374.177 940.369 373.43ZM956.849 358.818C958.533 356.797 960.65 355.786 963.199 355.786C968.355 355.786 970.97 358.782 971.043 364.773V380H964.693V364.949C964.693 363.586 964.4 362.583 963.814 361.938C963.228 361.279 962.254 360.95 960.892 360.95C959.031 360.95 957.684 361.667 956.849 363.103V380H950.499V346.25H956.849V358.818ZM982.535 380H976.163V356.226H982.535V380ZM975.789 350.073C975.789 349.121 976.104 348.337 976.734 347.722C977.378 347.107 978.25 346.799 979.349 346.799C980.433 346.799 981.297 347.107 981.941 347.722C982.586 348.337 982.908 349.121 982.908 350.073C982.908 351.04 982.579 351.831 981.919 352.446C981.275 353.062 980.418 353.369 979.349 353.369C978.279 353.369 977.415 353.062 976.756 352.446C976.111 351.831 975.789 351.04 975.789 350.073ZM1009.19 368.333C1009.19 371.995 1008.35 374.932 1006.68 377.144C1005.03 379.341 1002.79 380.439 999.959 380.439C997.557 380.439 995.616 379.604 994.136 377.935V389.141H987.786V356.226H993.675L993.895 358.555C995.433 356.709 997.439 355.786 999.915 355.786C1002.84 355.786 1005.12 356.87 1006.75 359.038C1008.37 361.206 1009.19 364.194 1009.19 368.003V368.333ZM1002.84 367.871C1002.84 365.659 1002.44 363.953 1001.65 362.751C1000.87 361.55 999.739 360.95 998.245 360.95C996.253 360.95 994.883 361.711 994.136 363.235V372.969C994.913 374.536 996.297 375.32 998.289 375.32C1001.32 375.32 1002.84 372.837 1002.84 367.871ZM1034.54 368.333C1034.54 371.995 1033.71 374.932 1032.04 377.144C1030.38 379.341 1028.14 380.439 1025.32 380.439C1022.91 380.439 1020.97 379.604 1019.49 377.935V389.141H1013.14V356.226H1019.03L1019.25 358.555C1020.79 356.709 1022.8 355.786 1025.27 355.786C1028.2 355.786 1030.48 356.87 1032.1 359.038C1033.73 361.206 1034.54 364.194 1034.54 368.003V368.333ZM1028.19 367.871C1028.19 365.659 1027.8 363.953 1027.01 362.751C1026.23 361.55 1025.1 360.95 1023.6 360.95C1021.61 360.95 1020.24 361.711 1019.49 363.235V372.969C1020.27 374.536 1021.65 375.32 1023.65 375.32C1026.68 375.32 1028.19 372.837 1028.19 367.871ZM1045.2 380H1038.83V356.226H1045.2V380ZM1038.46 350.073C1038.46 349.121 1038.77 348.337 1039.4 347.722C1040.04 347.107 1040.92 346.799 1042.01 346.799C1043.1 346.799 1043.96 347.107 1044.61 347.722C1045.25 348.337 1045.57 349.121 1045.57 350.073C1045.57 351.04 1045.24 351.831 1044.59 352.446C1043.94 353.062 1043.08 353.369 1042.01 353.369C1040.95 353.369 1040.08 353.062 1039.42 352.446C1038.78 351.831 1038.46 351.04 1038.46 350.073ZM1056.3 356.226L1056.49 358.972C1058.19 356.848 1060.47 355.786 1063.33 355.786C1065.85 355.786 1067.72 356.526 1068.95 358.005C1070.18 359.485 1070.81 361.697 1070.84 364.641V380H1064.49V364.795C1064.49 363.447 1064.2 362.473 1063.61 361.873C1063.03 361.257 1062.05 360.95 1060.69 360.95C1058.9 360.95 1057.56 361.711 1056.67 363.235V380H1050.32V356.226H1056.3ZM1074.75 367.937C1074.75 364.29 1075.62 361.353 1077.35 359.126C1079.09 356.899 1081.43 355.786 1084.38 355.786C1086.99 355.786 1089.01 356.68 1090.46 358.467L1090.73 356.226H1096.48V379.209C1096.48 381.289 1096.01 383.098 1095.06 384.636C1094.12 386.174 1092.79 387.346 1091.08 388.152C1089.37 388.958 1087.36 389.36 1085.06 389.36C1083.32 389.36 1081.62 389.009 1079.96 388.306C1078.31 387.617 1077.05 386.724 1076.2 385.625L1079.02 381.758C1080.6 383.53 1082.52 384.417 1084.77 384.417C1086.46 384.417 1087.77 383.962 1088.71 383.054C1089.64 382.161 1090.11 380.886 1090.11 379.231V377.957C1088.65 379.612 1086.72 380.439 1084.33 380.439C1081.48 380.439 1079.16 379.326 1077.39 377.1C1075.63 374.858 1074.75 371.892 1074.75 368.201V367.937ZM1081.1 368.398C1081.1 370.552 1081.54 372.244 1082.4 373.474C1083.26 374.69 1084.45 375.298 1085.96 375.298C1087.89 375.298 1089.28 374.573 1090.11 373.123V363.125C1089.26 361.675 1087.89 360.95 1086 360.95C1084.48 360.95 1083.28 361.572 1082.4 362.817C1081.54 364.062 1081.1 365.923 1081.1 368.398Z" fill="black"/>
<path d="M1360.29 331.408H1348.73L1346.53 338H1339.52L1351.43 306.008H1357.54L1369.52 338H1362.51L1360.29 331.408ZM1350.51 326.069H1358.51L1354.49 314.094L1350.51 326.069ZM1392.43 326.333C1392.43 329.995 1391.6 332.932 1389.93 335.144C1388.27 337.341 1386.03 338.439 1383.2 338.439C1380.8 338.439 1378.86 337.604 1377.38 335.935V347.141H1371.03V314.226H1376.92L1377.14 316.555C1378.68 314.709 1380.68 313.786 1383.16 313.786C1386.09 313.786 1388.37 314.87 1389.99 317.038C1391.62 319.206 1392.43 322.194 1392.43 326.003V326.333ZM1386.08 325.871C1386.08 323.659 1385.69 321.953 1384.9 320.751C1384.12 319.55 1382.98 318.95 1381.49 318.95C1379.5 318.95 1378.13 319.711 1377.38 321.235V330.969C1378.16 332.536 1379.54 333.32 1381.53 333.32C1384.57 333.32 1386.08 330.837 1386.08 325.871ZM1417.79 326.333C1417.79 329.995 1416.95 332.932 1415.28 335.144C1413.63 337.341 1411.39 338.439 1408.56 338.439C1406.16 338.439 1404.22 337.604 1402.74 335.935V347.141H1396.39V314.226H1402.28L1402.5 316.555C1404.03 314.709 1406.04 313.786 1408.52 313.786C1411.45 313.786 1413.72 314.87 1415.35 317.038C1416.98 319.206 1417.79 322.194 1417.79 326.003V326.333ZM1411.44 325.871C1411.44 323.659 1411.04 321.953 1410.25 320.751C1409.48 319.55 1408.34 318.95 1406.85 318.95C1404.85 318.95 1403.48 319.711 1402.74 321.235V330.969C1403.51 332.536 1404.9 333.32 1406.89 333.32C1409.92 333.32 1411.44 330.837 1411.44 325.871ZM1428.45 338H1422.07V304.25H1428.45V338ZM1440.4 338H1434.03V314.226H1440.4V338ZM1433.65 308.073C1433.65 307.121 1433.97 306.337 1434.6 305.722C1435.24 305.107 1436.11 304.799 1437.21 304.799C1438.3 304.799 1439.16 305.107 1439.81 305.722C1440.45 306.337 1440.77 307.121 1440.77 308.073C1440.77 309.04 1440.44 309.831 1439.78 310.446C1439.14 311.062 1438.28 311.369 1437.21 311.369C1436.14 311.369 1435.28 311.062 1434.62 310.446C1433.98 309.831 1433.65 309.04 1433.65 308.073ZM1455.54 333.32C1456.71 333.32 1457.66 332.998 1458.39 332.353C1459.13 331.708 1459.51 330.852 1459.54 329.782H1465.49C1465.48 331.394 1465.04 332.873 1464.17 334.221C1463.31 335.554 1462.12 336.594 1460.61 337.341C1459.12 338.073 1457.46 338.439 1455.65 338.439C1452.25 338.439 1449.57 337.363 1447.61 335.209C1445.64 333.042 1444.66 330.053 1444.66 326.245V325.827C1444.66 322.165 1445.64 319.243 1447.58 317.06C1449.53 314.877 1452.21 313.786 1455.6 313.786C1458.58 313.786 1460.96 314.636 1462.75 316.335C1464.55 318.02 1465.46 320.268 1465.49 323.081H1459.54C1459.51 321.85 1459.13 320.854 1458.39 320.092C1457.66 319.316 1456.7 318.928 1455.49 318.928C1454.01 318.928 1452.89 319.47 1452.13 320.554C1451.39 321.623 1451.01 323.366 1451.01 325.783V326.442C1451.01 328.889 1451.39 330.646 1452.13 331.716C1452.88 332.785 1454.01 333.32 1455.54 333.32ZM1482.89 338C1482.6 337.429 1482.39 336.718 1482.26 335.869C1480.72 337.583 1478.72 338.439 1476.26 338.439C1473.93 338.439 1472 337.766 1470.46 336.418C1468.93 335.07 1468.17 333.371 1468.17 331.32C1468.17 328.801 1469.1 326.867 1470.96 325.52C1472.84 324.172 1475.54 323.491 1479.07 323.476H1481.99V322.114C1481.99 321.015 1481.71 320.136 1481.14 319.477C1480.58 318.818 1479.69 318.488 1478.48 318.488C1477.41 318.488 1476.57 318.745 1475.95 319.257C1475.35 319.77 1475.05 320.473 1475.05 321.367H1468.7C1468.7 319.99 1469.12 318.715 1469.97 317.543C1470.82 316.372 1472.02 315.456 1473.58 314.797C1475.13 314.123 1476.87 313.786 1478.81 313.786C1481.74 313.786 1484.06 314.526 1485.77 316.005C1487.5 317.47 1488.37 319.536 1488.37 322.202V332.507C1488.38 334.763 1488.69 336.469 1489.31 337.626V338H1482.89ZM1477.64 333.583C1478.58 333.583 1479.44 333.378 1480.24 332.968C1481.03 332.543 1481.61 331.979 1481.99 331.276V327.189H1479.62C1476.44 327.189 1474.75 328.288 1474.54 330.485L1474.52 330.859C1474.52 331.65 1474.8 332.302 1475.36 332.814C1475.91 333.327 1476.68 333.583 1477.64 333.583ZM1500.85 308.381V314.226H1504.91V318.884H1500.85V330.749C1500.85 331.628 1501.01 332.258 1501.35 332.639C1501.69 333.02 1502.33 333.21 1503.28 333.21C1503.99 333.21 1504.61 333.159 1505.15 333.056V337.868C1503.91 338.249 1502.63 338.439 1501.31 338.439C1496.85 338.439 1494.58 336.191 1494.5 331.694V318.884H1491.02V314.226H1494.5V308.381H1500.85ZM1515.15 338H1508.78V314.226H1515.15V338ZM1508.4 308.073C1508.4 307.121 1508.72 306.337 1509.35 305.722C1509.99 305.107 1510.87 304.799 1511.96 304.799C1513.05 304.799 1513.91 305.107 1514.56 305.722C1515.2 306.337 1515.52 307.121 1515.52 308.073C1515.52 309.04 1515.19 309.831 1514.53 310.446C1513.89 311.062 1513.03 311.369 1511.96 311.369C1510.89 311.369 1510.03 311.062 1509.37 310.446C1508.73 309.831 1508.4 309.04 1508.4 308.073ZM1519.41 325.893C1519.41 323.535 1519.87 321.433 1520.77 319.587C1521.68 317.741 1522.99 316.313 1524.69 315.302C1526.4 314.292 1528.38 313.786 1530.64 313.786C1533.85 313.786 1536.46 314.768 1538.48 316.73C1540.52 318.693 1541.66 321.359 1541.89 324.729L1541.93 326.354C1541.93 330.002 1540.92 332.932 1538.88 335.144C1536.84 337.341 1534.11 338.439 1530.68 338.439C1527.26 338.439 1524.52 337.341 1522.47 335.144C1520.43 332.946 1519.41 329.958 1519.41 326.179V325.893ZM1525.76 326.354C1525.76 328.61 1526.19 330.339 1527.04 331.54C1527.89 332.727 1529.1 333.32 1530.68 333.32C1532.22 333.32 1533.42 332.734 1534.29 331.562C1535.15 330.375 1535.58 328.486 1535.58 325.893C1535.58 323.681 1535.15 321.967 1534.29 320.751C1533.42 319.536 1532.21 318.928 1530.64 318.928C1529.09 318.928 1527.89 319.536 1527.04 320.751C1526.19 321.953 1525.76 323.82 1525.76 326.354ZM1551.69 314.226L1551.89 316.972C1553.59 314.848 1555.87 313.786 1558.72 313.786C1561.24 313.786 1563.12 314.526 1564.35 316.005C1565.58 317.485 1566.21 319.697 1566.24 322.641V338H1559.89V322.795C1559.89 321.447 1559.59 320.473 1559.01 319.873C1558.42 319.257 1557.45 318.95 1556.08 318.95C1554.3 318.95 1552.96 319.711 1552.06 321.235V338H1545.71V314.226H1551.69ZM1378.57 386.32C1379.74 386.32 1380.69 385.998 1381.42 385.353C1382.16 384.708 1382.54 383.852 1382.57 382.782H1388.52C1388.51 384.394 1388.07 385.873 1387.2 387.221C1386.34 388.554 1385.15 389.594 1383.64 390.341C1382.15 391.073 1380.49 391.439 1378.68 391.439C1375.28 391.439 1372.6 390.363 1370.64 388.209C1368.67 386.042 1367.69 383.053 1367.69 379.245V378.827C1367.69 375.165 1368.67 372.243 1370.61 370.06C1372.56 367.877 1375.24 366.786 1378.63 366.786C1381.61 366.786 1383.99 367.636 1385.77 369.335C1387.58 371.02 1388.49 373.268 1388.52 376.081H1382.57C1382.54 374.85 1382.16 373.854 1381.42 373.092C1380.69 372.316 1379.73 371.928 1378.52 371.928C1377.04 371.928 1375.92 372.47 1375.16 373.554C1374.42 374.623 1374.04 376.366 1374.04 378.783V379.442C1374.04 381.889 1374.42 383.646 1375.16 384.716C1375.91 385.785 1377.04 386.32 1378.57 386.32ZM1391.16 378.893C1391.16 376.535 1391.61 374.433 1392.52 372.587C1393.43 370.741 1394.73 369.313 1396.43 368.302C1398.15 367.292 1400.13 366.786 1402.39 366.786C1405.59 366.786 1408.21 367.768 1410.23 369.73C1412.27 371.693 1413.4 374.359 1413.64 377.729L1413.68 379.354C1413.68 383.002 1412.66 385.932 1410.63 388.144C1408.59 390.341 1405.86 391.439 1402.43 391.439C1399 391.439 1396.26 390.341 1394.21 388.144C1392.18 385.946 1391.16 382.958 1391.16 379.179V378.893ZM1397.51 379.354C1397.51 381.61 1397.93 383.339 1398.78 384.54C1399.63 385.727 1400.85 386.32 1402.43 386.32C1403.97 386.32 1405.17 385.734 1406.03 384.562C1406.9 383.375 1407.33 381.486 1407.33 378.893C1407.33 376.681 1406.9 374.967 1406.03 373.751C1405.17 372.536 1403.95 371.928 1402.39 371.928C1400.83 371.928 1399.63 372.536 1398.78 373.751C1397.93 374.953 1397.51 376.82 1397.51 379.354ZM1423.44 367.226L1423.63 369.972C1425.33 367.848 1427.61 366.786 1430.47 366.786C1432.99 366.786 1434.86 367.526 1436.09 369.005C1437.32 370.485 1437.95 372.697 1437.98 375.641V391H1431.63V375.795C1431.63 374.447 1431.34 373.473 1430.75 372.873C1430.17 372.257 1429.19 371.95 1427.83 371.95C1426.04 371.95 1424.7 372.711 1423.81 374.235V391H1417.46V367.226H1423.44ZM1458.75 362.172C1457.49 362.025 1456.31 361.952 1455.23 361.952C1452.36 361.952 1450.92 363.175 1450.92 365.622V367.226H1455.65V371.884H1450.92V391H1444.55V371.884H1441.01V367.226H1444.55V365.38C1444.58 362.626 1445.45 360.509 1447.14 359.03C1448.84 357.536 1451.25 356.789 1454.35 356.789C1456.56 356.789 1460.15 357.023 1465.12 357.492V391H1458.75V362.172ZM1477.12 391H1470.74V367.226H1477.12V391ZM1470.37 361.073C1470.37 360.121 1470.68 359.337 1471.31 358.722C1471.96 358.107 1472.83 357.799 1473.93 357.799C1475.01 357.799 1475.88 358.107 1476.52 358.722C1477.17 359.337 1477.49 360.121 1477.49 361.073C1477.49 362.04 1477.16 362.831 1476.5 363.446C1475.86 364.062 1475 364.369 1473.93 364.369C1472.86 364.369 1472 364.062 1471.34 363.446C1470.69 362.831 1470.37 362.04 1470.37 361.073ZM1492.25 386.32C1493.43 386.32 1494.38 385.998 1495.11 385.353C1495.84 384.708 1496.22 383.852 1496.25 382.782H1502.21C1502.19 384.394 1501.75 385.873 1500.89 387.221C1500.03 388.554 1498.84 389.594 1497.33 390.341C1495.84 391.073 1494.18 391.439 1492.36 391.439C1488.97 391.439 1486.29 390.363 1484.32 388.209C1482.36 386.042 1481.38 383.053 1481.38 379.245V378.827C1481.38 375.165 1482.35 372.243 1484.3 370.06C1486.25 367.877 1488.92 366.786 1492.32 366.786C1495.29 366.786 1497.67 367.636 1499.46 369.335C1501.26 371.02 1502.18 373.268 1502.21 376.081H1496.25C1496.22 374.85 1495.84 373.854 1495.11 373.092C1494.38 372.316 1493.41 371.928 1492.21 371.928C1490.73 371.928 1489.61 372.47 1488.85 373.554C1488.1 374.623 1487.73 376.366 1487.73 378.783V379.442C1487.73 381.889 1488.1 383.646 1488.85 384.716C1489.6 385.785 1490.73 386.32 1492.25 386.32ZM1513.44 361.381V367.226H1517.5V371.884H1513.44V383.749C1513.44 384.628 1513.6 385.258 1513.94 385.639C1514.28 386.02 1514.92 386.21 1515.88 386.21C1516.58 386.21 1517.2 386.159 1517.74 386.056V390.868C1516.5 391.249 1515.22 391.439 1513.9 391.439C1509.44 391.439 1507.17 389.191 1507.09 384.694V371.884H1503.61V367.226H1507.09V361.381H1513.44ZM1533.91 384.43C1533.91 383.654 1533.53 383.046 1532.75 382.606C1531.99 382.152 1530.76 381.75 1529.06 381.398C1523.4 380.211 1520.58 377.809 1520.58 374.191C1520.58 372.082 1521.45 370.324 1523.19 368.917C1524.95 367.497 1527.24 366.786 1530.07 366.786C1533.09 366.786 1535.5 367.497 1537.3 368.917C1539.11 370.338 1540.02 372.184 1540.02 374.455H1533.67C1533.67 373.546 1533.38 372.799 1532.79 372.213C1532.21 371.613 1531.29 371.312 1530.05 371.312C1528.98 371.312 1528.15 371.554 1527.56 372.038C1526.98 372.521 1526.69 373.136 1526.69 373.883C1526.69 374.586 1527.02 375.158 1527.67 375.597C1528.35 376.022 1529.48 376.396 1531.06 376.718C1532.64 377.025 1533.97 377.377 1535.06 377.772C1538.41 379.003 1540.09 381.134 1540.09 384.167C1540.09 386.334 1539.16 388.092 1537.3 389.44C1535.44 390.773 1533.04 391.439 1530.09 391.439C1528.1 391.439 1526.33 391.088 1524.77 390.385C1523.24 389.667 1522.03 388.693 1521.15 387.462C1520.27 386.217 1519.83 384.877 1519.83 383.441H1525.85C1525.91 384.569 1526.33 385.434 1527.1 386.034C1527.88 386.635 1528.92 386.935 1530.22 386.935C1531.44 386.935 1532.35 386.708 1532.97 386.254C1533.6 385.785 1533.91 385.177 1533.91 384.43Z" fill="black"/>
<path d="M1792.15 338H1785.56V306.008H1792.15V338ZM1810.74 331.43C1810.74 330.654 1810.35 330.046 1809.58 329.606C1808.81 329.152 1807.58 328.75 1805.88 328.398C1800.23 327.211 1797.4 324.809 1797.4 321.191C1797.4 319.082 1798.27 317.324 1800.02 315.917C1801.78 314.497 1804.07 313.786 1806.9 313.786C1809.91 313.786 1812.32 314.497 1814.12 315.917C1815.94 317.338 1816.85 319.184 1816.85 321.455H1810.5C1810.5 320.546 1810.21 319.799 1809.62 319.213C1809.03 318.613 1808.12 318.312 1806.87 318.312C1805.8 318.312 1804.98 318.554 1804.39 319.038C1803.8 319.521 1803.51 320.136 1803.51 320.883C1803.51 321.586 1803.84 322.158 1804.5 322.597C1805.17 323.022 1806.3 323.396 1807.88 323.718C1809.47 324.025 1810.8 324.377 1811.88 324.772C1815.24 326.003 1816.92 328.134 1816.92 331.167C1816.92 333.334 1815.98 335.092 1814.12 336.44C1812.26 337.773 1809.86 338.439 1806.92 338.439C1804.93 338.439 1803.15 338.088 1801.6 337.385C1800.06 336.667 1798.85 335.693 1797.97 334.462C1797.1 333.217 1796.66 331.877 1796.66 330.441H1802.68C1802.74 331.569 1803.15 332.434 1803.93 333.034C1804.71 333.635 1805.75 333.935 1807.05 333.935C1808.27 333.935 1809.18 333.708 1809.8 333.254C1810.43 332.785 1810.74 332.177 1810.74 331.43ZM1820.04 325.893C1820.04 323.535 1820.49 321.433 1821.4 319.587C1822.31 317.741 1823.61 316.313 1825.31 315.302C1827.02 314.292 1829.01 313.786 1831.26 313.786C1834.47 313.786 1837.09 314.768 1839.11 316.73C1841.14 318.693 1842.28 321.359 1842.51 324.729L1842.56 326.354C1842.56 330.002 1841.54 332.932 1839.5 335.144C1837.47 337.341 1834.73 338.439 1831.31 338.439C1827.88 338.439 1825.14 337.341 1823.09 335.144C1821.05 332.946 1820.04 329.958 1820.04 326.179V325.893ZM1826.39 326.354C1826.39 328.61 1826.81 330.339 1827.66 331.54C1828.51 332.727 1829.73 333.32 1831.31 333.32C1832.85 333.32 1834.05 332.734 1834.91 331.562C1835.77 330.375 1836.21 328.486 1836.21 325.893C1836.21 323.681 1835.77 321.967 1834.91 320.751C1834.05 319.536 1832.83 318.928 1831.26 318.928C1829.71 318.928 1828.51 319.536 1827.66 320.751C1826.81 321.953 1826.39 323.82 1826.39 326.354ZM1853.17 338H1846.8V304.25H1853.17V338ZM1872.2 338C1871.91 337.429 1871.69 336.718 1871.56 335.869C1870.02 337.583 1868.02 338.439 1865.56 338.439C1863.23 338.439 1861.3 337.766 1859.76 336.418C1858.24 335.07 1857.48 333.371 1857.48 331.32C1857.48 328.801 1858.41 326.867 1860.27 325.52C1862.14 324.172 1864.84 323.491 1868.38 323.476H1871.3V322.114C1871.3 321.015 1871.01 320.136 1870.44 319.477C1869.88 318.818 1869 318.488 1867.78 318.488C1866.71 318.488 1865.87 318.745 1865.25 319.257C1864.65 319.77 1864.35 320.473 1864.35 321.367H1858C1858 319.99 1858.43 318.715 1859.28 317.543C1860.13 316.372 1861.33 315.456 1862.88 314.797C1864.43 314.123 1866.18 313.786 1868.11 313.786C1871.04 313.786 1873.36 314.526 1875.08 316.005C1876.81 317.47 1877.67 319.536 1877.67 322.202V332.507C1877.68 334.763 1878 336.469 1878.61 337.626V338H1872.2ZM1866.95 333.583C1867.88 333.583 1868.75 333.378 1869.54 332.968C1870.33 332.543 1870.92 331.979 1871.3 331.276V327.189H1868.92C1865.75 327.189 1864.05 328.288 1863.85 330.485L1863.83 330.859C1863.83 331.65 1864.1 332.302 1864.66 332.814C1865.22 333.327 1865.98 333.583 1866.95 333.583ZM1890.15 308.381V314.226H1894.21V318.884H1890.15V330.749C1890.15 331.628 1890.32 332.258 1890.66 332.639C1890.99 333.02 1891.64 333.21 1892.59 333.21C1893.29 333.21 1893.91 333.159 1894.46 333.056V337.868C1893.21 338.249 1891.93 338.439 1890.61 338.439C1886.16 338.439 1883.89 336.191 1883.8 331.694V318.884H1880.33V314.226H1883.8V308.381H1890.15ZM1904.45 338H1898.08V314.226H1904.45V338ZM1897.71 308.073C1897.71 307.121 1898.02 306.337 1898.65 305.722C1899.3 305.107 1900.17 304.799 1901.27 304.799C1902.35 304.799 1903.22 305.107 1903.86 305.722C1904.51 306.337 1904.83 307.121 1904.83 308.073C1904.83 309.04 1904.5 309.831 1903.84 310.446C1903.19 311.062 1902.34 311.369 1901.27 311.369C1900.2 311.369 1899.33 311.062 1898.68 310.446C1898.03 309.831 1897.71 309.04 1897.71 308.073ZM1908.72 325.893C1908.72 323.535 1909.17 321.433 1910.08 319.587C1910.99 317.741 1912.29 316.313 1913.99 315.302C1915.7 314.292 1917.69 313.786 1919.94 313.786C1923.15 313.786 1925.77 314.768 1927.79 316.73C1929.83 318.693 1930.96 321.359 1931.19 324.729L1931.24 326.354C1931.24 330.002 1930.22 332.932 1928.18 335.144C1926.15 337.341 1923.42 338.439 1919.99 338.439C1916.56 338.439 1913.82 337.341 1911.77 335.144C1909.73 332.946 1908.72 329.958 1908.72 326.179V325.893ZM1915.07 326.354C1915.07 328.61 1915.49 330.339 1916.34 331.54C1917.19 332.727 1918.41 333.32 1919.99 333.32C1921.53 333.32 1922.73 332.734 1923.59 331.562C1924.46 330.375 1924.89 328.486 1924.89 325.893C1924.89 323.681 1924.46 321.967 1923.59 320.751C1922.73 319.536 1921.51 318.928 1919.94 318.928C1918.39 318.928 1917.19 319.536 1916.34 320.751C1915.49 321.953 1915.07 323.82 1915.07 326.354ZM1940.99 314.226L1941.19 316.972C1942.89 314.848 1945.17 313.786 1948.03 313.786C1950.55 313.786 1952.42 314.526 1953.65 316.005C1954.88 317.485 1955.51 319.697 1955.54 322.641V338H1949.19V322.795C1949.19 321.447 1948.9 320.473 1948.31 319.873C1947.73 319.257 1946.75 318.95 1945.39 318.95C1943.6 318.95 1942.26 319.711 1941.37 321.235V338H1935.02V314.226H1940.99ZM1970.59 325.893C1970.59 323.535 1971.05 321.433 1971.95 319.587C1972.86 317.741 1974.17 316.313 1975.87 315.302C1977.58 314.292 1979.56 313.786 1981.82 313.786C1985.03 313.786 1987.64 314.768 1989.66 316.73C1991.7 318.693 1992.84 321.359 1993.07 324.729L1993.11 326.354C1993.11 330.002 1992.1 332.932 1990.06 335.144C1988.02 337.341 1985.29 338.439 1981.86 338.439C1978.44 338.439 1975.7 337.341 1973.65 335.144C1971.61 332.946 1970.59 329.958 1970.59 326.179V325.893ZM1976.94 326.354C1976.94 328.61 1977.37 330.339 1978.22 331.54C1979.07 332.727 1980.28 333.32 1981.86 333.32C1983.4 333.32 1984.6 332.734 1985.47 331.562C1986.33 330.375 1986.76 328.486 1986.76 325.893C1986.76 323.681 1986.33 321.967 1985.47 320.751C1984.6 319.536 1983.39 318.928 1981.82 318.928C1980.27 318.928 1979.07 319.536 1978.22 320.751C1977.37 321.953 1976.94 323.82 1976.94 326.354ZM1998.76 338V318.884H1995.22V314.226H1998.76V312.204C1998.76 309.538 1999.52 307.473 2001.05 306.008C2002.58 304.528 2004.73 303.789 2007.48 303.789C2008.36 303.789 2009.44 303.935 2010.71 304.228L2010.65 309.15C2010.12 309.018 2009.48 308.952 2008.71 308.952C2006.33 308.952 2005.13 310.073 2005.13 312.314V314.226H2009.86V318.884H2005.13V338H1998.76ZM1756.71 378.937C1756.71 375.231 1757.54 372.279 1759.19 370.082C1760.86 367.885 1763.14 366.786 1766.03 366.786C1768.34 366.786 1770.25 367.65 1771.76 369.379V357.25H1778.13V391H1772.4L1772.09 388.473C1770.51 390.451 1768.47 391.439 1765.98 391.439C1763.18 391.439 1760.94 390.341 1759.24 388.144C1757.55 385.932 1756.71 382.863 1756.71 378.937ZM1763.06 379.398C1763.06 381.625 1763.45 383.332 1764.22 384.518C1765 385.705 1766.13 386.298 1767.61 386.298C1769.57 386.298 1770.96 385.47 1771.76 383.815V374.433C1770.97 372.777 1769.6 371.95 1767.65 371.95C1764.59 371.95 1763.06 374.433 1763.06 379.398ZM1794 391.439C1790.51 391.439 1787.67 390.37 1785.47 388.231C1783.29 386.093 1782.2 383.244 1782.2 379.684V379.069C1782.2 376.681 1782.66 374.55 1783.58 372.675C1784.51 370.785 1785.81 369.335 1787.49 368.324C1789.19 367.299 1791.13 366.786 1793.29 366.786C1796.55 366.786 1799.1 367.812 1800.96 369.862C1802.84 371.913 1803.78 374.821 1803.78 378.585V381.178H1788.64C1788.84 382.731 1789.46 383.976 1790.48 384.914C1791.52 385.851 1792.83 386.32 1794.42 386.32C1796.86 386.32 1798.77 385.434 1800.15 383.661L1803.27 387.155C1802.32 388.502 1801.03 389.557 1799.4 390.319C1797.78 391.066 1795.98 391.439 1794 391.439ZM1793.27 371.928C1792.01 371.928 1790.99 372.353 1790.2 373.202C1789.42 374.052 1788.92 375.268 1788.7 376.85H1797.54V376.344C1797.51 374.938 1797.12 373.854 1796.39 373.092C1795.66 372.316 1794.62 371.928 1793.27 371.928ZM1828.8 379.333C1828.8 382.995 1827.97 385.932 1826.3 388.144C1824.64 390.341 1822.4 391.439 1819.57 391.439C1817.17 391.439 1815.23 390.604 1813.75 388.935V400.141H1807.4V367.226H1813.29L1813.51 369.555C1815.05 367.709 1817.05 366.786 1819.53 366.786C1822.46 366.786 1824.74 367.87 1826.36 370.038C1827.99 372.206 1828.8 375.194 1828.8 379.003V379.333ZM1822.45 378.871C1822.45 376.659 1822.06 374.953 1821.27 373.751C1820.49 372.55 1819.35 371.95 1817.86 371.95C1815.87 371.95 1814.5 372.711 1813.75 374.235V383.969C1814.53 385.536 1815.91 386.32 1817.9 386.32C1820.94 386.32 1822.45 383.837 1822.45 378.871ZM1843.7 391.439C1840.21 391.439 1837.37 390.37 1835.17 388.231C1832.99 386.093 1831.9 383.244 1831.9 379.684V379.069C1831.9 376.681 1832.36 374.55 1833.28 372.675C1834.21 370.785 1835.51 369.335 1837.2 368.324C1838.9 367.299 1840.83 366.786 1843 366.786C1846.25 366.786 1848.8 367.812 1850.67 369.862C1852.54 371.913 1853.48 374.821 1853.48 378.585V381.178H1838.34C1838.54 382.731 1839.16 383.976 1840.18 384.914C1841.22 385.851 1842.54 386.32 1844.12 386.32C1846.56 386.32 1848.48 385.434 1849.85 383.661L1852.97 387.155C1852.02 388.502 1850.73 389.557 1849.1 390.319C1847.48 391.066 1845.68 391.439 1843.7 391.439ZM1842.97 371.928C1841.71 371.928 1840.69 372.353 1839.9 373.202C1839.12 374.052 1838.62 375.268 1838.4 376.85H1847.24V376.344C1847.21 374.938 1846.83 373.854 1846.09 373.092C1845.36 372.316 1844.32 371.928 1842.97 371.928ZM1862.95 367.226L1863.15 369.972C1864.84 367.848 1867.12 366.786 1869.98 366.786C1872.5 366.786 1874.37 367.526 1875.6 369.005C1876.83 370.485 1877.46 372.697 1877.49 375.641V391H1871.14V375.795C1871.14 374.447 1870.85 373.473 1870.26 372.873C1869.68 372.257 1868.7 371.95 1867.34 371.95C1865.56 371.95 1864.21 372.711 1863.32 374.235V391H1856.97V367.226H1862.95ZM1881.34 378.937C1881.34 375.231 1882.17 372.279 1883.82 370.082C1885.49 367.885 1887.77 366.786 1890.66 366.786C1892.97 366.786 1894.88 367.65 1896.39 369.379V357.25H1902.76V391H1897.03L1896.72 388.473C1895.14 390.451 1893.1 391.439 1890.61 391.439C1887.81 391.439 1885.56 390.341 1883.87 388.144C1882.18 385.932 1881.34 382.863 1881.34 378.937ZM1887.69 379.398C1887.69 381.625 1888.08 383.332 1888.85 384.518C1889.63 385.705 1890.76 386.298 1892.24 386.298C1894.2 386.298 1895.58 385.47 1896.39 383.815V374.433C1895.6 372.777 1894.23 371.95 1892.28 371.95C1889.22 371.95 1887.69 374.433 1887.69 379.398ZM1918.63 391.439C1915.14 391.439 1912.3 390.37 1910.1 388.231C1907.92 386.093 1906.83 383.244 1906.83 379.684V379.069C1906.83 376.681 1907.29 374.55 1908.21 372.675C1909.13 370.785 1910.44 369.335 1912.12 368.324C1913.82 367.299 1915.76 366.786 1917.92 366.786C1921.18 366.786 1923.73 367.812 1925.59 369.862C1927.47 371.913 1928.4 374.821 1928.4 378.585V381.178H1913.27C1913.47 382.731 1914.09 383.976 1915.11 384.914C1916.15 385.851 1917.46 386.32 1919.04 386.32C1921.49 386.32 1923.4 385.434 1924.78 383.661L1927.9 387.155C1926.95 388.502 1925.66 389.557 1924.03 390.319C1922.41 391.066 1920.6 391.439 1918.63 391.439ZM1917.9 371.928C1916.64 371.928 1915.62 372.353 1914.83 373.202C1914.05 374.052 1913.55 375.268 1913.33 376.85H1922.16V376.344C1922.13 374.938 1921.75 373.854 1921.02 373.092C1920.29 372.316 1919.25 371.928 1917.9 371.928ZM1937.87 367.226L1938.07 369.972C1939.77 367.848 1942.05 366.786 1944.91 366.786C1947.43 366.786 1949.3 367.526 1950.53 369.005C1951.76 370.485 1952.39 372.697 1952.42 375.641V391H1946.07V375.795C1946.07 374.447 1945.78 373.473 1945.19 372.873C1944.61 372.257 1943.63 371.95 1942.27 371.95C1940.48 371.95 1939.14 372.711 1938.25 374.235V391H1931.9V367.226H1937.87ZM1967.14 386.32C1968.31 386.32 1969.27 385.998 1970 385.353C1970.73 384.708 1971.11 383.852 1971.14 382.782H1977.1C1977.08 384.394 1976.64 385.873 1975.78 387.221C1974.91 388.554 1973.73 389.594 1972.22 390.341C1970.72 391.073 1969.07 391.439 1967.25 391.439C1963.85 391.439 1961.17 390.363 1959.21 388.209C1957.25 386.042 1956.27 383.053 1956.27 379.245V378.827C1956.27 375.165 1957.24 372.243 1959.19 370.06C1961.14 367.877 1963.81 366.786 1967.21 366.786C1970.18 366.786 1972.56 367.636 1974.35 369.335C1976.15 371.02 1977.07 373.268 1977.1 376.081H1971.14C1971.11 374.85 1970.73 373.854 1970 373.092C1969.27 372.316 1968.3 371.928 1967.1 371.928C1965.62 371.928 1964.5 372.47 1963.74 373.554C1962.99 374.623 1962.62 376.366 1962.62 378.783V379.442C1962.62 381.889 1962.99 383.646 1963.74 384.716C1964.48 385.785 1965.62 386.32 1967.14 386.32ZM1987.42 391H1981.05V367.226H1987.42V391ZM1980.68 361.073C1980.68 360.121 1980.99 359.337 1981.62 358.722C1982.27 358.107 1983.14 357.799 1984.24 357.799C1985.32 357.799 1986.19 358.107 1986.83 358.722C1987.47 359.337 1987.8 360.121 1987.8 361.073C1987.8 362.04 1987.47 362.831 1986.81 363.446C1986.16 364.062 1985.31 364.369 1984.24 364.369C1983.17 364.369 1982.3 364.062 1981.64 363.446C1981 362.831 1980.68 362.04 1980.68 361.073ZM2003.62 391.439C2000.13 391.439 1997.29 390.37 1995.09 388.231C1992.91 386.093 1991.82 383.244 1991.82 379.684V379.069C1991.82 376.681 1992.28 374.55 1993.2 372.675C1994.12 370.785 1995.43 369.335 1997.11 368.324C1998.81 367.299 2000.75 366.786 2002.91 366.786C2006.17 366.786 2008.72 367.812 2010.58 369.862C2012.46 371.913 2013.39 374.821 2013.39 378.585V381.178H1998.26C1998.46 382.731 1999.08 383.976 2000.1 384.914C2001.14 385.851 2002.45 386.32 2004.03 386.32C2006.48 386.32 2008.39 385.434 2009.77 383.661L2012.89 387.155C2011.94 388.502 2010.65 389.557 2009.02 390.319C2007.4 391.066 2005.59 391.439 2003.62 391.439ZM2002.89 371.928C2001.63 371.928 2000.61 372.353 1999.82 373.202C1999.04 374.052 1998.54 375.268 1998.32 376.85H2007.15V376.344C2007.12 374.938 2006.74 373.854 2006.01 373.092C2005.28 372.316 2004.24 371.928 2002.89 371.928ZM2029.9 384.43C2029.9 383.654 2029.51 383.046 2028.73 382.606C2027.97 382.152 2026.74 381.75 2025.04 381.398C2019.39 380.211 2016.56 377.809 2016.56 374.191C2016.56 372.082 2017.43 370.324 2019.17 368.917C2020.93 367.497 2023.22 366.786 2026.05 366.786C2029.07 366.786 2031.48 367.497 2033.28 368.917C2035.1 370.338 2036 372.184 2036 374.455H2029.65C2029.65 373.546 2029.36 372.799 2028.78 372.213C2028.19 371.613 2027.27 371.312 2026.03 371.312C2024.96 371.312 2024.13 371.554 2023.55 372.038C2022.96 372.521 2022.67 373.136 2022.67 373.883C2022.67 374.586 2023 375.158 2023.66 375.597C2024.33 376.022 2025.46 376.396 2027.04 376.718C2028.62 377.025 2029.95 377.377 2031.04 377.772C2034.39 379.003 2036.07 381.134 2036.07 384.167C2036.07 386.334 2035.14 388.092 2033.28 389.44C2031.42 390.773 2029.02 391.439 2026.07 391.439C2024.08 391.439 2022.31 391.088 2020.76 390.385C2019.22 389.667 2018.01 388.693 2017.13 387.462C2016.25 386.217 2015.81 384.877 2015.81 383.441H2021.83C2021.89 384.569 2022.31 385.434 2023.08 386.034C2023.86 386.635 2024.9 386.935 2026.2 386.935C2027.42 386.935 2028.34 386.708 2028.95 386.254C2029.58 385.785 2029.9 385.177 2029.9 384.43Z" fill="black"/>
<path d="M1853.33 74.6667H1832C1826.34 74.6667 1820.92 76.9143 1816.92 80.9151C1812.91 84.9158 1810.67 90.342 1810.67 96V202.667C1810.67 208.325 1812.91 213.751 1816.92 217.752C1820.92 221.752 1826.34 224 1832 224H1917.33C1922.99 224 1928.42 221.752 1932.42 217.752C1936.42 213.751 1938.67 208.325 1938.67 202.667V181.333M1853.33 74.6667V160C1853.33 165.658 1855.58 171.084 1859.58 175.085C1863.58 179.086 1869.01 181.333 1874.67 181.333H1938.67L1853.33 74.6667ZM1853.33 74.6667V53.3333C1853.33 47.6754 1855.58 42.2492 1859.58 38.2484C1863.58 34.2476 1869.01 32 1874.67 32H1923.58C1926.41 32.0006 1929.13 33.1248 1931.13 35.1253L1978.21 82.208C1980.21 84.2079 1981.33 86.9206 1981.33 89.7493V160C1981.33 165.658 1979.09 171.084 1975.08 175.085C1971.08 179.086 1965.66 181.333 1960 181.333H1938.67L1853.33 74.6667Z" stroke="#2396ED" stroke-width="21.3333" stroke-linecap="round" stroke-linejoin="round"/>
</svg>
