<svg width="1418" height="384" viewBox="0 0 1418 384" fill="none" xmlns="http://www.w3.org/2000/svg">
<rect x="381" width="240" height="168" fill="#A4FB96"/>
<rect x="386" y="58" width="230" height="100" fill="#7367FF"/>
<rect y="155" width="230" height="100" fill="#E96969"/>
<path d="M477.299 31.4854V39H472.904V17.6719H481.225C482.826 17.6719 484.232 17.9648 485.443 18.5508C486.664 19.1367 487.602 19.9717 488.256 21.0557C488.91 22.1299 489.237 23.3555 489.237 24.7324C489.237 26.8223 488.52 28.4727 487.084 29.6836C485.658 30.8848 483.681 31.4854 481.151 31.4854H477.299ZM477.299 27.9258H481.225C482.387 27.9258 483.271 27.6523 483.876 27.1055C484.491 26.5586 484.799 25.7773 484.799 24.7617C484.799 23.7168 484.491 22.8721 483.876 22.2275C483.261 21.583 482.411 21.251 481.327 21.2314H477.299V27.9258ZM491.127 30.9287C491.127 29.3564 491.43 27.9551 492.035 26.7246C492.641 25.4941 493.51 24.542 494.643 23.8682C495.785 23.1943 497.108 22.8574 498.612 22.8574C500.751 22.8574 502.494 23.5117 503.842 24.8203C505.199 26.1289 505.956 27.9062 506.112 30.1523L506.142 31.2363C506.142 33.668 505.463 35.6211 504.105 37.0957C502.748 38.5605 500.927 39.293 498.642 39.293C496.356 39.293 494.53 38.5605 493.163 37.0957C491.806 35.6309 491.127 33.6387 491.127 31.1191V30.9287ZM495.36 31.2363C495.36 32.7402 495.644 33.8926 496.21 34.6934C496.776 35.4844 497.587 35.8799 498.642 35.8799C499.667 35.8799 500.468 35.4893 501.044 34.708C501.62 33.917 501.908 32.6572 501.908 30.9287C501.908 29.4541 501.62 28.3115 501.044 27.501C500.468 26.6904 499.657 26.2852 498.612 26.2852C497.577 26.2852 496.776 26.6904 496.21 27.501C495.644 28.3018 495.36 29.5469 495.36 31.2363ZM508.09 30.958C508.09 28.4873 508.642 26.5195 509.745 25.0547C510.858 23.5898 512.377 22.8574 514.301 22.8574C515.844 22.8574 517.118 23.4336 518.124 24.5859V16.5H522.372V39H518.549L518.344 37.3154C517.289 38.6338 515.932 39.293 514.271 39.293C512.406 39.293 510.907 38.5605 509.774 37.0957C508.651 35.6211 508.09 33.5752 508.09 30.958ZM512.323 31.2656C512.323 32.75 512.582 33.8877 513.1 34.6787C513.617 35.4697 514.369 35.8652 515.355 35.8652C516.664 35.8652 517.587 35.3135 518.124 34.21V27.9551C517.597 26.8516 516.684 26.2998 515.385 26.2998C513.344 26.2998 512.323 27.9551 512.323 31.2656Z" fill="black"/>
<path d="M461.54 110.08C461.401 111.992 460.693 113.498 459.416 114.596C458.146 115.695 456.47 116.244 454.386 116.244C452.108 116.244 450.313 115.479 449.003 113.949C447.701 112.411 447.05 110.303 447.05 107.626V106.54C447.05 104.831 447.351 103.325 447.953 102.023C448.555 100.721 449.414 99.724 450.529 99.0322C451.652 98.3324 452.954 97.9824 454.435 97.9824C456.486 97.9824 458.138 98.5317 459.391 99.6304C460.644 100.729 461.369 102.271 461.564 104.257H457.902C457.812 103.109 457.491 102.279 456.938 101.767C456.392 101.246 455.558 100.985 454.435 100.985C453.214 100.985 452.299 101.425 451.688 102.304C451.086 103.174 450.777 104.529 450.761 106.369V107.711C450.761 109.632 451.05 111.036 451.627 111.923C452.213 112.81 453.133 113.253 454.386 113.253C455.517 113.253 456.36 112.997 456.913 112.484C457.475 111.964 457.796 111.162 457.877 110.08H461.54ZM463.163 109.274C463.163 107.964 463.415 106.796 463.92 105.771C464.424 104.745 465.149 103.952 466.093 103.39C467.045 102.829 468.148 102.548 469.401 102.548C471.183 102.548 472.636 103.093 473.759 104.184C474.89 105.274 475.521 106.755 475.651 108.627L475.675 109.53C475.675 111.557 475.11 113.184 473.979 114.413C472.847 115.634 471.33 116.244 469.425 116.244C467.521 116.244 465.999 115.634 464.86 114.413C463.729 113.192 463.163 111.532 463.163 109.433V109.274ZM466.691 109.53C466.691 110.784 466.927 111.744 467.399 112.411C467.871 113.07 468.546 113.4 469.425 113.4C470.28 113.4 470.947 113.074 471.427 112.423C471.907 111.764 472.147 110.714 472.147 109.274C472.147 108.045 471.907 107.093 471.427 106.417C470.947 105.742 470.272 105.404 469.401 105.404C468.538 105.404 467.871 105.742 467.399 106.417C466.927 107.085 466.691 108.122 466.691 109.53ZM481.095 102.792L481.205 104.318C482.149 103.138 483.415 102.548 485.001 102.548C486.401 102.548 487.443 102.959 488.126 103.781C488.81 104.603 489.16 105.832 489.176 107.467V116H485.648V107.553C485.648 106.804 485.486 106.263 485.16 105.929C484.835 105.587 484.293 105.417 483.537 105.417C482.544 105.417 481.799 105.84 481.303 106.686V116H477.775V102.792H481.095ZM496.085 99.5449V102.792H498.344V105.38H496.085V111.972C496.085 112.46 496.179 112.81 496.366 113.021C496.553 113.233 496.911 113.339 497.44 113.339C497.831 113.339 498.177 113.31 498.478 113.253V115.927C497.786 116.138 497.074 116.244 496.342 116.244C493.868 116.244 492.606 114.995 492.558 112.497V105.38H490.629V102.792H492.558V99.5449H496.085ZM507.963 116C507.8 115.683 507.682 115.288 507.609 114.816C506.754 115.768 505.644 116.244 504.276 116.244C502.982 116.244 501.908 115.87 501.054 115.121C500.207 114.372 499.784 113.428 499.784 112.289C499.784 110.889 500.301 109.815 501.334 109.066C502.376 108.318 503.878 107.939 505.839 107.931H507.462V107.174C507.462 106.564 507.304 106.076 506.986 105.709C506.677 105.343 506.185 105.16 505.509 105.16C504.915 105.16 504.447 105.303 504.105 105.587C503.772 105.872 503.605 106.263 503.605 106.759H500.077C500.077 105.994 500.313 105.286 500.785 104.635C501.257 103.984 501.924 103.476 502.787 103.109C503.65 102.735 504.618 102.548 505.692 102.548C507.32 102.548 508.61 102.959 509.562 103.781C510.522 104.595 511.002 105.742 511.002 107.223V112.948C511.011 114.201 511.186 115.15 511.527 115.792V116H507.963ZM505.045 113.546C505.566 113.546 506.046 113.432 506.486 113.205C506.925 112.969 507.251 112.655 507.462 112.265V109.994H506.144C504.378 109.994 503.438 110.604 503.324 111.825L503.312 112.033C503.312 112.472 503.467 112.834 503.776 113.119C504.085 113.404 504.508 113.546 505.045 113.546ZM517.436 116H513.896V102.792H517.436V116ZM513.688 99.374C513.688 98.8451 513.863 98.4097 514.213 98.0679C514.571 97.7261 515.055 97.5552 515.666 97.5552C516.268 97.5552 516.748 97.7261 517.106 98.0679C517.464 98.4097 517.643 98.8451 517.643 99.374C517.643 99.9111 517.46 100.351 517.094 100.692C516.736 101.034 516.26 101.205 515.666 101.205C515.071 101.205 514.591 101.034 514.225 100.692C513.867 100.351 513.688 99.9111 513.688 99.374ZM523.6 102.792L523.71 104.318C524.654 103.138 525.919 102.548 527.506 102.548C528.906 102.548 529.948 102.959 530.631 103.781C531.315 104.603 531.665 105.832 531.681 107.467V116H528.153V107.553C528.153 106.804 527.991 106.263 527.665 105.929C527.34 105.587 526.798 105.417 526.042 105.417C525.049 105.417 524.304 105.84 523.808 106.686V116H520.28V102.792H523.6ZM540.446 116.244C538.509 116.244 536.93 115.65 535.709 114.462C534.497 113.274 533.891 111.691 533.891 109.713V109.372C533.891 108.045 534.147 106.861 534.66 105.819C535.172 104.77 535.897 103.964 536.833 103.402C537.777 102.833 538.851 102.548 540.055 102.548C541.862 102.548 543.282 103.118 544.315 104.257C545.357 105.396 545.878 107.012 545.878 109.103V110.543H537.467C537.581 111.406 537.923 112.098 538.493 112.619C539.07 113.139 539.799 113.4 540.678 113.4C542.037 113.4 543.099 112.908 543.864 111.923L545.597 113.864C545.068 114.612 544.352 115.198 543.449 115.622C542.545 116.037 541.544 116.244 540.446 116.244ZM540.043 105.404C539.343 105.404 538.773 105.64 538.334 106.112C537.903 106.584 537.626 107.26 537.504 108.139H542.411V107.858C542.395 107.077 542.183 106.474 541.776 106.051C541.369 105.62 540.792 105.404 540.043 105.404ZM555.314 106.1C554.834 106.035 554.411 106.002 554.044 106.002C552.71 106.002 551.835 106.454 551.42 107.357V116H547.892V102.792H551.225L551.322 104.367C552.03 103.154 553.011 102.548 554.264 102.548C554.655 102.548 555.021 102.601 555.363 102.707L555.314 106.1Z" fill="white"/>
<path d="M84.8032 209.337C84.8032 208.645 84.5591 208.116 84.0708 207.75C83.5825 207.376 82.7036 206.985 81.4341 206.578C80.1646 206.163 79.1595 205.756 78.4189 205.357C76.4007 204.267 75.3916 202.798 75.3916 200.951C75.3916 199.99 75.6602 199.136 76.1973 198.387C76.7425 197.63 77.5197 197.04 78.5288 196.617C79.5461 196.194 80.6854 195.982 81.9468 195.982C83.2163 195.982 84.3475 196.214 85.3403 196.678C86.3332 197.134 87.1022 197.781 87.6475 198.619C88.2008 199.457 88.4775 200.41 88.4775 201.476H84.8154C84.8154 200.662 84.5591 200.031 84.0464 199.583C83.5337 199.128 82.8135 198.9 81.8857 198.9C80.9906 198.9 80.2948 199.091 79.7983 199.474C79.3019 199.848 79.0537 200.344 79.0537 200.963C79.0537 201.541 79.3426 202.025 79.9204 202.416C80.5063 202.806 81.3649 203.172 82.4961 203.514C84.5794 204.141 86.0972 204.918 87.0493 205.846C88.0015 206.773 88.4775 207.929 88.4775 209.312C88.4775 210.851 87.8957 212.059 86.7319 212.938C85.5682 213.809 84.0016 214.244 82.0322 214.244C80.665 214.244 79.4199 213.996 78.2969 213.5C77.1738 212.995 76.3153 212.307 75.7212 211.437C75.1353 210.566 74.8423 209.557 74.8423 208.409H78.5166C78.5166 210.37 79.6885 211.351 82.0322 211.351C82.903 211.351 83.5825 211.176 84.0708 210.826C84.5591 210.468 84.8032 209.972 84.8032 209.337ZM96.8149 214.244C94.8781 214.244 93.2993 213.65 92.0786 212.462C90.866 211.274 90.2598 209.691 90.2598 207.713V207.372C90.2598 206.045 90.5161 204.861 91.0288 203.819C91.5415 202.77 92.2658 201.964 93.2017 201.402C94.1457 200.833 95.2199 200.548 96.4243 200.548C98.231 200.548 99.651 201.118 100.685 202.257C101.726 203.396 102.247 205.012 102.247 207.103V208.543H93.8364C93.9504 209.406 94.2922 210.098 94.8618 210.619C95.4396 211.139 96.168 211.4 97.0469 211.4C98.4059 211.4 99.4679 210.908 100.233 209.923L101.966 211.864C101.437 212.612 100.721 213.198 99.8179 213.622C98.9146 214.037 97.9136 214.244 96.8149 214.244ZM96.4121 203.404C95.7122 203.404 95.1426 203.64 94.7031 204.112C94.2718 204.584 93.9951 205.26 93.873 206.139H98.7803V205.858C98.764 205.077 98.5524 204.474 98.1455 204.051C97.7386 203.62 97.1608 203.404 96.4121 203.404ZM111.683 204.1C111.203 204.035 110.78 204.002 110.414 204.002C109.079 204.002 108.204 204.454 107.789 205.357V214H104.261V200.792H107.594L107.691 202.367C108.399 201.154 109.38 200.548 110.633 200.548C111.024 200.548 111.39 200.601 111.732 200.707L111.683 204.1ZM118.556 209.691L121.009 200.792H124.696L120.24 214H116.871L112.416 200.792H116.102L118.556 209.691ZM129.981 214H126.441V200.792H129.981V214ZM126.234 197.374C126.234 196.845 126.409 196.41 126.759 196.068C127.117 195.726 127.601 195.555 128.211 195.555C128.814 195.555 129.294 195.726 129.652 196.068C130.01 196.41 130.189 196.845 130.189 197.374C130.189 197.911 130.006 198.351 129.64 198.692C129.282 199.034 128.806 199.205 128.211 199.205C127.617 199.205 127.137 199.034 126.771 198.692C126.413 198.351 126.234 197.911 126.234 197.374ZM138.392 211.4C139.043 211.4 139.572 211.221 139.979 210.863C140.386 210.505 140.597 210.029 140.614 209.435H143.922C143.914 210.33 143.67 211.152 143.189 211.9C142.709 212.641 142.05 213.219 141.212 213.634C140.382 214.041 139.462 214.244 138.453 214.244C136.565 214.244 135.076 213.646 133.985 212.45C132.895 211.245 132.35 209.585 132.35 207.469V207.237C132.35 205.203 132.891 203.579 133.973 202.367C135.056 201.154 136.541 200.548 138.429 200.548C140.081 200.548 141.403 201.02 142.396 201.964C143.397 202.9 143.906 204.149 143.922 205.711H140.614C140.597 205.028 140.386 204.474 139.979 204.051C139.572 203.62 139.035 203.404 138.368 203.404C137.546 203.404 136.923 203.705 136.5 204.308C136.085 204.902 135.877 205.87 135.877 207.213V207.579C135.877 208.938 136.085 209.915 136.5 210.509C136.915 211.103 137.546 211.4 138.392 211.4ZM152.015 214.244C150.078 214.244 148.5 213.65 147.279 212.462C146.066 211.274 145.46 209.691 145.46 207.713V207.372C145.46 206.045 145.716 204.861 146.229 203.819C146.742 202.77 147.466 201.964 148.402 201.402C149.346 200.833 150.42 200.548 151.625 200.548C153.431 200.548 154.851 201.118 155.885 202.257C156.926 203.396 157.447 205.012 157.447 207.103V208.543H149.037C149.151 209.406 149.492 210.098 150.062 210.619C150.64 211.139 151.368 211.4 152.247 211.4C153.606 211.4 154.668 210.908 155.433 209.923L157.167 211.864C156.638 212.612 155.921 213.198 155.018 213.622C154.115 214.037 153.114 214.244 152.015 214.244ZM151.612 203.404C150.912 203.404 150.343 203.64 149.903 204.112C149.472 204.584 149.195 205.26 149.073 206.139H153.98V205.858C153.964 205.077 153.753 204.474 153.346 204.051C152.939 203.62 152.361 203.404 151.612 203.404Z" fill="white"/>
<rect x="381" y="216" width="240" height="168" fill="#A4FB96"/>
<rect x="386" y="273" width="230" height="100" fill="#7367FF"/>
<path d="M458.54 325.08C458.401 326.992 457.693 328.498 456.416 329.596C455.146 330.695 453.47 331.244 451.386 331.244C449.108 331.244 447.313 330.479 446.003 328.949C444.701 327.411 444.05 325.303 444.05 322.626V321.54C444.05 319.831 444.351 318.325 444.953 317.023C445.555 315.721 446.414 314.724 447.529 314.032C448.652 313.332 449.954 312.982 451.435 312.982C453.486 312.982 455.138 313.532 456.391 314.63C457.644 315.729 458.369 317.271 458.564 319.257H454.902C454.812 318.109 454.491 317.279 453.938 316.767C453.392 316.246 452.558 315.985 451.435 315.985C450.214 315.985 449.299 316.425 448.688 317.304C448.086 318.174 447.777 319.529 447.761 321.369V322.711C447.761 324.632 448.05 326.036 448.627 326.923C449.213 327.81 450.133 328.253 451.386 328.253C452.517 328.253 453.36 327.997 453.913 327.484C454.475 326.964 454.796 326.162 454.877 325.08H458.54ZM460.163 324.274C460.163 322.964 460.415 321.796 460.92 320.771C461.424 319.745 462.149 318.952 463.093 318.39C464.045 317.829 465.148 317.548 466.401 317.548C468.183 317.548 469.636 318.093 470.759 319.184C471.89 320.274 472.521 321.755 472.651 323.627L472.675 324.53C472.675 326.557 472.11 328.184 470.979 329.413C469.847 330.634 468.33 331.244 466.425 331.244C464.521 331.244 462.999 330.634 461.86 329.413C460.729 328.192 460.163 326.532 460.163 324.433V324.274ZM463.691 324.53C463.691 325.784 463.927 326.744 464.399 327.411C464.871 328.07 465.546 328.4 466.425 328.4C467.28 328.4 467.947 328.074 468.427 327.423C468.907 326.764 469.147 325.714 469.147 324.274C469.147 323.045 468.907 322.093 468.427 321.417C467.947 320.742 467.272 320.404 466.401 320.404C465.538 320.404 464.871 320.742 464.399 321.417C463.927 322.085 463.691 323.122 463.691 324.53ZM478.095 317.792L478.205 319.318C479.149 318.138 480.415 317.548 482.001 317.548C483.401 317.548 484.443 317.959 485.126 318.781C485.81 319.603 486.16 320.832 486.176 322.467V331H482.648V322.553C482.648 321.804 482.486 321.263 482.16 320.929C481.835 320.587 481.293 320.417 480.537 320.417C479.544 320.417 478.799 320.84 478.303 321.686V331H474.775V317.792H478.095ZM493.085 314.545V317.792H495.344V320.38H493.085V326.972C493.085 327.46 493.179 327.81 493.366 328.021C493.553 328.233 493.911 328.339 494.44 328.339C494.831 328.339 495.177 328.31 495.478 328.253V330.927C494.786 331.138 494.074 331.244 493.342 331.244C490.868 331.244 489.606 329.995 489.558 327.497V320.38H487.629V317.792H489.558V314.545H493.085ZM504.963 331C504.8 330.683 504.682 330.288 504.609 329.816C503.754 330.768 502.644 331.244 501.276 331.244C499.982 331.244 498.908 330.87 498.054 330.121C497.207 329.372 496.784 328.428 496.784 327.289C496.784 325.889 497.301 324.815 498.334 324.066C499.376 323.318 500.878 322.939 502.839 322.931H504.462V322.174C504.462 321.564 504.304 321.076 503.986 320.709C503.677 320.343 503.185 320.16 502.509 320.16C501.915 320.16 501.447 320.303 501.105 320.587C500.772 320.872 500.605 321.263 500.605 321.759H497.077C497.077 320.994 497.313 320.286 497.785 319.635C498.257 318.984 498.924 318.476 499.787 318.109C500.65 317.735 501.618 317.548 502.692 317.548C504.32 317.548 505.61 317.959 506.562 318.781C507.522 319.595 508.002 320.742 508.002 322.223V327.948C508.011 329.201 508.186 330.15 508.527 330.792V331H504.963ZM502.045 328.546C502.566 328.546 503.046 328.432 503.486 328.205C503.925 327.969 504.251 327.655 504.462 327.265V324.994H503.144C501.378 324.994 500.438 325.604 500.324 326.825L500.312 327.033C500.312 327.472 500.467 327.834 500.776 328.119C501.085 328.404 501.508 328.546 502.045 328.546ZM514.436 331H510.896V317.792H514.436V331ZM510.688 314.374C510.688 313.845 510.863 313.41 511.213 313.068C511.571 312.726 512.055 312.555 512.666 312.555C513.268 312.555 513.748 312.726 514.106 313.068C514.464 313.41 514.643 313.845 514.643 314.374C514.643 314.911 514.46 315.351 514.094 315.692C513.736 316.034 513.26 316.205 512.666 316.205C512.071 316.205 511.591 316.034 511.225 315.692C510.867 315.351 510.688 314.911 510.688 314.374ZM520.6 317.792L520.71 319.318C521.654 318.138 522.919 317.548 524.506 317.548C525.906 317.548 526.948 317.959 527.631 318.781C528.315 319.603 528.665 320.832 528.681 322.467V331H525.153V322.553C525.153 321.804 524.991 321.263 524.665 320.929C524.34 320.587 523.798 320.417 523.042 320.417C522.049 320.417 521.304 320.84 520.808 321.686V331H517.28V317.792H520.6ZM537.446 331.244C535.509 331.244 533.93 330.65 532.709 329.462C531.497 328.274 530.891 326.691 530.891 324.713V324.372C530.891 323.045 531.147 321.861 531.66 320.819C532.172 319.77 532.897 318.964 533.833 318.402C534.777 317.833 535.851 317.548 537.055 317.548C538.862 317.548 540.282 318.118 541.315 319.257C542.357 320.396 542.878 322.012 542.878 324.103V325.543H534.467C534.581 326.406 534.923 327.098 535.493 327.619C536.07 328.139 536.799 328.4 537.678 328.4C539.037 328.4 540.099 327.908 540.864 326.923L542.597 328.864C542.068 329.612 541.352 330.198 540.449 330.622C539.545 331.037 538.544 331.244 537.446 331.244ZM537.043 320.404C536.343 320.404 535.773 320.64 535.334 321.112C534.903 321.584 534.626 322.26 534.504 323.139H539.411V322.858C539.395 322.077 539.183 321.474 538.776 321.051C538.369 320.62 537.792 320.404 537.043 320.404ZM552.314 321.1C551.834 321.035 551.411 321.002 551.044 321.002C549.71 321.002 548.835 321.454 548.42 322.357V331H544.892V317.792H548.225L548.322 319.367C549.03 318.154 550.011 317.548 551.264 317.548C551.655 317.548 552.021 317.601 552.363 317.707L552.314 321.1Z" fill="white"/>
<path d="M480.299 246.485V254H475.904V232.672H484.225C485.826 232.672 487.232 232.965 488.443 233.551C489.664 234.137 490.602 234.972 491.256 236.056C491.91 237.13 492.237 238.355 492.237 239.732C492.237 241.822 491.52 243.473 490.084 244.684C488.658 245.885 486.681 246.485 484.151 246.485H480.299ZM480.299 242.926H484.225C485.387 242.926 486.271 242.652 486.876 242.105C487.491 241.559 487.799 240.777 487.799 239.762C487.799 238.717 487.491 237.872 486.876 237.228C486.261 236.583 485.411 236.251 484.327 236.231H480.299V242.926ZM494.127 245.929C494.127 244.356 494.43 242.955 495.035 241.725C495.641 240.494 496.51 239.542 497.643 238.868C498.785 238.194 500.108 237.857 501.612 237.857C503.751 237.857 505.494 238.512 506.842 239.82C508.199 241.129 508.956 242.906 509.112 245.152L509.142 246.236C509.142 248.668 508.463 250.621 507.105 252.096C505.748 253.561 503.927 254.293 501.642 254.293C499.356 254.293 497.53 253.561 496.163 252.096C494.806 250.631 494.127 248.639 494.127 246.119V245.929ZM498.36 246.236C498.36 247.74 498.644 248.893 499.21 249.693C499.776 250.484 500.587 250.88 501.642 250.88C502.667 250.88 503.468 250.489 504.044 249.708C504.62 248.917 504.908 247.657 504.908 245.929C504.908 244.454 504.62 243.312 504.044 242.501C503.468 241.69 502.657 241.285 501.612 241.285C500.577 241.285 499.776 241.69 499.21 242.501C498.644 243.302 498.36 244.547 498.36 246.236ZM511.09 245.958C511.09 243.487 511.642 241.52 512.745 240.055C513.858 238.59 515.377 237.857 517.301 237.857C518.844 237.857 520.118 238.434 521.124 239.586V231.5H525.372V254H521.549L521.344 252.315C520.289 253.634 518.932 254.293 517.271 254.293C515.406 254.293 513.907 253.561 512.774 252.096C511.651 250.621 511.09 248.575 511.09 245.958ZM515.323 246.266C515.323 247.75 515.582 248.888 516.1 249.679C516.617 250.47 517.369 250.865 518.355 250.865C519.664 250.865 520.587 250.313 521.124 249.21V242.955C520.597 241.852 519.684 241.3 518.385 241.3C516.344 241.3 515.323 242.955 515.323 246.266Z" fill="black"/>
<path d="M366.493 93.1851C366.595 91.8082 365.562 90.6091 364.185 90.5069L341.747 88.8411C340.37 88.7389 339.171 89.7723 339.069 91.1492C338.966 92.5261 340 93.7252 341.377 93.8274L361.322 95.3081L359.841 115.253C359.739 116.63 360.772 117.829 362.149 117.931C363.526 118.034 364.725 117 364.827 115.623L366.493 93.1851ZM242.632 200.894L365.632 94.8938L362.368 91.1062L239.368 197.106L242.632 200.894Z" fill="black"/>
<path d="M787.39 207.469C788.754 207.254 789.685 205.974 789.469 204.61L785.96 182.385C785.745 181.022 784.465 180.091 783.101 180.306C781.737 180.521 780.806 181.801 781.021 183.165L784.141 202.92L764.385 206.04C763.022 206.255 762.091 207.535 762.306 208.899C762.521 210.263 763.801 211.194 765.165 210.979L787.39 207.469ZM631.53 95.0218L785.53 207.022L788.47 202.978L634.47 90.9782L631.53 95.0218Z" fill="black"/>
<path d="M789.452 205.487C789.721 204.132 788.841 202.817 787.487 202.548L765.417 198.168C764.063 197.899 762.747 198.779 762.478 200.134C762.209 201.488 763.089 202.804 764.444 203.073L784.061 206.966L780.168 226.583C779.899 227.937 780.78 229.253 782.134 229.522C783.488 229.791 784.804 228.911 785.073 227.556L789.452 205.487ZM634.39 310.078L788.39 207.078L785.61 202.922L631.61 305.922L634.39 310.078Z" fill="black"/>
<path d="M364.22 310.49C365.596 310.369 366.612 309.155 366.49 307.78L364.507 285.367C364.385 283.992 363.172 282.976 361.796 283.097C360.421 283.219 359.405 284.433 359.526 285.808L361.289 305.73L341.367 307.493C339.992 307.615 338.976 308.828 339.097 310.204C339.219 311.579 340.433 312.595 341.808 312.474L364.22 310.49ZM239.395 206.917L362.395 309.917L365.605 306.083L242.605 203.083L239.395 206.917Z" fill="black"/>
<rect x="1178" width="240" height="168" fill="#A4FB96"/>
<rect x="1183" y="58" width="230" height="100" fill="#7367FF"/>
<rect x="797" y="155" width="230" height="100" fill="#E96969"/>
<path d="M1274.3 31.4854V39H1269.9V17.6719H1278.22C1279.83 17.6719 1281.23 17.9648 1282.44 18.5508C1283.66 19.1367 1284.6 19.9717 1285.26 21.0557C1285.91 22.1299 1286.24 23.3555 1286.24 24.7324C1286.24 26.8223 1285.52 28.4727 1284.08 29.6836C1282.66 30.8848 1280.68 31.4854 1278.15 31.4854H1274.3ZM1274.3 27.9258H1278.22C1279.39 27.9258 1280.27 27.6523 1280.88 27.1055C1281.49 26.5586 1281.8 25.7773 1281.8 24.7617C1281.8 23.7168 1281.49 22.8721 1280.88 22.2275C1280.26 21.583 1279.41 21.251 1278.33 21.2314H1274.3V27.9258ZM1288.13 30.9287C1288.13 29.3564 1288.43 27.9551 1289.04 26.7246C1289.64 25.4941 1290.51 24.542 1291.64 23.8682C1292.79 23.1943 1294.11 22.8574 1295.61 22.8574C1297.75 22.8574 1299.49 23.5117 1300.84 24.8203C1302.2 26.1289 1302.96 27.9062 1303.11 30.1523L1303.14 31.2363C1303.14 33.668 1302.46 35.6211 1301.11 37.0957C1299.75 38.5605 1297.93 39.293 1295.64 39.293C1293.36 39.293 1291.53 38.5605 1290.16 37.0957C1288.81 35.6309 1288.13 33.6387 1288.13 31.1191V30.9287ZM1292.36 31.2363C1292.36 32.7402 1292.64 33.8926 1293.21 34.6934C1293.78 35.4844 1294.59 35.8799 1295.64 35.8799C1296.67 35.8799 1297.47 35.4893 1298.04 34.708C1298.62 33.917 1298.91 32.6572 1298.91 30.9287C1298.91 29.4541 1298.62 28.3115 1298.04 27.501C1297.47 26.6904 1296.66 26.2852 1295.61 26.2852C1294.58 26.2852 1293.78 26.6904 1293.21 27.501C1292.64 28.3018 1292.36 29.5469 1292.36 31.2363ZM1305.09 30.958C1305.09 28.4873 1305.64 26.5195 1306.75 25.0547C1307.86 23.5898 1309.38 22.8574 1311.3 22.8574C1312.84 22.8574 1314.12 23.4336 1315.12 24.5859V16.5H1319.37V39H1315.55L1315.34 37.3154C1314.29 38.6338 1312.93 39.293 1311.27 39.293C1309.41 39.293 1307.91 38.5605 1306.77 37.0957C1305.65 35.6211 1305.09 33.5752 1305.09 30.958ZM1309.32 31.2656C1309.32 32.75 1309.58 33.8877 1310.1 34.6787C1310.62 35.4697 1311.37 35.8652 1312.36 35.8652C1313.66 35.8652 1314.59 35.3135 1315.12 34.21V27.9551C1314.6 26.8516 1313.68 26.2998 1312.38 26.2998C1310.34 26.2998 1309.32 27.9551 1309.32 31.2656Z" fill="black"/>
<path d="M1258.54 110.08C1258.4 111.992 1257.69 113.498 1256.42 114.596C1255.15 115.695 1253.47 116.244 1251.39 116.244C1249.11 116.244 1247.31 115.479 1246 113.949C1244.7 112.411 1244.05 110.303 1244.05 107.626V106.54C1244.05 104.831 1244.35 103.325 1244.95 102.023C1245.56 100.721 1246.41 99.724 1247.53 99.0322C1248.65 98.3324 1249.95 97.9824 1251.44 97.9824C1253.49 97.9824 1255.14 98.5317 1256.39 99.6304C1257.64 100.729 1258.37 102.271 1258.56 104.257H1254.9C1254.81 103.109 1254.49 102.279 1253.94 101.767C1253.39 101.246 1252.56 100.985 1251.44 100.985C1250.21 100.985 1249.3 101.425 1248.69 102.304C1248.09 103.174 1247.78 104.529 1247.76 106.369V107.711C1247.76 109.632 1248.05 111.036 1248.63 111.923C1249.21 112.81 1250.13 113.253 1251.39 113.253C1252.52 113.253 1253.36 112.997 1253.91 112.484C1254.47 111.964 1254.8 111.162 1254.88 110.08H1258.54ZM1260.16 109.274C1260.16 107.964 1260.42 106.796 1260.92 105.771C1261.42 104.745 1262.15 103.952 1263.09 103.39C1264.04 102.829 1265.15 102.548 1266.4 102.548C1268.18 102.548 1269.64 103.093 1270.76 104.184C1271.89 105.274 1272.52 106.755 1272.65 108.627L1272.68 109.53C1272.68 111.557 1272.11 113.184 1270.98 114.413C1269.85 115.634 1268.33 116.244 1266.43 116.244C1264.52 116.244 1263 115.634 1261.86 114.413C1260.73 113.192 1260.16 111.532 1260.16 109.433V109.274ZM1263.69 109.53C1263.69 110.784 1263.93 111.744 1264.4 112.411C1264.87 113.07 1265.55 113.4 1266.43 113.4C1267.28 113.4 1267.95 113.074 1268.43 112.423C1268.91 111.764 1269.15 110.714 1269.15 109.274C1269.15 108.045 1268.91 107.093 1268.43 106.417C1267.95 105.742 1267.27 105.404 1266.4 105.404C1265.54 105.404 1264.87 105.742 1264.4 106.417C1263.93 107.085 1263.69 108.122 1263.69 109.53ZM1278.1 102.792L1278.21 104.318C1279.15 103.138 1280.41 102.548 1282 102.548C1283.4 102.548 1284.44 102.959 1285.13 103.781C1285.81 104.603 1286.16 105.832 1286.18 107.467V116H1282.65V107.553C1282.65 106.804 1282.49 106.263 1282.16 105.929C1281.83 105.587 1281.29 105.417 1280.54 105.417C1279.54 105.417 1278.8 105.84 1278.3 106.686V116H1274.77V102.792H1278.1ZM1293.09 99.5449V102.792H1295.34V105.38H1293.09V111.972C1293.09 112.46 1293.18 112.81 1293.37 113.021C1293.55 113.233 1293.91 113.339 1294.44 113.339C1294.83 113.339 1295.18 113.31 1295.48 113.253V115.927C1294.79 116.138 1294.07 116.244 1293.34 116.244C1290.87 116.244 1289.61 114.995 1289.56 112.497V105.38H1287.63V102.792H1289.56V99.5449H1293.09ZM1304.96 116C1304.8 115.683 1304.68 115.288 1304.61 114.816C1303.75 115.768 1302.64 116.244 1301.28 116.244C1299.98 116.244 1298.91 115.87 1298.05 115.121C1297.21 114.372 1296.78 113.428 1296.78 112.289C1296.78 110.889 1297.3 109.815 1298.33 109.066C1299.38 108.318 1300.88 107.939 1302.84 107.931H1304.46V107.174C1304.46 106.564 1304.3 106.076 1303.99 105.709C1303.68 105.343 1303.18 105.16 1302.51 105.16C1301.92 105.16 1301.45 105.303 1301.11 105.587C1300.77 105.872 1300.6 106.263 1300.6 106.759H1297.08C1297.08 105.994 1297.31 105.286 1297.79 104.635C1298.26 103.984 1298.92 103.476 1299.79 103.109C1300.65 102.735 1301.62 102.548 1302.69 102.548C1304.32 102.548 1305.61 102.959 1306.56 103.781C1307.52 104.595 1308 105.742 1308 107.223V112.948C1308.01 114.201 1308.19 115.15 1308.53 115.792V116H1304.96ZM1302.05 113.546C1302.57 113.546 1303.05 113.432 1303.49 113.205C1303.93 112.969 1304.25 112.655 1304.46 112.265V109.994H1303.14C1301.38 109.994 1300.44 110.604 1300.32 111.825L1300.31 112.033C1300.31 112.472 1300.47 112.834 1300.78 113.119C1301.09 113.404 1301.51 113.546 1302.05 113.546ZM1314.44 116H1310.9V102.792H1314.44V116ZM1310.69 99.374C1310.69 98.8451 1310.86 98.4097 1311.21 98.0679C1311.57 97.7261 1312.06 97.5552 1312.67 97.5552C1313.27 97.5552 1313.75 97.7261 1314.11 98.0679C1314.46 98.4097 1314.64 98.8451 1314.64 99.374C1314.64 99.9111 1314.46 100.351 1314.09 100.692C1313.74 101.034 1313.26 101.205 1312.67 101.205C1312.07 101.205 1311.59 101.034 1311.23 100.692C1310.87 100.351 1310.69 99.9111 1310.69 99.374ZM1320.6 102.792L1320.71 104.318C1321.65 103.138 1322.92 102.548 1324.51 102.548C1325.91 102.548 1326.95 102.959 1327.63 103.781C1328.31 104.603 1328.66 105.832 1328.68 107.467V116H1325.15V107.553C1325.15 106.804 1324.99 106.263 1324.67 105.929C1324.34 105.587 1323.8 105.417 1323.04 105.417C1322.05 105.417 1321.3 105.84 1320.81 106.686V116H1317.28V102.792H1320.6ZM1337.45 116.244C1335.51 116.244 1333.93 115.65 1332.71 114.462C1331.5 113.274 1330.89 111.691 1330.89 109.713V109.372C1330.89 108.045 1331.15 106.861 1331.66 105.819C1332.17 104.77 1332.9 103.964 1333.83 103.402C1334.78 102.833 1335.85 102.548 1337.06 102.548C1338.86 102.548 1340.28 103.118 1341.32 104.257C1342.36 105.396 1342.88 107.012 1342.88 109.103V110.543H1334.47C1334.58 111.406 1334.92 112.098 1335.49 112.619C1336.07 113.139 1336.8 113.4 1337.68 113.4C1339.04 113.4 1340.1 112.908 1340.86 111.923L1342.6 113.864C1342.07 114.612 1341.35 115.198 1340.45 115.622C1339.55 116.037 1338.54 116.244 1337.45 116.244ZM1337.04 105.404C1336.34 105.404 1335.77 105.64 1335.33 106.112C1334.9 106.584 1334.63 107.26 1334.5 108.139H1339.41V107.858C1339.39 107.077 1339.18 106.474 1338.78 106.051C1338.37 105.62 1337.79 105.404 1337.04 105.404ZM1352.31 106.1C1351.83 106.035 1351.41 106.002 1351.04 106.002C1349.71 106.002 1348.83 106.454 1348.42 107.357V116H1344.89V102.792H1348.22L1348.32 104.367C1349.03 103.154 1350.01 102.548 1351.26 102.548C1351.65 102.548 1352.02 102.601 1352.36 102.707L1352.31 106.1Z" fill="white"/>
<path d="M881.803 209.337C881.803 208.645 881.559 208.116 881.071 207.75C880.583 207.376 879.704 206.985 878.434 206.578C877.165 206.163 876.16 205.756 875.419 205.357C873.401 204.267 872.392 202.798 872.392 200.951C872.392 199.99 872.66 199.136 873.197 198.387C873.743 197.63 874.52 197.04 875.529 196.617C876.546 196.194 877.685 195.982 878.947 195.982C880.216 195.982 881.347 196.214 882.34 196.678C883.333 197.134 884.102 197.781 884.647 198.619C885.201 199.457 885.478 200.41 885.478 201.476H881.815C881.815 200.662 881.559 200.031 881.046 199.583C880.534 199.128 879.813 198.9 878.886 198.9C877.991 198.9 877.295 199.091 876.798 199.474C876.302 199.848 876.054 200.344 876.054 200.963C876.054 201.541 876.343 202.025 876.92 202.416C877.506 202.806 878.365 203.172 879.496 203.514C881.579 204.141 883.097 204.918 884.049 205.846C885.001 206.773 885.478 207.929 885.478 209.312C885.478 210.851 884.896 212.059 883.732 212.938C882.568 213.809 881.002 214.244 879.032 214.244C877.665 214.244 876.42 213.996 875.297 213.5C874.174 212.995 873.315 212.307 872.721 211.437C872.135 210.566 871.842 209.557 871.842 208.409H875.517C875.517 210.37 876.688 211.351 879.032 211.351C879.903 211.351 880.583 211.176 881.071 210.826C881.559 210.468 881.803 209.972 881.803 209.337ZM893.815 214.244C891.878 214.244 890.299 213.65 889.079 212.462C887.866 211.274 887.26 209.691 887.26 207.713V207.372C887.26 206.045 887.516 204.861 888.029 203.819C888.542 202.77 889.266 201.964 890.202 201.402C891.146 200.833 892.22 200.548 893.424 200.548C895.231 200.548 896.651 201.118 897.685 202.257C898.726 203.396 899.247 205.012 899.247 207.103V208.543H890.836C890.95 209.406 891.292 210.098 891.862 210.619C892.44 211.139 893.168 211.4 894.047 211.4C895.406 211.4 896.468 210.908 897.233 209.923L898.966 211.864C898.437 212.612 897.721 213.198 896.818 213.622C895.915 214.037 894.914 214.244 893.815 214.244ZM893.412 203.404C892.712 203.404 892.143 203.64 891.703 204.112C891.272 204.584 890.995 205.26 890.873 206.139H895.78V205.858C895.764 205.077 895.552 204.474 895.146 204.051C894.739 203.62 894.161 203.404 893.412 203.404ZM908.683 204.1C908.203 204.035 907.78 204.002 907.414 204.002C906.079 204.002 905.204 204.454 904.789 205.357V214H901.261V200.792H904.594L904.691 202.367C905.399 201.154 906.38 200.548 907.633 200.548C908.024 200.548 908.39 200.601 908.732 200.707L908.683 204.1ZM915.556 209.691L918.009 200.792H921.696L917.24 214H913.871L909.416 200.792H913.102L915.556 209.691ZM926.981 214H923.441V200.792H926.981V214ZM923.234 197.374C923.234 196.845 923.409 196.41 923.759 196.068C924.117 195.726 924.601 195.555 925.211 195.555C925.814 195.555 926.294 195.726 926.652 196.068C927.01 196.41 927.189 196.845 927.189 197.374C927.189 197.911 927.006 198.351 926.64 198.692C926.282 199.034 925.806 199.205 925.211 199.205C924.617 199.205 924.137 199.034 923.771 198.692C923.413 198.351 923.234 197.911 923.234 197.374ZM935.392 211.4C936.043 211.4 936.572 211.221 936.979 210.863C937.386 210.505 937.597 210.029 937.614 209.435H940.922C940.914 210.33 940.67 211.152 940.189 211.9C939.709 212.641 939.05 213.219 938.212 213.634C937.382 214.041 936.462 214.244 935.453 214.244C933.565 214.244 932.076 213.646 930.985 212.45C929.895 211.245 929.35 209.585 929.35 207.469V207.237C929.35 205.203 929.891 203.579 930.973 202.367C932.056 201.154 933.541 200.548 935.429 200.548C937.081 200.548 938.403 201.02 939.396 201.964C940.397 202.9 940.906 204.149 940.922 205.711H937.614C937.597 205.028 937.386 204.474 936.979 204.051C936.572 203.62 936.035 203.404 935.368 203.404C934.546 203.404 933.923 203.705 933.5 204.308C933.085 204.902 932.877 205.87 932.877 207.213V207.579C932.877 208.938 933.085 209.915 933.5 210.509C933.915 211.103 934.546 211.4 935.392 211.4ZM949.015 214.244C947.078 214.244 945.5 213.65 944.279 212.462C943.066 211.274 942.46 209.691 942.46 207.713V207.372C942.46 206.045 942.716 204.861 943.229 203.819C943.742 202.77 944.466 201.964 945.402 201.402C946.346 200.833 947.42 200.548 948.625 200.548C950.431 200.548 951.851 201.118 952.885 202.257C953.926 203.396 954.447 205.012 954.447 207.103V208.543H946.037C946.151 209.406 946.492 210.098 947.062 210.619C947.64 211.139 948.368 211.4 949.247 211.4C950.606 211.4 951.668 210.908 952.433 209.923L954.167 211.864C953.638 212.612 952.921 213.198 952.018 213.622C951.115 214.037 950.114 214.244 949.015 214.244ZM948.612 203.404C947.912 203.404 947.343 203.64 946.903 204.112C946.472 204.584 946.195 205.26 946.073 206.139H950.98V205.858C950.964 205.077 950.753 204.474 950.346 204.051C949.939 203.62 949.361 203.404 948.612 203.404Z" fill="white"/>
<rect x="1178" y="216" width="240" height="168" fill="#A4FB96"/>
<rect x="1183" y="273" width="230" height="100" fill="#7367FF"/>
<path d="M1255.54 325.08C1255.4 326.992 1254.69 328.498 1253.42 329.596C1252.15 330.695 1250.47 331.244 1248.39 331.244C1246.11 331.244 1244.31 330.479 1243 328.949C1241.7 327.411 1241.05 325.303 1241.05 322.626V321.54C1241.05 319.831 1241.35 318.325 1241.95 317.023C1242.56 315.721 1243.41 314.724 1244.53 314.032C1245.65 313.332 1246.95 312.982 1248.44 312.982C1250.49 312.982 1252.14 313.532 1253.39 314.63C1254.64 315.729 1255.37 317.271 1255.56 319.257H1251.9C1251.81 318.109 1251.49 317.279 1250.94 316.767C1250.39 316.246 1249.56 315.985 1248.44 315.985C1247.21 315.985 1246.3 316.425 1245.69 317.304C1245.09 318.174 1244.78 319.529 1244.76 321.369V322.711C1244.76 324.632 1245.05 326.036 1245.63 326.923C1246.21 327.81 1247.13 328.253 1248.39 328.253C1249.52 328.253 1250.36 327.997 1250.91 327.484C1251.47 326.964 1251.8 326.162 1251.88 325.08H1255.54ZM1257.16 324.274C1257.16 322.964 1257.42 321.796 1257.92 320.771C1258.42 319.745 1259.15 318.952 1260.09 318.39C1261.04 317.829 1262.15 317.548 1263.4 317.548C1265.18 317.548 1266.64 318.093 1267.76 319.184C1268.89 320.274 1269.52 321.755 1269.65 323.627L1269.68 324.53C1269.68 326.557 1269.11 328.184 1267.98 329.413C1266.85 330.634 1265.33 331.244 1263.43 331.244C1261.52 331.244 1260 330.634 1258.86 329.413C1257.73 328.192 1257.16 326.532 1257.16 324.433V324.274ZM1260.69 324.53C1260.69 325.784 1260.93 326.744 1261.4 327.411C1261.87 328.07 1262.55 328.4 1263.43 328.4C1264.28 328.4 1264.95 328.074 1265.43 327.423C1265.91 326.764 1266.15 325.714 1266.15 324.274C1266.15 323.045 1265.91 322.093 1265.43 321.417C1264.95 320.742 1264.27 320.404 1263.4 320.404C1262.54 320.404 1261.87 320.742 1261.4 321.417C1260.93 322.085 1260.69 323.122 1260.69 324.53ZM1275.1 317.792L1275.21 319.318C1276.15 318.138 1277.41 317.548 1279 317.548C1280.4 317.548 1281.44 317.959 1282.13 318.781C1282.81 319.603 1283.16 320.832 1283.18 322.467V331H1279.65V322.553C1279.65 321.804 1279.49 321.263 1279.16 320.929C1278.83 320.587 1278.29 320.417 1277.54 320.417C1276.54 320.417 1275.8 320.84 1275.3 321.686V331H1271.77V317.792H1275.1ZM1290.09 314.545V317.792H1292.34V320.38H1290.09V326.972C1290.09 327.46 1290.18 327.81 1290.37 328.021C1290.55 328.233 1290.91 328.339 1291.44 328.339C1291.83 328.339 1292.18 328.31 1292.48 328.253V330.927C1291.79 331.138 1291.07 331.244 1290.34 331.244C1287.87 331.244 1286.61 329.995 1286.56 327.497V320.38H1284.63V317.792H1286.56V314.545H1290.09ZM1301.96 331C1301.8 330.683 1301.68 330.288 1301.61 329.816C1300.75 330.768 1299.64 331.244 1298.28 331.244C1296.98 331.244 1295.91 330.87 1295.05 330.121C1294.21 329.372 1293.78 328.428 1293.78 327.289C1293.78 325.889 1294.3 324.815 1295.33 324.066C1296.38 323.318 1297.88 322.939 1299.84 322.931H1301.46V322.174C1301.46 321.564 1301.3 321.076 1300.99 320.709C1300.68 320.343 1300.18 320.16 1299.51 320.16C1298.92 320.16 1298.45 320.303 1298.11 320.587C1297.77 320.872 1297.6 321.263 1297.6 321.759H1294.08C1294.08 320.994 1294.31 320.286 1294.79 319.635C1295.26 318.984 1295.92 318.476 1296.79 318.109C1297.65 317.735 1298.62 317.548 1299.69 317.548C1301.32 317.548 1302.61 317.959 1303.56 318.781C1304.52 319.595 1305 320.742 1305 322.223V327.948C1305.01 329.201 1305.19 330.15 1305.53 330.792V331H1301.96ZM1299.05 328.546C1299.57 328.546 1300.05 328.432 1300.49 328.205C1300.93 327.969 1301.25 327.655 1301.46 327.265V324.994H1300.14C1298.38 324.994 1297.44 325.604 1297.32 326.825L1297.31 327.033C1297.31 327.472 1297.47 327.834 1297.78 328.119C1298.09 328.404 1298.51 328.546 1299.05 328.546ZM1311.44 331H1307.9V317.792H1311.44V331ZM1307.69 314.374C1307.69 313.845 1307.86 313.41 1308.21 313.068C1308.57 312.726 1309.06 312.555 1309.67 312.555C1310.27 312.555 1310.75 312.726 1311.11 313.068C1311.46 313.41 1311.64 313.845 1311.64 314.374C1311.64 314.911 1311.46 315.351 1311.09 315.692C1310.74 316.034 1310.26 316.205 1309.67 316.205C1309.07 316.205 1308.59 316.034 1308.23 315.692C1307.87 315.351 1307.69 314.911 1307.69 314.374ZM1317.6 317.792L1317.71 319.318C1318.65 318.138 1319.92 317.548 1321.51 317.548C1322.91 317.548 1323.95 317.959 1324.63 318.781C1325.31 319.603 1325.66 320.832 1325.68 322.467V331H1322.15V322.553C1322.15 321.804 1321.99 321.263 1321.67 320.929C1321.34 320.587 1320.8 320.417 1320.04 320.417C1319.05 320.417 1318.3 320.84 1317.81 321.686V331H1314.28V317.792H1317.6ZM1334.45 331.244C1332.51 331.244 1330.93 330.65 1329.71 329.462C1328.5 328.274 1327.89 326.691 1327.89 324.713V324.372C1327.89 323.045 1328.15 321.861 1328.66 320.819C1329.17 319.77 1329.9 318.964 1330.83 318.402C1331.78 317.833 1332.85 317.548 1334.06 317.548C1335.86 317.548 1337.28 318.118 1338.32 319.257C1339.36 320.396 1339.88 322.012 1339.88 324.103V325.543H1331.47C1331.58 326.406 1331.92 327.098 1332.49 327.619C1333.07 328.139 1333.8 328.4 1334.68 328.4C1336.04 328.4 1337.1 327.908 1337.86 326.923L1339.6 328.864C1339.07 329.612 1338.35 330.198 1337.45 330.622C1336.55 331.037 1335.54 331.244 1334.45 331.244ZM1334.04 320.404C1333.34 320.404 1332.77 320.64 1332.33 321.112C1331.9 321.584 1331.63 322.26 1331.5 323.139H1336.41V322.858C1336.39 322.077 1336.18 321.474 1335.78 321.051C1335.37 320.62 1334.79 320.404 1334.04 320.404ZM1349.31 321.1C1348.83 321.035 1348.41 321.002 1348.04 321.002C1346.71 321.002 1345.83 321.454 1345.42 322.357V331H1341.89V317.792H1345.22L1345.32 319.367C1346.03 318.154 1347.01 317.548 1348.26 317.548C1348.65 317.548 1349.02 317.601 1349.36 317.707L1349.31 321.1Z" fill="white"/>
<path d="M1277.3 246.485V254H1272.9V232.672H1281.22C1282.83 232.672 1284.23 232.965 1285.44 233.551C1286.66 234.137 1287.6 234.972 1288.26 236.056C1288.91 237.13 1289.24 238.355 1289.24 239.732C1289.24 241.822 1288.52 243.473 1287.08 244.684C1285.66 245.885 1283.68 246.485 1281.15 246.485H1277.3ZM1277.3 242.926H1281.22C1282.39 242.926 1283.27 242.652 1283.88 242.105C1284.49 241.559 1284.8 240.777 1284.8 239.762C1284.8 238.717 1284.49 237.872 1283.88 237.228C1283.26 236.583 1282.41 236.251 1281.33 236.231H1277.3V242.926ZM1291.13 245.929C1291.13 244.356 1291.43 242.955 1292.04 241.725C1292.64 240.494 1293.51 239.542 1294.64 238.868C1295.79 238.194 1297.11 237.857 1298.61 237.857C1300.75 237.857 1302.49 238.512 1303.84 239.82C1305.2 241.129 1305.96 242.906 1306.11 245.152L1306.14 246.236C1306.14 248.668 1305.46 250.621 1304.11 252.096C1302.75 253.561 1300.93 254.293 1298.64 254.293C1296.36 254.293 1294.53 253.561 1293.16 252.096C1291.81 250.631 1291.13 248.639 1291.13 246.119V245.929ZM1295.36 246.236C1295.36 247.74 1295.64 248.893 1296.21 249.693C1296.78 250.484 1297.59 250.88 1298.64 250.88C1299.67 250.88 1300.47 250.489 1301.04 249.708C1301.62 248.917 1301.91 247.657 1301.91 245.929C1301.91 244.454 1301.62 243.312 1301.04 242.501C1300.47 241.69 1299.66 241.285 1298.61 241.285C1297.58 241.285 1296.78 241.69 1296.21 242.501C1295.64 243.302 1295.36 244.547 1295.36 246.236ZM1308.09 245.958C1308.09 243.487 1308.64 241.52 1309.75 240.055C1310.86 238.59 1312.38 237.857 1314.3 237.857C1315.84 237.857 1317.12 238.434 1318.12 239.586V231.5H1322.37V254H1318.55L1318.34 252.315C1317.29 253.634 1315.93 254.293 1314.27 254.293C1312.41 254.293 1310.91 253.561 1309.77 252.096C1308.65 250.621 1308.09 248.575 1308.09 245.958ZM1312.32 246.266C1312.32 247.75 1312.58 248.888 1313.1 249.679C1313.62 250.47 1314.37 250.865 1315.36 250.865C1316.66 250.865 1317.59 250.313 1318.12 249.21V242.955C1317.6 241.852 1316.68 241.3 1315.38 241.3C1313.34 241.3 1312.32 242.955 1312.32 246.266Z" fill="black"/>
<path d="M1163.49 93.1851C1163.6 91.8082 1162.56 90.6091 1161.19 90.5069L1138.75 88.8411C1137.37 88.7389 1136.17 89.7723 1136.07 91.1492C1135.97 92.5261 1137 93.7252 1138.38 93.8274L1158.32 95.3081L1156.84 115.253C1156.74 116.63 1157.77 117.829 1159.15 117.931C1160.53 118.034 1161.73 117 1161.83 115.623L1163.49 93.1851ZM1039.63 200.894L1162.63 94.8938L1159.37 91.1062L1036.37 197.106L1039.63 200.894Z" fill="black"/>
<path d="M1161.22 310.49C1162.6 310.369 1163.61 309.155 1163.49 307.78L1161.51 285.367C1161.39 283.992 1160.17 282.976 1158.8 283.097C1157.42 283.219 1156.4 284.433 1156.53 285.808L1158.29 305.73L1138.37 307.493C1136.99 307.615 1135.98 308.828 1136.1 310.204C1136.22 311.579 1137.43 312.595 1138.81 312.474L1161.22 310.49ZM1036.39 206.917L1159.39 309.917L1162.61 306.083L1039.61 203.083L1036.39 206.917Z" fill="black"/>
</svg>
