<svg width="914" height="631" viewBox="0 0 914 631" fill="none" xmlns="http://www.w3.org/2000/svg">
<path d="M414.085 244.934C408.139 244.934 402.524 242.292 398.725 237.502L340.92 165.657C337.121 160.867 335.635 154.757 337.121 148.81L357.766 59.128C359.087 53.182 363.051 48.392 368.502 45.75L452.073 5.78C454.716 4.46 457.689 3.799 460.662 3.799C463.635 3.799 466.607 4.459 469.25 5.781L552.822 45.585C558.272 48.227 562.236 53.017 563.557 58.963L584.202 148.645C585.524 154.591 584.202 160.702 580.404 165.492L522.597 237.337C518.798 241.961 513.183 244.769 507.237 244.769L414.087 244.934H414.085Z" fill="#326DE6"/>
<path d="M460.495 7.928C462.808 7.928 465.12 8.423 467.267 9.414L550.839 49.218C555.133 51.365 558.436 55.329 559.427 59.954L580.072 149.636C581.228 154.426 580.072 159.381 576.934 163.179L519.128 235.025C516.155 238.823 511.53 240.97 506.741 240.97H414.085C409.295 240.97 404.671 238.823 401.698 235.025L343.892 163.179C340.919 159.381 339.762 154.426 340.754 149.636L361.399 59.954C362.555 55.164 365.693 51.2 369.987 49.218L453.56 9.25C455.707 8.424 458.184 7.929 460.496 7.929L460.495 7.928ZM460.495 0.165001C457.027 0.165001 453.559 0.991001 450.255 2.477L366.684 42.447C360.077 45.585 355.453 51.365 353.801 58.467L333.156 148.15C331.505 155.252 333.156 162.519 337.781 168.3L395.587 240.145C400.047 245.76 406.818 248.898 413.92 248.898H506.575C513.677 248.898 520.449 245.76 524.908 240.145L582.715 168.299C587.339 162.684 588.991 155.252 587.339 148.149L566.694 58.467C565.043 51.365 560.418 45.585 553.812 42.447L470.57 2.476C467.432 0.991001 463.964 0.165001 460.495 0.165001V0.165001Z" fill="white"/>
<path d="M544.232 142.534C544.067 142.534 544.067 142.534 544.232 142.534H544.067C543.902 142.534 543.737 142.534 543.737 142.369C543.407 142.369 543.077 142.204 542.746 142.204C541.59 142.039 540.599 141.874 539.608 141.874C539.112 141.874 538.617 141.874 537.956 141.708H537.791C534.323 141.378 531.515 141.048 528.872 140.222C527.716 139.726 527.386 139.066 527.055 138.405C527.055 138.24 526.89 138.24 526.89 138.075L524.743 137.415C525.757 129.645 525.366 121.757 523.587 114.126C521.784 106.432 518.654 99.1103 514.338 92.49L515.99 91.004V90.674C515.99 89.848 516.155 89.022 516.815 88.196C518.797 86.379 521.275 84.893 524.248 83.076C524.743 82.746 525.238 82.581 525.734 82.25C526.725 81.755 527.551 81.26 528.542 80.599C528.707 80.434 529.037 80.269 529.368 79.939C529.533 79.773 529.698 79.773 529.698 79.608C532.01 77.626 532.506 74.323 530.854 72.175C530.028 71.019 528.542 70.359 527.055 70.359C525.735 70.359 524.578 70.854 523.422 71.68L523.092 72.01C522.762 72.175 522.596 72.506 522.266 72.671C521.44 73.497 520.779 74.157 520.119 74.983C519.789 75.313 519.459 75.809 518.963 76.139C516.65 78.617 514.503 80.599 512.356 82.085C511.861 82.415 511.366 82.581 510.87 82.581C510.54 82.581 510.209 82.581 509.879 82.415H509.549L507.566 83.737C505.419 81.425 503.107 79.443 500.795 77.461C490.839 69.6791 478.858 64.9208 466.276 63.752L466.111 61.605L465.781 61.275C465.285 60.779 464.625 60.284 464.459 59.128C464.294 56.485 464.625 53.512 464.955 50.209V50.044C464.955 49.548 465.12 48.888 465.285 48.392C465.45 47.402 465.615 46.41 465.781 45.254V43.768C465.781 40.795 463.468 38.318 460.661 38.318C459.339 38.318 458.018 38.978 457.027 39.969C456.037 40.96 455.541 42.281 455.541 43.768V45.089C455.541 46.245 455.706 47.236 456.036 48.227C456.201 48.723 456.201 49.218 456.366 49.879V50.044C456.696 53.347 457.192 56.32 456.862 58.963C456.697 60.119 456.036 60.614 455.541 61.11L455.211 61.44L455.045 63.587C452.072 63.917 449.099 64.247 446.126 64.908C433.409 67.716 422.178 74.158 413.425 83.406L411.773 82.25H411.443C411.113 82.25 410.782 82.415 410.452 82.415C409.956 82.415 409.461 82.25 408.965 81.92C406.818 80.434 404.671 78.286 402.359 75.809C402.029 75.479 401.699 74.983 401.203 74.653C400.542 73.827 399.881 73.166 399.055 72.341C398.89 72.175 398.56 72.011 398.23 71.68C398.065 71.515 397.9 71.515 397.9 71.35C396.877 70.5046 395.593 70.0377 394.266 70.028C392.779 70.028 391.293 70.689 390.467 71.845C388.815 73.992 389.311 77.295 391.623 79.277C391.788 79.277 391.788 79.443 391.953 79.443C392.283 79.608 392.449 79.938 392.779 80.103C393.77 80.763 394.596 81.259 395.587 81.755C396.083 81.92 396.578 82.25 397.074 82.581C400.046 84.397 402.524 85.884 404.506 87.701C405.332 88.526 405.332 89.352 405.332 90.178V90.508L406.983 91.995C406.653 92.49 406.323 92.821 406.157 93.316C397.899 106.364 394.761 121.724 396.908 136.919L394.761 137.579C394.761 137.745 394.596 137.745 394.596 137.909C394.266 138.57 393.77 139.231 392.779 139.726C390.302 140.552 387.329 140.883 383.861 141.213H383.695C383.2 141.213 382.539 141.213 382.044 141.378C381.053 141.378 380.062 141.543 378.906 141.708C378.576 141.708 378.246 141.874 377.915 141.874C377.75 141.874 377.585 141.874 377.419 142.039C374.446 142.699 372.629 145.507 373.125 148.149C373.621 150.462 375.768 151.949 378.41 151.949C378.906 151.949 379.236 151.949 379.732 151.783C379.897 151.783 380.062 151.783 380.062 151.618C380.392 151.618 380.722 151.453 381.052 151.453C382.209 151.123 383.035 150.793 384.026 150.297C384.521 150.132 385.016 149.801 385.512 149.637H385.677C388.815 148.48 391.623 147.489 394.266 147.159H394.596C395.587 147.159 396.248 147.654 396.743 147.985C396.908 147.985 396.908 148.15 397.073 148.15L399.386 147.82C403.35 160.041 410.947 170.942 421.022 178.87C423.334 180.686 425.646 182.173 428.124 183.66L427.133 185.806C427.133 185.972 427.298 185.972 427.298 186.136C427.628 186.797 427.958 187.623 427.628 188.779C426.638 191.257 425.151 193.734 423.334 196.542V196.707C423.004 197.203 422.674 197.533 422.344 198.028C421.683 198.854 421.187 199.68 420.526 200.671C420.361 200.836 420.196 201.166 420.031 201.497C420.031 201.662 419.866 201.827 419.866 201.827C418.545 204.635 419.536 207.773 422.013 208.929C422.673 209.259 423.334 209.425 423.995 209.425C425.977 209.425 427.959 208.103 428.95 206.286C428.95 206.121 429.115 205.956 429.115 205.956C429.28 205.626 429.445 205.296 429.61 205.13C430.106 203.974 430.271 203.148 430.601 202.157L431.097 200.671C432.253 197.368 433.079 194.725 434.565 192.413C435.225 191.422 436.052 191.257 436.712 190.926C436.877 190.926 436.877 190.926 437.042 190.761L438.199 188.614C445.466 191.422 453.394 192.908 461.321 192.908C466.111 192.908 471.066 192.413 475.691 191.257C478.601 190.606 481.469 189.779 484.279 188.779L485.269 190.596C485.435 190.596 485.435 190.596 485.6 190.761C486.426 190.926 487.086 191.257 487.747 192.248C489.068 194.56 490.059 197.368 491.215 200.506V200.671L491.711 202.157C492.041 203.148 492.206 204.139 492.701 205.13C492.867 205.46 493.032 205.626 493.197 205.956C493.197 206.121 493.363 206.286 493.363 206.286C494.353 208.268 496.335 209.425 498.317 209.425C498.978 209.425 499.639 209.259 500.299 208.929C501.455 208.269 502.446 207.277 502.777 205.956C503.107 204.635 503.107 203.148 502.447 201.827C502.447 201.662 502.281 201.662 502.281 201.497C502.116 201.167 501.951 200.837 501.786 200.671C501.29 199.68 500.63 198.854 499.969 198.028C499.639 197.533 499.309 197.203 498.979 196.708V196.542C497.161 193.734 495.509 191.257 494.684 188.779C494.354 187.623 494.684 186.963 494.849 186.137C494.849 185.972 495.014 185.972 495.014 185.807L494.188 183.825C502.942 178.705 510.374 171.437 515.99 162.519C518.963 157.894 521.275 152.774 522.926 147.654L524.908 147.984C525.074 147.984 525.074 147.819 525.238 147.819C525.899 147.489 526.395 146.994 527.386 146.994H527.716C530.359 147.324 533.166 148.314 536.305 149.471H536.47C536.965 149.636 537.46 149.966 537.956 150.131C538.947 150.627 539.773 150.957 540.929 151.288C541.259 151.288 541.589 151.453 541.92 151.453C542.085 151.453 542.25 151.453 542.415 151.618C542.911 151.783 543.241 151.783 543.737 151.783C546.214 151.783 548.361 150.132 549.022 147.985C549.022 146.003 547.205 143.36 544.232 142.535V142.534ZM467.762 134.441L460.495 137.91L453.228 134.441L451.412 126.679L456.366 120.403H464.459L469.414 126.679L467.763 134.441H467.762ZM510.87 117.265C512.151 122.726 512.542 128.359 512.026 133.945L486.756 126.679C484.444 126.019 483.123 123.706 483.618 121.394C483.783 120.733 484.114 120.072 484.609 119.577L504.594 101.574C507.401 106.199 509.548 111.484 510.87 117.264V117.265ZM496.666 91.665L475.03 107.025C473.213 108.181 470.735 107.85 469.249 106.034C468.754 105.538 468.589 104.877 468.423 104.217L466.937 77.295C478.185 78.5902 488.664 83.6551 496.666 91.665V91.665ZM448.769 78.12C450.586 77.79 452.237 77.46 454.054 77.13L452.568 103.555C452.403 105.867 450.586 107.849 448.108 107.849C447.448 107.849 446.622 107.684 446.126 107.354L424.16 91.665C430.932 84.893 439.355 80.268 448.769 78.121V78.12ZM416.232 101.573L435.886 119.08C437.703 120.567 437.868 123.374 436.382 125.191C435.886 125.851 435.226 126.347 434.4 126.513L408.8 133.945C407.809 122.714 410.286 111.318 416.232 101.573V101.573ZM411.772 146.332L438.034 141.872C440.181 141.707 442.163 143.194 442.658 145.341C442.823 146.331 442.823 147.158 442.493 147.984L432.418 172.262C423.169 166.316 415.737 157.232 411.773 146.332H411.772ZM472.057 179.199C468.258 180.025 464.459 180.52 460.495 180.52C454.715 180.52 449.099 179.53 443.815 177.878L456.862 154.26C458.183 152.773 460.33 152.113 462.147 153.104C462.918 153.576 463.591 154.193 464.129 154.92L476.846 177.878C475.36 178.373 473.708 178.704 472.056 179.199H472.057ZM504.263 156.242C500.134 162.848 494.683 168.133 488.408 172.262L478.003 147.322C477.507 145.341 478.333 143.194 480.315 142.202C480.975 141.872 481.801 141.707 482.627 141.707L509.053 146.167C508.062 149.8 506.41 153.104 504.263 156.242V156.242Z" fill="white"/>
<path d="M427.372 214.227L431.938 227.117L436.479 214.227H441.288V232H437.614V227.142L437.98 218.755L433.183 232H430.668L425.883 218.768L426.249 227.142V232H422.587V214.227H427.372ZM451.908 232C451.745 231.683 451.627 231.288 451.554 230.816C450.7 231.768 449.589 232.244 448.222 232.244C446.928 232.244 445.854 231.87 444.999 231.121C444.153 230.372 443.729 229.428 443.729 228.289C443.729 226.889 444.246 225.815 445.28 225.066C446.321 224.318 447.823 223.939 449.784 223.931H451.408V223.174C451.408 222.564 451.249 222.076 450.932 221.709C450.622 221.343 450.13 221.16 449.455 221.16C448.861 221.16 448.393 221.303 448.051 221.587C447.717 221.872 447.55 222.263 447.55 222.759H444.022C444.022 221.994 444.258 221.286 444.73 220.635C445.202 219.984 445.87 219.476 446.732 219.109C447.595 218.735 448.563 218.548 449.638 218.548C451.265 218.548 452.555 218.959 453.507 219.781C454.468 220.595 454.948 221.742 454.948 223.223V228.948C454.956 230.201 455.131 231.15 455.473 231.792V232H451.908ZM448.991 229.546C449.512 229.546 449.992 229.432 450.431 229.205C450.871 228.969 451.196 228.655 451.408 228.265V225.994H450.089C448.323 225.994 447.383 226.604 447.27 227.825L447.257 228.033C447.257 228.472 447.412 228.834 447.721 229.119C448.03 229.404 448.454 229.546 448.991 229.546ZM464.811 228.35C464.811 227.919 464.595 227.581 464.164 227.337C463.741 227.085 463.057 226.861 462.113 226.666C458.972 226.006 457.401 224.672 457.401 222.662C457.401 221.49 457.886 220.513 458.854 219.732C459.831 218.943 461.104 218.548 462.675 218.548C464.351 218.548 465.69 218.943 466.691 219.732C467.7 220.521 468.205 221.547 468.205 222.808H464.677C464.677 222.304 464.514 221.889 464.188 221.563C463.863 221.229 463.354 221.062 462.663 221.062C462.069 221.062 461.609 221.197 461.283 221.465C460.958 221.734 460.795 222.076 460.795 222.491C460.795 222.881 460.978 223.199 461.344 223.443C461.719 223.679 462.345 223.886 463.224 224.065C464.103 224.236 464.844 224.432 465.446 224.651C467.309 225.335 468.241 226.519 468.241 228.204C468.241 229.408 467.724 230.385 466.691 231.133C465.657 231.874 464.323 232.244 462.687 232.244C461.58 232.244 460.596 232.049 459.733 231.658C458.878 231.259 458.207 230.718 457.719 230.035C457.23 229.343 456.986 228.598 456.986 227.801H460.331C460.364 228.427 460.596 228.908 461.027 229.241C461.458 229.575 462.036 229.742 462.76 229.742C463.436 229.742 463.944 229.616 464.286 229.363C464.636 229.103 464.811 228.765 464.811 228.35ZM474.748 215.545V218.792H477.006V221.38H474.748V227.972C474.748 228.46 474.841 228.81 475.028 229.021C475.215 229.233 475.574 229.339 476.103 229.339C476.493 229.339 476.839 229.31 477.14 229.253V231.927C476.448 232.138 475.736 232.244 475.004 232.244C472.53 232.244 471.269 230.995 471.22 228.497V221.38H469.291V218.792H471.22V215.545H474.748ZM485.05 232.244C483.113 232.244 481.535 231.65 480.314 230.462C479.101 229.274 478.495 227.691 478.495 225.713V225.372C478.495 224.045 478.751 222.861 479.264 221.819C479.777 220.77 480.501 219.964 481.437 219.402C482.381 218.833 483.455 218.548 484.66 218.548C486.466 218.548 487.886 219.118 488.92 220.257C489.962 221.396 490.482 223.012 490.482 225.103V226.543H482.072C482.186 227.406 482.528 228.098 483.097 228.619C483.675 229.139 484.403 229.4 485.282 229.4C486.641 229.4 487.703 228.908 488.468 227.923L490.202 229.864C489.673 230.612 488.957 231.198 488.053 231.622C487.15 232.037 486.149 232.244 485.05 232.244ZM484.647 221.404C483.948 221.404 483.378 221.64 482.938 222.112C482.507 222.584 482.23 223.26 482.108 224.139H487.016V223.858C486.999 223.077 486.788 222.474 486.381 222.051C485.974 221.62 485.396 221.404 484.647 221.404ZM499.918 222.1C499.438 222.035 499.015 222.002 498.649 222.002C497.314 222.002 496.439 222.454 496.024 223.357V232H492.497V218.792H495.829L495.927 220.367C496.635 219.154 497.615 218.548 498.869 218.548C499.259 218.548 499.625 218.601 499.967 218.707L499.918 222.1Z" fill="black"/>
<rect y="381" width="250" height="250" fill="#C4C4C4"/>
<rect x="5" y="454" width="240" height="168" fill="#A4FB96"/>
<rect x="10" y="512" width="230" height="100" fill="#7367FF"/>
<path d="M105.456 430H100.329L90.3486 413.628V430H85.2217V405.117H90.3486L100.346 421.523V405.117H105.456V430ZM108.84 420.583C108.84 418.749 109.193 417.114 109.899 415.679C110.606 414.243 111.62 413.132 112.941 412.346C114.274 411.56 115.818 411.167 117.573 411.167C120.068 411.167 122.102 411.93 123.674 413.457C125.257 414.984 126.14 417.057 126.323 419.678L126.357 420.942C126.357 423.779 125.565 426.058 123.981 427.778C122.398 429.487 120.273 430.342 117.607 430.342C114.941 430.342 112.81 429.487 111.215 427.778C109.632 426.069 108.84 423.745 108.84 420.806V420.583ZM113.779 420.942C113.779 422.697 114.109 424.041 114.77 424.976C115.431 425.898 116.376 426.36 117.607 426.36C118.803 426.36 119.737 425.904 120.41 424.993C121.082 424.07 121.418 422.6 121.418 420.583C121.418 418.863 121.082 417.53 120.41 416.584C119.737 415.639 118.792 415.166 117.573 415.166C116.365 415.166 115.431 415.639 114.77 416.584C114.109 417.519 113.779 418.971 113.779 420.942ZM128.63 420.618C128.63 417.735 129.274 415.439 130.561 413.73C131.86 412.021 133.632 411.167 135.876 411.167C137.676 411.167 139.163 411.839 140.336 413.184V403.75H145.292V430H140.832L140.593 428.035C139.362 429.573 137.779 430.342 135.842 430.342C133.666 430.342 131.917 429.487 130.595 427.778C129.285 426.058 128.63 423.671 128.63 420.618ZM133.569 420.977C133.569 422.708 133.871 424.036 134.475 424.958C135.078 425.881 135.956 426.343 137.106 426.343C138.633 426.343 139.71 425.699 140.336 424.412V417.114C139.721 415.827 138.656 415.183 137.141 415.183C134.759 415.183 133.569 417.114 133.569 420.977ZM157.631 430.342C154.92 430.342 152.709 429.51 151 427.847C149.303 426.183 148.454 423.967 148.454 421.199V420.72C148.454 418.863 148.813 417.205 149.531 415.747C150.249 414.277 151.263 413.149 152.573 412.363C153.894 411.566 155.398 411.167 157.084 411.167C159.614 411.167 161.602 411.965 163.049 413.56C164.507 415.155 165.236 417.416 165.236 420.344V422.361H153.461C153.621 423.569 154.099 424.537 154.897 425.266C155.706 425.995 156.726 426.36 157.956 426.36C159.859 426.36 161.346 425.671 162.417 424.292L164.843 427.009C164.103 428.057 163.1 428.878 161.835 429.47C160.571 430.051 159.169 430.342 157.631 430.342ZM157.067 415.166C156.088 415.166 155.29 415.496 154.675 416.157C154.071 416.818 153.684 417.764 153.513 418.994H160.383V418.601C160.36 417.507 160.064 416.664 159.494 416.072C158.924 415.468 158.116 415.166 157.067 415.166Z" fill="black"/>
<path d="M104.299 485.485V493H99.9043V471.672H108.225C109.826 471.672 111.232 471.965 112.443 472.551C113.664 473.137 114.602 473.972 115.256 475.056C115.91 476.13 116.237 477.355 116.237 478.732C116.237 480.822 115.52 482.473 114.084 483.684C112.658 484.885 110.681 485.485 108.151 485.485H104.299ZM104.299 481.926H108.225C109.387 481.926 110.271 481.652 110.876 481.105C111.491 480.559 111.799 479.777 111.799 478.762C111.799 477.717 111.491 476.872 110.876 476.228C110.261 475.583 109.411 475.251 108.327 475.231H104.299V481.926ZM118.127 484.929C118.127 483.356 118.43 481.955 119.035 480.725C119.641 479.494 120.51 478.542 121.643 477.868C122.785 477.194 124.108 476.857 125.612 476.857C127.751 476.857 129.494 477.512 130.842 478.82C132.199 480.129 132.956 481.906 133.112 484.152L133.142 485.236C133.142 487.668 132.463 489.621 131.105 491.096C129.748 492.561 127.927 493.293 125.642 493.293C123.356 493.293 121.53 492.561 120.163 491.096C118.806 489.631 118.127 487.639 118.127 485.119V484.929ZM122.36 485.236C122.36 486.74 122.644 487.893 123.21 488.693C123.776 489.484 124.587 489.88 125.642 489.88C126.667 489.88 127.468 489.489 128.044 488.708C128.62 487.917 128.908 486.657 128.908 484.929C128.908 483.454 128.62 482.312 128.044 481.501C127.468 480.69 126.657 480.285 125.612 480.285C124.577 480.285 123.776 480.69 123.21 481.501C122.644 482.302 122.36 483.547 122.36 485.236ZM135.09 484.958C135.09 482.487 135.642 480.52 136.745 479.055C137.858 477.59 139.377 476.857 141.301 476.857C142.844 476.857 144.118 477.434 145.124 478.586V470.5H149.372V493H145.549L145.344 491.315C144.289 492.634 142.932 493.293 141.271 493.293C139.406 493.293 137.907 492.561 136.774 491.096C135.651 489.621 135.09 487.575 135.09 484.958ZM139.323 485.266C139.323 486.75 139.582 487.888 140.1 488.679C140.617 489.47 141.369 489.865 142.355 489.865C143.664 489.865 144.587 489.313 145.124 488.21V481.955C144.597 480.852 143.684 480.3 142.385 480.3C140.344 480.3 139.323 481.955 139.323 485.266Z" fill="black"/>
<path d="M85.5396 564.08C85.4012 565.992 84.6932 567.498 83.4155 568.596C82.146 569.695 80.4696 570.244 78.3862 570.244C76.1076 570.244 74.3132 569.479 73.0029 567.949C71.7008 566.411 71.0498 564.303 71.0498 561.626V560.54C71.0498 558.831 71.3509 557.325 71.9531 556.023C72.5553 554.721 73.4139 553.724 74.5288 553.032C75.6519 552.332 76.9539 551.982 78.4351 551.982C80.4858 551.982 82.1379 552.532 83.3911 553.63C84.6444 554.729 85.3687 556.271 85.564 558.257H81.9019C81.8123 557.109 81.4909 556.279 80.9375 555.767C80.3923 555.246 79.5581 554.985 78.4351 554.985C77.2144 554.985 76.2988 555.425 75.6885 556.304C75.0863 557.174 74.777 558.529 74.7607 560.369V561.711C74.7607 563.632 75.0496 565.036 75.6274 565.923C76.2134 566.81 77.133 567.253 78.3862 567.253C79.5174 567.253 80.3597 566.997 80.9131 566.484C81.4746 565.964 81.7961 565.162 81.8774 564.08H85.5396ZM87.1631 563.274C87.1631 561.964 87.4154 560.796 87.9199 559.771C88.4245 558.745 89.1488 557.952 90.0928 557.39C91.0449 556.829 92.1476 556.548 93.4009 556.548C95.1831 556.548 96.6357 557.093 97.7588 558.184C98.89 559.274 99.5207 560.755 99.6509 562.627L99.6753 563.53C99.6753 565.557 99.1097 567.184 97.9785 568.413C96.8473 569.634 95.3296 570.244 93.4253 570.244C91.521 570.244 89.9992 569.634 88.8599 568.413C87.7287 567.192 87.1631 565.532 87.1631 563.433V563.274ZM90.6909 563.53C90.6909 564.784 90.9269 565.744 91.3989 566.411C91.8709 567.07 92.5464 567.4 93.4253 567.4C94.2798 567.4 94.9471 567.074 95.4272 566.423C95.9074 565.764 96.1475 564.714 96.1475 563.274C96.1475 562.045 95.9074 561.093 95.4272 560.417C94.9471 559.742 94.2716 559.404 93.4009 559.404C92.5382 559.404 91.8709 559.742 91.3989 560.417C90.9269 561.085 90.6909 562.122 90.6909 563.53ZM105.095 556.792L105.205 558.318C106.149 557.138 107.415 556.548 109.001 556.548C110.401 556.548 111.443 556.959 112.126 557.781C112.81 558.603 113.16 559.832 113.176 561.467V570H109.648V561.553C109.648 560.804 109.486 560.263 109.16 559.929C108.835 559.587 108.293 559.417 107.537 559.417C106.544 559.417 105.799 559.84 105.303 560.686V570H101.775V556.792H105.095ZM120.085 553.545V556.792H122.344V559.38H120.085V565.972C120.085 566.46 120.179 566.81 120.366 567.021C120.553 567.233 120.911 567.339 121.44 567.339C121.831 567.339 122.177 567.31 122.478 567.253V569.927C121.786 570.138 121.074 570.244 120.342 570.244C117.868 570.244 116.606 568.995 116.558 566.497V559.38H114.629V556.792H116.558V553.545H120.085ZM131.963 570C131.8 569.683 131.682 569.288 131.609 568.816C130.754 569.768 129.644 570.244 128.276 570.244C126.982 570.244 125.908 569.87 125.054 569.121C124.207 568.372 123.784 567.428 123.784 566.289C123.784 564.889 124.301 563.815 125.334 563.066C126.376 562.318 127.878 561.939 129.839 561.931H131.462V561.174C131.462 560.564 131.304 560.076 130.986 559.709C130.677 559.343 130.185 559.16 129.509 559.16C128.915 559.16 128.447 559.303 128.105 559.587C127.772 559.872 127.605 560.263 127.605 560.759H124.077C124.077 559.994 124.313 559.286 124.785 558.635C125.257 557.984 125.924 557.476 126.787 557.109C127.65 556.735 128.618 556.548 129.692 556.548C131.32 556.548 132.61 556.959 133.562 557.781C134.522 558.595 135.002 559.742 135.002 561.223V566.948C135.011 568.201 135.186 569.15 135.527 569.792V570H131.963ZM129.045 567.546C129.566 567.546 130.046 567.432 130.486 567.205C130.925 566.969 131.251 566.655 131.462 566.265V563.994H130.144C128.378 563.994 127.438 564.604 127.324 565.825L127.312 566.033C127.312 566.472 127.467 566.834 127.776 567.119C128.085 567.404 128.508 567.546 129.045 567.546ZM141.436 570H137.896V556.792H141.436V570ZM137.688 553.374C137.688 552.845 137.863 552.41 138.213 552.068C138.571 551.726 139.055 551.555 139.666 551.555C140.268 551.555 140.748 551.726 141.106 552.068C141.464 552.41 141.643 552.845 141.643 553.374C141.643 553.911 141.46 554.351 141.094 554.692C140.736 555.034 140.26 555.205 139.666 555.205C139.071 555.205 138.591 555.034 138.225 554.692C137.867 554.351 137.688 553.911 137.688 553.374ZM147.6 556.792L147.71 558.318C148.654 557.138 149.919 556.548 151.506 556.548C152.906 556.548 153.948 556.959 154.631 557.781C155.315 558.603 155.665 559.832 155.681 561.467V570H152.153V561.553C152.153 560.804 151.991 560.263 151.665 559.929C151.34 559.587 150.798 559.417 150.042 559.417C149.049 559.417 148.304 559.84 147.808 560.686V570H144.28V556.792H147.6ZM164.446 570.244C162.509 570.244 160.93 569.65 159.709 568.462C158.497 567.274 157.891 565.691 157.891 563.713V563.372C157.891 562.045 158.147 560.861 158.66 559.819C159.172 558.77 159.897 557.964 160.833 557.402C161.777 556.833 162.851 556.548 164.055 556.548C165.862 556.548 167.282 557.118 168.315 558.257C169.357 559.396 169.878 561.012 169.878 563.103V564.543H161.467C161.581 565.406 161.923 566.098 162.493 566.619C163.07 567.139 163.799 567.4 164.678 567.4C166.037 567.4 167.099 566.908 167.864 565.923L169.597 567.864C169.068 568.612 168.352 569.198 167.449 569.622C166.545 570.037 165.544 570.244 164.446 570.244ZM164.043 559.404C163.343 559.404 162.773 559.64 162.334 560.112C161.903 560.584 161.626 561.26 161.504 562.139H166.411V561.858C166.395 561.077 166.183 560.474 165.776 560.051C165.369 559.62 164.792 559.404 164.043 559.404ZM179.314 560.1C178.834 560.035 178.411 560.002 178.044 560.002C176.71 560.002 175.835 560.454 175.42 561.357V570H171.892V556.792H175.225L175.322 558.367C176.03 557.154 177.011 556.548 178.264 556.548C178.655 556.548 179.021 556.601 179.363 556.707L179.314 560.1Z" fill="white"/>
<rect x="332" y="381" width="250" height="250" fill="#C4C4C4"/>
<rect x="337" y="454" width="240" height="168" fill="#A4FB96"/>
<rect x="342" y="512" width="230" height="100" fill="#7367FF"/>
<path d="M437.456 430H432.329L422.349 413.628V430H417.222V405.117H422.349L432.346 421.523V405.117H437.456V430ZM440.84 420.583C440.84 418.749 441.193 417.114 441.899 415.679C442.606 414.243 443.62 413.132 444.941 412.346C446.274 411.56 447.818 411.167 449.573 411.167C452.068 411.167 454.102 411.93 455.674 413.457C457.257 414.984 458.14 417.057 458.323 419.678L458.357 420.942C458.357 423.779 457.565 426.058 455.981 427.778C454.398 429.487 452.273 430.342 449.607 430.342C446.941 430.342 444.81 429.487 443.215 427.778C441.632 426.069 440.84 423.745 440.84 420.806V420.583ZM445.779 420.942C445.779 422.697 446.109 424.041 446.77 424.976C447.431 425.898 448.376 426.36 449.607 426.36C450.803 426.36 451.737 425.904 452.41 424.993C453.082 424.07 453.418 422.6 453.418 420.583C453.418 418.863 453.082 417.53 452.41 416.584C451.737 415.639 450.792 415.166 449.573 415.166C448.365 415.166 447.431 415.639 446.77 416.584C446.109 417.519 445.779 418.971 445.779 420.942ZM460.63 420.618C460.63 417.735 461.274 415.439 462.561 413.73C463.86 412.021 465.632 411.167 467.876 411.167C469.676 411.167 471.163 411.839 472.336 413.184V403.75H477.292V430H472.832L472.593 428.035C471.362 429.573 469.779 430.342 467.842 430.342C465.666 430.342 463.917 429.487 462.595 427.778C461.285 426.058 460.63 423.671 460.63 420.618ZM465.569 420.977C465.569 422.708 465.871 424.036 466.475 424.958C467.078 425.881 467.956 426.343 469.106 426.343C470.633 426.343 471.71 425.699 472.336 424.412V417.114C471.721 415.827 470.656 415.183 469.141 415.183C466.759 415.183 465.569 417.114 465.569 420.977ZM489.631 430.342C486.92 430.342 484.709 429.51 483 427.847C481.303 426.183 480.454 423.967 480.454 421.199V420.72C480.454 418.863 480.813 417.205 481.531 415.747C482.249 414.277 483.263 413.149 484.573 412.363C485.894 411.566 487.398 411.167 489.084 411.167C491.614 411.167 493.602 411.965 495.049 413.56C496.507 415.155 497.236 417.416 497.236 420.344V422.361H485.461C485.621 423.569 486.099 424.537 486.897 425.266C487.706 425.995 488.726 426.36 489.956 426.36C491.859 426.36 493.346 425.671 494.417 424.292L496.843 427.009C496.103 428.057 495.1 428.878 493.835 429.47C492.571 430.051 491.169 430.342 489.631 430.342ZM489.067 415.166C488.088 415.166 487.29 415.496 486.675 416.157C486.071 416.818 485.684 417.764 485.513 418.994H492.383V418.601C492.36 417.507 492.064 416.664 491.494 416.072C490.924 415.468 490.116 415.166 489.067 415.166Z" fill="black"/>
<path d="M436.299 485.485V493H431.904V471.672H440.225C441.826 471.672 443.232 471.965 444.443 472.551C445.664 473.137 446.602 473.972 447.256 475.056C447.91 476.13 448.237 477.355 448.237 478.732C448.237 480.822 447.52 482.473 446.084 483.684C444.658 484.885 442.681 485.485 440.151 485.485H436.299ZM436.299 481.926H440.225C441.387 481.926 442.271 481.652 442.876 481.105C443.491 480.559 443.799 479.777 443.799 478.762C443.799 477.717 443.491 476.872 442.876 476.228C442.261 475.583 441.411 475.251 440.327 475.231H436.299V481.926ZM450.127 484.929C450.127 483.356 450.43 481.955 451.035 480.725C451.641 479.494 452.51 478.542 453.643 477.868C454.785 477.194 456.108 476.857 457.612 476.857C459.751 476.857 461.494 477.512 462.842 478.82C464.199 480.129 464.956 481.906 465.112 484.152L465.142 485.236C465.142 487.668 464.463 489.621 463.105 491.096C461.748 492.561 459.927 493.293 457.642 493.293C455.356 493.293 453.53 492.561 452.163 491.096C450.806 489.631 450.127 487.639 450.127 485.119V484.929ZM454.36 485.236C454.36 486.74 454.644 487.893 455.21 488.693C455.776 489.484 456.587 489.88 457.642 489.88C458.667 489.88 459.468 489.489 460.044 488.708C460.62 487.917 460.908 486.657 460.908 484.929C460.908 483.454 460.62 482.312 460.044 481.501C459.468 480.69 458.657 480.285 457.612 480.285C456.577 480.285 455.776 480.69 455.21 481.501C454.644 482.302 454.36 483.547 454.36 485.236ZM467.09 484.958C467.09 482.487 467.642 480.52 468.745 479.055C469.858 477.59 471.377 476.857 473.301 476.857C474.844 476.857 476.118 477.434 477.124 478.586V470.5H481.372V493H477.549L477.344 491.315C476.289 492.634 474.932 493.293 473.271 493.293C471.406 493.293 469.907 492.561 468.774 491.096C467.651 489.621 467.09 487.575 467.09 484.958ZM471.323 485.266C471.323 486.75 471.582 487.888 472.1 488.679C472.617 489.47 473.369 489.865 474.355 489.865C475.664 489.865 476.587 489.313 477.124 488.21V481.955C476.597 480.852 475.684 480.3 474.385 480.3C472.344 480.3 471.323 481.955 471.323 485.266Z" fill="black"/>
<path d="M417.54 564.08C417.401 565.992 416.693 567.498 415.416 568.596C414.146 569.695 412.47 570.244 410.386 570.244C408.108 570.244 406.313 569.479 405.003 567.949C403.701 566.411 403.05 564.303 403.05 561.626V560.54C403.05 558.831 403.351 557.325 403.953 556.023C404.555 554.721 405.414 553.724 406.529 553.032C407.652 552.332 408.954 551.982 410.435 551.982C412.486 551.982 414.138 552.532 415.391 553.63C416.644 554.729 417.369 556.271 417.564 558.257H413.902C413.812 557.109 413.491 556.279 412.938 555.767C412.392 555.246 411.558 554.985 410.435 554.985C409.214 554.985 408.299 555.425 407.688 556.304C407.086 557.174 406.777 558.529 406.761 560.369V561.711C406.761 563.632 407.05 565.036 407.627 565.923C408.213 566.81 409.133 567.253 410.386 567.253C411.517 567.253 412.36 566.997 412.913 566.484C413.475 565.964 413.796 565.162 413.877 564.08H417.54ZM419.163 563.274C419.163 561.964 419.415 560.796 419.92 559.771C420.424 558.745 421.149 557.952 422.093 557.39C423.045 556.829 424.148 556.548 425.401 556.548C427.183 556.548 428.636 557.093 429.759 558.184C430.89 559.274 431.521 560.755 431.651 562.627L431.675 563.53C431.675 565.557 431.11 567.184 429.979 568.413C428.847 569.634 427.33 570.244 425.425 570.244C423.521 570.244 421.999 569.634 420.86 568.413C419.729 567.192 419.163 565.532 419.163 563.433V563.274ZM422.691 563.53C422.691 564.784 422.927 565.744 423.399 566.411C423.871 567.07 424.546 567.4 425.425 567.4C426.28 567.4 426.947 567.074 427.427 566.423C427.907 565.764 428.147 564.714 428.147 563.274C428.147 562.045 427.907 561.093 427.427 560.417C426.947 559.742 426.272 559.404 425.401 559.404C424.538 559.404 423.871 559.742 423.399 560.417C422.927 561.085 422.691 562.122 422.691 563.53ZM437.095 556.792L437.205 558.318C438.149 557.138 439.415 556.548 441.001 556.548C442.401 556.548 443.443 556.959 444.126 557.781C444.81 558.603 445.16 559.832 445.176 561.467V570H441.648V561.553C441.648 560.804 441.486 560.263 441.16 559.929C440.835 559.587 440.293 559.417 439.537 559.417C438.544 559.417 437.799 559.84 437.303 560.686V570H433.775V556.792H437.095ZM452.085 553.545V556.792H454.344V559.38H452.085V565.972C452.085 566.46 452.179 566.81 452.366 567.021C452.553 567.233 452.911 567.339 453.44 567.339C453.831 567.339 454.177 567.31 454.478 567.253V569.927C453.786 570.138 453.074 570.244 452.342 570.244C449.868 570.244 448.606 568.995 448.558 566.497V559.38H446.629V556.792H448.558V553.545H452.085ZM463.963 570C463.8 569.683 463.682 569.288 463.609 568.816C462.754 569.768 461.644 570.244 460.276 570.244C458.982 570.244 457.908 569.87 457.054 569.121C456.207 568.372 455.784 567.428 455.784 566.289C455.784 564.889 456.301 563.815 457.334 563.066C458.376 562.318 459.878 561.939 461.839 561.931H463.462V561.174C463.462 560.564 463.304 560.076 462.986 559.709C462.677 559.343 462.185 559.16 461.509 559.16C460.915 559.16 460.447 559.303 460.105 559.587C459.772 559.872 459.605 560.263 459.605 560.759H456.077C456.077 559.994 456.313 559.286 456.785 558.635C457.257 557.984 457.924 557.476 458.787 557.109C459.65 556.735 460.618 556.548 461.692 556.548C463.32 556.548 464.61 556.959 465.562 557.781C466.522 558.595 467.002 559.742 467.002 561.223V566.948C467.011 568.201 467.186 569.15 467.527 569.792V570H463.963ZM461.045 567.546C461.566 567.546 462.046 567.432 462.486 567.205C462.925 566.969 463.251 566.655 463.462 566.265V563.994H462.144C460.378 563.994 459.438 564.604 459.324 565.825L459.312 566.033C459.312 566.472 459.467 566.834 459.776 567.119C460.085 567.404 460.508 567.546 461.045 567.546ZM473.436 570H469.896V556.792H473.436V570ZM469.688 553.374C469.688 552.845 469.863 552.41 470.213 552.068C470.571 551.726 471.055 551.555 471.666 551.555C472.268 551.555 472.748 551.726 473.106 552.068C473.464 552.41 473.643 552.845 473.643 553.374C473.643 553.911 473.46 554.351 473.094 554.692C472.736 555.034 472.26 555.205 471.666 555.205C471.071 555.205 470.591 555.034 470.225 554.692C469.867 554.351 469.688 553.911 469.688 553.374ZM479.6 556.792L479.71 558.318C480.654 557.138 481.919 556.548 483.506 556.548C484.906 556.548 485.948 556.959 486.631 557.781C487.315 558.603 487.665 559.832 487.681 561.467V570H484.153V561.553C484.153 560.804 483.991 560.263 483.665 559.929C483.34 559.587 482.798 559.417 482.042 559.417C481.049 559.417 480.304 559.84 479.808 560.686V570H476.28V556.792H479.6ZM496.446 570.244C494.509 570.244 492.93 569.65 491.709 568.462C490.497 567.274 489.891 565.691 489.891 563.713V563.372C489.891 562.045 490.147 560.861 490.66 559.819C491.172 558.77 491.897 557.964 492.833 557.402C493.777 556.833 494.851 556.548 496.055 556.548C497.862 556.548 499.282 557.118 500.315 558.257C501.357 559.396 501.878 561.012 501.878 563.103V564.543H493.467C493.581 565.406 493.923 566.098 494.493 566.619C495.07 567.139 495.799 567.4 496.678 567.4C498.037 567.4 499.099 566.908 499.864 565.923L501.597 567.864C501.068 568.612 500.352 569.198 499.449 569.622C498.545 570.037 497.544 570.244 496.446 570.244ZM496.043 559.404C495.343 559.404 494.773 559.64 494.334 560.112C493.903 560.584 493.626 561.26 493.504 562.139H498.411V561.858C498.395 561.077 498.183 560.474 497.776 560.051C497.369 559.62 496.792 559.404 496.043 559.404ZM511.314 560.1C510.834 560.035 510.411 560.002 510.044 560.002C508.71 560.002 507.835 560.454 507.42 561.357V570H503.892V556.792H507.225L507.322 558.367C508.03 557.154 509.011 556.548 510.264 556.548C510.655 556.548 511.021 556.601 511.363 556.707L511.314 560.1Z" fill="white"/>
<rect x="664" y="381" width="250" height="250" fill="#C4C4C4"/>
<rect x="669" y="454" width="240" height="168" fill="#A4FB96"/>
<rect x="674" y="512" width="230" height="100" fill="#7367FF"/>
<rect x="640" y="14" width="230" height="100" fill="#326DE6"/>
<rect x="640" y="138" width="230" height="100" fill="#326DE6"/>
<rect x="50" y="14" width="230" height="100" fill="#326DE6"/>
<rect x="50" y="138" width="230" height="100" fill="#326DE6"/>
<path d="M769.456 430H764.329L754.349 413.628V430H749.222V405.117H754.349L764.346 421.523V405.117H769.456V430ZM772.84 420.583C772.84 418.749 773.193 417.114 773.899 415.679C774.606 414.243 775.62 413.132 776.941 412.346C778.274 411.56 779.818 411.167 781.573 411.167C784.068 411.167 786.102 411.93 787.674 413.457C789.257 414.984 790.14 417.057 790.323 419.678L790.357 420.942C790.357 423.779 789.565 426.058 787.981 427.778C786.398 429.487 784.273 430.342 781.607 430.342C778.941 430.342 776.81 429.487 775.215 427.778C773.632 426.069 772.84 423.745 772.84 420.806V420.583ZM777.779 420.942C777.779 422.697 778.109 424.041 778.77 424.976C779.431 425.898 780.376 426.36 781.607 426.36C782.803 426.36 783.737 425.904 784.41 424.993C785.082 424.07 785.418 422.6 785.418 420.583C785.418 418.863 785.082 417.53 784.41 416.584C783.737 415.639 782.792 415.166 781.573 415.166C780.365 415.166 779.431 415.639 778.77 416.584C778.109 417.519 777.779 418.971 777.779 420.942ZM792.63 420.618C792.63 417.735 793.274 415.439 794.561 413.73C795.86 412.021 797.632 411.167 799.876 411.167C801.676 411.167 803.163 411.839 804.336 413.184V403.75H809.292V430H804.832L804.593 428.035C803.362 429.573 801.779 430.342 799.842 430.342C797.666 430.342 795.917 429.487 794.595 427.778C793.285 426.058 792.63 423.671 792.63 420.618ZM797.569 420.977C797.569 422.708 797.871 424.036 798.475 424.958C799.078 425.881 799.956 426.343 801.106 426.343C802.633 426.343 803.71 425.699 804.336 424.412V417.114C803.721 415.827 802.656 415.183 801.141 415.183C798.759 415.183 797.569 417.114 797.569 420.977ZM821.631 430.342C818.92 430.342 816.709 429.51 815 427.847C813.303 426.183 812.454 423.967 812.454 421.199V420.72C812.454 418.863 812.813 417.205 813.531 415.747C814.249 414.277 815.263 413.149 816.573 412.363C817.894 411.566 819.398 411.167 821.084 411.167C823.614 411.167 825.602 411.965 827.049 413.56C828.507 415.155 829.236 417.416 829.236 420.344V422.361H817.461C817.621 423.569 818.099 424.537 818.897 425.266C819.706 425.995 820.726 426.36 821.956 426.36C823.859 426.36 825.346 425.671 826.417 424.292L828.843 427.009C828.103 428.057 827.1 428.878 825.835 429.47C824.571 430.051 823.169 430.342 821.631 430.342ZM821.067 415.166C820.088 415.166 819.29 415.496 818.675 416.157C818.071 416.818 817.684 417.764 817.513 418.994H824.383V418.601C824.36 417.507 824.064 416.664 823.494 416.072C822.924 415.468 822.116 415.166 821.067 415.166Z" fill="black"/>
<path d="M768.299 485.485V493H763.904V471.672H772.225C773.826 471.672 775.232 471.965 776.443 472.551C777.664 473.137 778.602 473.972 779.256 475.056C779.91 476.13 780.237 477.355 780.237 478.732C780.237 480.822 779.52 482.473 778.084 483.684C776.658 484.885 774.681 485.485 772.151 485.485H768.299ZM768.299 481.926H772.225C773.387 481.926 774.271 481.652 774.876 481.105C775.491 480.559 775.799 479.777 775.799 478.762C775.799 477.717 775.491 476.872 774.876 476.228C774.261 475.583 773.411 475.251 772.327 475.231H768.299V481.926ZM782.127 484.929C782.127 483.356 782.43 481.955 783.035 480.725C783.641 479.494 784.51 478.542 785.643 477.868C786.785 477.194 788.108 476.857 789.612 476.857C791.751 476.857 793.494 477.512 794.842 478.82C796.199 480.129 796.956 481.906 797.112 484.152L797.142 485.236C797.142 487.668 796.463 489.621 795.105 491.096C793.748 492.561 791.927 493.293 789.642 493.293C787.356 493.293 785.53 492.561 784.163 491.096C782.806 489.631 782.127 487.639 782.127 485.119V484.929ZM786.36 485.236C786.36 486.74 786.644 487.893 787.21 488.693C787.776 489.484 788.587 489.88 789.642 489.88C790.667 489.88 791.468 489.489 792.044 488.708C792.62 487.917 792.908 486.657 792.908 484.929C792.908 483.454 792.62 482.312 792.044 481.501C791.468 480.69 790.657 480.285 789.612 480.285C788.577 480.285 787.776 480.69 787.21 481.501C786.644 482.302 786.36 483.547 786.36 485.236ZM799.09 484.958C799.09 482.487 799.642 480.52 800.745 479.055C801.858 477.59 803.377 476.857 805.301 476.857C806.844 476.857 808.118 477.434 809.124 478.586V470.5H813.372V493H809.549L809.344 491.315C808.289 492.634 806.932 493.293 805.271 493.293C803.406 493.293 801.907 492.561 800.774 491.096C799.651 489.621 799.09 487.575 799.09 484.958ZM803.323 485.266C803.323 486.75 803.582 487.888 804.1 488.679C804.617 489.47 805.369 489.865 806.355 489.865C807.664 489.865 808.587 489.313 809.124 488.21V481.955C808.597 480.852 807.684 480.3 806.385 480.3C804.344 480.3 803.323 481.955 803.323 485.266Z" fill="black"/>
<path d="M749.54 564.08C749.401 565.992 748.693 567.498 747.416 568.596C746.146 569.695 744.47 570.244 742.386 570.244C740.108 570.244 738.313 569.479 737.003 567.949C735.701 566.411 735.05 564.303 735.05 561.626V560.54C735.05 558.831 735.351 557.325 735.953 556.023C736.555 554.721 737.414 553.724 738.529 553.032C739.652 552.332 740.954 551.982 742.435 551.982C744.486 551.982 746.138 552.532 747.391 553.63C748.644 554.729 749.369 556.271 749.564 558.257H745.902C745.812 557.109 745.491 556.279 744.938 555.767C744.392 555.246 743.558 554.985 742.435 554.985C741.214 554.985 740.299 555.425 739.688 556.304C739.086 557.174 738.777 558.529 738.761 560.369V561.711C738.761 563.632 739.05 565.036 739.627 565.923C740.213 566.81 741.133 567.253 742.386 567.253C743.517 567.253 744.36 566.997 744.913 566.484C745.475 565.964 745.796 565.162 745.877 564.08H749.54ZM751.163 563.274C751.163 561.964 751.415 560.796 751.92 559.771C752.424 558.745 753.149 557.952 754.093 557.39C755.045 556.829 756.148 556.548 757.401 556.548C759.183 556.548 760.636 557.093 761.759 558.184C762.89 559.274 763.521 560.755 763.651 562.627L763.675 563.53C763.675 565.557 763.11 567.184 761.979 568.413C760.847 569.634 759.33 570.244 757.425 570.244C755.521 570.244 753.999 569.634 752.86 568.413C751.729 567.192 751.163 565.532 751.163 563.433V563.274ZM754.691 563.53C754.691 564.784 754.927 565.744 755.399 566.411C755.871 567.07 756.546 567.4 757.425 567.4C758.28 567.4 758.947 567.074 759.427 566.423C759.907 565.764 760.147 564.714 760.147 563.274C760.147 562.045 759.907 561.093 759.427 560.417C758.947 559.742 758.272 559.404 757.401 559.404C756.538 559.404 755.871 559.742 755.399 560.417C754.927 561.085 754.691 562.122 754.691 563.53ZM769.095 556.792L769.205 558.318C770.149 557.138 771.415 556.548 773.001 556.548C774.401 556.548 775.443 556.959 776.126 557.781C776.81 558.603 777.16 559.832 777.176 561.467V570H773.648V561.553C773.648 560.804 773.486 560.263 773.16 559.929C772.835 559.587 772.293 559.417 771.537 559.417C770.544 559.417 769.799 559.84 769.303 560.686V570H765.775V556.792H769.095ZM784.085 553.545V556.792H786.344V559.38H784.085V565.972C784.085 566.46 784.179 566.81 784.366 567.021C784.553 567.233 784.911 567.339 785.44 567.339C785.831 567.339 786.177 567.31 786.478 567.253V569.927C785.786 570.138 785.074 570.244 784.342 570.244C781.868 570.244 780.606 568.995 780.558 566.497V559.38H778.629V556.792H780.558V553.545H784.085ZM795.963 570C795.8 569.683 795.682 569.288 795.609 568.816C794.754 569.768 793.644 570.244 792.276 570.244C790.982 570.244 789.908 569.87 789.054 569.121C788.207 568.372 787.784 567.428 787.784 566.289C787.784 564.889 788.301 563.815 789.334 563.066C790.376 562.318 791.878 561.939 793.839 561.931H795.462V561.174C795.462 560.564 795.304 560.076 794.986 559.709C794.677 559.343 794.185 559.16 793.509 559.16C792.915 559.16 792.447 559.303 792.105 559.587C791.772 559.872 791.605 560.263 791.605 560.759H788.077C788.077 559.994 788.313 559.286 788.785 558.635C789.257 557.984 789.924 557.476 790.787 557.109C791.65 556.735 792.618 556.548 793.692 556.548C795.32 556.548 796.61 556.959 797.562 557.781C798.522 558.595 799.002 559.742 799.002 561.223V566.948C799.011 568.201 799.186 569.15 799.527 569.792V570H795.963ZM793.045 567.546C793.566 567.546 794.046 567.432 794.486 567.205C794.925 566.969 795.251 566.655 795.462 566.265V563.994H794.144C792.378 563.994 791.438 564.604 791.324 565.825L791.312 566.033C791.312 566.472 791.467 566.834 791.776 567.119C792.085 567.404 792.508 567.546 793.045 567.546ZM805.436 570H801.896V556.792H805.436V570ZM801.688 553.374C801.688 552.845 801.863 552.41 802.213 552.068C802.571 551.726 803.055 551.555 803.666 551.555C804.268 551.555 804.748 551.726 805.106 552.068C805.464 552.41 805.643 552.845 805.643 553.374C805.643 553.911 805.46 554.351 805.094 554.692C804.736 555.034 804.26 555.205 803.666 555.205C803.071 555.205 802.591 555.034 802.225 554.692C801.867 554.351 801.688 553.911 801.688 553.374ZM811.6 556.792L811.71 558.318C812.654 557.138 813.919 556.548 815.506 556.548C816.906 556.548 817.948 556.959 818.631 557.781C819.315 558.603 819.665 559.832 819.681 561.467V570H816.153V561.553C816.153 560.804 815.991 560.263 815.665 559.929C815.34 559.587 814.798 559.417 814.042 559.417C813.049 559.417 812.304 559.84 811.808 560.686V570H808.28V556.792H811.6ZM828.446 570.244C826.509 570.244 824.93 569.65 823.709 568.462C822.497 567.274 821.891 565.691 821.891 563.713V563.372C821.891 562.045 822.147 560.861 822.66 559.819C823.172 558.77 823.897 557.964 824.833 557.402C825.777 556.833 826.851 556.548 828.055 556.548C829.862 556.548 831.282 557.118 832.315 558.257C833.357 559.396 833.878 561.012 833.878 563.103V564.543H825.467C825.581 565.406 825.923 566.098 826.493 566.619C827.07 567.139 827.799 567.4 828.678 567.4C830.037 567.4 831.099 566.908 831.864 565.923L833.597 567.864C833.068 568.612 832.352 569.198 831.449 569.622C830.545 570.037 829.544 570.244 828.446 570.244ZM828.043 559.404C827.343 559.404 826.773 559.64 826.334 560.112C825.903 560.584 825.626 561.26 825.504 562.139H830.411V561.858C830.395 561.077 830.183 560.474 829.776 560.051C829.369 559.62 828.792 559.404 828.043 559.404ZM843.314 560.1C842.834 560.035 842.411 560.002 842.044 560.002C840.71 560.002 839.835 560.454 839.42 561.357V570H835.892V556.792H839.225L839.322 558.367C840.03 557.154 841.011 556.548 842.264 556.548C842.655 556.548 843.021 556.601 843.363 556.707L843.314 560.1Z" fill="white"/>
<path d="M147.434 73.2441C145.497 73.2441 143.918 72.6501 142.698 71.4619C141.485 70.2738 140.879 68.6909 140.879 66.7134V66.3716C140.879 65.0451 141.135 63.861 141.648 62.8193C142.161 61.7695 142.885 60.9639 143.821 60.4023C144.765 59.8327 145.839 59.5479 147.043 59.5479C148.85 59.5479 150.27 60.1175 151.304 61.2568C152.345 62.3962 152.866 64.0116 152.866 66.103V67.5435H144.456C144.569 68.4061 144.911 69.0978 145.481 69.6187C146.059 70.1395 146.787 70.3999 147.666 70.3999C149.025 70.3999 150.087 69.9076 150.852 68.9229L152.585 70.8638C152.056 71.6125 151.34 72.1984 150.437 72.6216C149.534 73.0366 148.533 73.2441 147.434 73.2441ZM147.031 62.4043C146.331 62.4043 145.762 62.6403 145.322 63.1123C144.891 63.5843 144.614 64.2598 144.492 65.1387H149.399V64.8579C149.383 64.0767 149.172 63.4744 148.765 63.0513C148.358 62.62 147.78 62.4043 147.031 62.4043ZM159.104 56.5449V59.792H161.362V62.3799H159.104V68.9717C159.104 69.46 159.198 69.8099 159.385 70.0215C159.572 70.2331 159.93 70.3389 160.459 70.3389C160.85 70.3389 161.195 70.3104 161.497 70.2534V72.9268C160.805 73.1383 160.093 73.2441 159.36 73.2441C156.886 73.2441 155.625 71.995 155.576 69.4966V62.3799H153.647V59.792H155.576V56.5449H159.104ZM168.821 70.3999C169.472 70.3999 170.001 70.2209 170.408 69.8628C170.815 69.5047 171.026 69.0286 171.042 68.4346H174.351C174.342 69.3298 174.098 70.1517 173.618 70.9004C173.138 71.641 172.479 72.2188 171.641 72.6338C170.811 73.0407 169.891 73.2441 168.882 73.2441C166.994 73.2441 165.505 72.646 164.414 71.4497C163.324 70.2453 162.778 68.5851 162.778 66.4692V66.2373C162.778 64.2028 163.319 62.5793 164.402 61.3667C165.484 60.1541 166.969 59.5479 168.857 59.5479C170.509 59.5479 171.832 60.0199 172.825 60.9639C173.826 61.8997 174.334 63.1489 174.351 64.7114H171.042C171.026 64.0278 170.815 63.4744 170.408 63.0513C170.001 62.62 169.464 62.4043 168.796 62.4043C167.974 62.4043 167.352 62.7054 166.929 63.3076C166.514 63.9017 166.306 64.8701 166.306 66.2129V66.5791C166.306 67.9382 166.514 68.9147 166.929 69.5088C167.344 70.1029 167.974 70.3999 168.821 70.3999ZM175.815 66.2983C175.815 64.2394 176.275 62.5996 177.195 61.3789C178.123 60.1582 179.388 59.5479 180.991 59.5479C182.277 59.5479 183.339 60.028 184.177 60.9883V54.25H187.717V73H184.531L184.36 71.5962C183.481 72.6948 182.35 73.2441 180.967 73.2441C179.412 73.2441 178.163 72.6338 177.219 71.4131C176.283 70.1842 175.815 68.4793 175.815 66.2983ZM179.343 66.5547C179.343 67.7917 179.559 68.7397 179.99 69.3989C180.422 70.0581 181.048 70.3877 181.87 70.3877C182.961 70.3877 183.73 69.9279 184.177 69.0083V63.7959C183.738 62.8763 182.977 62.4165 181.895 62.4165C180.194 62.4165 179.343 63.7959 179.343 66.5547Z" fill="white"/>
<path d="M155.621 192.338H149.2L147.979 196H144.085L150.702 178.227H154.095L160.748 196H156.854L155.621 192.338ZM150.189 189.372H154.632L152.398 182.719L150.189 189.372ZM166.07 189.738V196H162.408V178.227H169.342C170.676 178.227 171.848 178.471 172.857 178.959C173.875 179.447 174.656 180.143 175.201 181.046C175.746 181.942 176.019 182.963 176.019 184.11C176.019 185.852 175.421 187.227 174.225 188.236C173.036 189.237 171.389 189.738 169.281 189.738H166.07ZM166.07 186.771H169.342C170.31 186.771 171.047 186.544 171.551 186.088C172.064 185.632 172.32 184.981 172.32 184.135C172.32 183.264 172.064 182.56 171.551 182.023C171.039 181.486 170.331 181.209 169.427 181.193H166.07V186.771ZM182.44 196H178.778V178.227H182.44V196Z" fill="white"/>
<path d="M708.803 192.337C708.803 191.645 708.559 191.116 708.071 190.75C707.583 190.376 706.704 189.985 705.434 189.578C704.165 189.163 703.16 188.756 702.419 188.357C700.401 187.267 699.392 185.798 699.392 183.951C699.392 182.99 699.66 182.136 700.197 181.387C700.743 180.63 701.52 180.04 702.529 179.617C703.546 179.194 704.685 178.982 705.947 178.982C707.216 178.982 708.347 179.214 709.34 179.678C710.333 180.134 711.102 180.781 711.647 181.619C712.201 182.457 712.478 183.41 712.478 184.476H708.815C708.815 183.662 708.559 183.031 708.046 182.583C707.534 182.128 706.813 181.9 705.886 181.9C704.991 181.9 704.295 182.091 703.798 182.474C703.302 182.848 703.054 183.344 703.054 183.963C703.054 184.541 703.343 185.025 703.92 185.416C704.506 185.806 705.365 186.172 706.496 186.514C708.579 187.141 710.097 187.918 711.049 188.846C712.001 189.773 712.478 190.929 712.478 192.312C712.478 193.851 711.896 195.059 710.732 195.938C709.568 196.809 708.002 197.244 706.032 197.244C704.665 197.244 703.42 196.996 702.297 196.5C701.174 195.995 700.315 195.307 699.721 194.437C699.135 193.566 698.842 192.557 698.842 191.409H702.517C702.517 193.37 703.688 194.351 706.032 194.351C706.903 194.351 707.583 194.176 708.071 193.826C708.559 193.468 708.803 192.972 708.803 192.337ZM720.229 194.4C720.88 194.4 721.409 194.221 721.816 193.863C722.223 193.505 722.434 193.029 722.451 192.435H725.759C725.751 193.33 725.507 194.152 725.026 194.9C724.546 195.641 723.887 196.219 723.049 196.634C722.219 197.041 721.299 197.244 720.29 197.244C718.402 197.244 716.913 196.646 715.822 195.45C714.732 194.245 714.187 192.585 714.187 190.469V190.237C714.187 188.203 714.728 186.579 715.81 185.367C716.892 184.154 718.378 183.548 720.266 183.548C721.918 183.548 723.24 184.02 724.233 184.964C725.234 185.9 725.743 187.149 725.759 188.711H722.451C722.434 188.028 722.223 187.474 721.816 187.051C721.409 186.62 720.872 186.404 720.205 186.404C719.383 186.404 718.76 186.705 718.337 187.308C717.922 187.902 717.714 188.87 717.714 190.213V190.579C717.714 191.938 717.922 192.915 718.337 193.509C718.752 194.103 719.383 194.4 720.229 194.4ZM731.215 185.232C732.151 184.109 733.327 183.548 734.743 183.548C737.608 183.548 739.06 185.212 739.101 188.541V197H735.573V188.638C735.573 187.881 735.41 187.324 735.085 186.966C734.759 186.6 734.218 186.417 733.461 186.417C732.428 186.417 731.679 186.815 731.215 187.613V197H727.688V178.25H731.215V185.232ZM747.841 197.244C745.904 197.244 744.326 196.65 743.105 195.462C741.892 194.274 741.286 192.691 741.286 190.713V190.372C741.286 189.045 741.542 187.861 742.055 186.819C742.568 185.77 743.292 184.964 744.228 184.402C745.172 183.833 746.246 183.548 747.451 183.548C749.257 183.548 750.677 184.118 751.711 185.257C752.753 186.396 753.273 188.012 753.273 190.103V191.543H744.863C744.977 192.406 745.319 193.098 745.888 193.619C746.466 194.139 747.194 194.4 748.073 194.4C749.432 194.4 750.494 193.908 751.259 192.923L752.993 194.864C752.464 195.612 751.748 196.198 750.844 196.622C749.941 197.037 748.94 197.244 747.841 197.244ZM747.438 186.404C746.739 186.404 746.169 186.64 745.729 187.112C745.298 187.584 745.021 188.26 744.899 189.139H749.807V188.858C749.79 188.077 749.579 187.474 749.172 187.051C748.765 186.62 748.187 186.404 747.438 186.404ZM754.738 190.298C754.738 188.239 755.198 186.6 756.118 185.379C757.045 184.158 758.311 183.548 759.914 183.548C761.2 183.548 762.262 184.028 763.1 184.988V178.25H766.64V197H763.454L763.283 195.596C762.404 196.695 761.273 197.244 759.89 197.244C758.335 197.244 757.086 196.634 756.142 195.413C755.206 194.184 754.738 192.479 754.738 190.298ZM758.266 190.555C758.266 191.792 758.482 192.74 758.913 193.399C759.344 194.058 759.971 194.388 760.793 194.388C761.883 194.388 762.653 193.928 763.1 193.008V187.796C762.661 186.876 761.9 186.417 760.817 186.417C759.117 186.417 758.266 187.796 758.266 190.555ZM777.285 195.657C776.414 196.715 775.209 197.244 773.671 197.244C772.255 197.244 771.173 196.837 770.424 196.023C769.684 195.21 769.305 194.017 769.289 192.447V183.792H772.817V192.325C772.817 193.7 773.444 194.388 774.697 194.388C775.893 194.388 776.715 193.973 777.163 193.143V183.792H780.703V197H777.382L777.285 195.657ZM787.087 197H783.547V178.25H787.087V197ZM796.083 197.244C794.147 197.244 792.568 196.65 791.347 195.462C790.135 194.274 789.528 192.691 789.528 190.713V190.372C789.528 189.045 789.785 187.861 790.297 186.819C790.81 185.77 791.534 184.964 792.47 184.402C793.414 183.833 794.488 183.548 795.693 183.548C797.5 183.548 798.92 184.118 799.953 185.257C800.995 186.396 801.516 188.012 801.516 190.103V191.543H793.105C793.219 192.406 793.561 193.098 794.13 193.619C794.708 194.139 795.437 194.4 796.315 194.4C797.674 194.4 798.736 193.908 799.501 192.923L801.235 194.864C800.706 195.612 799.99 196.198 799.086 196.622C798.183 197.037 797.182 197.244 796.083 197.244ZM795.681 186.404C794.981 186.404 794.411 186.64 793.972 187.112C793.54 187.584 793.264 188.26 793.142 189.139H798.049V188.858C798.033 188.077 797.821 187.474 797.414 187.051C797.007 186.62 796.429 186.404 795.681 186.404ZM810.952 187.1C810.472 187.035 810.048 187.002 809.682 187.002C808.347 187.002 807.473 187.454 807.058 188.357V197H803.53V183.792H806.862L806.96 185.367C807.668 184.154 808.649 183.548 809.902 183.548C810.292 183.548 810.659 183.601 811 183.707L810.952 187.1Z" fill="white"/>
<path d="M714.68 52.0796C714.542 53.992 713.834 55.4976 712.556 56.5962C711.287 57.6948 709.61 58.2441 707.527 58.2441C705.248 58.2441 703.454 57.4792 702.144 55.9492C700.841 54.4111 700.19 52.3034 700.19 49.626V48.5396C700.19 46.8306 700.492 45.325 701.094 44.0229C701.696 42.7209 702.555 41.724 703.669 41.0322C704.792 40.3324 706.095 39.9824 707.576 39.9824C709.626 39.9824 711.278 40.5317 712.532 41.6304C713.785 42.729 714.509 44.2712 714.705 46.2568H711.042C710.953 45.1094 710.632 44.2793 710.078 43.7666C709.533 43.2458 708.699 42.9854 707.576 42.9854C706.355 42.9854 705.439 43.4248 704.829 44.3037C704.227 45.1745 703.918 46.5295 703.901 48.3687V49.7114C703.901 51.632 704.19 53.0358 704.768 53.9229C705.354 54.8099 706.274 55.2534 707.527 55.2534C708.658 55.2534 709.5 54.9971 710.054 54.4844C710.615 53.9635 710.937 53.1619 711.018 52.0796H714.68ZM716.304 51.2739C716.304 49.9637 716.556 48.7959 717.061 47.7705C717.565 46.7451 718.289 45.9517 719.233 45.3901C720.186 44.8286 721.288 44.5479 722.542 44.5479C724.324 44.5479 725.776 45.0931 726.899 46.1836C728.031 47.2741 728.661 48.7552 728.792 50.627L728.816 51.5303C728.816 53.5566 728.25 55.1842 727.119 56.4131C725.988 57.6338 724.47 58.2441 722.566 58.2441C720.662 58.2441 719.14 57.6338 718 56.4131C716.869 55.1924 716.304 53.5322 716.304 51.4326V51.2739ZM719.832 51.5303C719.832 52.7835 720.068 53.7438 720.54 54.4111C721.012 55.0703 721.687 55.3999 722.566 55.3999C723.42 55.3999 724.088 55.0744 724.568 54.4233C725.048 53.7642 725.288 52.7144 725.288 51.2739C725.288 50.0451 725.048 49.0929 724.568 48.4175C724.088 47.742 723.412 47.4043 722.542 47.4043C721.679 47.4043 721.012 47.742 720.54 48.4175C720.068 49.0848 719.832 50.1224 719.832 51.5303ZM734.236 44.792L734.346 46.3179C735.29 45.1379 736.555 44.5479 738.142 44.5479C739.542 44.5479 740.583 44.9588 741.267 45.7808C741.951 46.6027 742.301 47.8315 742.317 49.4673V58H738.789V49.5527C738.789 48.804 738.626 48.2629 738.301 47.9292C737.975 47.5874 737.434 47.4165 736.677 47.4165C735.684 47.4165 734.94 47.8397 734.443 48.686V58H730.916V44.792H734.236ZM749.226 41.5449V44.792H751.484V47.3799H749.226V53.9717C749.226 54.46 749.32 54.8099 749.507 55.0215C749.694 55.2331 750.052 55.3389 750.581 55.3389C750.972 55.3389 751.318 55.3104 751.619 55.2534V57.9268C750.927 58.1383 750.215 58.2441 749.482 58.2441C747.008 58.2441 745.747 56.995 745.698 54.4966V47.3799H743.77V44.792H745.698V41.5449H749.226ZM760.872 48.1001C760.391 48.035 759.968 48.0024 759.602 48.0024C758.267 48.0024 757.393 48.4541 756.978 49.3574V58H753.45V44.792H756.782L756.88 46.3667C757.588 45.1541 758.569 44.5479 759.822 44.5479C760.212 44.5479 760.579 44.6007 760.92 44.7065L760.872 48.1001ZM761.592 51.2739C761.592 49.9637 761.844 48.7959 762.349 47.7705C762.853 46.7451 763.577 45.9517 764.521 45.3901C765.474 44.8286 766.576 44.5479 767.83 44.5479C769.612 44.5479 771.064 45.0931 772.188 46.1836C773.319 47.2741 773.949 48.7552 774.08 50.627L774.104 51.5303C774.104 53.5566 773.538 55.1842 772.407 56.4131C771.276 57.6338 769.758 58.2441 767.854 58.2441C765.95 58.2441 764.428 57.6338 763.289 56.4131C762.157 55.1924 761.592 53.5322 761.592 51.4326V51.2739ZM765.12 51.5303C765.12 52.7835 765.356 53.7438 765.828 54.4111C766.3 55.0703 766.975 55.3999 767.854 55.3999C768.708 55.3999 769.376 55.0744 769.856 54.4233C770.336 53.7642 770.576 52.7144 770.576 51.2739C770.576 50.0451 770.336 49.0929 769.856 48.4175C769.376 47.742 768.7 47.4043 767.83 47.4043C766.967 47.4043 766.3 47.742 765.828 48.4175C765.356 49.0848 765.12 50.1224 765.12 51.5303ZM780 58H776.46V39.25H780V58ZM786.641 58H783.101V39.25H786.641V58ZM795.637 58.2441C793.7 58.2441 792.122 57.6501 790.901 56.4619C789.688 55.2738 789.082 53.6909 789.082 51.7134V51.3716C789.082 50.0451 789.338 48.861 789.851 47.8193C790.364 46.7695 791.088 45.9639 792.024 45.4023C792.968 44.8327 794.042 44.5479 795.247 44.5479C797.053 44.5479 798.473 45.1175 799.507 46.2568C800.549 47.3962 801.069 49.0116 801.069 51.103V52.5435H792.659C792.773 53.4061 793.114 54.0978 793.684 54.6187C794.262 55.1395 794.99 55.3999 795.869 55.3999C797.228 55.3999 798.29 54.9076 799.055 53.9229L800.789 55.8638C800.26 56.6125 799.543 57.1984 798.64 57.6216C797.737 58.0366 796.736 58.2441 795.637 58.2441ZM795.234 47.4043C794.535 47.4043 793.965 47.6403 793.525 48.1123C793.094 48.5843 792.817 49.2598 792.695 50.1387H797.603V49.8579C797.586 49.0767 797.375 48.4744 796.968 48.0513C796.561 47.62 795.983 47.4043 795.234 47.4043ZM810.505 48.1001C810.025 48.035 809.602 48.0024 809.236 48.0024C807.901 48.0024 807.026 48.4541 806.611 49.3574V58H803.083V44.792H806.416L806.514 46.3667C807.222 45.1541 808.202 44.5479 809.456 44.5479C809.846 44.5479 810.212 44.6007 810.554 44.7065L810.505 48.1001ZM711.543 69.2266L716.108 82.1172L720.649 69.2266H725.459V87H721.785V82.1416L722.151 73.7554L717.354 87H714.839L710.054 73.7676L710.42 82.1416V87H706.758V69.2266H711.543ZM736.079 87C735.916 86.6826 735.798 86.2879 735.725 85.8159C734.871 86.7681 733.76 87.2441 732.393 87.2441C731.099 87.2441 730.024 86.8698 729.17 86.1211C728.324 85.3724 727.9 84.4284 727.9 83.2891C727.9 81.8893 728.417 80.8151 729.451 80.0664C730.492 79.3177 731.994 78.9393 733.955 78.9312H735.579V78.1743C735.579 77.564 735.42 77.0757 735.103 76.7095C734.793 76.3433 734.301 76.1602 733.625 76.1602C733.031 76.1602 732.563 76.3026 732.222 76.5874C731.888 76.8722 731.721 77.2629 731.721 77.7593H728.193C728.193 76.9943 728.429 76.2863 728.901 75.6353C729.373 74.9842 730.041 74.4756 730.903 74.1094C731.766 73.735 732.734 73.5479 733.809 73.5479C735.436 73.5479 736.726 73.9588 737.678 74.7808C738.639 75.5946 739.119 76.742 739.119 78.2231V83.9482C739.127 85.2015 739.302 86.1496 739.644 86.7925V87H736.079ZM733.162 84.5464C733.682 84.5464 734.163 84.4325 734.602 84.2046C735.042 83.9686 735.367 83.6553 735.579 83.2646V80.9941H734.26C732.494 80.9941 731.554 81.6045 731.44 82.8252L731.428 83.0327C731.428 83.4722 731.583 83.8343 731.892 84.1191C732.201 84.404 732.625 84.5464 733.162 84.5464ZM745.076 73.792L745.186 75.3179C746.13 74.1379 747.395 73.5479 748.982 73.5479C750.382 73.5479 751.423 73.9588 752.107 74.7808C752.791 75.6027 753.14 76.8315 753.157 78.4673V87H749.629V78.5527C749.629 77.804 749.466 77.2629 749.141 76.9292C748.815 76.5874 748.274 76.4165 747.517 76.4165C746.524 76.4165 745.78 76.8397 745.283 77.686V87H741.755V73.792H745.076ZM763.496 87C763.333 86.6826 763.215 86.2879 763.142 85.8159C762.288 86.7681 761.177 87.2441 759.81 87.2441C758.516 87.2441 757.441 86.8698 756.587 86.1211C755.741 85.3724 755.317 84.4284 755.317 83.2891C755.317 81.8893 755.834 80.8151 756.868 80.0664C757.909 79.3177 759.411 78.9393 761.372 78.9312H762.996V78.1743C762.996 77.564 762.837 77.0757 762.52 76.7095C762.21 76.3433 761.718 76.1602 761.042 76.1602C760.448 76.1602 759.98 76.3026 759.639 76.5874C759.305 76.8722 759.138 77.2629 759.138 77.7593H755.61C755.61 76.9943 755.846 76.2863 756.318 75.6353C756.79 74.9842 757.458 74.4756 758.32 74.1094C759.183 73.735 760.151 73.5479 761.226 73.5479C762.853 73.5479 764.143 73.9588 765.095 74.7808C766.056 75.5946 766.536 76.742 766.536 78.2231V83.9482C766.544 85.2015 766.719 86.1496 767.061 86.7925V87H763.496ZM760.579 84.5464C761.099 84.5464 761.58 84.4325 762.019 84.2046C762.458 83.9686 762.784 83.6553 762.996 83.2646V80.9941H761.677C759.911 80.9941 758.971 81.6045 758.857 82.8252L758.845 83.0327C758.845 83.4722 759 83.8343 759.309 84.1191C759.618 84.404 760.042 84.5464 760.579 84.5464ZM768.733 80.2983C768.733 78.272 769.213 76.6403 770.173 75.4033C771.142 74.1663 772.444 73.5479 774.08 73.5479C775.528 73.5479 776.655 74.0443 777.461 75.0371L777.607 73.792H780.806V86.5605C780.806 87.7161 780.541 88.7212 780.012 89.5757C779.491 90.4302 778.755 91.0812 777.803 91.5288C776.851 91.9764 775.736 92.2002 774.458 92.2002C773.49 92.2002 772.546 92.0049 771.626 91.6143C770.706 91.2318 770.011 90.7354 769.539 90.125L771.101 87.9766C771.98 88.9613 773.046 89.4536 774.299 89.4536C775.235 89.4536 775.964 89.2013 776.484 88.6968C777.005 88.2004 777.266 87.4924 777.266 86.5728V85.8647C776.452 86.7843 775.382 87.2441 774.055 87.2441C772.468 87.2441 771.182 86.6257 770.198 85.3887C769.221 84.1436 768.733 82.4956 768.733 80.4448V80.2983ZM772.261 80.5547C772.261 81.751 772.501 82.6909 772.981 83.3745C773.461 84.05 774.12 84.3877 774.958 84.3877C776.033 84.3877 776.802 83.9849 777.266 83.1792V77.625C776.794 76.8193 776.033 76.4165 774.983 76.4165C774.137 76.4165 773.469 76.7624 772.981 77.4541C772.501 78.1458 772.261 79.1794 772.261 80.5547ZM789.607 87.2441C787.67 87.2441 786.091 86.6501 784.871 85.4619C783.658 84.2738 783.052 82.6909 783.052 80.7134V80.3716C783.052 79.0451 783.308 77.861 783.821 76.8193C784.333 75.7695 785.058 74.9639 785.994 74.4023C786.938 73.8327 788.012 73.5479 789.216 73.5479C791.023 73.5479 792.443 74.1175 793.477 75.2568C794.518 76.3962 795.039 78.0116 795.039 80.103V81.5435H786.628C786.742 82.4061 787.084 83.0978 787.654 83.6187C788.232 84.1395 788.96 84.3999 789.839 84.3999C791.198 84.3999 792.26 83.9076 793.025 82.9229L794.758 84.8638C794.229 85.6125 793.513 86.1984 792.61 86.6216C791.707 87.0366 790.706 87.2441 789.607 87.2441ZM789.204 76.4043C788.504 76.4043 787.935 76.6403 787.495 77.1123C787.064 77.5843 786.787 78.2598 786.665 79.1387H791.572V78.8579C791.556 78.0767 791.344 77.4744 790.938 77.0513C790.531 76.62 789.953 76.4043 789.204 76.4043ZM804.475 77.1001C803.995 77.035 803.572 77.0024 803.206 77.0024C801.871 77.0024 800.996 77.4541 800.581 78.3574V87H797.053V73.792H800.386L800.483 75.3667C801.191 74.1541 802.172 73.5479 803.425 73.5479C803.816 73.5479 804.182 73.6007 804.524 73.7065L804.475 77.1001Z" fill="white"/>
<path d="M122.804 360.805C122.144 362.018 122.592 363.536 123.805 364.196L143.568 374.951C144.781 375.611 146.299 375.163 146.959 373.95C147.619 372.737 147.171 371.219 145.958 370.559L128.391 360.999L137.951 343.432C138.611 342.219 138.163 340.701 136.95 340.041C135.737 339.381 134.219 339.829 133.559 341.042L122.804 360.805ZM456.292 261.602L124.292 359.602L125.708 364.398L457.708 266.398L456.292 261.602Z" fill="black"/>
<path d="M455.232 363.768C456.209 364.744 457.791 364.744 458.768 363.768L474.678 347.858C475.654 346.882 475.654 345.299 474.678 344.322C473.701 343.346 472.118 343.346 471.142 344.322L457 358.464L442.858 344.322C441.882 343.346 440.299 343.346 439.322 344.322C438.346 345.299 438.346 346.882 439.322 347.858L455.232 363.768ZM454.5 264V362H459.5V264H454.5Z" fill="black"/>
<path d="M790.195 364.196C791.408 363.536 791.856 362.018 791.196 360.805L780.441 341.042C779.781 339.829 778.263 339.381 777.05 340.041C775.837 340.701 775.389 342.219 776.049 343.432L785.609 360.999L768.042 370.559C766.829 371.219 766.381 372.737 767.041 373.95C767.701 375.163 769.219 375.611 770.432 374.951L790.195 364.196ZM456.292 266.398L788.292 364.398L789.708 359.602L457.708 261.602L456.292 266.398Z" fill="black"/>
<line x1="280" y1="64.5" x2="332" y2="64.5" stroke="black"/>
<line x1="280" y1="187.5" x2="332" y2="187.5" stroke="black"/>
<line x1="588" y1="187.5" x2="640" y2="187.5" stroke="black"/>
<line x1="588" y1="64.5" x2="640" y2="64.5" stroke="black"/>
</svg>
