<svg width="270" height="400" viewBox="0 0 270 400" fill="none" xmlns="http://www.w3.org/2000/svg">
<rect width="270" height="400" fill="#C4C4C4"/>
<rect x="5" y="56" width="260" height="340" fill="#326DE6"/>
<rect x="10" y="137" width="250" height="250" fill="#E96969"/>
<rect x="15" y="210" width="240" height="168" fill="#A4FB96"/>
<rect x="20" y="268" width="230" height="100" fill="#7367FF"/>
<path d="M62.4331 173.891H58.3486V183H53.2217V158.117H62.4673C65.4067 158.117 67.674 158.772 69.269 160.083C70.8641 161.393 71.6616 163.244 71.6616 165.637C71.6616 167.334 71.2913 168.753 70.5508 169.892C69.8216 171.02 68.7108 171.92 67.2183 172.592L72.6016 182.761V183H67.0986L62.4331 173.891ZM58.3486 169.738H62.4844C63.7718 169.738 64.7687 169.414 65.4751 168.764C66.1815 168.103 66.5347 167.198 66.5347 166.047C66.5347 164.873 66.1986 163.951 65.5264 163.278C64.8656 162.606 63.8459 162.27 62.4673 162.27H58.3486V169.738ZM83.7612 183.342C81.0496 183.342 78.8394 182.51 77.1304 180.847C75.4328 179.183 74.584 176.967 74.584 174.199V173.72C74.584 171.863 74.9429 170.205 75.6606 168.747C76.3784 167.277 77.3924 166.149 78.7026 165.363C80.0243 164.566 81.5282 164.167 83.2144 164.167C85.7437 164.167 87.7318 164.965 89.1787 166.56C90.637 168.155 91.3662 170.416 91.3662 173.344V175.361H79.5913C79.7508 176.569 80.2293 177.537 81.0269 178.266C81.8358 178.995 82.8555 179.36 84.0859 179.36C85.9886 179.36 87.4754 178.671 88.5464 177.292L90.9731 180.009C90.2326 181.057 89.23 181.878 87.9653 182.47C86.7007 183.051 85.2993 183.342 83.7612 183.342ZM83.1973 168.166C82.2174 168.166 81.4199 168.496 80.8047 169.157C80.2008 169.818 79.8135 170.764 79.6426 171.994H86.5127V171.601C86.4899 170.507 86.1937 169.664 85.624 169.072C85.0544 168.468 84.2454 168.166 83.1973 168.166ZM110.832 173.925C110.832 176.774 110.182 179.058 108.883 180.778C107.596 182.487 105.853 183.342 103.654 183.342C101.785 183.342 100.276 182.692 99.125 181.394V190.109H94.186V164.509H98.7661L98.937 166.32C100.133 164.885 101.694 164.167 103.62 164.167C105.898 164.167 107.67 165.01 108.935 166.696C110.199 168.382 110.832 170.707 110.832 173.669V173.925ZM105.893 173.566C105.893 171.846 105.585 170.519 104.97 169.584C104.366 168.65 103.483 168.183 102.321 168.183C100.771 168.183 99.7061 168.776 99.125 169.96V177.531C99.7288 178.75 100.806 179.36 102.355 179.36C104.713 179.36 105.893 177.429 105.893 173.566ZM119.12 183H114.164V156.75H119.12V183ZM128.417 183H123.461V164.509H128.417V183ZM123.17 159.724C123.17 158.983 123.415 158.374 123.905 157.895C124.407 157.417 125.084 157.177 125.939 157.177C126.782 157.177 127.454 157.417 127.956 157.895C128.457 158.374 128.708 158.983 128.708 159.724C128.708 160.476 128.451 161.091 127.938 161.569C127.437 162.048 126.771 162.287 125.939 162.287C125.107 162.287 124.435 162.048 123.922 161.569C123.421 161.091 123.17 160.476 123.17 159.724ZM140.192 179.36C141.103 179.36 141.844 179.109 142.414 178.608C142.983 178.107 143.279 177.44 143.302 176.608H147.934C147.922 177.862 147.58 179.012 146.908 180.061C146.236 181.097 145.313 181.906 144.14 182.487C142.978 183.057 141.69 183.342 140.277 183.342C137.634 183.342 135.549 182.504 134.022 180.83C132.496 179.143 131.732 176.819 131.732 173.857V173.532C131.732 170.684 132.49 168.411 134.005 166.713C135.521 165.016 137.6 164.167 140.243 164.167C142.556 164.167 144.407 164.828 145.797 166.149C147.199 167.46 147.911 169.208 147.934 171.396H143.302C143.279 170.439 142.983 169.664 142.414 169.072C141.844 168.468 141.092 168.166 140.158 168.166C139.007 168.166 138.135 168.588 137.543 169.431C136.962 170.262 136.671 171.618 136.671 173.498V174.011C136.671 175.913 136.962 177.281 137.543 178.112C138.124 178.944 139.007 179.36 140.192 179.36ZM161.469 183C161.241 182.556 161.076 182.003 160.973 181.342C159.777 182.675 158.222 183.342 156.308 183.342C154.496 183.342 152.992 182.818 151.796 181.77C150.611 180.721 150.019 179.4 150.019 177.805C150.019 175.845 150.742 174.341 152.189 173.293C153.647 172.245 155.749 171.715 158.495 171.704H160.768V170.644C160.768 169.79 160.546 169.106 160.102 168.593C159.669 168.081 158.979 167.824 158.034 167.824C157.202 167.824 156.547 168.024 156.068 168.422C155.601 168.821 155.368 169.368 155.368 170.063H150.429C150.429 168.992 150.759 168.001 151.42 167.089C152.081 166.178 153.015 165.466 154.223 164.953C155.43 164.429 156.786 164.167 158.29 164.167C160.569 164.167 162.375 164.742 163.708 165.893C165.052 167.032 165.724 168.639 165.724 170.712V178.728C165.736 180.482 165.98 181.809 166.459 182.709V183H161.469ZM157.384 179.565C158.113 179.565 158.786 179.405 159.401 179.086C160.016 178.756 160.472 178.317 160.768 177.771V174.592H158.922C156.45 174.592 155.134 175.446 154.975 177.155L154.958 177.446C154.958 178.061 155.174 178.568 155.607 178.967C156.04 179.366 156.632 179.565 157.384 179.565ZM182.746 176.472C182.746 175.503 182.404 174.763 181.72 174.25C181.037 173.726 179.806 173.179 178.029 172.609C176.251 172.028 174.844 171.459 173.808 170.9C170.982 169.374 169.569 167.317 169.569 164.731C169.569 163.387 169.945 162.19 170.697 161.142C171.461 160.083 172.549 159.257 173.961 158.664C175.386 158.072 176.981 157.775 178.747 157.775C180.524 157.775 182.108 158.1 183.498 158.75C184.888 159.388 185.964 160.293 186.728 161.467C187.502 162.64 187.89 163.973 187.89 165.466H182.763C182.763 164.326 182.404 163.444 181.686 162.817C180.968 162.179 179.96 161.86 178.661 161.86C177.408 161.86 176.434 162.128 175.739 162.663C175.044 163.187 174.696 163.882 174.696 164.748C174.696 165.557 175.101 166.235 175.91 166.782C176.73 167.329 177.932 167.841 179.516 168.32C182.432 169.197 184.557 170.285 185.89 171.584C187.223 172.883 187.89 174.501 187.89 176.438C187.89 178.591 187.075 180.283 185.446 181.513C183.817 182.732 181.623 183.342 178.866 183.342C176.952 183.342 175.209 182.994 173.637 182.299C172.064 181.593 170.862 180.63 170.031 179.411C169.21 178.192 168.8 176.779 168.8 175.173H173.944C173.944 177.919 175.585 179.292 178.866 179.292C180.085 179.292 181.037 179.047 181.72 178.557C182.404 178.055 182.746 177.36 182.746 176.472ZM199.562 183.342C196.85 183.342 194.64 182.51 192.931 180.847C191.234 179.183 190.385 176.967 190.385 174.199V173.72C190.385 171.863 190.744 170.205 191.461 168.747C192.179 167.277 193.193 166.149 194.503 165.363C195.825 164.566 197.329 164.167 199.015 164.167C201.544 164.167 203.533 164.965 204.979 166.56C206.438 168.155 207.167 170.416 207.167 173.344V175.361H195.392C195.552 176.569 196.03 177.537 196.828 178.266C197.637 178.995 198.656 179.36 199.887 179.36C201.789 179.36 203.276 178.671 204.347 177.292L206.774 180.009C206.033 181.057 205.031 181.878 203.766 182.47C202.501 183.051 201.1 183.342 199.562 183.342ZM198.998 168.166C198.018 168.166 197.221 168.496 196.605 169.157C196.002 169.818 195.614 170.764 195.443 171.994H202.313V171.601C202.291 170.507 201.994 169.664 201.425 169.072C200.855 168.468 200.046 168.166 198.998 168.166ZM215.9 159.963V164.509H219.062V168.132H215.9V177.36C215.9 178.044 216.031 178.534 216.293 178.83C216.555 179.126 217.056 179.274 217.797 179.274C218.344 179.274 218.828 179.235 219.25 179.155V182.897C218.281 183.194 217.284 183.342 216.259 183.342C212.795 183.342 211.029 181.593 210.961 178.095V168.132H208.261V164.509H210.961V159.963H215.9Z" fill="black"/>
<path d="M29.5391 109V80.5625H38.2891C40.7891 80.5625 43.0221 81.1289 44.9883 82.2617C46.9674 83.3815 48.5104 84.9831 49.6172 87.0664C50.724 89.1367 51.2773 91.4935 51.2773 94.1367V95.4453C51.2773 98.0885 50.7305 100.439 49.6367 102.496C48.556 104.553 47.026 106.148 45.0469 107.281C43.0677 108.414 40.8346 108.987 38.3477 109H29.5391ZM35.3984 85.3086V104.293H38.2305C40.5221 104.293 42.2734 103.544 43.4844 102.047C44.6953 100.549 45.3138 98.4076 45.3398 95.6211V94.1172C45.3398 91.2266 44.7409 89.0391 43.543 87.5547C42.3451 86.0573 40.5938 85.3086 38.2891 85.3086H35.3984ZM64.9102 109.391C61.8112 109.391 59.2852 108.44 57.332 106.539C55.3919 104.638 54.4219 102.105 54.4219 98.9414V98.3945C54.4219 96.2721 54.832 94.3776 55.6523 92.7109C56.4727 91.0312 57.6315 89.7422 59.1289 88.8438C60.6393 87.9323 62.3581 87.4766 64.2852 87.4766C67.1758 87.4766 69.4479 88.388 71.1016 90.2109C72.7682 92.0339 73.6016 94.6185 73.6016 97.9648V100.27H60.1445C60.3268 101.65 60.8737 102.757 61.7852 103.59C62.7096 104.423 63.875 104.84 65.2812 104.84C67.4557 104.84 69.1549 104.052 70.3789 102.477L73.1523 105.582C72.306 106.78 71.1602 107.717 69.7148 108.395C68.2695 109.059 66.668 109.391 64.9102 109.391ZM64.2656 92.0469C63.1458 92.0469 62.2344 92.4245 61.5312 93.1797C60.8411 93.9349 60.3984 95.0156 60.2031 96.4219H68.0547V95.9727C68.0286 94.7227 67.6901 93.7591 67.0391 93.082C66.388 92.3919 65.4635 92.0469 64.2656 92.0469ZM95.8477 98.6289C95.8477 101.884 95.1055 104.495 93.6211 106.461C92.1497 108.414 90.1576 109.391 87.6445 109.391C85.5091 109.391 83.7839 108.648 82.4688 107.164V117.125H76.8242V87.8672H82.0586L82.2539 89.9375C83.6211 88.2969 85.4049 87.4766 87.6055 87.4766C90.2096 87.4766 92.2344 88.4401 93.6797 90.3672C95.125 92.2943 95.8477 94.9505 95.8477 98.3359V98.6289ZM90.2031 98.2188C90.2031 96.2526 89.8516 94.7357 89.1484 93.668C88.4583 92.6003 87.4492 92.0664 86.1211 92.0664C84.3503 92.0664 83.1328 92.7435 82.4688 94.0977V102.75C83.1589 104.143 84.3893 104.84 86.1602 104.84C88.8555 104.84 90.2031 102.633 90.2031 98.2188ZM105.32 109H99.6562V79H105.32V109ZM109.109 98.2383C109.109 96.1419 109.513 94.2734 110.32 92.6328C111.128 90.9922 112.286 89.7227 113.797 88.8242C115.32 87.9258 117.085 87.4766 119.09 87.4766C121.941 87.4766 124.266 88.349 126.062 90.0938C127.872 91.8385 128.882 94.2083 129.09 97.2031L129.129 98.6484C129.129 101.891 128.224 104.495 126.414 106.461C124.604 108.414 122.176 109.391 119.129 109.391C116.082 109.391 113.647 108.414 111.824 106.461C110.014 104.508 109.109 101.852 109.109 98.4922V98.2383ZM114.754 98.6484C114.754 100.654 115.132 102.19 115.887 103.258C116.642 104.312 117.723 104.84 119.129 104.84C120.496 104.84 121.564 104.319 122.332 103.277C123.1 102.223 123.484 100.543 123.484 98.2383C123.484 96.2721 123.1 94.7487 122.332 93.668C121.564 92.5872 120.483 92.0469 119.09 92.0469C117.71 92.0469 116.642 92.5872 115.887 93.668C115.132 94.7357 114.754 96.3958 114.754 98.6484ZM140.184 101.012L144.09 87.8672H150.145L141.648 112.281L141.18 113.395C139.917 116.155 137.833 117.535 134.93 117.535C134.109 117.535 133.276 117.411 132.43 117.164V112.887L133.289 112.906C134.357 112.906 135.151 112.743 135.672 112.418C136.206 112.092 136.622 111.552 136.922 110.797L137.586 109.059L130.184 87.8672H136.258L140.184 101.012ZM157.664 87.8672L157.84 90.2305C159.337 88.3945 161.362 87.4766 163.914 87.4766C166.635 87.4766 168.504 88.5508 169.52 90.6992C171.004 88.5508 173.12 87.4766 175.867 87.4766C178.159 87.4766 179.865 88.1471 180.984 89.4883C182.104 90.8164 182.664 92.8216 182.664 95.5039V109H177V95.5234C177 94.3255 176.766 93.4531 176.297 92.9062C175.828 92.3464 175.001 92.0664 173.816 92.0664C172.124 92.0664 170.952 92.8737 170.301 94.4883L170.32 109H164.676V95.543C164.676 94.319 164.435 93.4336 163.953 92.8867C163.471 92.3398 162.651 92.0664 161.492 92.0664C159.891 92.0664 158.732 92.7305 158.016 94.0586V109H152.371V87.8672H157.664ZM196.746 109.391C193.647 109.391 191.121 108.44 189.168 106.539C187.228 104.638 186.258 102.105 186.258 98.9414V98.3945C186.258 96.2721 186.668 94.3776 187.488 92.7109C188.309 91.0312 189.467 89.7422 190.965 88.8438C192.475 87.9323 194.194 87.4766 196.121 87.4766C199.012 87.4766 201.284 88.388 202.938 90.2109C204.604 92.0339 205.438 94.6185 205.438 97.9648V100.27H191.98C192.163 101.65 192.71 102.757 193.621 103.59C194.546 104.423 195.711 104.84 197.117 104.84C199.292 104.84 200.991 104.052 202.215 102.477L204.988 105.582C204.142 106.78 202.996 107.717 201.551 108.395C200.105 109.059 198.504 109.391 196.746 109.391ZM196.102 92.0469C194.982 92.0469 194.07 92.4245 193.367 93.1797C192.677 93.9349 192.234 95.0156 192.039 96.4219H199.891V95.9727C199.865 94.7227 199.526 93.7591 198.875 93.082C198.224 92.3919 197.299 92.0469 196.102 92.0469ZM213.855 87.8672L214.031 90.3086C215.542 88.4206 217.566 87.4766 220.105 87.4766C222.345 87.4766 224.012 88.1341 225.105 89.4492C226.199 90.7643 226.759 92.7305 226.785 95.3477V109H221.141V95.4844C221.141 94.2865 220.88 93.4206 220.359 92.8867C219.839 92.3398 218.973 92.0664 217.762 92.0664C216.173 92.0664 214.982 92.7435 214.188 94.0977V109H208.543V87.8672H213.855ZM237.84 82.6719V87.8672H241.453V92.0078H237.84V102.555C237.84 103.336 237.99 103.896 238.289 104.234C238.589 104.573 239.161 104.742 240.008 104.742C240.633 104.742 241.186 104.697 241.668 104.605V108.883C240.561 109.221 239.422 109.391 238.25 109.391C234.292 109.391 232.273 107.392 232.195 103.395V92.0078H229.109V87.8672H232.195V82.6719H237.84Z" fill="black"/>
<path d="M110.872 43H104.28L91.4482 21.9502V43H84.8564V11.0078H91.4482L104.302 32.1016V11.0078H110.872V43ZM115.223 30.8931C115.223 28.5347 115.677 26.4326 116.585 24.5869C117.493 22.7412 118.797 21.313 120.496 20.3022C122.21 19.2915 124.195 18.7861 126.451 18.7861C129.659 18.7861 132.273 19.7676 134.295 21.7305C136.331 23.6934 137.466 26.3594 137.701 29.7285L137.745 31.3545C137.745 35.002 136.727 37.9316 134.69 40.1436C132.654 42.3408 129.922 43.4395 126.495 43.4395C123.067 43.4395 120.328 42.3408 118.277 40.1436C116.241 37.9463 115.223 34.958 115.223 31.1787V30.8931ZM121.573 31.3545C121.573 33.6104 121.998 35.3389 122.847 36.54C123.697 37.7266 124.913 38.3198 126.495 38.3198C128.033 38.3198 129.234 37.7339 130.098 36.562C130.962 35.3755 131.395 33.4858 131.395 30.8931C131.395 28.6812 130.962 26.9673 130.098 25.7515C129.234 24.5356 128.018 23.9277 126.451 23.9277C124.898 23.9277 123.697 24.5356 122.847 25.7515C121.998 26.9526 121.573 28.8203 121.573 31.3545ZM140.667 30.937C140.667 27.231 141.495 24.2793 143.15 22.082C144.82 19.8848 147.098 18.7861 149.983 18.7861C152.298 18.7861 154.209 19.6504 155.718 21.3789V9.25H162.09V43H156.355L156.048 40.4731C154.466 42.4507 152.43 43.4395 149.939 43.4395C147.142 43.4395 144.893 42.3408 143.194 40.1436C141.509 37.9316 140.667 34.8628 140.667 30.937ZM147.017 31.3984C147.017 33.625 147.405 35.3315 148.182 36.5181C148.958 37.7046 150.086 38.2979 151.565 38.2979C153.528 38.2979 154.913 37.4702 155.718 35.8149V26.4326C154.927 24.7773 153.558 23.9497 151.609 23.9497C148.548 23.9497 147.017 26.4326 147.017 31.3984ZM177.955 43.4395C174.468 43.4395 171.626 42.3701 169.429 40.2314C167.247 38.0928 166.155 35.2437 166.155 31.6841V31.0688C166.155 28.6812 166.617 26.5498 167.54 24.6748C168.462 22.7852 169.766 21.335 171.451 20.3242C173.15 19.2988 175.083 18.7861 177.251 18.7861C180.503 18.7861 183.06 19.8115 184.92 21.8623C186.795 23.9131 187.732 26.8208 187.732 30.5854V33.1782H172.593C172.798 34.731 173.414 35.9761 174.439 36.9136C175.479 37.8511 176.79 38.3198 178.372 38.3198C180.818 38.3198 182.73 37.4336 184.107 35.6611L187.227 39.1548C186.275 40.5024 184.986 41.5571 183.36 42.3188C181.734 43.0659 179.932 43.4395 177.955 43.4395ZM177.229 23.9277C175.97 23.9277 174.944 24.3525 174.153 25.2021C173.377 26.0518 172.879 27.2676 172.659 28.8496H181.492V28.3442C181.463 26.938 181.082 25.854 180.35 25.0923C179.617 24.3159 178.577 23.9277 177.229 23.9277Z" fill="black"/>
<path d="M114.299 241.485V249H109.904V227.672H118.225C119.826 227.672 121.232 227.965 122.443 228.551C123.664 229.137 124.602 229.972 125.256 231.056C125.91 232.13 126.237 233.355 126.237 234.732C126.237 236.822 125.52 238.473 124.084 239.684C122.658 240.885 120.681 241.485 118.151 241.485H114.299ZM114.299 237.926H118.225C119.387 237.926 120.271 237.652 120.876 237.105C121.491 236.559 121.799 235.777 121.799 234.762C121.799 233.717 121.491 232.872 120.876 232.228C120.261 231.583 119.411 231.251 118.327 231.231H114.299V237.926ZM128.127 240.929C128.127 239.356 128.43 237.955 129.035 236.725C129.641 235.494 130.51 234.542 131.643 233.868C132.785 233.194 134.108 232.857 135.612 232.857C137.751 232.857 139.494 233.512 140.842 234.82C142.199 236.129 142.956 237.906 143.112 240.152L143.142 241.236C143.142 243.668 142.463 245.621 141.105 247.096C139.748 248.561 137.927 249.293 135.642 249.293C133.356 249.293 131.53 248.561 130.163 247.096C128.806 245.631 128.127 243.639 128.127 241.119V240.929ZM132.36 241.236C132.36 242.74 132.644 243.893 133.21 244.693C133.776 245.484 134.587 245.88 135.642 245.88C136.667 245.88 137.468 245.489 138.044 244.708C138.62 243.917 138.908 242.657 138.908 240.929C138.908 239.454 138.62 238.312 138.044 237.501C137.468 236.69 136.657 236.285 135.612 236.285C134.577 236.285 133.776 236.69 133.21 237.501C132.644 238.302 132.36 239.547 132.36 241.236ZM145.09 240.958C145.09 238.487 145.642 236.52 146.745 235.055C147.858 233.59 149.377 232.857 151.301 232.857C152.844 232.857 154.118 233.434 155.124 234.586V226.5H159.372V249H155.549L155.344 247.315C154.289 248.634 152.932 249.293 151.271 249.293C149.406 249.293 147.907 248.561 146.774 247.096C145.651 245.621 145.09 243.575 145.09 240.958ZM149.323 241.266C149.323 242.75 149.582 243.888 150.1 244.679C150.617 245.47 151.369 245.865 152.355 245.865C153.664 245.865 154.587 245.313 155.124 244.21V237.955C154.597 236.852 153.684 236.3 152.385 236.3C150.344 236.3 149.323 237.955 149.323 241.266Z" fill="black"/>
<path d="M95.5396 320.08C95.4012 321.992 94.6932 323.498 93.4155 324.596C92.146 325.695 90.4696 326.244 88.3862 326.244C86.1076 326.244 84.3132 325.479 83.0029 323.949C81.7008 322.411 81.0498 320.303 81.0498 317.626V316.54C81.0498 314.831 81.3509 313.325 81.9531 312.023C82.5553 310.721 83.4139 309.724 84.5288 309.032C85.6519 308.332 86.9539 307.982 88.4351 307.982C90.4858 307.982 92.1379 308.532 93.3911 309.63C94.6444 310.729 95.3687 312.271 95.564 314.257H91.9019C91.8123 313.109 91.4909 312.279 90.9375 311.767C90.3923 311.246 89.5581 310.985 88.4351 310.985C87.2144 310.985 86.2988 311.425 85.6885 312.304C85.0863 313.174 84.777 314.529 84.7607 316.369V317.711C84.7607 319.632 85.0496 321.036 85.6274 321.923C86.2134 322.81 87.133 323.253 88.3862 323.253C89.5174 323.253 90.3597 322.997 90.9131 322.484C91.4746 321.964 91.7961 321.162 91.8774 320.08H95.5396ZM97.1631 319.274C97.1631 317.964 97.4154 316.796 97.9199 315.771C98.4245 314.745 99.1488 313.952 100.093 313.39C101.045 312.829 102.148 312.548 103.401 312.548C105.183 312.548 106.636 313.093 107.759 314.184C108.89 315.274 109.521 316.755 109.651 318.627L109.675 319.53C109.675 321.557 109.11 323.184 107.979 324.413C106.847 325.634 105.33 326.244 103.425 326.244C101.521 326.244 99.9992 325.634 98.8599 324.413C97.7287 323.192 97.1631 321.532 97.1631 319.433V319.274ZM100.691 319.53C100.691 320.784 100.927 321.744 101.399 322.411C101.871 323.07 102.546 323.4 103.425 323.4C104.28 323.4 104.947 323.074 105.427 322.423C105.907 321.764 106.147 320.714 106.147 319.274C106.147 318.045 105.907 317.093 105.427 316.417C104.947 315.742 104.272 315.404 103.401 315.404C102.538 315.404 101.871 315.742 101.399 316.417C100.927 317.085 100.691 318.122 100.691 319.53ZM115.095 312.792L115.205 314.318C116.149 313.138 117.415 312.548 119.001 312.548C120.401 312.548 121.443 312.959 122.126 313.781C122.81 314.603 123.16 315.832 123.176 317.467V326H119.648V317.553C119.648 316.804 119.486 316.263 119.16 315.929C118.835 315.587 118.293 315.417 117.537 315.417C116.544 315.417 115.799 315.84 115.303 316.686V326H111.775V312.792H115.095ZM130.085 309.545V312.792H132.344V315.38H130.085V321.972C130.085 322.46 130.179 322.81 130.366 323.021C130.553 323.233 130.911 323.339 131.44 323.339C131.831 323.339 132.177 323.31 132.478 323.253V325.927C131.786 326.138 131.074 326.244 130.342 326.244C127.868 326.244 126.606 324.995 126.558 322.497V315.38H124.629V312.792H126.558V309.545H130.085ZM141.963 326C141.8 325.683 141.682 325.288 141.609 324.816C140.754 325.768 139.644 326.244 138.276 326.244C136.982 326.244 135.908 325.87 135.054 325.121C134.207 324.372 133.784 323.428 133.784 322.289C133.784 320.889 134.301 319.815 135.334 319.066C136.376 318.318 137.878 317.939 139.839 317.931H141.462V317.174C141.462 316.564 141.304 316.076 140.986 315.709C140.677 315.343 140.185 315.16 139.509 315.16C138.915 315.16 138.447 315.303 138.105 315.587C137.772 315.872 137.605 316.263 137.605 316.759H134.077C134.077 315.994 134.313 315.286 134.785 314.635C135.257 313.984 135.924 313.476 136.787 313.109C137.65 312.735 138.618 312.548 139.692 312.548C141.32 312.548 142.61 312.959 143.562 313.781C144.522 314.595 145.002 315.742 145.002 317.223V322.948C145.011 324.201 145.186 325.15 145.527 325.792V326H141.963ZM139.045 323.546C139.566 323.546 140.046 323.432 140.486 323.205C140.925 322.969 141.251 322.655 141.462 322.265V319.994H140.144C138.378 319.994 137.438 320.604 137.324 321.825L137.312 322.033C137.312 322.472 137.467 322.834 137.776 323.119C138.085 323.404 138.508 323.546 139.045 323.546ZM151.436 326H147.896V312.792H151.436V326ZM147.688 309.374C147.688 308.845 147.863 308.41 148.213 308.068C148.571 307.726 149.055 307.555 149.666 307.555C150.268 307.555 150.748 307.726 151.106 308.068C151.464 308.41 151.643 308.845 151.643 309.374C151.643 309.911 151.46 310.351 151.094 310.692C150.736 311.034 150.26 311.205 149.666 311.205C149.071 311.205 148.591 311.034 148.225 310.692C147.867 310.351 147.688 309.911 147.688 309.374ZM157.6 312.792L157.71 314.318C158.654 313.138 159.919 312.548 161.506 312.548C162.906 312.548 163.948 312.959 164.631 313.781C165.315 314.603 165.665 315.832 165.681 317.467V326H162.153V317.553C162.153 316.804 161.991 316.263 161.665 315.929C161.34 315.587 160.798 315.417 160.042 315.417C159.049 315.417 158.304 315.84 157.808 316.686V326H154.28V312.792H157.6ZM174.446 326.244C172.509 326.244 170.93 325.65 169.709 324.462C168.497 323.274 167.891 321.691 167.891 319.713V319.372C167.891 318.045 168.147 316.861 168.66 315.819C169.172 314.77 169.897 313.964 170.833 313.402C171.777 312.833 172.851 312.548 174.055 312.548C175.862 312.548 177.282 313.118 178.315 314.257C179.357 315.396 179.878 317.012 179.878 319.103V320.543H171.467C171.581 321.406 171.923 322.098 172.493 322.619C173.07 323.139 173.799 323.4 174.678 323.4C176.037 323.4 177.099 322.908 177.864 321.923L179.597 323.864C179.068 324.612 178.352 325.198 177.449 325.622C176.545 326.037 175.544 326.244 174.446 326.244ZM174.043 315.404C173.343 315.404 172.773 315.64 172.334 316.112C171.903 316.584 171.626 317.26 171.504 318.139H176.411V317.858C176.395 317.077 176.183 316.474 175.776 316.051C175.369 315.62 174.792 315.404 174.043 315.404ZM189.314 316.1C188.834 316.035 188.411 316.002 188.044 316.002C186.71 316.002 185.835 316.454 185.42 317.357V326H181.892V312.792H185.225L185.322 314.367C186.03 313.154 187.011 312.548 188.264 312.548C188.655 312.548 189.021 312.601 189.363 312.707L189.314 316.1Z" fill="white"/>
</svg>
