<svg width="939" height="249" viewBox="0 0 939 249" fill="none" xmlns="http://www.w3.org/2000/svg">
<rect y="50" width="180" height="150" fill="#3BB900"/>
<path d="M31.5396 127.08C31.4012 128.992 30.6932 130.498 29.4155 131.596C28.146 132.695 26.4696 133.244 24.3862 133.244C22.1076 133.244 20.3132 132.479 19.0029 130.949C17.7008 129.411 17.0498 127.303 17.0498 124.626V123.54C17.0498 121.831 17.3509 120.325 17.9531 119.023C18.5553 117.721 19.4139 116.724 20.5288 116.032C21.6519 115.332 22.9539 114.982 24.4351 114.982C26.4858 114.982 28.1379 115.532 29.3911 116.63C30.6444 117.729 31.3687 119.271 31.564 121.257H27.9019C27.8123 120.109 27.4909 119.279 26.9375 118.767C26.3923 118.246 25.5581 117.985 24.4351 117.985C23.2144 117.985 22.2988 118.425 21.6885 119.304C21.0863 120.174 20.777 121.529 20.7607 123.369V124.711C20.7607 126.632 21.0496 128.036 21.6274 128.923C22.2134 129.81 23.133 130.253 24.3862 130.253C25.5174 130.253 26.3597 129.997 26.9131 129.484C27.4746 128.964 27.7961 128.162 27.8774 127.08H31.5396ZM41.6226 131.657C40.7518 132.715 39.5474 133.244 38.0093 133.244C36.5933 133.244 35.5109 132.837 34.7622 132.023C34.0216 131.21 33.6432 130.017 33.627 128.447V119.792H37.1548V128.325C37.1548 129.7 37.7814 130.388 39.0347 130.388C40.231 130.388 41.0529 129.973 41.5005 129.143V119.792H45.0405V133H41.7202L41.6226 131.657ZM55.1235 123.1C54.6434 123.035 54.2202 123.002 53.854 123.002C52.5194 123.002 51.6445 123.454 51.2295 124.357V133H47.7017V119.792H51.0342L51.1318 121.367C51.8398 120.154 52.8205 119.548 54.0737 119.548C54.4644 119.548 54.8306 119.601 55.1724 119.707L55.1235 123.1ZM64.2544 123.1C63.7743 123.035 63.3511 123.002 62.9849 123.002C61.6502 123.002 60.7754 123.454 60.3604 124.357V133H56.8325V119.792H60.165L60.2627 121.367C60.9707 120.154 61.9513 119.548 63.2046 119.548C63.5952 119.548 63.9614 119.601 64.3032 119.707L64.2544 123.1ZM71.7983 133.244C69.8615 133.244 68.2827 132.65 67.062 131.462C65.8494 130.274 65.2432 128.691 65.2432 126.713V126.372C65.2432 125.045 65.4995 123.861 66.0122 122.819C66.5249 121.77 67.2492 120.964 68.1851 120.402C69.1291 119.833 70.2033 119.548 71.4077 119.548C73.2144 119.548 74.6344 120.118 75.668 121.257C76.7096 122.396 77.2305 124.012 77.2305 126.103V127.543H68.8198C68.9338 128.406 69.2756 129.098 69.8452 129.619C70.423 130.139 71.1514 130.4 72.0303 130.4C73.3893 130.4 74.4513 129.908 75.2163 128.923L76.9497 130.864C76.4207 131.612 75.7046 132.198 74.8013 132.622C73.8979 133.037 72.897 133.244 71.7983 133.244ZM71.3955 122.404C70.6956 122.404 70.126 122.64 69.6865 123.112C69.2552 123.584 68.9785 124.26 68.8564 125.139H73.7637V124.858C73.7474 124.077 73.5358 123.474 73.1289 123.051C72.722 122.62 72.1442 122.404 71.3955 122.404ZM82.4917 119.792L82.6016 121.318C83.5456 120.138 84.811 119.548 86.3979 119.548C87.7977 119.548 88.8394 119.959 89.5229 120.781C90.2065 121.603 90.5565 122.832 90.5728 124.467V133H87.0449V124.553C87.0449 123.804 86.8822 123.263 86.5566 122.929C86.2311 122.587 85.6899 122.417 84.9331 122.417C83.9403 122.417 83.1956 122.84 82.6992 123.686V133H79.1714V119.792H82.4917ZM97.4819 116.545V119.792H99.7402V122.38H97.4819V128.972C97.4819 129.46 97.5755 129.81 97.7627 130.021C97.9499 130.233 98.3079 130.339 98.8369 130.339C99.2275 130.339 99.5734 130.31 99.8745 130.253V132.927C99.1828 133.138 98.4707 133.244 97.7383 133.244C95.2643 133.244 94.0029 131.995 93.9541 129.497V122.38H92.0254V119.792H93.9541V116.545H97.4819ZM115.084 129.35C115.084 128.919 114.869 128.581 114.438 128.337C114.014 128.085 113.331 127.861 112.387 127.666C109.245 127.006 107.675 125.672 107.675 123.662C107.675 122.49 108.159 121.513 109.127 120.732C110.104 119.943 111.378 119.548 112.948 119.548C114.625 119.548 115.963 119.943 116.964 120.732C117.973 121.521 118.478 122.547 118.478 123.808H114.95C114.95 123.304 114.787 122.889 114.462 122.563C114.136 122.229 113.628 122.062 112.936 122.062C112.342 122.062 111.882 122.197 111.557 122.465C111.231 122.734 111.068 123.076 111.068 123.491C111.068 123.881 111.251 124.199 111.618 124.443C111.992 124.679 112.619 124.886 113.498 125.065C114.376 125.236 115.117 125.432 115.719 125.651C117.583 126.335 118.515 127.519 118.515 129.204C118.515 130.408 117.998 131.385 116.964 132.133C115.931 132.874 114.596 133.244 112.96 133.244C111.854 133.244 110.869 133.049 110.006 132.658C109.152 132.259 108.48 131.718 107.992 131.035C107.504 130.343 107.26 129.598 107.26 128.801H110.604C110.637 129.427 110.869 129.908 111.3 130.241C111.732 130.575 112.309 130.742 113.034 130.742C113.709 130.742 114.218 130.616 114.56 130.363C114.91 130.103 115.084 129.765 115.084 129.35ZM125.021 116.545V119.792H127.279V122.38H125.021V128.972C125.021 129.46 125.115 129.81 125.302 130.021C125.489 130.233 125.847 130.339 126.376 130.339C126.767 130.339 127.112 130.31 127.414 130.253V132.927C126.722 133.138 126.01 133.244 125.277 133.244C122.803 133.244 121.542 131.995 121.493 129.497V122.38H119.564V119.792H121.493V116.545H125.021ZM136.898 133C136.736 132.683 136.618 132.288 136.544 131.816C135.69 132.768 134.579 133.244 133.212 133.244C131.918 133.244 130.844 132.87 129.989 132.121C129.143 131.372 128.72 130.428 128.72 129.289C128.72 127.889 129.236 126.815 130.27 126.066C131.312 125.318 132.813 124.939 134.774 124.931H136.398V124.174C136.398 123.564 136.239 123.076 135.922 122.709C135.613 122.343 135.12 122.16 134.445 122.16C133.851 122.16 133.383 122.303 133.041 122.587C132.707 122.872 132.541 123.263 132.541 123.759H129.013C129.013 122.994 129.249 122.286 129.721 121.635C130.193 120.984 130.86 120.476 131.723 120.109C132.585 119.735 133.554 119.548 134.628 119.548C136.256 119.548 137.545 119.959 138.498 120.781C139.458 121.595 139.938 122.742 139.938 124.223V129.948C139.946 131.201 140.121 132.15 140.463 132.792V133H136.898ZM133.981 130.546C134.502 130.546 134.982 130.432 135.421 130.205C135.861 129.969 136.186 129.655 136.398 129.265V126.994H135.08C133.314 126.994 132.374 127.604 132.26 128.825L132.248 129.033C132.248 129.472 132.402 129.834 132.711 130.119C133.021 130.404 133.444 130.546 133.981 130.546ZM146.872 116.545V119.792H149.13V122.38H146.872V128.972C146.872 129.46 146.965 129.81 147.152 130.021C147.34 130.233 147.698 130.339 148.227 130.339C148.617 130.339 148.963 130.31 149.264 130.253V132.927C148.572 133.138 147.86 133.244 147.128 133.244C144.654 133.244 143.393 131.995 143.344 129.497V122.38H141.415V119.792H143.344V116.545H146.872ZM157.174 133.244C155.237 133.244 153.659 132.65 152.438 131.462C151.225 130.274 150.619 128.691 150.619 126.713V126.372C150.619 125.045 150.875 123.861 151.388 122.819C151.901 121.77 152.625 120.964 153.561 120.402C154.505 119.833 155.579 119.548 156.784 119.548C158.59 119.548 160.01 120.118 161.044 121.257C162.086 122.396 162.606 124.012 162.606 126.103V127.543H154.196C154.31 128.406 154.652 129.098 155.221 129.619C155.799 130.139 156.527 130.4 157.406 130.4C158.765 130.4 159.827 129.908 160.592 128.923L162.326 130.864C161.797 131.612 161.081 132.198 160.177 132.622C159.274 133.037 158.273 133.244 157.174 133.244ZM156.771 122.404C156.072 122.404 155.502 122.64 155.062 123.112C154.631 123.584 154.354 124.26 154.232 125.139H159.14V124.858C159.123 124.077 158.912 123.474 158.505 123.051C158.098 122.62 157.52 122.404 156.771 122.404Z" fill="white"/>
<rect x="759" y="50" width="180" height="150" fill="#446DD7"/>
<path d="M775.587 133V115.227H781.056C782.618 115.227 784.014 115.581 785.243 116.289C786.48 116.988 787.444 117.989 788.136 119.292C788.827 120.585 789.173 122.058 789.173 123.71V124.528C789.173 126.18 788.832 127.649 788.148 128.935C787.472 130.221 786.516 131.218 785.279 131.926C784.042 132.634 782.647 132.992 781.092 133H775.587ZM779.249 118.193V130.058H781.019C782.451 130.058 783.546 129.59 784.303 128.654C785.06 127.718 785.446 126.38 785.462 124.638V123.698C785.462 121.892 785.088 120.524 784.339 119.597C783.591 118.661 782.496 118.193 781.056 118.193H779.249ZM797.694 133.244C795.757 133.244 794.178 132.65 792.958 131.462C791.745 130.274 791.139 128.691 791.139 126.713V126.372C791.139 125.045 791.395 123.861 791.908 122.819C792.42 121.77 793.145 120.964 794.081 120.402C795.025 119.833 796.099 119.548 797.303 119.548C799.11 119.548 800.53 120.118 801.563 121.257C802.605 122.396 803.126 124.012 803.126 126.103V127.543H794.715C794.829 128.406 795.171 129.098 795.741 129.619C796.319 130.139 797.047 130.4 797.926 130.4C799.285 130.4 800.347 129.908 801.112 128.923L802.845 130.864C802.316 131.612 801.6 132.198 800.697 132.622C799.793 133.037 798.792 133.244 797.694 133.244ZM797.291 122.404C796.591 122.404 796.021 122.64 795.582 123.112C795.151 123.584 794.874 124.26 794.752 125.139H799.659V124.858C799.643 124.077 799.431 123.474 799.024 123.051C798.618 122.62 798.04 122.404 797.291 122.404ZM812.293 129.35C812.293 128.919 812.078 128.581 811.646 128.337C811.223 128.085 810.54 127.861 809.596 127.666C806.454 127.006 804.884 125.672 804.884 123.662C804.884 122.49 805.368 121.513 806.336 120.732C807.313 119.943 808.587 119.548 810.157 119.548C811.834 119.548 813.172 119.943 814.173 120.732C815.182 121.521 815.687 122.547 815.687 123.808H812.159C812.159 123.304 811.996 122.889 811.671 122.563C811.345 122.229 810.837 122.062 810.145 122.062C809.551 122.062 809.091 122.197 808.766 122.465C808.44 122.734 808.277 123.076 808.277 123.491C808.277 123.881 808.46 124.199 808.827 124.443C809.201 124.679 809.828 124.886 810.707 125.065C811.585 125.236 812.326 125.432 812.928 125.651C814.792 126.335 815.724 127.519 815.724 129.204C815.724 130.408 815.207 131.385 814.173 132.133C813.14 132.874 811.805 133.244 810.169 133.244C809.063 133.244 808.078 133.049 807.215 132.658C806.361 132.259 805.689 131.718 805.201 131.035C804.713 130.343 804.469 129.598 804.469 128.801H807.813C807.846 129.427 808.078 129.908 808.509 130.241C808.941 130.575 809.518 130.742 810.243 130.742C810.918 130.742 811.427 130.616 811.769 130.363C812.118 130.103 812.293 129.765 812.293 129.35ZM821.729 133H818.189V119.792H821.729V133ZM817.982 116.374C817.982 115.845 818.157 115.41 818.507 115.068C818.865 114.726 819.349 114.555 819.959 114.555C820.562 114.555 821.042 114.726 821.4 115.068C821.758 115.41 821.937 115.845 821.937 116.374C821.937 116.911 821.754 117.351 821.388 117.692C821.03 118.034 820.554 118.205 819.959 118.205C819.365 118.205 818.885 118.034 818.519 117.692C818.161 117.351 817.982 116.911 817.982 116.374ZM832.069 123.1C831.589 123.035 831.166 123.002 830.799 123.002C829.465 123.002 828.59 123.454 828.175 124.357V133H824.647V119.792H827.979L828.077 121.367C828.785 120.154 829.766 119.548 831.019 119.548C831.41 119.548 831.776 119.601 832.118 119.707L832.069 123.1ZM839.613 133.244C837.676 133.244 836.097 132.65 834.876 131.462C833.664 130.274 833.058 128.691 833.058 126.713V126.372C833.058 125.045 833.314 123.861 833.827 122.819C834.339 121.77 835.064 120.964 836 120.402C836.944 119.833 838.018 119.548 839.222 119.548C841.029 119.548 842.449 120.118 843.482 121.257C844.524 122.396 845.045 124.012 845.045 126.103V127.543H836.634C836.748 128.406 837.09 129.098 837.66 129.619C838.237 130.139 838.966 130.4 839.845 130.4C841.204 130.4 842.266 129.908 843.031 128.923L844.764 130.864C844.235 131.612 843.519 132.198 842.616 132.622C841.712 133.037 840.711 133.244 839.613 133.244ZM839.21 122.404C838.51 122.404 837.94 122.64 837.501 123.112C837.07 123.584 836.793 124.26 836.671 125.139H841.578V124.858C841.562 124.077 841.35 123.474 840.943 123.051C840.536 122.62 839.959 122.404 839.21 122.404ZM846.51 126.298C846.51 124.239 846.97 122.6 847.889 121.379C848.817 120.158 850.082 119.548 851.686 119.548C852.971 119.548 854.033 120.028 854.872 120.988V114.25H858.412V133H855.226L855.055 131.596C854.176 132.695 853.045 133.244 851.661 133.244C850.107 133.244 848.858 132.634 847.914 131.413C846.978 130.184 846.51 128.479 846.51 126.298ZM850.038 126.555C850.038 127.792 850.253 128.74 850.685 129.399C851.116 130.058 851.743 130.388 852.564 130.388C853.655 130.388 854.424 129.928 854.872 129.008V123.796C854.432 122.876 853.671 122.417 852.589 122.417C850.888 122.417 850.038 123.796 850.038 126.555ZM874.525 129.35C874.525 128.919 874.309 128.581 873.878 128.337C873.455 128.085 872.771 127.861 871.827 127.666C868.686 127.006 867.115 125.672 867.115 123.662C867.115 122.49 867.599 121.513 868.568 120.732C869.544 119.943 870.818 119.548 872.389 119.548C874.065 119.548 875.404 119.943 876.405 120.732C877.414 121.521 877.918 122.547 877.918 123.808H874.391C874.391 123.304 874.228 122.889 873.902 122.563C873.577 122.229 873.068 122.062 872.376 122.062C871.782 122.062 871.323 122.197 870.997 122.465C870.672 122.734 870.509 123.076 870.509 123.491C870.509 123.881 870.692 124.199 871.058 124.443C871.432 124.679 872.059 124.886 872.938 125.065C873.817 125.236 874.557 125.432 875.16 125.651C877.023 126.335 877.955 127.519 877.955 129.204C877.955 130.408 877.438 131.385 876.405 132.133C875.371 132.874 874.037 133.244 872.401 133.244C871.294 133.244 870.309 133.049 869.447 132.658C868.592 132.259 867.921 131.718 867.433 131.035C866.944 130.343 866.7 129.598 866.7 128.801H870.045C870.077 129.427 870.309 129.908 870.741 130.241C871.172 130.575 871.75 130.742 872.474 130.742C873.15 130.742 873.658 130.616 874 130.363C874.35 130.103 874.525 129.765 874.525 129.35ZM884.461 116.545V119.792H886.72V122.38H884.461V128.972C884.461 129.46 884.555 129.81 884.742 130.021C884.929 130.233 885.287 130.339 885.816 130.339C886.207 130.339 886.553 130.31 886.854 130.253V132.927C886.162 133.138 885.45 133.244 884.718 133.244C882.244 133.244 880.982 131.995 880.934 129.497V122.38H879.005V119.792H880.934V116.545H884.461ZM896.339 133C896.176 132.683 896.058 132.288 895.985 131.816C895.13 132.768 894.02 133.244 892.652 133.244C891.358 133.244 890.284 132.87 889.43 132.121C888.583 131.372 888.16 130.428 888.16 129.289C888.16 127.889 888.677 126.815 889.71 126.066C890.752 125.318 892.254 124.939 894.215 124.931H895.838V124.174C895.838 123.564 895.68 123.076 895.362 122.709C895.053 122.343 894.561 122.16 893.885 122.16C893.291 122.16 892.823 122.303 892.481 122.587C892.148 122.872 891.981 123.263 891.981 123.759H888.453C888.453 122.994 888.689 122.286 889.161 121.635C889.633 120.984 890.3 120.476 891.163 120.109C892.026 119.735 892.994 119.548 894.068 119.548C895.696 119.548 896.986 119.959 897.938 120.781C898.898 121.595 899.378 122.742 899.378 124.223V129.948C899.387 131.201 899.562 132.15 899.903 132.792V133H896.339ZM893.421 130.546C893.942 130.546 894.422 130.432 894.862 130.205C895.301 129.969 895.627 129.655 895.838 129.265V126.994H894.52C892.754 126.994 891.814 127.604 891.7 128.825L891.688 129.033C891.688 129.472 891.843 129.834 892.152 130.119C892.461 130.404 892.884 130.546 893.421 130.546ZM906.312 116.545V119.792H908.57V122.38H906.312V128.972C906.312 129.46 906.406 129.81 906.593 130.021C906.78 130.233 907.138 130.339 907.667 130.339C908.058 130.339 908.403 130.31 908.705 130.253V132.927C908.013 133.138 907.301 133.244 906.568 133.244C904.094 133.244 902.833 131.995 902.784 129.497V122.38H900.855V119.792H902.784V116.545H906.312ZM916.615 133.244C914.678 133.244 913.099 132.65 911.878 131.462C910.666 130.274 910.06 128.691 910.06 126.713V126.372C910.06 125.045 910.316 123.861 910.829 122.819C911.341 121.77 912.066 120.964 913.001 120.402C913.945 119.833 915.02 119.548 916.224 119.548C918.031 119.548 919.451 120.118 920.484 121.257C921.526 122.396 922.047 124.012 922.047 126.103V127.543H913.636C913.75 128.406 914.092 129.098 914.662 129.619C915.239 130.139 915.968 130.4 916.847 130.4C918.206 130.4 919.268 129.908 920.033 128.923L921.766 130.864C921.237 131.612 920.521 132.198 919.618 132.622C918.714 133.037 917.713 133.244 916.615 133.244ZM916.212 122.404C915.512 122.404 914.942 122.64 914.503 123.112C914.072 123.584 913.795 124.26 913.673 125.139H918.58V124.858C918.564 124.077 918.352 123.474 917.945 123.051C917.538 122.62 916.961 122.404 916.212 122.404Z" fill="white"/>
<path d="M415.085 244.934C409.139 244.934 403.524 242.292 399.725 237.502L341.92 165.657C338.121 160.867 336.635 154.757 338.121 148.81L358.766 59.128C360.087 53.182 364.051 48.392 369.502 45.75L453.073 5.78C455.716 4.46 458.689 3.799 461.662 3.799C464.635 3.799 467.607 4.459 470.25 5.781L553.822 45.585C559.272 48.227 563.236 53.017 564.557 58.963L585.202 148.645C586.524 154.591 585.202 160.702 581.404 165.492L523.597 237.337C519.798 241.961 514.183 244.769 508.237 244.769L415.087 244.934H415.085Z" fill="#326DE6"/>
<path d="M461.495 7.928C463.808 7.928 466.12 8.423 468.267 9.414L551.839 49.218C556.133 51.365 559.436 55.329 560.427 59.954L581.072 149.636C582.228 154.426 581.072 159.381 577.934 163.179L520.128 235.025C517.155 238.823 512.53 240.97 507.741 240.97H415.085C410.295 240.97 405.671 238.823 402.698 235.025L344.892 163.179C341.919 159.381 340.762 154.426 341.754 149.636L362.399 59.954C363.555 55.164 366.693 51.2 370.987 49.218L454.56 9.25C456.707 8.424 459.184 7.929 461.496 7.929L461.495 7.928ZM461.495 0.165001C458.027 0.165001 454.559 0.991001 451.255 2.477L367.684 42.447C361.077 45.585 356.453 51.365 354.801 58.467L334.156 148.15C332.505 155.252 334.156 162.519 338.781 168.3L396.587 240.145C401.047 245.76 407.818 248.898 414.92 248.898H507.575C514.677 248.898 521.449 245.76 525.908 240.145L583.715 168.299C588.339 162.684 589.991 155.252 588.339 148.149L567.694 58.467C566.043 51.365 561.418 45.585 554.812 42.447L471.57 2.476C468.432 0.991001 464.964 0.165001 461.495 0.165001V0.165001Z" fill="white"/>
<path d="M545.232 142.534C545.067 142.534 545.067 142.534 545.232 142.534H545.067C544.902 142.534 544.737 142.534 544.737 142.369C544.407 142.369 544.077 142.204 543.746 142.204C542.59 142.039 541.599 141.874 540.608 141.874C540.112 141.874 539.617 141.874 538.956 141.708H538.791C535.323 141.378 532.515 141.048 529.872 140.222C528.716 139.726 528.386 139.066 528.055 138.405C528.055 138.24 527.89 138.24 527.89 138.075L525.743 137.415C526.757 129.645 526.366 121.757 524.587 114.126C522.784 106.432 519.654 99.1103 515.338 92.49L516.99 91.004V90.674C516.99 89.848 517.155 89.022 517.815 88.196C519.797 86.379 522.275 84.893 525.248 83.076C525.743 82.746 526.238 82.581 526.734 82.25C527.725 81.755 528.551 81.26 529.542 80.599C529.707 80.434 530.037 80.269 530.368 79.939C530.533 79.773 530.698 79.773 530.698 79.608C533.01 77.626 533.506 74.323 531.854 72.175C531.028 71.019 529.542 70.359 528.055 70.359C526.735 70.359 525.578 70.854 524.422 71.68L524.092 72.01C523.762 72.175 523.596 72.506 523.266 72.671C522.44 73.497 521.779 74.157 521.119 74.983C520.789 75.313 520.459 75.809 519.963 76.139C517.65 78.617 515.503 80.599 513.356 82.085C512.861 82.415 512.366 82.581 511.87 82.581C511.54 82.581 511.209 82.581 510.879 82.415H510.549L508.566 83.737C506.419 81.425 504.107 79.443 501.795 77.461C491.839 69.6791 479.858 64.9208 467.276 63.752L467.111 61.605L466.781 61.275C466.285 60.779 465.625 60.284 465.459 59.128C465.294 56.485 465.625 53.512 465.955 50.209V50.044C465.955 49.548 466.12 48.888 466.285 48.392C466.45 47.402 466.615 46.41 466.781 45.254V43.768C466.781 40.795 464.468 38.318 461.661 38.318C460.339 38.318 459.018 38.978 458.027 39.969C457.037 40.96 456.541 42.281 456.541 43.768V45.089C456.541 46.245 456.706 47.236 457.036 48.227C457.201 48.723 457.201 49.218 457.366 49.879V50.044C457.696 53.347 458.192 56.32 457.862 58.963C457.697 60.119 457.036 60.614 456.541 61.11L456.211 61.44L456.045 63.587C453.072 63.917 450.099 64.247 447.126 64.908C434.409 67.716 423.178 74.158 414.425 83.406L412.773 82.25H412.443C412.113 82.25 411.782 82.415 411.452 82.415C410.956 82.415 410.461 82.25 409.965 81.92C407.818 80.434 405.671 78.286 403.359 75.809C403.029 75.479 402.699 74.983 402.203 74.653C401.542 73.827 400.881 73.166 400.055 72.341C399.89 72.175 399.56 72.011 399.23 71.68C399.065 71.515 398.9 71.515 398.9 71.35C397.877 70.5046 396.593 70.0377 395.266 70.028C393.779 70.028 392.293 70.689 391.467 71.845C389.815 73.992 390.311 77.295 392.623 79.277C392.788 79.277 392.788 79.443 392.953 79.443C393.283 79.608 393.449 79.938 393.779 80.103C394.77 80.763 395.596 81.259 396.587 81.755C397.083 81.92 397.578 82.25 398.074 82.581C401.046 84.397 403.524 85.884 405.506 87.701C406.332 88.526 406.332 89.352 406.332 90.178V90.508L407.983 91.995C407.653 92.49 407.323 92.821 407.157 93.316C398.899 106.364 395.761 121.724 397.908 136.919L395.761 137.579C395.761 137.745 395.596 137.745 395.596 137.909C395.266 138.57 394.77 139.231 393.779 139.726C391.302 140.552 388.329 140.883 384.861 141.213H384.695C384.2 141.213 383.539 141.213 383.044 141.378C382.053 141.378 381.062 141.543 379.906 141.708C379.576 141.708 379.246 141.874 378.915 141.874C378.75 141.874 378.585 141.874 378.419 142.039C375.446 142.699 373.629 145.507 374.125 148.149C374.621 150.462 376.768 151.949 379.41 151.949C379.906 151.949 380.236 151.949 380.732 151.783C380.897 151.783 381.062 151.783 381.062 151.618C381.392 151.618 381.722 151.453 382.052 151.453C383.209 151.123 384.035 150.793 385.026 150.297C385.521 150.132 386.016 149.801 386.512 149.637H386.677C389.815 148.48 392.623 147.489 395.266 147.159H395.596C396.587 147.159 397.248 147.654 397.743 147.985C397.908 147.985 397.908 148.15 398.073 148.15L400.386 147.82C404.35 160.041 411.947 170.942 422.022 178.87C424.334 180.686 426.646 182.173 429.124 183.66L428.133 185.806C428.133 185.972 428.298 185.972 428.298 186.136C428.628 186.797 428.958 187.623 428.628 188.779C427.638 191.257 426.151 193.734 424.334 196.542V196.707C424.004 197.203 423.674 197.533 423.344 198.028C422.683 198.854 422.187 199.68 421.526 200.671C421.361 200.836 421.196 201.166 421.031 201.497C421.031 201.662 420.866 201.827 420.866 201.827C419.545 204.635 420.536 207.773 423.013 208.929C423.673 209.259 424.334 209.425 424.995 209.425C426.977 209.425 428.959 208.103 429.95 206.286C429.95 206.121 430.115 205.956 430.115 205.956C430.28 205.626 430.445 205.296 430.61 205.13C431.106 203.974 431.271 203.148 431.601 202.157L432.097 200.671C433.253 197.368 434.079 194.725 435.565 192.413C436.225 191.422 437.052 191.257 437.712 190.926C437.877 190.926 437.877 190.926 438.042 190.761L439.199 188.614C446.466 191.422 454.394 192.908 462.321 192.908C467.111 192.908 472.066 192.413 476.691 191.257C479.601 190.606 482.469 189.779 485.279 188.779L486.269 190.596C486.435 190.596 486.435 190.596 486.6 190.761C487.426 190.926 488.086 191.257 488.747 192.248C490.068 194.56 491.059 197.368 492.215 200.506V200.671L492.711 202.157C493.041 203.148 493.206 204.139 493.701 205.13C493.867 205.46 494.032 205.626 494.197 205.956C494.197 206.121 494.363 206.286 494.363 206.286C495.353 208.268 497.335 209.425 499.317 209.425C499.978 209.425 500.639 209.259 501.299 208.929C502.455 208.269 503.446 207.277 503.777 205.956C504.107 204.635 504.107 203.148 503.447 201.827C503.447 201.662 503.281 201.662 503.281 201.497C503.116 201.167 502.951 200.837 502.786 200.671C502.29 199.68 501.63 198.854 500.969 198.028C500.639 197.533 500.309 197.203 499.979 196.708V196.542C498.161 193.734 496.509 191.257 495.684 188.779C495.354 187.623 495.684 186.963 495.849 186.137C495.849 185.972 496.014 185.972 496.014 185.807L495.188 183.825C503.942 178.705 511.374 171.437 516.99 162.519C519.963 157.894 522.275 152.774 523.926 147.654L525.908 147.984C526.074 147.984 526.074 147.819 526.238 147.819C526.899 147.489 527.395 146.994 528.386 146.994H528.716C531.359 147.324 534.166 148.314 537.305 149.471H537.47C537.965 149.636 538.46 149.966 538.956 150.131C539.947 150.627 540.773 150.957 541.929 151.288C542.259 151.288 542.589 151.453 542.92 151.453C543.085 151.453 543.25 151.453 543.415 151.618C543.911 151.783 544.241 151.783 544.737 151.783C547.214 151.783 549.361 150.132 550.022 147.985C550.022 146.003 548.205 143.36 545.232 142.535V142.534ZM468.762 134.441L461.495 137.91L454.228 134.441L452.412 126.679L457.366 120.403H465.459L470.414 126.679L468.763 134.441H468.762ZM511.87 117.265C513.151 122.726 513.542 128.359 513.026 133.945L487.756 126.679C485.444 126.019 484.123 123.706 484.618 121.394C484.783 120.733 485.114 120.072 485.609 119.577L505.594 101.574C508.401 106.199 510.548 111.484 511.87 117.264V117.265ZM497.666 91.665L476.03 107.025C474.213 108.181 471.735 107.85 470.249 106.034C469.754 105.538 469.589 104.877 469.423 104.217L467.937 77.295C479.185 78.5902 489.664 83.6551 497.666 91.665V91.665ZM449.769 78.12C451.586 77.79 453.237 77.46 455.054 77.13L453.568 103.555C453.403 105.867 451.586 107.849 449.108 107.849C448.448 107.849 447.622 107.684 447.126 107.354L425.16 91.665C431.932 84.893 440.355 80.268 449.769 78.121V78.12ZM417.232 101.573L436.886 119.08C438.703 120.567 438.868 123.374 437.382 125.191C436.886 125.851 436.226 126.347 435.4 126.513L409.8 133.945C408.809 122.714 411.286 111.318 417.232 101.573V101.573ZM412.772 146.332L439.034 141.872C441.181 141.707 443.163 143.194 443.658 145.341C443.823 146.331 443.823 147.158 443.493 147.984L433.418 172.262C424.169 166.316 416.737 157.232 412.773 146.332H412.772ZM473.057 179.199C469.258 180.025 465.459 180.52 461.495 180.52C455.715 180.52 450.099 179.53 444.815 177.878L457.862 154.26C459.183 152.773 461.33 152.113 463.147 153.104C463.918 153.576 464.591 154.193 465.129 154.92L477.846 177.878C476.36 178.373 474.708 178.704 473.056 179.199H473.057ZM505.263 156.242C501.134 162.848 495.683 168.133 489.408 172.262L479.003 147.322C478.507 145.341 479.333 143.194 481.315 142.202C481.975 141.872 482.801 141.707 483.627 141.707L510.053 146.167C509.062 149.8 507.41 153.104 505.263 156.242V156.242Z" fill="white"/>
<path d="M320.768 126.768C321.744 125.791 321.744 124.209 320.768 123.232L304.858 107.322C303.882 106.346 302.299 106.346 301.322 107.322C300.346 108.299 300.346 109.882 301.322 110.858L315.464 125L301.322 139.142C300.346 140.118 300.346 141.701 301.322 142.678C302.299 143.654 303.882 143.654 304.858 142.678L320.768 126.768ZM211 127.5H319V122.5H211V127.5Z" fill="black"/>
<path d="M713.768 126.768C714.744 125.791 714.744 124.209 713.768 123.232L697.858 107.322C696.882 106.346 695.299 106.346 694.322 107.322C693.346 108.299 693.346 109.882 694.322 110.858L708.464 125L694.322 139.142C693.346 140.118 693.346 141.701 694.322 142.678C695.299 143.654 696.882 143.654 697.858 142.678L713.768 126.768ZM604 127.5H712V122.5H604V127.5Z" fill="black"/>
</svg>
