<svg width="1484" height="676" viewBox="0 0 1484 676" fill="none" xmlns="http://www.w3.org/2000/svg">
<rect x="0.5" y="12.5" width="1133" height="663" stroke="#333333"/>
<rect x="432" y="137" width="240" height="168" fill="#A4FB96"/>
<rect x="437" y="195" width="230" height="100" fill="#7367FF"/>
<rect x="51" y="292" width="230" height="100" fill="#E96969"/>
<path d="M528.299 168.485V176H523.904V154.672H532.225C533.826 154.672 535.232 154.965 536.443 155.551C537.664 156.137 538.602 156.972 539.256 158.056C539.91 159.13 540.237 160.355 540.237 161.732C540.237 163.822 539.52 165.473 538.084 166.684C536.658 167.885 534.681 168.485 532.151 168.485H528.299ZM528.299 164.926H532.225C533.387 164.926 534.271 164.652 534.876 164.105C535.491 163.559 535.799 162.777 535.799 161.762C535.799 160.717 535.491 159.872 534.876 159.228C534.261 158.583 533.411 158.251 532.327 158.231H528.299V164.926ZM542.127 167.929C542.127 166.356 542.43 164.955 543.035 163.725C543.641 162.494 544.51 161.542 545.643 160.868C546.785 160.194 548.108 159.857 549.612 159.857C551.751 159.857 553.494 160.512 554.842 161.82C556.199 163.129 556.956 164.906 557.112 167.152L557.142 168.236C557.142 170.668 556.463 172.621 555.105 174.096C553.748 175.561 551.927 176.293 549.642 176.293C547.356 176.293 545.53 175.561 544.163 174.096C542.806 172.631 542.127 170.639 542.127 168.119V167.929ZM546.36 168.236C546.36 169.74 546.644 170.893 547.21 171.693C547.776 172.484 548.587 172.88 549.642 172.88C550.667 172.88 551.468 172.489 552.044 171.708C552.62 170.917 552.908 169.657 552.908 167.929C552.908 166.454 552.62 165.312 552.044 164.501C551.468 163.69 550.657 163.285 549.612 163.285C548.577 163.285 547.776 163.69 547.21 164.501C546.644 165.302 546.36 166.547 546.36 168.236ZM559.09 167.958C559.09 165.487 559.642 163.52 560.745 162.055C561.858 160.59 563.377 159.857 565.301 159.857C566.844 159.857 568.118 160.434 569.124 161.586V153.5H573.372V176H569.549L569.344 174.315C568.289 175.634 566.932 176.293 565.271 176.293C563.406 176.293 561.907 175.561 560.774 174.096C559.651 172.621 559.09 170.575 559.09 167.958ZM563.323 168.266C563.323 169.75 563.582 170.888 564.1 171.679C564.617 172.47 565.369 172.865 566.355 172.865C567.664 172.865 568.587 172.313 569.124 171.21V164.955C568.597 163.852 567.684 163.3 566.385 163.3C564.344 163.3 563.323 164.955 563.323 168.266Z" fill="black"/>
<path d="M545.647 15.8955C545.481 18.1904 544.632 19.9971 543.099 21.3154C541.575 22.6338 539.563 23.293 537.063 23.293C534.329 23.293 532.176 22.375 530.604 20.5391C529.041 18.6934 528.26 16.1641 528.26 12.9512V11.6475C528.26 9.59668 528.621 7.79004 529.344 6.22754C530.066 4.66504 531.097 3.46875 532.435 2.63867C533.782 1.79883 535.345 1.37891 537.122 1.37891C539.583 1.37891 541.565 2.03809 543.069 3.35645C544.573 4.6748 545.442 6.52539 545.677 8.9082H541.282C541.175 7.53125 540.789 6.53516 540.125 5.91992C539.471 5.29492 538.47 4.98242 537.122 4.98242C535.657 4.98242 534.559 5.50977 533.826 6.56445C533.104 7.60937 532.732 9.23535 532.713 11.4424V13.0537C532.713 15.3584 533.06 17.043 533.753 18.1074C534.456 19.1719 535.56 19.7041 537.063 19.7041C538.421 19.7041 539.432 19.3965 540.096 18.7812C540.77 18.1562 541.155 17.1943 541.253 15.8955H545.647ZM552.723 23H548.475V0.5H552.723V23ZM565.716 21.3887C564.671 22.6582 563.226 23.293 561.38 23.293C559.681 23.293 558.382 22.8047 557.483 21.8281C556.595 20.8516 556.141 19.4209 556.121 17.5361V7.15039H560.354V17.3896C560.354 19.04 561.106 19.8652 562.61 19.8652C564.046 19.8652 565.032 19.3672 565.569 18.3711V7.15039H569.817V23H565.833L565.716 21.3887ZM581.595 18.6201C581.595 18.1025 581.336 17.6973 580.818 17.4043C580.311 17.1016 579.49 16.833 578.357 16.5986C574.588 15.8076 572.703 14.2061 572.703 11.7939C572.703 10.3877 573.284 9.21582 574.446 8.27832C575.618 7.33105 577.146 6.85742 579.031 6.85742C581.043 6.85742 582.649 7.33105 583.851 8.27832C585.062 9.22559 585.667 10.4561 585.667 11.9697H581.434C581.434 11.3643 581.238 10.8662 580.848 10.4756C580.457 10.0752 579.847 9.875 579.017 9.875C578.304 9.875 577.752 10.0361 577.361 10.3584C576.971 10.6807 576.775 11.0908 576.775 11.5889C576.775 12.0576 576.995 12.4385 577.435 12.7314C577.884 13.0146 578.636 13.2637 579.69 13.4785C580.745 13.6836 581.634 13.918 582.356 14.1816C584.593 15.002 585.711 16.4229 585.711 18.4443C585.711 19.8896 585.091 21.0615 583.851 21.96C582.61 22.8486 581.009 23.293 579.046 23.293C577.718 23.293 576.536 23.0586 575.501 22.5898C574.476 22.1113 573.67 21.4619 573.084 20.6416C572.498 19.8115 572.205 18.918 572.205 17.9609H576.219C576.258 18.7129 576.536 19.2891 577.054 19.6895C577.571 20.0898 578.265 20.29 579.134 20.29C579.944 20.29 580.555 20.1387 580.965 19.8359C581.385 19.5234 581.595 19.1182 581.595 18.6201ZM593.519 3.25391V7.15039H596.229V10.2559H593.519V18.166C593.519 18.752 593.631 19.1719 593.855 19.4258C594.08 19.6797 594.51 19.8066 595.145 19.8066C595.613 19.8066 596.028 19.7725 596.39 19.7041V22.9121C595.56 23.166 594.705 23.293 593.826 23.293C590.857 23.293 589.344 21.7939 589.285 18.7959V10.2559H586.971V7.15039H589.285V3.25391H593.519ZM605.882 23.293C603.558 23.293 601.663 22.5801 600.198 21.1543C598.743 19.7285 598.016 17.8291 598.016 15.4561V15.0459C598.016 13.4541 598.323 12.0332 598.938 10.7832C599.554 9.52344 600.423 8.55664 601.546 7.88281C602.679 7.19922 603.968 6.85742 605.413 6.85742C607.581 6.85742 609.285 7.54102 610.525 8.9082C611.775 10.2754 612.4 12.2139 612.4 14.7236V16.4521H602.308C602.444 17.4873 602.854 18.3174 603.538 18.9424C604.231 19.5674 605.105 19.8799 606.16 19.8799C607.791 19.8799 609.065 19.2891 609.983 18.1074L612.063 20.4365C611.429 21.335 610.569 22.0381 609.485 22.5459C608.401 23.0439 607.2 23.293 605.882 23.293ZM605.398 10.2852C604.559 10.2852 603.875 10.5684 603.348 11.1348C602.83 11.7012 602.498 12.5117 602.352 13.5664H608.24V13.2295C608.221 12.292 607.967 11.5693 607.479 11.0615C606.99 10.5439 606.297 10.2852 605.398 10.2852ZM623.724 11.1201C623.147 11.042 622.64 11.0029 622.2 11.0029C620.599 11.0029 619.549 11.5449 619.051 12.6289V23H614.817V7.15039H618.816L618.934 9.04004C619.783 7.58496 620.96 6.85742 622.464 6.85742C622.933 6.85742 623.372 6.9209 623.782 7.04785L623.724 11.1201Z" fill="black"/>
<path d="M512.54 247.08C512.401 248.992 511.693 250.498 510.416 251.596C509.146 252.695 507.47 253.244 505.386 253.244C503.108 253.244 501.313 252.479 500.003 250.949C498.701 249.411 498.05 247.303 498.05 244.626V243.54C498.05 241.831 498.351 240.325 498.953 239.023C499.555 237.721 500.414 236.724 501.529 236.032C502.652 235.332 503.954 234.982 505.435 234.982C507.486 234.982 509.138 235.532 510.391 236.63C511.644 237.729 512.369 239.271 512.564 241.257H508.902C508.812 240.109 508.491 239.279 507.938 238.767C507.392 238.246 506.558 237.985 505.435 237.985C504.214 237.985 503.299 238.425 502.688 239.304C502.086 240.174 501.777 241.529 501.761 243.369V244.711C501.761 246.632 502.05 248.036 502.627 248.923C503.213 249.81 504.133 250.253 505.386 250.253C506.517 250.253 507.36 249.997 507.913 249.484C508.475 248.964 508.796 248.162 508.877 247.08H512.54ZM514.163 246.274C514.163 244.964 514.415 243.796 514.92 242.771C515.424 241.745 516.149 240.952 517.093 240.39C518.045 239.829 519.148 239.548 520.401 239.548C522.183 239.548 523.636 240.093 524.759 241.184C525.89 242.274 526.521 243.755 526.651 245.627L526.675 246.53C526.675 248.557 526.11 250.184 524.979 251.413C523.847 252.634 522.33 253.244 520.425 253.244C518.521 253.244 516.999 252.634 515.86 251.413C514.729 250.192 514.163 248.532 514.163 246.433V246.274ZM517.691 246.53C517.691 247.784 517.927 248.744 518.399 249.411C518.871 250.07 519.546 250.4 520.425 250.4C521.28 250.4 521.947 250.074 522.427 249.423C522.907 248.764 523.147 247.714 523.147 246.274C523.147 245.045 522.907 244.093 522.427 243.417C521.947 242.742 521.272 242.404 520.401 242.404C519.538 242.404 518.871 242.742 518.399 243.417C517.927 244.085 517.691 245.122 517.691 246.53ZM532.095 239.792L532.205 241.318C533.149 240.138 534.415 239.548 536.001 239.548C537.401 239.548 538.443 239.959 539.126 240.781C539.81 241.603 540.16 242.832 540.176 244.467V253H536.648V244.553C536.648 243.804 536.486 243.263 536.16 242.929C535.835 242.587 535.293 242.417 534.537 242.417C533.544 242.417 532.799 242.84 532.303 243.686V253H528.775V239.792H532.095ZM547.085 236.545V239.792H549.344V242.38H547.085V248.972C547.085 249.46 547.179 249.81 547.366 250.021C547.553 250.233 547.911 250.339 548.44 250.339C548.831 250.339 549.177 250.31 549.478 250.253V252.927C548.786 253.138 548.074 253.244 547.342 253.244C544.868 253.244 543.606 251.995 543.558 249.497V242.38H541.629V239.792H543.558V236.545H547.085ZM558.963 253C558.8 252.683 558.682 252.288 558.609 251.816C557.754 252.768 556.644 253.244 555.276 253.244C553.982 253.244 552.908 252.87 552.054 252.121C551.207 251.372 550.784 250.428 550.784 249.289C550.784 247.889 551.301 246.815 552.334 246.066C553.376 245.318 554.878 244.939 556.839 244.931H558.462V244.174C558.462 243.564 558.304 243.076 557.986 242.709C557.677 242.343 557.185 242.16 556.509 242.16C555.915 242.16 555.447 242.303 555.105 242.587C554.772 242.872 554.605 243.263 554.605 243.759H551.077C551.077 242.994 551.313 242.286 551.785 241.635C552.257 240.984 552.924 240.476 553.787 240.109C554.65 239.735 555.618 239.548 556.692 239.548C558.32 239.548 559.61 239.959 560.562 240.781C561.522 241.595 562.002 242.742 562.002 244.223V249.948C562.011 251.201 562.186 252.15 562.527 252.792V253H558.963ZM556.045 250.546C556.566 250.546 557.046 250.432 557.486 250.205C557.925 249.969 558.251 249.655 558.462 249.265V246.994H557.144C555.378 246.994 554.438 247.604 554.324 248.825L554.312 249.033C554.312 249.472 554.467 249.834 554.776 250.119C555.085 250.404 555.508 250.546 556.045 250.546ZM568.436 253H564.896V239.792H568.436V253ZM564.688 236.374C564.688 235.845 564.863 235.41 565.213 235.068C565.571 234.726 566.055 234.555 566.666 234.555C567.268 234.555 567.748 234.726 568.106 235.068C568.464 235.41 568.643 235.845 568.643 236.374C568.643 236.911 568.46 237.351 568.094 237.692C567.736 238.034 567.26 238.205 566.666 238.205C566.071 238.205 565.591 238.034 565.225 237.692C564.867 237.351 564.688 236.911 564.688 236.374ZM574.6 239.792L574.71 241.318C575.654 240.138 576.919 239.548 578.506 239.548C579.906 239.548 580.948 239.959 581.631 240.781C582.315 241.603 582.665 242.832 582.681 244.467V253H579.153V244.553C579.153 243.804 578.991 243.263 578.665 242.929C578.34 242.587 577.798 242.417 577.042 242.417C576.049 242.417 575.304 242.84 574.808 243.686V253H571.28V239.792H574.6ZM591.446 253.244C589.509 253.244 587.93 252.65 586.709 251.462C585.497 250.274 584.891 248.691 584.891 246.713V246.372C584.891 245.045 585.147 243.861 585.66 242.819C586.172 241.77 586.897 240.964 587.833 240.402C588.777 239.833 589.851 239.548 591.055 239.548C592.862 239.548 594.282 240.118 595.315 241.257C596.357 242.396 596.878 244.012 596.878 246.103V247.543H588.467C588.581 248.406 588.923 249.098 589.493 249.619C590.07 250.139 590.799 250.4 591.678 250.4C593.037 250.4 594.099 249.908 594.864 248.923L596.597 250.864C596.068 251.612 595.352 252.198 594.449 252.622C593.545 253.037 592.544 253.244 591.446 253.244ZM591.043 242.404C590.343 242.404 589.773 242.64 589.334 243.112C588.903 243.584 588.626 244.26 588.504 245.139H593.411V244.858C593.395 244.077 593.183 243.474 592.776 243.051C592.369 242.62 591.792 242.404 591.043 242.404ZM606.314 243.1C605.834 243.035 605.411 243.002 605.044 243.002C603.71 243.002 602.835 243.454 602.42 244.357V253H598.892V239.792H602.225L602.322 241.367C603.03 240.154 604.011 239.548 605.264 239.548C605.655 239.548 606.021 239.601 606.363 239.707L606.314 243.1Z" fill="white"/>
<path d="M135.803 346.337C135.803 345.645 135.559 345.116 135.071 344.75C134.583 344.376 133.704 343.985 132.434 343.578C131.165 343.163 130.16 342.756 129.419 342.357C127.401 341.267 126.392 339.798 126.392 337.951C126.392 336.99 126.66 336.136 127.197 335.387C127.743 334.63 128.52 334.04 129.529 333.617C130.546 333.194 131.685 332.982 132.947 332.982C134.216 332.982 135.347 333.214 136.34 333.678C137.333 334.134 138.102 334.781 138.647 335.619C139.201 336.457 139.478 337.41 139.478 338.476H135.815C135.815 337.662 135.559 337.031 135.046 336.583C134.534 336.128 133.813 335.9 132.886 335.9C131.991 335.9 131.295 336.091 130.798 336.474C130.302 336.848 130.054 337.344 130.054 337.963C130.054 338.541 130.343 339.025 130.92 339.416C131.506 339.806 132.365 340.172 133.496 340.514C135.579 341.141 137.097 341.918 138.049 342.846C139.001 343.773 139.478 344.929 139.478 346.312C139.478 347.851 138.896 349.059 137.732 349.938C136.568 350.809 135.002 351.244 133.032 351.244C131.665 351.244 130.42 350.996 129.297 350.5C128.174 349.995 127.315 349.307 126.721 348.437C126.135 347.566 125.842 346.557 125.842 345.409H129.517C129.517 347.37 130.688 348.351 133.032 348.351C133.903 348.351 134.583 348.176 135.071 347.826C135.559 347.468 135.803 346.972 135.803 346.337ZM147.815 351.244C145.878 351.244 144.299 350.65 143.079 349.462C141.866 348.274 141.26 346.691 141.26 344.713V344.372C141.26 343.045 141.516 341.861 142.029 340.819C142.542 339.77 143.266 338.964 144.202 338.402C145.146 337.833 146.22 337.548 147.424 337.548C149.231 337.548 150.651 338.118 151.685 339.257C152.726 340.396 153.247 342.012 153.247 344.103V345.543H144.836C144.95 346.406 145.292 347.098 145.862 347.619C146.44 348.139 147.168 348.4 148.047 348.4C149.406 348.4 150.468 347.908 151.233 346.923L152.966 348.864C152.437 349.612 151.721 350.198 150.818 350.622C149.915 351.037 148.914 351.244 147.815 351.244ZM147.412 340.404C146.712 340.404 146.143 340.64 145.703 341.112C145.272 341.584 144.995 342.26 144.873 343.139H149.78V342.858C149.764 342.077 149.552 341.474 149.146 341.051C148.739 340.62 148.161 340.404 147.412 340.404ZM162.683 341.1C162.203 341.035 161.78 341.002 161.414 341.002C160.079 341.002 159.204 341.454 158.789 342.357V351H155.261V337.792H158.594L158.691 339.367C159.399 338.154 160.38 337.548 161.633 337.548C162.024 337.548 162.39 337.601 162.732 337.707L162.683 341.1ZM169.556 346.691L172.009 337.792H175.696L171.24 351H167.871L163.416 337.792H167.102L169.556 346.691ZM180.981 351H177.441V337.792H180.981V351ZM177.234 334.374C177.234 333.845 177.409 333.41 177.759 333.068C178.117 332.726 178.601 332.555 179.211 332.555C179.814 332.555 180.294 332.726 180.652 333.068C181.01 333.41 181.189 333.845 181.189 334.374C181.189 334.911 181.006 335.351 180.64 335.692C180.282 336.034 179.806 336.205 179.211 336.205C178.617 336.205 178.137 336.034 177.771 335.692C177.413 335.351 177.234 334.911 177.234 334.374ZM189.392 348.4C190.043 348.4 190.572 348.221 190.979 347.863C191.386 347.505 191.597 347.029 191.614 346.435H194.922C194.914 347.33 194.67 348.152 194.189 348.9C193.709 349.641 193.05 350.219 192.212 350.634C191.382 351.041 190.462 351.244 189.453 351.244C187.565 351.244 186.076 350.646 184.985 349.45C183.895 348.245 183.35 346.585 183.35 344.469V344.237C183.35 342.203 183.891 340.579 184.973 339.367C186.056 338.154 187.541 337.548 189.429 337.548C191.081 337.548 192.403 338.02 193.396 338.964C194.397 339.9 194.906 341.149 194.922 342.711H191.614C191.597 342.028 191.386 341.474 190.979 341.051C190.572 340.62 190.035 340.404 189.368 340.404C188.546 340.404 187.923 340.705 187.5 341.308C187.085 341.902 186.877 342.87 186.877 344.213V344.579C186.877 345.938 187.085 346.915 187.5 347.509C187.915 348.103 188.546 348.4 189.392 348.4ZM203.015 351.244C201.078 351.244 199.5 350.65 198.279 349.462C197.066 348.274 196.46 346.691 196.46 344.713V344.372C196.46 343.045 196.716 341.861 197.229 340.819C197.742 339.77 198.466 338.964 199.402 338.402C200.346 337.833 201.42 337.548 202.625 337.548C204.431 337.548 205.851 338.118 206.885 339.257C207.926 340.396 208.447 342.012 208.447 344.103V345.543H200.037C200.151 346.406 200.492 347.098 201.062 347.619C201.64 348.139 202.368 348.4 203.247 348.4C204.606 348.4 205.668 347.908 206.433 346.923L208.167 348.864C207.638 349.612 206.921 350.198 206.018 350.622C205.115 351.037 204.114 351.244 203.015 351.244ZM202.612 340.404C201.912 340.404 201.343 340.64 200.903 341.112C200.472 341.584 200.195 342.26 200.073 343.139H204.98V342.858C204.964 342.077 204.753 341.474 204.346 341.051C203.939 340.62 203.361 340.404 202.612 340.404Z" fill="white"/>
<rect x="432" y="353" width="240" height="168" fill="#A4FB96"/>
<rect x="437" y="410" width="230" height="100" fill="#7367FF"/>
<path d="M509.54 462.08C509.401 463.992 508.693 465.498 507.416 466.596C506.146 467.695 504.47 468.244 502.386 468.244C500.108 468.244 498.313 467.479 497.003 465.949C495.701 464.411 495.05 462.303 495.05 459.626V458.54C495.05 456.831 495.351 455.325 495.953 454.023C496.555 452.721 497.414 451.724 498.529 451.032C499.652 450.332 500.954 449.982 502.435 449.982C504.486 449.982 506.138 450.532 507.391 451.63C508.644 452.729 509.369 454.271 509.564 456.257H505.902C505.812 455.109 505.491 454.279 504.938 453.767C504.392 453.246 503.558 452.985 502.435 452.985C501.214 452.985 500.299 453.425 499.688 454.304C499.086 455.174 498.777 456.529 498.761 458.369V459.711C498.761 461.632 499.05 463.036 499.627 463.923C500.213 464.81 501.133 465.253 502.386 465.253C503.517 465.253 504.36 464.997 504.913 464.484C505.475 463.964 505.796 463.162 505.877 462.08H509.54ZM511.163 461.274C511.163 459.964 511.415 458.796 511.92 457.771C512.424 456.745 513.149 455.952 514.093 455.39C515.045 454.829 516.148 454.548 517.401 454.548C519.183 454.548 520.636 455.093 521.759 456.184C522.89 457.274 523.521 458.755 523.651 460.627L523.675 461.53C523.675 463.557 523.11 465.184 521.979 466.413C520.847 467.634 519.33 468.244 517.425 468.244C515.521 468.244 513.999 467.634 512.86 466.413C511.729 465.192 511.163 463.532 511.163 461.433V461.274ZM514.691 461.53C514.691 462.784 514.927 463.744 515.399 464.411C515.871 465.07 516.546 465.4 517.425 465.4C518.28 465.4 518.947 465.074 519.427 464.423C519.907 463.764 520.147 462.714 520.147 461.274C520.147 460.045 519.907 459.093 519.427 458.417C518.947 457.742 518.272 457.404 517.401 457.404C516.538 457.404 515.871 457.742 515.399 458.417C514.927 459.085 514.691 460.122 514.691 461.53ZM529.095 454.792L529.205 456.318C530.149 455.138 531.415 454.548 533.001 454.548C534.401 454.548 535.443 454.959 536.126 455.781C536.81 456.603 537.16 457.832 537.176 459.467V468H533.648V459.553C533.648 458.804 533.486 458.263 533.16 457.929C532.835 457.587 532.293 457.417 531.537 457.417C530.544 457.417 529.799 457.84 529.303 458.686V468H525.775V454.792H529.095ZM544.085 451.545V454.792H546.344V457.38H544.085V463.972C544.085 464.46 544.179 464.81 544.366 465.021C544.553 465.233 544.911 465.339 545.44 465.339C545.831 465.339 546.177 465.31 546.478 465.253V467.927C545.786 468.138 545.074 468.244 544.342 468.244C541.868 468.244 540.606 466.995 540.558 464.497V457.38H538.629V454.792H540.558V451.545H544.085ZM555.963 468C555.8 467.683 555.682 467.288 555.609 466.816C554.754 467.768 553.644 468.244 552.276 468.244C550.982 468.244 549.908 467.87 549.054 467.121C548.207 466.372 547.784 465.428 547.784 464.289C547.784 462.889 548.301 461.815 549.334 461.066C550.376 460.318 551.878 459.939 553.839 459.931H555.462V459.174C555.462 458.564 555.304 458.076 554.986 457.709C554.677 457.343 554.185 457.16 553.509 457.16C552.915 457.16 552.447 457.303 552.105 457.587C551.772 457.872 551.605 458.263 551.605 458.759H548.077C548.077 457.994 548.313 457.286 548.785 456.635C549.257 455.984 549.924 455.476 550.787 455.109C551.65 454.735 552.618 454.548 553.692 454.548C555.32 454.548 556.61 454.959 557.562 455.781C558.522 456.595 559.002 457.742 559.002 459.223V464.948C559.011 466.201 559.186 467.15 559.527 467.792V468H555.963ZM553.045 465.546C553.566 465.546 554.046 465.432 554.486 465.205C554.925 464.969 555.251 464.655 555.462 464.265V461.994H554.144C552.378 461.994 551.438 462.604 551.324 463.825L551.312 464.033C551.312 464.472 551.467 464.834 551.776 465.119C552.085 465.404 552.508 465.546 553.045 465.546ZM565.436 468H561.896V454.792H565.436V468ZM561.688 451.374C561.688 450.845 561.863 450.41 562.213 450.068C562.571 449.726 563.055 449.555 563.666 449.555C564.268 449.555 564.748 449.726 565.106 450.068C565.464 450.41 565.643 450.845 565.643 451.374C565.643 451.911 565.46 452.351 565.094 452.692C564.736 453.034 564.26 453.205 563.666 453.205C563.071 453.205 562.591 453.034 562.225 452.692C561.867 452.351 561.688 451.911 561.688 451.374ZM571.6 454.792L571.71 456.318C572.654 455.138 573.919 454.548 575.506 454.548C576.906 454.548 577.948 454.959 578.631 455.781C579.315 456.603 579.665 457.832 579.681 459.467V468H576.153V459.553C576.153 458.804 575.991 458.263 575.665 457.929C575.34 457.587 574.798 457.417 574.042 457.417C573.049 457.417 572.304 457.84 571.808 458.686V468H568.28V454.792H571.6ZM588.446 468.244C586.509 468.244 584.93 467.65 583.709 466.462C582.497 465.274 581.891 463.691 581.891 461.713V461.372C581.891 460.045 582.147 458.861 582.66 457.819C583.172 456.77 583.897 455.964 584.833 455.402C585.777 454.833 586.851 454.548 588.055 454.548C589.862 454.548 591.282 455.118 592.315 456.257C593.357 457.396 593.878 459.012 593.878 461.103V462.543H585.467C585.581 463.406 585.923 464.098 586.493 464.619C587.07 465.139 587.799 465.4 588.678 465.4C590.037 465.4 591.099 464.908 591.864 463.923L593.597 465.864C593.068 466.612 592.352 467.198 591.449 467.622C590.545 468.037 589.544 468.244 588.446 468.244ZM588.043 457.404C587.343 457.404 586.773 457.64 586.334 458.112C585.903 458.584 585.626 459.26 585.504 460.139H590.411V459.858C590.395 459.077 590.183 458.474 589.776 458.051C589.369 457.62 588.792 457.404 588.043 457.404ZM603.314 458.1C602.834 458.035 602.411 458.002 602.044 458.002C600.71 458.002 599.835 458.454 599.42 459.357V468H595.892V454.792H599.225L599.322 456.367C600.03 455.154 601.011 454.548 602.264 454.548C602.655 454.548 603.021 454.601 603.363 454.707L603.314 458.1Z" fill="white"/>
<path d="M531.299 383.485V391H526.904V369.672H535.225C536.826 369.672 538.232 369.965 539.443 370.551C540.664 371.137 541.602 371.972 542.256 373.056C542.91 374.13 543.237 375.355 543.237 376.732C543.237 378.822 542.52 380.473 541.084 381.684C539.658 382.885 537.681 383.485 535.151 383.485H531.299ZM531.299 379.926H535.225C536.387 379.926 537.271 379.652 537.876 379.105C538.491 378.559 538.799 377.777 538.799 376.762C538.799 375.717 538.491 374.872 537.876 374.228C537.261 373.583 536.411 373.251 535.327 373.231H531.299V379.926ZM545.127 382.929C545.127 381.356 545.43 379.955 546.035 378.725C546.641 377.494 547.51 376.542 548.643 375.868C549.785 375.194 551.108 374.857 552.612 374.857C554.751 374.857 556.494 375.512 557.842 376.82C559.199 378.129 559.956 379.906 560.112 382.152L560.142 383.236C560.142 385.668 559.463 387.621 558.105 389.096C556.748 390.561 554.927 391.293 552.642 391.293C550.356 391.293 548.53 390.561 547.163 389.096C545.806 387.631 545.127 385.639 545.127 383.119V382.929ZM549.36 383.236C549.36 384.74 549.644 385.893 550.21 386.693C550.776 387.484 551.587 387.88 552.642 387.88C553.667 387.88 554.468 387.489 555.044 386.708C555.62 385.917 555.908 384.657 555.908 382.929C555.908 381.454 555.62 380.312 555.044 379.501C554.468 378.69 553.657 378.285 552.612 378.285C551.577 378.285 550.776 378.69 550.21 379.501C549.644 380.302 549.36 381.547 549.36 383.236ZM562.09 382.958C562.09 380.487 562.642 378.52 563.745 377.055C564.858 375.59 566.377 374.857 568.301 374.857C569.844 374.857 571.118 375.434 572.124 376.586V368.5H576.372V391H572.549L572.344 389.315C571.289 390.634 569.932 391.293 568.271 391.293C566.406 391.293 564.907 390.561 563.774 389.096C562.651 387.621 562.09 385.575 562.09 382.958ZM566.323 383.266C566.323 384.75 566.582 385.888 567.1 386.679C567.617 387.47 568.369 387.865 569.355 387.865C570.664 387.865 571.587 387.313 572.124 386.21V379.955C571.597 378.852 570.684 378.3 569.385 378.3C567.344 378.3 566.323 379.955 566.323 383.266Z" fill="black"/>
<path d="M417.493 230.185C417.595 228.808 416.562 227.609 415.185 227.507L392.747 225.841C391.37 225.739 390.171 226.772 390.069 228.149C389.966 229.526 391 230.725 392.377 230.827L412.322 232.308L410.841 252.253C410.739 253.63 411.772 254.829 413.149 254.931C414.526 255.034 415.725 254 415.827 252.623L417.493 230.185ZM293.632 337.894L416.632 231.894L413.368 228.106L290.368 334.106L293.632 337.894Z" fill="black"/>
<path d="M1243.77 345.741C1244.74 344.765 1244.74 343.182 1243.77 342.206L1227.85 326.299C1226.88 325.322 1225.29 325.323 1224.32 326.299C1223.34 327.276 1223.34 328.859 1224.32 329.835L1238.46 343.974L1224.32 358.119C1223.35 359.095 1223.35 360.678 1224.32 361.655C1225.3 362.631 1226.88 362.63 1227.86 361.654L1243.77 345.741ZM1087 346.5L1242 346.474L1242 341.474L1087 341.5L1087 346.5Z" fill="black"/>
<path d="M838.39 344.469C839.754 344.254 840.685 342.974 840.469 341.61L836.96 319.385C836.745 318.022 835.465 317.091 834.101 317.306C832.737 317.521 831.806 318.801 832.021 320.165L835.141 339.92L815.385 343.04C814.022 343.255 813.091 344.535 813.306 345.899C813.521 347.263 814.801 348.194 816.165 347.979L838.39 344.469ZM682.53 232.022L836.53 344.022L839.47 339.978L685.47 227.978L682.53 232.022Z" fill="black"/>
<path d="M840.452 342.487C840.721 341.132 839.841 339.817 838.487 339.548L816.417 335.168C815.063 334.899 813.747 335.779 813.478 337.134C813.209 338.488 814.089 339.804 815.444 340.073L835.061 343.966L831.168 363.583C830.899 364.937 831.78 366.253 833.134 366.522C834.488 366.791 835.804 365.911 836.073 364.556L840.452 342.487ZM685.39 447.078L839.39 344.078L836.61 339.922L682.61 442.922L685.39 447.078Z" fill="black"/>
<path d="M415.22 447.49C416.596 447.369 417.612 446.155 417.49 444.78L415.507 422.367C415.385 420.992 414.172 419.976 412.796 420.097C411.421 420.219 410.405 421.433 410.526 422.808L412.289 442.73L392.367 444.493C390.992 444.615 389.976 445.828 390.097 447.204C390.219 448.579 391.433 449.595 392.808 449.474L415.22 447.49ZM290.395 343.917L413.395 446.917L416.605 443.083L293.605 340.083L290.395 343.917Z" fill="black"/>
<rect x="848" y="292" width="230" height="100" fill="#E96969"/>
<path d="M932.25 331.337C932.25 330.645 932.006 330.116 931.518 329.75C931.029 329.376 930.15 328.985 928.881 328.578C927.611 328.163 926.606 327.756 925.866 327.357C923.847 326.267 922.838 324.798 922.838 322.951C922.838 321.99 923.107 321.136 923.644 320.387C924.189 319.63 924.966 319.04 925.976 318.617C926.993 318.194 928.132 317.982 929.394 317.982C930.663 317.982 931.794 318.214 932.787 318.678C933.78 319.134 934.549 319.781 935.094 320.619C935.648 321.457 935.924 322.41 935.924 323.476H932.262C932.262 322.662 932.006 322.031 931.493 321.583C930.98 321.128 930.26 320.9 929.333 320.9C928.437 320.9 927.742 321.091 927.245 321.474C926.749 321.848 926.5 322.344 926.5 322.963C926.5 323.541 926.789 324.025 927.367 324.416C927.953 324.806 928.812 325.172 929.943 325.514C932.026 326.141 933.544 326.918 934.496 327.846C935.448 328.773 935.924 329.929 935.924 331.312C935.924 332.851 935.342 334.059 934.179 334.938C933.015 335.809 931.448 336.244 929.479 336.244C928.112 336.244 926.867 335.996 925.744 335.5C924.621 334.995 923.762 334.307 923.168 333.437C922.582 332.566 922.289 331.557 922.289 330.409H925.963C925.963 332.37 927.135 333.351 929.479 333.351C930.35 333.351 931.029 333.176 931.518 332.826C932.006 332.468 932.25 331.972 932.25 331.337ZM944.262 336.244C942.325 336.244 940.746 335.65 939.525 334.462C938.313 333.274 937.707 331.691 937.707 329.713V329.372C937.707 328.045 937.963 326.861 938.476 325.819C938.988 324.77 939.713 323.964 940.648 323.402C941.592 322.833 942.667 322.548 943.871 322.548C945.678 322.548 947.098 323.118 948.131 324.257C949.173 325.396 949.694 327.012 949.694 329.103V330.543H941.283C941.397 331.406 941.739 332.098 942.309 332.619C942.886 333.139 943.615 333.4 944.494 333.4C945.853 333.4 946.915 332.908 947.68 331.923L949.413 333.864C948.884 334.612 948.168 335.198 947.265 335.622C946.361 336.037 945.36 336.244 944.262 336.244ZM943.859 325.404C943.159 325.404 942.589 325.64 942.15 326.112C941.719 326.584 941.442 327.26 941.32 328.139H946.227V327.858C946.211 327.077 945.999 326.474 945.592 326.051C945.185 325.62 944.608 325.404 943.859 325.404ZM959.13 326.1C958.65 326.035 958.227 326.002 957.86 326.002C956.526 326.002 955.651 326.454 955.236 327.357V336H951.708V322.792H955.041L955.138 324.367C955.846 323.154 956.827 322.548 958.08 322.548C958.471 322.548 958.837 322.601 959.179 322.707L959.13 326.1ZM966.002 331.691L968.456 322.792H972.143L967.687 336H964.318L959.862 322.792H963.549L966.002 331.691ZM977.428 336H973.888V322.792H977.428V336ZM973.681 319.374C973.681 318.845 973.856 318.41 974.206 318.068C974.564 317.726 975.048 317.555 975.658 317.555C976.26 317.555 976.741 317.726 977.099 318.068C977.457 318.41 977.636 318.845 977.636 319.374C977.636 319.911 977.453 320.351 977.086 320.692C976.728 321.034 976.252 321.205 975.658 321.205C975.064 321.205 974.584 321.034 974.218 320.692C973.86 320.351 973.681 319.911 973.681 319.374ZM985.839 333.4C986.49 333.4 987.019 333.221 987.426 332.863C987.833 332.505 988.044 332.029 988.061 331.435H991.369C991.361 332.33 991.116 333.152 990.636 333.9C990.156 334.641 989.497 335.219 988.659 335.634C987.829 336.041 986.909 336.244 985.9 336.244C984.012 336.244 982.523 335.646 981.432 334.45C980.342 333.245 979.796 331.585 979.796 329.469V329.237C979.796 327.203 980.338 325.579 981.42 324.367C982.502 323.154 983.987 322.548 985.875 322.548C987.528 322.548 988.85 323.02 989.843 323.964C990.844 324.9 991.352 326.149 991.369 327.711H988.061C988.044 327.028 987.833 326.474 987.426 326.051C987.019 325.62 986.482 325.404 985.814 325.404C984.993 325.404 984.37 325.705 983.947 326.308C983.532 326.902 983.324 327.87 983.324 329.213V329.579C983.324 330.938 983.532 331.915 983.947 332.509C984.362 333.103 984.993 333.4 985.839 333.4ZM999.462 336.244C997.525 336.244 995.946 335.65 994.726 334.462C993.513 333.274 992.907 331.691 992.907 329.713V329.372C992.907 328.045 993.163 326.861 993.676 325.819C994.188 324.77 994.913 323.964 995.849 323.402C996.793 322.833 997.867 322.548 999.071 322.548C1000.88 322.548 1002.3 323.118 1003.33 324.257C1004.37 325.396 1004.89 327.012 1004.89 329.103V330.543H996.483C996.597 331.406 996.939 332.098 997.509 332.619C998.087 333.139 998.815 333.4 999.694 333.4C1001.05 333.4 1002.11 332.908 1002.88 331.923L1004.61 333.864C1004.08 334.612 1003.37 335.198 1002.46 335.622C1001.56 336.037 1000.56 336.244 999.462 336.244ZM999.059 325.404C998.359 325.404 997.79 325.64 997.35 326.112C996.919 326.584 996.642 327.26 996.52 328.139H1001.43V327.858C1001.41 327.077 1001.2 326.474 1000.79 326.051C1000.39 325.62 999.808 325.404 999.059 325.404ZM896.691 357.297H889.66V362.058H897.912V365H885.998V347.227H897.887V350.193H889.66V354.429H896.691V357.297ZM904.857 355.735L907.079 351.792H910.851L907.091 358.262L911.01 365H907.226L904.87 360.85L902.526 365H898.729L902.648 358.262L898.9 351.792H902.685L904.857 355.735ZM916.771 348.545V351.792H919.03V354.38H916.771V360.972C916.771 361.46 916.865 361.81 917.052 362.021C917.239 362.233 917.597 362.339 918.126 362.339C918.517 362.339 918.863 362.31 919.164 362.253V364.927C918.472 365.138 917.76 365.244 917.028 365.244C914.554 365.244 913.292 363.995 913.244 361.497V354.38H911.315V351.792H913.244V348.545H916.771ZM927.074 365.244C925.137 365.244 923.559 364.65 922.338 363.462C921.125 362.274 920.519 360.691 920.519 358.713V358.372C920.519 357.045 920.775 355.861 921.288 354.819C921.801 353.77 922.525 352.964 923.461 352.402C924.405 351.833 925.479 351.548 926.684 351.548C928.49 351.548 929.91 352.118 930.944 353.257C931.986 354.396 932.506 356.012 932.506 358.103V359.543H924.096C924.21 360.406 924.551 361.098 925.121 361.619C925.699 362.139 926.427 362.4 927.306 362.4C928.665 362.4 929.727 361.908 930.492 360.923L932.226 362.864C931.697 363.612 930.98 364.198 930.077 364.622C929.174 365.037 928.173 365.244 927.074 365.244ZM926.671 354.404C925.972 354.404 925.402 354.64 924.962 355.112C924.531 355.584 924.254 356.26 924.132 357.139H929.04V356.858C929.023 356.077 928.812 355.474 928.405 355.051C927.998 354.62 927.42 354.404 926.671 354.404ZM941.942 355.1C941.462 355.035 941.039 355.002 940.673 355.002C939.338 355.002 938.463 355.454 938.048 356.357V365H934.521V351.792H937.853L937.951 353.367C938.659 352.154 939.639 351.548 940.893 351.548C941.283 351.548 941.649 351.601 941.991 351.707L941.942 355.1ZM946.898 351.792L947.008 353.318C947.952 352.138 949.218 351.548 950.805 351.548C952.204 351.548 953.246 351.959 953.93 352.781C954.613 353.603 954.963 354.832 954.979 356.467V365H951.452V356.553C951.452 355.804 951.289 355.263 950.963 354.929C950.638 354.587 950.097 354.417 949.34 354.417C948.347 354.417 947.602 354.84 947.106 355.686V365H943.578V351.792H946.898ZM965.319 365C965.156 364.683 965.038 364.288 964.965 363.816C964.11 364.768 963 365.244 961.632 365.244C960.338 365.244 959.264 364.87 958.41 364.121C957.563 363.372 957.14 362.428 957.14 361.289C957.14 359.889 957.657 358.815 958.69 358.066C959.732 357.318 961.234 356.939 963.195 356.931H964.818V356.174C964.818 355.564 964.66 355.076 964.342 354.709C964.033 354.343 963.541 354.16 962.865 354.16C962.271 354.16 961.803 354.303 961.461 354.587C961.128 354.872 960.961 355.263 960.961 355.759H957.433C957.433 354.994 957.669 354.286 958.141 353.635C958.613 352.984 959.28 352.476 960.143 352.109C961.006 351.735 961.974 351.548 963.048 351.548C964.676 351.548 965.966 351.959 966.918 352.781C967.878 353.595 968.358 354.742 968.358 356.223V361.948C968.367 363.201 968.542 364.15 968.883 364.792V365H965.319ZM962.401 362.546C962.922 362.546 963.402 362.432 963.842 362.205C964.281 361.969 964.607 361.655 964.818 361.265V358.994H963.5C961.734 358.994 960.794 359.604 960.68 360.825L960.668 361.033C960.668 361.472 960.823 361.834 961.132 362.119C961.441 362.404 961.864 362.546 962.401 362.546ZM974.792 365H971.251V346.25H974.792V365ZM992.394 365H988.732L981.603 353.306V365H977.941V347.227H981.603L988.744 358.945V347.227H992.394V365ZM1003.01 365C1002.85 364.683 1002.73 364.288 1002.66 363.816C1001.81 364.768 1000.69 365.244 999.328 365.244C998.034 365.244 996.959 364.87 996.105 364.121C995.259 363.372 994.835 362.428 994.835 361.289C994.835 359.889 995.352 358.815 996.386 358.066C997.427 357.318 998.929 356.939 1000.89 356.931H1002.51V356.174C1002.51 355.564 1002.35 355.076 1002.04 354.709C1001.73 354.343 1001.24 354.16 1000.56 354.16C999.966 354.16 999.499 354.303 999.157 354.587C998.823 354.872 998.656 355.263 998.656 355.759H995.128C995.128 354.994 995.364 354.286 995.836 353.635C996.308 352.984 996.976 352.476 997.838 352.109C998.701 351.735 999.669 351.548 1000.74 351.548C1002.37 351.548 1003.66 351.959 1004.61 352.781C1005.57 353.595 1006.05 354.742 1006.05 356.223V361.948C1006.06 363.201 1006.24 364.15 1006.58 364.792V365H1003.01ZM1000.1 362.546C1000.62 362.546 1001.1 362.432 1001.54 362.205C1001.98 361.969 1002.3 361.655 1002.51 361.265V358.994H1001.2C999.429 358.994 998.489 359.604 998.375 360.825L998.363 361.033C998.363 361.472 998.518 361.834 998.827 362.119C999.136 362.404 999.56 362.546 1000.1 362.546ZM1012.07 351.792L1012.18 353.269C1013.12 352.122 1014.38 351.548 1015.98 351.548C1017.68 351.548 1018.85 352.219 1019.48 353.562C1020.41 352.219 1021.73 351.548 1023.45 351.548C1024.88 351.548 1025.95 351.967 1026.65 352.805C1027.35 353.635 1027.7 354.889 1027.7 356.565V365H1024.16V356.577C1024.16 355.828 1024.01 355.283 1023.72 354.941C1023.42 354.591 1022.91 354.417 1022.17 354.417C1021.11 354.417 1020.38 354.921 1019.97 355.93L1019.98 365H1016.45V356.589C1016.45 355.824 1016.3 355.271 1016 354.929C1015.7 354.587 1015.19 354.417 1014.46 354.417C1013.46 354.417 1012.74 354.832 1012.29 355.662V365H1008.76V351.792H1012.07ZM1036.5 365.244C1034.56 365.244 1032.98 364.65 1031.76 363.462C1030.55 362.274 1029.94 360.691 1029.94 358.713V358.372C1029.94 357.045 1030.2 355.861 1030.71 354.819C1031.22 353.77 1031.95 352.964 1032.88 352.402C1033.83 351.833 1034.9 351.548 1036.11 351.548C1037.91 351.548 1039.33 352.118 1040.37 353.257C1041.41 354.396 1041.93 356.012 1041.93 358.103V359.543H1033.52C1033.63 360.406 1033.98 361.098 1034.54 361.619C1035.12 362.139 1035.85 362.4 1036.73 362.4C1038.09 362.4 1039.15 361.908 1039.92 360.923L1041.65 362.864C1041.12 363.612 1040.4 364.198 1039.5 364.622C1038.6 365.037 1037.6 365.244 1036.5 365.244ZM1036.1 354.404C1035.4 354.404 1034.83 354.64 1034.39 355.112C1033.95 355.584 1033.68 356.26 1033.56 357.139H1038.46V356.858C1038.45 356.077 1038.24 355.474 1037.83 355.051C1037.42 354.62 1036.84 354.404 1036.1 354.404Z" fill="white"/>
<rect x="1254" y="294" width="230" height="100" fill="#E96969"/>
<path d="M1335.31 330.297H1328.28V335.058H1336.53V338H1324.62V320.227H1336.5V323.193H1328.28V327.429H1335.31V330.297ZM1343.48 328.735L1345.7 324.792H1349.47L1345.71 331.262L1349.63 338H1345.84L1343.49 333.85L1341.14 338H1337.35L1341.27 331.262L1337.52 324.792H1341.3L1343.48 328.735ZM1355.39 321.545V324.792H1357.65V327.38H1355.39V333.972C1355.39 334.46 1355.48 334.81 1355.67 335.021C1355.86 335.233 1356.22 335.339 1356.74 335.339C1357.13 335.339 1357.48 335.31 1357.78 335.253V337.927C1357.09 338.138 1356.38 338.244 1355.65 338.244C1353.17 338.244 1351.91 336.995 1351.86 334.497V327.38H1349.93V324.792H1351.86V321.545H1355.39ZM1365.69 338.244C1363.76 338.244 1362.18 337.65 1360.96 336.462C1359.74 335.274 1359.14 333.691 1359.14 331.713V331.372C1359.14 330.045 1359.39 328.861 1359.91 327.819C1360.42 326.77 1361.14 325.964 1362.08 325.402C1363.02 324.833 1364.1 324.548 1365.3 324.548C1367.11 324.548 1368.53 325.118 1369.56 326.257C1370.6 327.396 1371.12 329.012 1371.12 331.103V332.543H1362.71C1362.83 333.406 1363.17 334.098 1363.74 334.619C1364.32 335.139 1365.04 335.4 1365.92 335.4C1367.28 335.4 1368.34 334.908 1369.11 333.923L1370.84 335.864C1370.31 336.612 1369.6 337.198 1368.69 337.622C1367.79 338.037 1366.79 338.244 1365.69 338.244ZM1365.29 327.404C1364.59 327.404 1364.02 327.64 1363.58 328.112C1363.15 328.584 1362.87 329.26 1362.75 330.139H1367.66V329.858C1367.64 329.077 1367.43 328.474 1367.02 328.051C1366.62 327.62 1366.04 327.404 1365.29 327.404ZM1380.56 328.1C1380.08 328.035 1379.66 328.002 1379.29 328.002C1377.96 328.002 1377.08 328.454 1376.67 329.357V338H1373.14V324.792H1376.47L1376.57 326.367C1377.28 325.154 1378.26 324.548 1379.51 324.548C1379.9 324.548 1380.27 324.601 1380.61 324.707L1380.56 328.1ZM1385.52 324.792L1385.63 326.318C1386.57 325.138 1387.84 324.548 1389.42 324.548C1390.82 324.548 1391.86 324.959 1392.55 325.781C1393.23 326.603 1393.58 327.832 1393.6 329.467V338H1390.07V329.553C1390.07 328.804 1389.91 328.263 1389.58 327.929C1389.26 327.587 1388.71 327.417 1387.96 327.417C1386.96 327.417 1386.22 327.84 1385.72 328.686V338H1382.2V324.792H1385.52ZM1403.94 338C1403.77 337.683 1403.66 337.288 1403.58 336.816C1402.73 337.768 1401.62 338.244 1400.25 338.244C1398.96 338.244 1397.88 337.87 1397.03 337.121C1396.18 336.372 1395.76 335.428 1395.76 334.289C1395.76 332.889 1396.27 331.815 1397.31 331.066C1398.35 330.318 1399.85 329.939 1401.81 329.931H1403.44V329.174C1403.44 328.564 1403.28 328.076 1402.96 327.709C1402.65 327.343 1402.16 327.16 1401.48 327.16C1400.89 327.16 1400.42 327.303 1400.08 327.587C1399.75 327.872 1399.58 328.263 1399.58 328.759H1396.05C1396.05 327.994 1396.29 327.286 1396.76 326.635C1397.23 325.984 1397.9 325.476 1398.76 325.109C1399.62 324.735 1400.59 324.548 1401.67 324.548C1403.29 324.548 1404.58 324.959 1405.54 325.781C1406.5 326.595 1406.98 327.742 1406.98 329.223V334.948C1406.98 336.201 1407.16 337.15 1407.5 337.792V338H1403.94ZM1401.02 335.546C1401.54 335.546 1402.02 335.432 1402.46 335.205C1402.9 334.969 1403.22 334.655 1403.44 334.265V331.994H1402.12C1400.35 331.994 1399.41 332.604 1399.3 333.825L1399.29 334.033C1399.29 334.472 1399.44 334.834 1399.75 335.119C1400.06 335.404 1400.48 335.546 1401.02 335.546ZM1413.41 338H1409.87V319.25H1413.41V338ZM1337.75 362.337C1337.75 361.645 1337.51 361.116 1337.02 360.75C1336.53 360.376 1335.65 359.985 1334.38 359.578C1333.11 359.163 1332.11 358.756 1331.37 358.357C1329.35 357.267 1328.34 355.798 1328.34 353.951C1328.34 352.99 1328.61 352.136 1329.14 351.387C1329.69 350.63 1330.47 350.04 1331.48 349.617C1332.49 349.194 1333.63 348.982 1334.89 348.982C1336.16 348.982 1337.29 349.214 1338.29 349.678C1339.28 350.134 1340.05 350.781 1340.59 351.619C1341.15 352.457 1341.42 353.41 1341.42 354.476H1337.76C1337.76 353.662 1337.51 353.031 1336.99 352.583C1336.48 352.128 1335.76 351.9 1334.83 351.9C1333.94 351.9 1333.24 352.091 1332.75 352.474C1332.25 352.848 1332 353.344 1332 353.963C1332 354.541 1332.29 355.025 1332.87 355.416C1333.45 355.806 1334.31 356.172 1335.44 356.514C1337.53 357.141 1339.04 357.918 1340 358.846C1340.95 359.773 1341.42 360.929 1341.42 362.312C1341.42 363.851 1340.84 365.059 1339.68 365.938C1338.51 366.809 1336.95 367.244 1334.98 367.244C1333.61 367.244 1332.37 366.996 1331.24 366.5C1330.12 365.995 1329.26 365.307 1328.67 364.437C1328.08 363.566 1327.79 362.557 1327.79 361.409H1331.46C1331.46 363.37 1332.64 364.351 1334.98 364.351C1335.85 364.351 1336.53 364.176 1337.02 363.826C1337.51 363.468 1337.75 362.972 1337.75 362.337ZM1349.76 367.244C1347.82 367.244 1346.25 366.65 1345.03 365.462C1343.81 364.274 1343.21 362.691 1343.21 360.713V360.372C1343.21 359.045 1343.46 357.861 1343.98 356.819C1344.49 355.77 1345.21 354.964 1346.15 354.402C1347.09 353.833 1348.17 353.548 1349.37 353.548C1351.18 353.548 1352.6 354.118 1353.63 355.257C1354.67 356.396 1355.19 358.012 1355.19 360.103V361.543H1346.78C1346.9 362.406 1347.24 363.098 1347.81 363.619C1348.39 364.139 1349.11 364.4 1349.99 364.4C1351.35 364.4 1352.41 363.908 1353.18 362.923L1354.91 364.864C1354.38 365.612 1353.67 366.198 1352.76 366.622C1351.86 367.037 1350.86 367.244 1349.76 367.244ZM1349.36 356.404C1348.66 356.404 1348.09 356.64 1347.65 357.112C1347.22 357.584 1346.94 358.26 1346.82 359.139H1351.73V358.858C1351.71 358.077 1351.5 357.474 1351.09 357.051C1350.69 356.62 1350.11 356.404 1349.36 356.404ZM1364.63 357.1C1364.15 357.035 1363.73 357.002 1363.36 357.002C1362.03 357.002 1361.15 357.454 1360.74 358.357V367H1357.21V353.792H1360.54L1360.64 355.367C1361.35 354.154 1362.33 353.548 1363.58 353.548C1363.97 353.548 1364.34 353.601 1364.68 353.707L1364.63 357.1ZM1371.5 362.691L1373.96 353.792H1377.64L1373.19 367H1369.82L1365.36 353.792H1369.05L1371.5 362.691ZM1382.93 367H1379.39V353.792H1382.93V367ZM1379.18 350.374C1379.18 349.845 1379.36 349.41 1379.71 349.068C1380.06 348.726 1380.55 348.555 1381.16 348.555C1381.76 348.555 1382.24 348.726 1382.6 349.068C1382.96 349.41 1383.14 349.845 1383.14 350.374C1383.14 350.911 1382.95 351.351 1382.59 351.692C1382.23 352.034 1381.75 352.205 1381.16 352.205C1380.56 352.205 1380.08 352.034 1379.72 351.692C1379.36 351.351 1379.18 350.911 1379.18 350.374ZM1391.34 364.4C1391.99 364.4 1392.52 364.221 1392.93 363.863C1393.33 363.505 1393.54 363.029 1393.56 362.435H1396.87C1396.86 363.33 1396.62 364.152 1396.14 364.9C1395.66 365.641 1395 366.219 1394.16 366.634C1393.33 367.041 1392.41 367.244 1391.4 367.244C1389.51 367.244 1388.02 366.646 1386.93 365.45C1385.84 364.245 1385.3 362.585 1385.3 360.469V360.237C1385.3 358.203 1385.84 356.579 1386.92 355.367C1388 354.154 1389.49 353.548 1391.38 353.548C1393.03 353.548 1394.35 354.02 1395.34 354.964C1396.34 355.9 1396.85 357.149 1396.87 358.711H1393.56C1393.54 358.028 1393.33 357.474 1392.93 357.051C1392.52 356.62 1391.98 356.404 1391.31 356.404C1390.49 356.404 1389.87 356.705 1389.45 357.308C1389.03 357.902 1388.82 358.87 1388.82 360.213V360.579C1388.82 361.938 1389.03 362.915 1389.45 363.509C1389.86 364.103 1390.49 364.4 1391.34 364.4ZM1404.96 367.244C1403.03 367.244 1401.45 366.65 1400.23 365.462C1399.01 364.274 1398.41 362.691 1398.41 360.713V360.372C1398.41 359.045 1398.66 357.861 1399.18 356.819C1399.69 355.77 1400.41 354.964 1401.35 354.402C1402.29 353.833 1403.37 353.548 1404.57 353.548C1406.38 353.548 1407.8 354.118 1408.83 355.257C1409.87 356.396 1410.39 358.012 1410.39 360.103V361.543H1401.98C1402.1 362.406 1402.44 363.098 1403.01 363.619C1403.59 364.139 1404.31 364.4 1405.19 364.4C1406.55 364.4 1407.61 363.908 1408.38 362.923L1410.11 364.864C1409.58 365.612 1408.87 366.198 1407.96 366.622C1407.06 367.037 1406.06 367.244 1404.96 367.244ZM1404.56 356.404C1403.86 356.404 1403.29 356.64 1402.85 357.112C1402.42 357.584 1402.14 358.26 1402.02 359.139H1406.93V358.858C1406.91 358.077 1406.7 357.474 1406.29 357.051C1405.89 356.62 1405.31 356.404 1404.56 356.404Z" fill="white"/>
</svg>
