<svg width="2469" height="259" viewBox="0 0 2469 259" fill="none" xmlns="http://www.w3.org/2000/svg">
<rect y="9" width="500" height="250" fill="#C4C4C4"/>
<rect x="5" y="82" width="240" height="168" fill="#A4FB96"/>
<rect x="10" y="140" width="230" height="100" fill="#7367FF"/>
<path d="M230.456 57H225.329L215.349 40.6279V57H210.222V32.1172H215.349L225.346 48.5234V32.1172H230.456V57ZM233.84 47.5835C233.84 45.7492 234.193 44.1143 234.899 42.6787C235.606 41.2432 236.62 40.1323 237.941 39.3462C239.274 38.5601 240.818 38.167 242.573 38.167C245.068 38.167 247.102 38.9303 248.674 40.457C250.257 41.9837 251.14 44.0573 251.323 46.6777L251.357 47.9424C251.357 50.7793 250.565 53.0579 248.981 54.7783C247.398 56.4873 245.273 57.3418 242.607 57.3418C239.941 57.3418 237.81 56.4873 236.215 54.7783C234.632 53.0693 233.84 50.7451 233.84 47.8057V47.5835ZM238.779 47.9424C238.779 49.6969 239.109 51.0413 239.77 51.9756C240.431 52.8984 241.376 53.3599 242.607 53.3599C243.803 53.3599 244.737 52.9041 245.41 51.9927C246.082 51.0698 246.418 49.6001 246.418 47.5835C246.418 45.8631 246.082 44.5301 245.41 43.5845C244.737 42.6388 243.792 42.166 242.573 42.166C241.365 42.166 240.431 42.6388 239.77 43.5845C239.109 44.5187 238.779 45.9714 238.779 47.9424ZM253.63 47.6177C253.63 44.7352 254.274 42.4395 255.561 40.7305C256.86 39.0215 258.632 38.167 260.876 38.167C262.676 38.167 264.163 38.8392 265.336 40.1836V30.75H270.292V57H265.832L265.593 55.0347C264.362 56.5728 262.779 57.3418 260.842 57.3418C258.666 57.3418 256.917 56.4873 255.595 54.7783C254.285 53.0579 253.63 50.6711 253.63 47.6177ZM258.569 47.9766C258.569 49.7083 258.871 51.0356 259.475 51.9585C260.078 52.8813 260.956 53.3428 262.106 53.3428C263.633 53.3428 264.71 52.6991 265.336 51.4116V44.1143C264.721 42.8268 263.656 42.1831 262.141 42.1831C259.759 42.1831 258.569 44.1143 258.569 47.9766ZM282.631 57.3418C279.92 57.3418 277.709 56.5101 276 54.8467C274.303 53.1833 273.454 50.9673 273.454 48.1987V47.7202C273.454 45.8631 273.813 44.2054 274.531 42.7471C275.249 41.2773 276.263 40.1494 277.573 39.3633C278.894 38.5658 280.398 38.167 282.084 38.167C284.614 38.167 286.602 38.9645 288.049 40.5596C289.507 42.1546 290.236 44.4162 290.236 47.3442V49.3608H278.461C278.621 50.5685 279.099 51.5369 279.897 52.2661C280.706 52.9953 281.726 53.3599 282.956 53.3599C284.859 53.3599 286.346 52.6706 287.417 51.292L289.843 54.0093C289.103 55.0575 288.1 55.8778 286.835 56.4702C285.571 57.0513 284.169 57.3418 282.631 57.3418ZM282.067 42.166C281.088 42.166 280.29 42.4964 279.675 43.1572C279.071 43.818 278.684 44.7637 278.513 45.9941H285.383V45.6011C285.36 44.5073 285.064 43.6642 284.494 43.0718C283.924 42.4679 283.116 42.166 282.067 42.166Z" fill="black"/>
<path d="M104.299 113.485V121H99.9043V99.6719H108.225C109.826 99.6719 111.232 99.9648 112.443 100.551C113.664 101.137 114.602 101.972 115.256 103.056C115.91 104.13 116.237 105.355 116.237 106.732C116.237 108.822 115.52 110.473 114.084 111.684C112.658 112.885 110.681 113.485 108.151 113.485H104.299ZM104.299 109.926H108.225C109.387 109.926 110.271 109.652 110.876 109.105C111.491 108.559 111.799 107.777 111.799 106.762C111.799 105.717 111.491 104.872 110.876 104.228C110.261 103.583 109.411 103.251 108.327 103.231H104.299V109.926ZM118.127 112.929C118.127 111.356 118.43 109.955 119.035 108.725C119.641 107.494 120.51 106.542 121.643 105.868C122.785 105.194 124.108 104.857 125.612 104.857C127.751 104.857 129.494 105.512 130.842 106.82C132.199 108.129 132.956 109.906 133.112 112.152L133.142 113.236C133.142 115.668 132.463 117.621 131.105 119.096C129.748 120.561 127.927 121.293 125.642 121.293C123.356 121.293 121.53 120.561 120.163 119.096C118.806 117.631 118.127 115.639 118.127 113.119V112.929ZM122.36 113.236C122.36 114.74 122.644 115.893 123.21 116.693C123.776 117.484 124.587 117.88 125.642 117.88C126.667 117.88 127.468 117.489 128.044 116.708C128.62 115.917 128.908 114.657 128.908 112.929C128.908 111.454 128.62 110.312 128.044 109.501C127.468 108.69 126.657 108.285 125.612 108.285C124.577 108.285 123.776 108.69 123.21 109.501C122.644 110.302 122.36 111.547 122.36 113.236ZM135.09 112.958C135.09 110.487 135.642 108.52 136.745 107.055C137.858 105.59 139.377 104.857 141.301 104.857C142.844 104.857 144.118 105.434 145.124 106.586V98.5H149.372V121H145.549L145.344 119.315C144.289 120.634 142.932 121.293 141.271 121.293C139.406 121.293 137.907 120.561 136.774 119.096C135.651 117.621 135.09 115.575 135.09 112.958ZM139.323 113.266C139.323 114.75 139.582 115.888 140.1 116.679C140.617 117.47 141.369 117.865 142.355 117.865C143.664 117.865 144.587 117.313 145.124 116.21V109.955C144.597 108.852 143.684 108.3 142.385 108.3C140.344 108.3 139.323 109.955 139.323 113.266Z" fill="black"/>
<path d="M85.5396 192.08C85.4012 193.992 84.6932 195.498 83.4155 196.596C82.146 197.695 80.4696 198.244 78.3862 198.244C76.1076 198.244 74.3132 197.479 73.0029 195.949C71.7008 194.411 71.0498 192.303 71.0498 189.626V188.54C71.0498 186.831 71.3509 185.325 71.9531 184.023C72.5553 182.721 73.4139 181.724 74.5288 181.032C75.6519 180.332 76.9539 179.982 78.4351 179.982C80.4858 179.982 82.1379 180.532 83.3911 181.63C84.6444 182.729 85.3687 184.271 85.564 186.257H81.9019C81.8123 185.109 81.4909 184.279 80.9375 183.767C80.3923 183.246 79.5581 182.985 78.4351 182.985C77.2144 182.985 76.2988 183.425 75.6885 184.304C75.0863 185.174 74.777 186.529 74.7607 188.369V189.711C74.7607 191.632 75.0496 193.036 75.6274 193.923C76.2134 194.81 77.133 195.253 78.3862 195.253C79.5174 195.253 80.3597 194.997 80.9131 194.484C81.4746 193.964 81.7961 193.162 81.8774 192.08H85.5396ZM87.1631 191.274C87.1631 189.964 87.4154 188.796 87.9199 187.771C88.4245 186.745 89.1488 185.952 90.0928 185.39C91.0449 184.829 92.1476 184.548 93.4009 184.548C95.1831 184.548 96.6357 185.093 97.7588 186.184C98.89 187.274 99.5207 188.755 99.6509 190.627L99.6753 191.53C99.6753 193.557 99.1097 195.184 97.9785 196.413C96.8473 197.634 95.3296 198.244 93.4253 198.244C91.521 198.244 89.9992 197.634 88.8599 196.413C87.7287 195.192 87.1631 193.532 87.1631 191.433V191.274ZM90.6909 191.53C90.6909 192.784 90.9269 193.744 91.3989 194.411C91.8709 195.07 92.5464 195.4 93.4253 195.4C94.2798 195.4 94.9471 195.074 95.4272 194.423C95.9074 193.764 96.1475 192.714 96.1475 191.274C96.1475 190.045 95.9074 189.093 95.4272 188.417C94.9471 187.742 94.2716 187.404 93.4009 187.404C92.5382 187.404 91.8709 187.742 91.3989 188.417C90.9269 189.085 90.6909 190.122 90.6909 191.53ZM105.095 184.792L105.205 186.318C106.149 185.138 107.415 184.548 109.001 184.548C110.401 184.548 111.443 184.959 112.126 185.781C112.81 186.603 113.16 187.832 113.176 189.467V198H109.648V189.553C109.648 188.804 109.486 188.263 109.16 187.929C108.835 187.587 108.293 187.417 107.537 187.417C106.544 187.417 105.799 187.84 105.303 188.686V198H101.775V184.792H105.095ZM120.085 181.545V184.792H122.344V187.38H120.085V193.972C120.085 194.46 120.179 194.81 120.366 195.021C120.553 195.233 120.911 195.339 121.44 195.339C121.831 195.339 122.177 195.31 122.478 195.253V197.927C121.786 198.138 121.074 198.244 120.342 198.244C117.868 198.244 116.606 196.995 116.558 194.497V187.38H114.629V184.792H116.558V181.545H120.085ZM131.963 198C131.8 197.683 131.682 197.288 131.609 196.816C130.754 197.768 129.644 198.244 128.276 198.244C126.982 198.244 125.908 197.87 125.054 197.121C124.207 196.372 123.784 195.428 123.784 194.289C123.784 192.889 124.301 191.815 125.334 191.066C126.376 190.318 127.878 189.939 129.839 189.931H131.462V189.174C131.462 188.564 131.304 188.076 130.986 187.709C130.677 187.343 130.185 187.16 129.509 187.16C128.915 187.16 128.447 187.303 128.105 187.587C127.772 187.872 127.605 188.263 127.605 188.759H124.077C124.077 187.994 124.313 187.286 124.785 186.635C125.257 185.984 125.924 185.476 126.787 185.109C127.65 184.735 128.618 184.548 129.692 184.548C131.32 184.548 132.61 184.959 133.562 185.781C134.522 186.595 135.002 187.742 135.002 189.223V194.948C135.011 196.201 135.186 197.15 135.527 197.792V198H131.963ZM129.045 195.546C129.566 195.546 130.046 195.432 130.486 195.205C130.925 194.969 131.251 194.655 131.462 194.265V191.994H130.144C128.378 191.994 127.438 192.604 127.324 193.825L127.312 194.033C127.312 194.472 127.467 194.834 127.776 195.119C128.085 195.404 128.508 195.546 129.045 195.546ZM141.436 198H137.896V184.792H141.436V198ZM137.688 181.374C137.688 180.845 137.863 180.41 138.213 180.068C138.571 179.726 139.055 179.555 139.666 179.555C140.268 179.555 140.748 179.726 141.106 180.068C141.464 180.41 141.643 180.845 141.643 181.374C141.643 181.911 141.46 182.351 141.094 182.692C140.736 183.034 140.26 183.205 139.666 183.205C139.071 183.205 138.591 183.034 138.225 182.692C137.867 182.351 137.688 181.911 137.688 181.374ZM147.6 184.792L147.71 186.318C148.654 185.138 149.919 184.548 151.506 184.548C152.906 184.548 153.948 184.959 154.631 185.781C155.315 186.603 155.665 187.832 155.681 189.467V198H152.153V189.553C152.153 188.804 151.991 188.263 151.665 187.929C151.34 187.587 150.798 187.417 150.042 187.417C149.049 187.417 148.304 187.84 147.808 188.686V198H144.28V184.792H147.6ZM164.446 198.244C162.509 198.244 160.93 197.65 159.709 196.462C158.497 195.274 157.891 193.691 157.891 191.713V191.372C157.891 190.045 158.147 188.861 158.66 187.819C159.172 186.77 159.897 185.964 160.833 185.402C161.777 184.833 162.851 184.548 164.055 184.548C165.862 184.548 167.282 185.118 168.315 186.257C169.357 187.396 169.878 189.012 169.878 191.103V192.543H161.467C161.581 193.406 161.923 194.098 162.493 194.619C163.07 195.139 163.799 195.4 164.678 195.4C166.037 195.4 167.099 194.908 167.864 193.923L169.597 195.864C169.068 196.612 168.352 197.198 167.449 197.622C166.545 198.037 165.544 198.244 164.446 198.244ZM164.043 187.404C163.343 187.404 162.773 187.64 162.334 188.112C161.903 188.584 161.626 189.26 161.504 190.139H166.411V189.858C166.395 189.077 166.183 188.474 165.776 188.051C165.369 187.62 164.792 187.404 164.043 187.404ZM179.314 188.1C178.834 188.035 178.411 188.002 178.044 188.002C176.71 188.002 175.835 188.454 175.42 189.357V198H171.892V184.792H175.225L175.322 186.367C176.03 185.154 177.011 184.548 178.264 184.548C178.655 184.548 179.021 184.601 179.363 184.707L179.314 188.1Z" fill="white"/>
<rect x="255" y="82" width="240" height="168" fill="#A4FB96"/>
<rect x="260" y="140" width="230" height="100" fill="#7367FF"/>
<path d="M354.299 113.485V121H349.904V99.6719H358.225C359.826 99.6719 361.232 99.9648 362.443 100.551C363.664 101.137 364.602 101.972 365.256 103.056C365.91 104.13 366.237 105.355 366.237 106.732C366.237 108.822 365.52 110.473 364.084 111.684C362.658 112.885 360.681 113.485 358.151 113.485H354.299ZM354.299 109.926H358.225C359.387 109.926 360.271 109.652 360.876 109.105C361.491 108.559 361.799 107.777 361.799 106.762C361.799 105.717 361.491 104.872 360.876 104.228C360.261 103.583 359.411 103.251 358.327 103.231H354.299V109.926ZM368.127 112.929C368.127 111.356 368.43 109.955 369.035 108.725C369.641 107.494 370.51 106.542 371.643 105.868C372.785 105.194 374.108 104.857 375.612 104.857C377.751 104.857 379.494 105.512 380.842 106.82C382.199 108.129 382.956 109.906 383.112 112.152L383.142 113.236C383.142 115.668 382.463 117.621 381.105 119.096C379.748 120.561 377.927 121.293 375.642 121.293C373.356 121.293 371.53 120.561 370.163 119.096C368.806 117.631 368.127 115.639 368.127 113.119V112.929ZM372.36 113.236C372.36 114.74 372.644 115.893 373.21 116.693C373.776 117.484 374.587 117.88 375.642 117.88C376.667 117.88 377.468 117.489 378.044 116.708C378.62 115.917 378.908 114.657 378.908 112.929C378.908 111.454 378.62 110.312 378.044 109.501C377.468 108.69 376.657 108.285 375.612 108.285C374.577 108.285 373.776 108.69 373.21 109.501C372.644 110.302 372.36 111.547 372.36 113.236ZM385.09 112.958C385.09 110.487 385.642 108.52 386.745 107.055C387.858 105.59 389.377 104.857 391.301 104.857C392.844 104.857 394.118 105.434 395.124 106.586V98.5H399.372V121H395.549L395.344 119.315C394.289 120.634 392.932 121.293 391.271 121.293C389.406 121.293 387.907 120.561 386.774 119.096C385.651 117.621 385.09 115.575 385.09 112.958ZM389.323 113.266C389.323 114.75 389.582 115.888 390.1 116.679C390.617 117.47 391.369 117.865 392.355 117.865C393.664 117.865 394.587 117.313 395.124 116.21V109.955C394.597 108.852 393.684 108.3 392.385 108.3C390.344 108.3 389.323 109.955 389.323 113.266Z" fill="black"/>
<path d="M335.54 192.08C335.401 193.992 334.693 195.498 333.416 196.596C332.146 197.695 330.47 198.244 328.386 198.244C326.108 198.244 324.313 197.479 323.003 195.949C321.701 194.411 321.05 192.303 321.05 189.626V188.54C321.05 186.831 321.351 185.325 321.953 184.023C322.555 182.721 323.414 181.724 324.529 181.032C325.652 180.332 326.954 179.982 328.435 179.982C330.486 179.982 332.138 180.532 333.391 181.63C334.644 182.729 335.369 184.271 335.564 186.257H331.902C331.812 185.109 331.491 184.279 330.938 183.767C330.392 183.246 329.558 182.985 328.435 182.985C327.214 182.985 326.299 183.425 325.688 184.304C325.086 185.174 324.777 186.529 324.761 188.369V189.711C324.761 191.632 325.05 193.036 325.627 193.923C326.213 194.81 327.133 195.253 328.386 195.253C329.517 195.253 330.36 194.997 330.913 194.484C331.475 193.964 331.796 193.162 331.877 192.08H335.54ZM337.163 191.274C337.163 189.964 337.415 188.796 337.92 187.771C338.424 186.745 339.149 185.952 340.093 185.39C341.045 184.829 342.148 184.548 343.401 184.548C345.183 184.548 346.636 185.093 347.759 186.184C348.89 187.274 349.521 188.755 349.651 190.627L349.675 191.53C349.675 193.557 349.11 195.184 347.979 196.413C346.847 197.634 345.33 198.244 343.425 198.244C341.521 198.244 339.999 197.634 338.86 196.413C337.729 195.192 337.163 193.532 337.163 191.433V191.274ZM340.691 191.53C340.691 192.784 340.927 193.744 341.399 194.411C341.871 195.07 342.546 195.4 343.425 195.4C344.28 195.4 344.947 195.074 345.427 194.423C345.907 193.764 346.147 192.714 346.147 191.274C346.147 190.045 345.907 189.093 345.427 188.417C344.947 187.742 344.272 187.404 343.401 187.404C342.538 187.404 341.871 187.742 341.399 188.417C340.927 189.085 340.691 190.122 340.691 191.53ZM355.095 184.792L355.205 186.318C356.149 185.138 357.415 184.548 359.001 184.548C360.401 184.548 361.443 184.959 362.126 185.781C362.81 186.603 363.16 187.832 363.176 189.467V198H359.648V189.553C359.648 188.804 359.486 188.263 359.16 187.929C358.835 187.587 358.293 187.417 357.537 187.417C356.544 187.417 355.799 187.84 355.303 188.686V198H351.775V184.792H355.095ZM370.085 181.545V184.792H372.344V187.38H370.085V193.972C370.085 194.46 370.179 194.81 370.366 195.021C370.553 195.233 370.911 195.339 371.44 195.339C371.831 195.339 372.177 195.31 372.478 195.253V197.927C371.786 198.138 371.074 198.244 370.342 198.244C367.868 198.244 366.606 196.995 366.558 194.497V187.38H364.629V184.792H366.558V181.545H370.085ZM381.963 198C381.8 197.683 381.682 197.288 381.609 196.816C380.754 197.768 379.644 198.244 378.276 198.244C376.982 198.244 375.908 197.87 375.054 197.121C374.207 196.372 373.784 195.428 373.784 194.289C373.784 192.889 374.301 191.815 375.334 191.066C376.376 190.318 377.878 189.939 379.839 189.931H381.462V189.174C381.462 188.564 381.304 188.076 380.986 187.709C380.677 187.343 380.185 187.16 379.509 187.16C378.915 187.16 378.447 187.303 378.105 187.587C377.772 187.872 377.605 188.263 377.605 188.759H374.077C374.077 187.994 374.313 187.286 374.785 186.635C375.257 185.984 375.924 185.476 376.787 185.109C377.65 184.735 378.618 184.548 379.692 184.548C381.32 184.548 382.61 184.959 383.562 185.781C384.522 186.595 385.002 187.742 385.002 189.223V194.948C385.011 196.201 385.186 197.15 385.527 197.792V198H381.963ZM379.045 195.546C379.566 195.546 380.046 195.432 380.486 195.205C380.925 194.969 381.251 194.655 381.462 194.265V191.994H380.144C378.378 191.994 377.438 192.604 377.324 193.825L377.312 194.033C377.312 194.472 377.467 194.834 377.776 195.119C378.085 195.404 378.508 195.546 379.045 195.546ZM391.436 198H387.896V184.792H391.436V198ZM387.688 181.374C387.688 180.845 387.863 180.41 388.213 180.068C388.571 179.726 389.055 179.555 389.666 179.555C390.268 179.555 390.748 179.726 391.106 180.068C391.464 180.41 391.643 180.845 391.643 181.374C391.643 181.911 391.46 182.351 391.094 182.692C390.736 183.034 390.26 183.205 389.666 183.205C389.071 183.205 388.591 183.034 388.225 182.692C387.867 182.351 387.688 181.911 387.688 181.374ZM397.6 184.792L397.71 186.318C398.654 185.138 399.919 184.548 401.506 184.548C402.906 184.548 403.948 184.959 404.631 185.781C405.315 186.603 405.665 187.832 405.681 189.467V198H402.153V189.553C402.153 188.804 401.991 188.263 401.665 187.929C401.34 187.587 400.798 187.417 400.042 187.417C399.049 187.417 398.304 187.84 397.808 188.686V198H394.28V184.792H397.6ZM414.446 198.244C412.509 198.244 410.93 197.65 409.709 196.462C408.497 195.274 407.891 193.691 407.891 191.713V191.372C407.891 190.045 408.147 188.861 408.66 187.819C409.172 186.77 409.897 185.964 410.833 185.402C411.777 184.833 412.851 184.548 414.055 184.548C415.862 184.548 417.282 185.118 418.315 186.257C419.357 187.396 419.878 189.012 419.878 191.103V192.543H411.467C411.581 193.406 411.923 194.098 412.493 194.619C413.07 195.139 413.799 195.4 414.678 195.4C416.037 195.4 417.099 194.908 417.864 193.923L419.597 195.864C419.068 196.612 418.352 197.198 417.449 197.622C416.545 198.037 415.544 198.244 414.446 198.244ZM414.043 187.404C413.343 187.404 412.773 187.64 412.334 188.112C411.903 188.584 411.626 189.26 411.504 190.139H416.411V189.858C416.395 189.077 416.183 188.474 415.776 188.051C415.369 187.62 414.792 187.404 414.043 187.404ZM429.314 188.1C428.834 188.035 428.411 188.002 428.044 188.002C426.71 188.002 425.835 188.454 425.42 189.357V198H421.892V184.792H425.225L425.322 186.367C426.03 185.154 427.011 184.548 428.264 184.548C428.655 184.548 429.021 184.601 429.363 184.707L429.314 188.1Z" fill="white"/>
<rect x="1309" width="500" height="250" fill="#C4C4C4"/>
<rect x="1314" y="73" width="240" height="168" fill="#A4FB96"/>
<rect x="1319" y="131" width="230" height="100" fill="#7367FF"/>
<path d="M1539.46 48H1534.33L1524.35 31.6279V48H1519.22V23.1172H1524.35L1534.35 39.5234V23.1172H1539.46V48ZM1542.84 38.5835C1542.84 36.7492 1543.19 35.1143 1543.9 33.6787C1544.61 32.2432 1545.62 31.1323 1546.94 30.3462C1548.27 29.5601 1549.82 29.167 1551.57 29.167C1554.07 29.167 1556.1 29.9303 1557.67 31.457C1559.26 32.9837 1560.14 35.0573 1560.32 37.6777L1560.36 38.9424C1560.36 41.7793 1559.57 44.0579 1557.98 45.7783C1556.4 47.4873 1554.27 48.3418 1551.61 48.3418C1548.94 48.3418 1546.81 47.4873 1545.22 45.7783C1543.63 44.0693 1542.84 41.7451 1542.84 38.8057V38.5835ZM1547.78 38.9424C1547.78 40.6969 1548.11 42.0413 1548.77 42.9756C1549.43 43.8984 1550.38 44.3599 1551.61 44.3599C1552.8 44.3599 1553.74 43.9041 1554.41 42.9927C1555.08 42.0698 1555.42 40.6001 1555.42 38.5835C1555.42 36.8631 1555.08 35.5301 1554.41 34.5845C1553.74 33.6388 1552.79 33.166 1551.57 33.166C1550.37 33.166 1549.43 33.6388 1548.77 34.5845C1548.11 35.5187 1547.78 36.9714 1547.78 38.9424ZM1562.63 38.6177C1562.63 35.7352 1563.27 33.4395 1564.56 31.7305C1565.86 30.0215 1567.63 29.167 1569.88 29.167C1571.68 29.167 1573.16 29.8392 1574.34 31.1836V21.75H1579.29V48H1574.83L1574.59 46.0347C1573.36 47.5728 1571.78 48.3418 1569.84 48.3418C1567.67 48.3418 1565.92 47.4873 1564.6 45.7783C1563.28 44.0579 1562.63 41.6711 1562.63 38.6177ZM1567.57 38.9766C1567.57 40.7083 1567.87 42.0356 1568.47 42.9585C1569.08 43.8813 1569.96 44.3428 1571.11 44.3428C1572.63 44.3428 1573.71 43.6991 1574.34 42.4116V35.1143C1573.72 33.8268 1572.66 33.1831 1571.14 33.1831C1568.76 33.1831 1567.57 35.1143 1567.57 38.9766ZM1591.63 48.3418C1588.92 48.3418 1586.71 47.5101 1585 45.8467C1583.3 44.1833 1582.45 41.9673 1582.45 39.1987V38.7202C1582.45 36.8631 1582.81 35.2054 1583.53 33.7471C1584.25 32.2773 1585.26 31.1494 1586.57 30.3633C1587.89 29.5658 1589.4 29.167 1591.08 29.167C1593.61 29.167 1595.6 29.9645 1597.05 31.5596C1598.51 33.1546 1599.24 35.4162 1599.24 38.3442V40.3608H1587.46C1587.62 41.5685 1588.1 42.5369 1588.9 43.2661C1589.71 43.9953 1590.73 44.3599 1591.96 44.3599C1593.86 44.3599 1595.35 43.6706 1596.42 42.292L1598.84 45.0093C1598.1 46.0575 1597.1 46.8778 1595.84 47.4702C1594.57 48.0513 1593.17 48.3418 1591.63 48.3418ZM1591.07 33.166C1590.09 33.166 1589.29 33.4964 1588.67 34.1572C1588.07 34.818 1587.68 35.7637 1587.51 36.9941H1594.38V36.6011C1594.36 35.5073 1594.06 34.6642 1593.49 34.0718C1592.92 33.4679 1592.12 33.166 1591.07 33.166Z" fill="black"/>
<path d="M1413.3 104.485V112H1408.9V90.6719H1417.22C1418.83 90.6719 1420.23 90.9648 1421.44 91.5508C1422.66 92.1367 1423.6 92.9717 1424.26 94.0557C1424.91 95.1299 1425.24 96.3555 1425.24 97.7324C1425.24 99.8223 1424.52 101.473 1423.08 102.684C1421.66 103.885 1419.68 104.485 1417.15 104.485H1413.3ZM1413.3 100.926H1417.22C1418.39 100.926 1419.27 100.652 1419.88 100.105C1420.49 99.5586 1420.8 98.7773 1420.8 97.7617C1420.8 96.7168 1420.49 95.8721 1419.88 95.2275C1419.26 94.583 1418.41 94.251 1417.33 94.2314H1413.3V100.926ZM1427.13 103.929C1427.13 102.356 1427.43 100.955 1428.04 99.7246C1428.64 98.4941 1429.51 97.542 1430.64 96.8682C1431.79 96.1943 1433.11 95.8574 1434.61 95.8574C1436.75 95.8574 1438.49 96.5117 1439.84 97.8203C1441.2 99.1289 1441.96 100.906 1442.11 103.152L1442.14 104.236C1442.14 106.668 1441.46 108.621 1440.11 110.096C1438.75 111.561 1436.93 112.293 1434.64 112.293C1432.36 112.293 1430.53 111.561 1429.16 110.096C1427.81 108.631 1427.13 106.639 1427.13 104.119V103.929ZM1431.36 104.236C1431.36 105.74 1431.64 106.893 1432.21 107.693C1432.78 108.484 1433.59 108.88 1434.64 108.88C1435.67 108.88 1436.47 108.489 1437.04 107.708C1437.62 106.917 1437.91 105.657 1437.91 103.929C1437.91 102.454 1437.62 101.312 1437.04 100.501C1436.47 99.6904 1435.66 99.2852 1434.61 99.2852C1433.58 99.2852 1432.78 99.6904 1432.21 100.501C1431.64 101.302 1431.36 102.547 1431.36 104.236ZM1444.09 103.958C1444.09 101.487 1444.64 99.5195 1445.75 98.0547C1446.86 96.5898 1448.38 95.8574 1450.3 95.8574C1451.84 95.8574 1453.12 96.4336 1454.12 97.5859V89.5H1458.37V112H1454.55L1454.34 110.315C1453.29 111.634 1451.93 112.293 1450.27 112.293C1448.41 112.293 1446.91 111.561 1445.77 110.096C1444.65 108.621 1444.09 106.575 1444.09 103.958ZM1448.32 104.266C1448.32 105.75 1448.58 106.888 1449.1 107.679C1449.62 108.47 1450.37 108.865 1451.36 108.865C1452.66 108.865 1453.59 108.313 1454.12 107.21V100.955C1453.6 99.8516 1452.68 99.2998 1451.38 99.2998C1449.34 99.2998 1448.32 100.955 1448.32 104.266Z" fill="black"/>
<path d="M1394.54 183.08C1394.4 184.992 1393.69 186.498 1392.42 187.596C1391.15 188.695 1389.47 189.244 1387.39 189.244C1385.11 189.244 1383.31 188.479 1382 186.949C1380.7 185.411 1380.05 183.303 1380.05 180.626V179.54C1380.05 177.831 1380.35 176.325 1380.95 175.023C1381.56 173.721 1382.41 172.724 1383.53 172.032C1384.65 171.332 1385.95 170.982 1387.44 170.982C1389.49 170.982 1391.14 171.532 1392.39 172.63C1393.64 173.729 1394.37 175.271 1394.56 177.257H1390.9C1390.81 176.109 1390.49 175.279 1389.94 174.767C1389.39 174.246 1388.56 173.985 1387.44 173.985C1386.21 173.985 1385.3 174.425 1384.69 175.304C1384.09 176.174 1383.78 177.529 1383.76 179.369V180.711C1383.76 182.632 1384.05 184.036 1384.63 184.923C1385.21 185.81 1386.13 186.253 1387.39 186.253C1388.52 186.253 1389.36 185.997 1389.91 185.484C1390.47 184.964 1390.8 184.162 1390.88 183.08H1394.54ZM1396.16 182.274C1396.16 180.964 1396.42 179.796 1396.92 178.771C1397.42 177.745 1398.15 176.952 1399.09 176.39C1400.04 175.829 1401.15 175.548 1402.4 175.548C1404.18 175.548 1405.64 176.093 1406.76 177.184C1407.89 178.274 1408.52 179.755 1408.65 181.627L1408.68 182.53C1408.68 184.557 1408.11 186.184 1406.98 187.413C1405.85 188.634 1404.33 189.244 1402.43 189.244C1400.52 189.244 1399 188.634 1397.86 187.413C1396.73 186.192 1396.16 184.532 1396.16 182.433V182.274ZM1399.69 182.53C1399.69 183.784 1399.93 184.744 1400.4 185.411C1400.87 186.07 1401.55 186.4 1402.43 186.4C1403.28 186.4 1403.95 186.074 1404.43 185.423C1404.91 184.764 1405.15 183.714 1405.15 182.274C1405.15 181.045 1404.91 180.093 1404.43 179.417C1403.95 178.742 1403.27 178.404 1402.4 178.404C1401.54 178.404 1400.87 178.742 1400.4 179.417C1399.93 180.085 1399.69 181.122 1399.69 182.53ZM1414.1 175.792L1414.21 177.318C1415.15 176.138 1416.41 175.548 1418 175.548C1419.4 175.548 1420.44 175.959 1421.13 176.781C1421.81 177.603 1422.16 178.832 1422.18 180.467V189H1418.65V180.553C1418.65 179.804 1418.49 179.263 1418.16 178.929C1417.83 178.587 1417.29 178.417 1416.54 178.417C1415.54 178.417 1414.8 178.84 1414.3 179.686V189H1410.77V175.792H1414.1ZM1429.09 172.545V175.792H1431.34V178.38H1429.09V184.972C1429.09 185.46 1429.18 185.81 1429.37 186.021C1429.55 186.233 1429.91 186.339 1430.44 186.339C1430.83 186.339 1431.18 186.31 1431.48 186.253V188.927C1430.79 189.138 1430.07 189.244 1429.34 189.244C1426.87 189.244 1425.61 187.995 1425.56 185.497V178.38H1423.63V175.792H1425.56V172.545H1429.09ZM1440.96 189C1440.8 188.683 1440.68 188.288 1440.61 187.816C1439.75 188.768 1438.64 189.244 1437.28 189.244C1435.98 189.244 1434.91 188.87 1434.05 188.121C1433.21 187.372 1432.78 186.428 1432.78 185.289C1432.78 183.889 1433.3 182.815 1434.33 182.066C1435.38 181.318 1436.88 180.939 1438.84 180.931H1440.46V180.174C1440.46 179.564 1440.3 179.076 1439.99 178.709C1439.68 178.343 1439.18 178.16 1438.51 178.16C1437.92 178.16 1437.45 178.303 1437.11 178.587C1436.77 178.872 1436.6 179.263 1436.6 179.759H1433.08C1433.08 178.994 1433.31 178.286 1433.79 177.635C1434.26 176.984 1434.92 176.476 1435.79 176.109C1436.65 175.735 1437.62 175.548 1438.69 175.548C1440.32 175.548 1441.61 175.959 1442.56 176.781C1443.52 177.595 1444 178.742 1444 180.223V185.948C1444.01 187.201 1444.19 188.15 1444.53 188.792V189H1440.96ZM1438.05 186.546C1438.57 186.546 1439.05 186.432 1439.49 186.205C1439.93 185.969 1440.25 185.655 1440.46 185.265V182.994H1439.14C1437.38 182.994 1436.44 183.604 1436.32 184.825L1436.31 185.033C1436.31 185.472 1436.47 185.834 1436.78 186.119C1437.09 186.404 1437.51 186.546 1438.05 186.546ZM1450.44 189H1446.9V175.792H1450.44V189ZM1446.69 172.374C1446.69 171.845 1446.86 171.41 1447.21 171.068C1447.57 170.726 1448.06 170.555 1448.67 170.555C1449.27 170.555 1449.75 170.726 1450.11 171.068C1450.46 171.41 1450.64 171.845 1450.64 172.374C1450.64 172.911 1450.46 173.351 1450.09 173.692C1449.74 174.034 1449.26 174.205 1448.67 174.205C1448.07 174.205 1447.59 174.034 1447.23 173.692C1446.87 173.351 1446.69 172.911 1446.69 172.374ZM1456.6 175.792L1456.71 177.318C1457.65 176.138 1458.92 175.548 1460.51 175.548C1461.91 175.548 1462.95 175.959 1463.63 176.781C1464.31 177.603 1464.66 178.832 1464.68 180.467V189H1461.15V180.553C1461.15 179.804 1460.99 179.263 1460.67 178.929C1460.34 178.587 1459.8 178.417 1459.04 178.417C1458.05 178.417 1457.3 178.84 1456.81 179.686V189H1453.28V175.792H1456.6ZM1473.45 189.244C1471.51 189.244 1469.93 188.65 1468.71 187.462C1467.5 186.274 1466.89 184.691 1466.89 182.713V182.372C1466.89 181.045 1467.15 179.861 1467.66 178.819C1468.17 177.77 1468.9 176.964 1469.83 176.402C1470.78 175.833 1471.85 175.548 1473.06 175.548C1474.86 175.548 1476.28 176.118 1477.32 177.257C1478.36 178.396 1478.88 180.012 1478.88 182.103V183.543H1470.47C1470.58 184.406 1470.92 185.098 1471.49 185.619C1472.07 186.139 1472.8 186.4 1473.68 186.4C1475.04 186.4 1476.1 185.908 1476.86 184.923L1478.6 186.864C1478.07 187.612 1477.35 188.198 1476.45 188.622C1475.55 189.037 1474.54 189.244 1473.45 189.244ZM1473.04 178.404C1472.34 178.404 1471.77 178.64 1471.33 179.112C1470.9 179.584 1470.63 180.26 1470.5 181.139H1475.41V180.858C1475.39 180.077 1475.18 179.474 1474.78 179.051C1474.37 178.62 1473.79 178.404 1473.04 178.404ZM1488.31 179.1C1487.83 179.035 1487.41 179.002 1487.04 179.002C1485.71 179.002 1484.83 179.454 1484.42 180.357V189H1480.89V175.792H1484.22L1484.32 177.367C1485.03 176.154 1486.01 175.548 1487.26 175.548C1487.65 175.548 1488.02 175.601 1488.36 175.707L1488.31 179.1Z" fill="white"/>
<path d="M605.741 135.794C606.732 134.833 606.756 133.25 605.794 132.259L590.127 116.11C589.166 115.119 587.583 115.095 586.592 116.057C585.601 117.018 585.577 118.601 586.539 119.592L600.465 133.946L586.11 147.873C585.119 148.834 585.095 150.417 586.057 151.408C587.018 152.399 588.601 152.423 589.592 151.461L605.741 135.794ZM537.962 135.5L603.962 136.5L604.038 131.5L538.038 130.5L537.962 135.5Z" fill="black"/>
<path d="M1265.74 135.794C1266.73 134.833 1266.76 133.25 1265.79 132.259L1250.13 116.11C1249.17 115.119 1247.58 115.095 1246.59 116.057C1245.6 117.018 1245.58 118.601 1246.54 119.592L1260.46 133.946L1246.11 147.873C1245.12 148.834 1245.1 150.417 1246.06 151.408C1247.02 152.399 1248.6 152.423 1249.59 151.461L1265.74 135.794ZM1197.96 135.5L1263.96 136.5L1264.04 131.5L1198.04 130.5L1197.96 135.5Z" fill="black"/>
<path d="M1265.74 135.794C1266.73 134.833 1266.76 133.25 1265.79 132.259L1250.13 116.11C1249.17 115.119 1247.58 115.095 1246.59 116.057C1245.6 117.018 1245.58 118.601 1246.54 119.592L1260.46 133.946L1246.11 147.873C1245.12 148.834 1245.1 150.417 1246.06 151.408C1247.02 152.399 1248.6 152.423 1249.59 151.461L1265.74 135.794ZM1197.96 135.5L1263.96 136.5L1264.04 131.5L1198.04 130.5L1197.96 135.5Z" fill="black"/>
<rect x="647" width="500" height="250" fill="#C4C4C4"/>
<rect x="652" y="73" width="240" height="168" fill="#A4FB96"/>
<rect x="657" y="131" width="230" height="100" fill="#7367FF"/>
<path d="M877.456 48H872.329L862.349 31.6279V48H857.222V23.1172H862.349L872.346 39.5234V23.1172H877.456V48ZM880.84 38.5835C880.84 36.7492 881.193 35.1143 881.899 33.6787C882.606 32.2432 883.62 31.1323 884.941 30.3462C886.274 29.5601 887.818 29.167 889.573 29.167C892.068 29.167 894.102 29.9303 895.674 31.457C897.257 32.9837 898.14 35.0573 898.323 37.6777L898.357 38.9424C898.357 41.7793 897.565 44.0579 895.981 45.7783C894.398 47.4873 892.273 48.3418 889.607 48.3418C886.941 48.3418 884.81 47.4873 883.215 45.7783C881.632 44.0693 880.84 41.7451 880.84 38.8057V38.5835ZM885.779 38.9424C885.779 40.6969 886.109 42.0413 886.77 42.9756C887.431 43.8984 888.376 44.3599 889.607 44.3599C890.803 44.3599 891.737 43.9041 892.41 42.9927C893.082 42.0698 893.418 40.6001 893.418 38.5835C893.418 36.8631 893.082 35.5301 892.41 34.5845C891.737 33.6388 890.792 33.166 889.573 33.166C888.365 33.166 887.431 33.6388 886.77 34.5845C886.109 35.5187 885.779 36.9714 885.779 38.9424ZM900.63 38.6177C900.63 35.7352 901.274 33.4395 902.561 31.7305C903.86 30.0215 905.632 29.167 907.876 29.167C909.676 29.167 911.163 29.8392 912.336 31.1836V21.75H917.292V48H912.832L912.593 46.0347C911.362 47.5728 909.779 48.3418 907.842 48.3418C905.666 48.3418 903.917 47.4873 902.595 45.7783C901.285 44.0579 900.63 41.6711 900.63 38.6177ZM905.569 38.9766C905.569 40.7083 905.871 42.0356 906.475 42.9585C907.078 43.8813 907.956 44.3428 909.106 44.3428C910.633 44.3428 911.71 43.6991 912.336 42.4116V35.1143C911.721 33.8268 910.656 33.1831 909.141 33.1831C906.759 33.1831 905.569 35.1143 905.569 38.9766ZM929.631 48.3418C926.92 48.3418 924.709 47.5101 923 45.8467C921.303 44.1833 920.454 41.9673 920.454 39.1987V38.7202C920.454 36.8631 920.813 35.2054 921.531 33.7471C922.249 32.2773 923.263 31.1494 924.573 30.3633C925.894 29.5658 927.398 29.167 929.084 29.167C931.614 29.167 933.602 29.9645 935.049 31.5596C936.507 33.1546 937.236 35.4162 937.236 38.3442V40.3608H925.461C925.621 41.5685 926.099 42.5369 926.897 43.2661C927.706 43.9953 928.726 44.3599 929.956 44.3599C931.859 44.3599 933.346 43.6706 934.417 42.292L936.843 45.0093C936.103 46.0575 935.1 46.8778 933.835 47.4702C932.571 48.0513 931.169 48.3418 929.631 48.3418ZM929.067 33.166C928.088 33.166 927.29 33.4964 926.675 34.1572C926.071 34.818 925.684 35.7637 925.513 36.9941H932.383V36.6011C932.36 35.5073 932.064 34.6642 931.494 34.0718C930.924 33.4679 930.116 33.166 929.067 33.166Z" fill="black"/>
<path d="M751.299 104.485V112H746.904V90.6719H755.225C756.826 90.6719 758.232 90.9648 759.443 91.5508C760.664 92.1367 761.602 92.9717 762.256 94.0557C762.91 95.1299 763.237 96.3555 763.237 97.7324C763.237 99.8223 762.52 101.473 761.084 102.684C759.658 103.885 757.681 104.485 755.151 104.485H751.299ZM751.299 100.926H755.225C756.387 100.926 757.271 100.652 757.876 100.105C758.491 99.5586 758.799 98.7773 758.799 97.7617C758.799 96.7168 758.491 95.8721 757.876 95.2275C757.261 94.583 756.411 94.251 755.327 94.2314H751.299V100.926ZM765.127 103.929C765.127 102.356 765.43 100.955 766.035 99.7246C766.641 98.4941 767.51 97.542 768.643 96.8682C769.785 96.1943 771.108 95.8574 772.612 95.8574C774.751 95.8574 776.494 96.5117 777.842 97.8203C779.199 99.1289 779.956 100.906 780.112 103.152L780.142 104.236C780.142 106.668 779.463 108.621 778.105 110.096C776.748 111.561 774.927 112.293 772.642 112.293C770.356 112.293 768.53 111.561 767.163 110.096C765.806 108.631 765.127 106.639 765.127 104.119V103.929ZM769.36 104.236C769.36 105.74 769.644 106.893 770.21 107.693C770.776 108.484 771.587 108.88 772.642 108.88C773.667 108.88 774.468 108.489 775.044 107.708C775.62 106.917 775.908 105.657 775.908 103.929C775.908 102.454 775.62 101.312 775.044 100.501C774.468 99.6904 773.657 99.2852 772.612 99.2852C771.577 99.2852 770.776 99.6904 770.21 100.501C769.644 101.302 769.36 102.547 769.36 104.236ZM782.09 103.958C782.09 101.487 782.642 99.5195 783.745 98.0547C784.858 96.5898 786.377 95.8574 788.301 95.8574C789.844 95.8574 791.118 96.4336 792.124 97.5859V89.5H796.372V112H792.549L792.344 110.315C791.289 111.634 789.932 112.293 788.271 112.293C786.406 112.293 784.907 111.561 783.774 110.096C782.651 108.621 782.09 106.575 782.09 103.958ZM786.323 104.266C786.323 105.75 786.582 106.888 787.1 107.679C787.617 108.47 788.369 108.865 789.355 108.865C790.664 108.865 791.587 108.313 792.124 107.21V100.955C791.597 99.8516 790.684 99.2998 789.385 99.2998C787.344 99.2998 786.323 100.955 786.323 104.266Z" fill="black"/>
<path d="M732.54 183.08C732.401 184.992 731.693 186.498 730.416 187.596C729.146 188.695 727.47 189.244 725.386 189.244C723.108 189.244 721.313 188.479 720.003 186.949C718.701 185.411 718.05 183.303 718.05 180.626V179.54C718.05 177.831 718.351 176.325 718.953 175.023C719.555 173.721 720.414 172.724 721.529 172.032C722.652 171.332 723.954 170.982 725.435 170.982C727.486 170.982 729.138 171.532 730.391 172.63C731.644 173.729 732.369 175.271 732.564 177.257H728.902C728.812 176.109 728.491 175.279 727.938 174.767C727.392 174.246 726.558 173.985 725.435 173.985C724.214 173.985 723.299 174.425 722.688 175.304C722.086 176.174 721.777 177.529 721.761 179.369V180.711C721.761 182.632 722.05 184.036 722.627 184.923C723.213 185.81 724.133 186.253 725.386 186.253C726.517 186.253 727.36 185.997 727.913 185.484C728.475 184.964 728.796 184.162 728.877 183.08H732.54ZM734.163 182.274C734.163 180.964 734.415 179.796 734.92 178.771C735.424 177.745 736.149 176.952 737.093 176.39C738.045 175.829 739.148 175.548 740.401 175.548C742.183 175.548 743.636 176.093 744.759 177.184C745.89 178.274 746.521 179.755 746.651 181.627L746.675 182.53C746.675 184.557 746.11 186.184 744.979 187.413C743.847 188.634 742.33 189.244 740.425 189.244C738.521 189.244 736.999 188.634 735.86 187.413C734.729 186.192 734.163 184.532 734.163 182.433V182.274ZM737.691 182.53C737.691 183.784 737.927 184.744 738.399 185.411C738.871 186.07 739.546 186.4 740.425 186.4C741.28 186.4 741.947 186.074 742.427 185.423C742.907 184.764 743.147 183.714 743.147 182.274C743.147 181.045 742.907 180.093 742.427 179.417C741.947 178.742 741.272 178.404 740.401 178.404C739.538 178.404 738.871 178.742 738.399 179.417C737.927 180.085 737.691 181.122 737.691 182.53ZM752.095 175.792L752.205 177.318C753.149 176.138 754.415 175.548 756.001 175.548C757.401 175.548 758.443 175.959 759.126 176.781C759.81 177.603 760.16 178.832 760.176 180.467V189H756.648V180.553C756.648 179.804 756.486 179.263 756.16 178.929C755.835 178.587 755.293 178.417 754.537 178.417C753.544 178.417 752.799 178.84 752.303 179.686V189H748.775V175.792H752.095ZM767.085 172.545V175.792H769.344V178.38H767.085V184.972C767.085 185.46 767.179 185.81 767.366 186.021C767.553 186.233 767.911 186.339 768.44 186.339C768.831 186.339 769.177 186.31 769.478 186.253V188.927C768.786 189.138 768.074 189.244 767.342 189.244C764.868 189.244 763.606 187.995 763.558 185.497V178.38H761.629V175.792H763.558V172.545H767.085ZM778.963 189C778.8 188.683 778.682 188.288 778.609 187.816C777.754 188.768 776.644 189.244 775.276 189.244C773.982 189.244 772.908 188.87 772.054 188.121C771.207 187.372 770.784 186.428 770.784 185.289C770.784 183.889 771.301 182.815 772.334 182.066C773.376 181.318 774.878 180.939 776.839 180.931H778.462V180.174C778.462 179.564 778.304 179.076 777.986 178.709C777.677 178.343 777.185 178.16 776.509 178.16C775.915 178.16 775.447 178.303 775.105 178.587C774.772 178.872 774.605 179.263 774.605 179.759H771.077C771.077 178.994 771.313 178.286 771.785 177.635C772.257 176.984 772.924 176.476 773.787 176.109C774.65 175.735 775.618 175.548 776.692 175.548C778.32 175.548 779.61 175.959 780.562 176.781C781.522 177.595 782.002 178.742 782.002 180.223V185.948C782.011 187.201 782.186 188.15 782.527 188.792V189H778.963ZM776.045 186.546C776.566 186.546 777.046 186.432 777.486 186.205C777.925 185.969 778.251 185.655 778.462 185.265V182.994H777.144C775.378 182.994 774.438 183.604 774.324 184.825L774.312 185.033C774.312 185.472 774.467 185.834 774.776 186.119C775.085 186.404 775.508 186.546 776.045 186.546ZM788.436 189H784.896V175.792H788.436V189ZM784.688 172.374C784.688 171.845 784.863 171.41 785.213 171.068C785.571 170.726 786.055 170.555 786.666 170.555C787.268 170.555 787.748 170.726 788.106 171.068C788.464 171.41 788.643 171.845 788.643 172.374C788.643 172.911 788.46 173.351 788.094 173.692C787.736 174.034 787.26 174.205 786.666 174.205C786.071 174.205 785.591 174.034 785.225 173.692C784.867 173.351 784.688 172.911 784.688 172.374ZM794.6 175.792L794.71 177.318C795.654 176.138 796.919 175.548 798.506 175.548C799.906 175.548 800.948 175.959 801.631 176.781C802.315 177.603 802.665 178.832 802.681 180.467V189H799.153V180.553C799.153 179.804 798.991 179.263 798.665 178.929C798.34 178.587 797.798 178.417 797.042 178.417C796.049 178.417 795.304 178.84 794.808 179.686V189H791.28V175.792H794.6ZM811.446 189.244C809.509 189.244 807.93 188.65 806.709 187.462C805.497 186.274 804.891 184.691 804.891 182.713V182.372C804.891 181.045 805.147 179.861 805.66 178.819C806.172 177.77 806.897 176.964 807.833 176.402C808.777 175.833 809.851 175.548 811.055 175.548C812.862 175.548 814.282 176.118 815.315 177.257C816.357 178.396 816.878 180.012 816.878 182.103V183.543H808.467C808.581 184.406 808.923 185.098 809.493 185.619C810.07 186.139 810.799 186.4 811.678 186.4C813.037 186.4 814.099 185.908 814.864 184.923L816.597 186.864C816.068 187.612 815.352 188.198 814.449 188.622C813.545 189.037 812.544 189.244 811.446 189.244ZM811.043 178.404C810.343 178.404 809.773 178.64 809.334 179.112C808.903 179.584 808.626 180.26 808.504 181.139H813.411V180.858C813.395 180.077 813.183 179.474 812.776 179.051C812.369 178.62 811.792 178.404 811.043 178.404ZM826.314 179.1C825.834 179.035 825.411 179.002 825.044 179.002C823.71 179.002 822.835 179.454 822.42 180.357V189H818.892V175.792H822.225L822.322 177.367C823.03 176.154 824.011 175.548 825.264 175.548C825.655 175.548 826.021 175.601 826.363 175.707L826.314 179.1Z" fill="white"/>
<rect x="902" y="73" width="240" height="168" fill="#A4FB96"/>
<rect x="907" y="131" width="230" height="100" fill="#7367FF"/>
<path d="M1001.3 104.485V112H996.904V90.6719H1005.22C1006.83 90.6719 1008.23 90.9648 1009.44 91.5508C1010.66 92.1367 1011.6 92.9717 1012.26 94.0557C1012.91 95.1299 1013.24 96.3555 1013.24 97.7324C1013.24 99.8223 1012.52 101.473 1011.08 102.684C1009.66 103.885 1007.68 104.485 1005.15 104.485H1001.3ZM1001.3 100.926H1005.22C1006.39 100.926 1007.27 100.652 1007.88 100.105C1008.49 99.5586 1008.8 98.7773 1008.8 97.7617C1008.8 96.7168 1008.49 95.8721 1007.88 95.2275C1007.26 94.583 1006.41 94.251 1005.33 94.2314H1001.3V100.926ZM1015.13 103.929C1015.13 102.356 1015.43 100.955 1016.04 99.7246C1016.64 98.4941 1017.51 97.542 1018.64 96.8682C1019.79 96.1943 1021.11 95.8574 1022.61 95.8574C1024.75 95.8574 1026.49 96.5117 1027.84 97.8203C1029.2 99.1289 1029.96 100.906 1030.11 103.152L1030.14 104.236C1030.14 106.668 1029.46 108.621 1028.11 110.096C1026.75 111.561 1024.93 112.293 1022.64 112.293C1020.36 112.293 1018.53 111.561 1017.16 110.096C1015.81 108.631 1015.13 106.639 1015.13 104.119V103.929ZM1019.36 104.236C1019.36 105.74 1019.64 106.893 1020.21 107.693C1020.78 108.484 1021.59 108.88 1022.64 108.88C1023.67 108.88 1024.47 108.489 1025.04 107.708C1025.62 106.917 1025.91 105.657 1025.91 103.929C1025.91 102.454 1025.62 101.312 1025.04 100.501C1024.47 99.6904 1023.66 99.2852 1022.61 99.2852C1021.58 99.2852 1020.78 99.6904 1020.21 100.501C1019.64 101.302 1019.36 102.547 1019.36 104.236ZM1032.09 103.958C1032.09 101.487 1032.64 99.5195 1033.75 98.0547C1034.86 96.5898 1036.38 95.8574 1038.3 95.8574C1039.84 95.8574 1041.12 96.4336 1042.12 97.5859V89.5H1046.37V112H1042.55L1042.34 110.315C1041.29 111.634 1039.93 112.293 1038.27 112.293C1036.41 112.293 1034.91 111.561 1033.77 110.096C1032.65 108.621 1032.09 106.575 1032.09 103.958ZM1036.32 104.266C1036.32 105.75 1036.58 106.888 1037.1 107.679C1037.62 108.47 1038.37 108.865 1039.36 108.865C1040.66 108.865 1041.59 108.313 1042.12 107.21V100.955C1041.6 99.8516 1040.68 99.2998 1039.38 99.2998C1037.34 99.2998 1036.32 100.955 1036.32 104.266Z" fill="black"/>
<path d="M982.54 183.08C982.401 184.992 981.693 186.498 980.416 187.596C979.146 188.695 977.47 189.244 975.386 189.244C973.108 189.244 971.313 188.479 970.003 186.949C968.701 185.411 968.05 183.303 968.05 180.626V179.54C968.05 177.831 968.351 176.325 968.953 175.023C969.555 173.721 970.414 172.724 971.529 172.032C972.652 171.332 973.954 170.982 975.435 170.982C977.486 170.982 979.138 171.532 980.391 172.63C981.644 173.729 982.369 175.271 982.564 177.257H978.902C978.812 176.109 978.491 175.279 977.938 174.767C977.392 174.246 976.558 173.985 975.435 173.985C974.214 173.985 973.299 174.425 972.688 175.304C972.086 176.174 971.777 177.529 971.761 179.369V180.711C971.761 182.632 972.05 184.036 972.627 184.923C973.213 185.81 974.133 186.253 975.386 186.253C976.517 186.253 977.36 185.997 977.913 185.484C978.475 184.964 978.796 184.162 978.877 183.08H982.54ZM984.163 182.274C984.163 180.964 984.415 179.796 984.92 178.771C985.424 177.745 986.149 176.952 987.093 176.39C988.045 175.829 989.148 175.548 990.401 175.548C992.183 175.548 993.636 176.093 994.759 177.184C995.89 178.274 996.521 179.755 996.651 181.627L996.675 182.53C996.675 184.557 996.11 186.184 994.979 187.413C993.847 188.634 992.33 189.244 990.425 189.244C988.521 189.244 986.999 188.634 985.86 187.413C984.729 186.192 984.163 184.532 984.163 182.433V182.274ZM987.691 182.53C987.691 183.784 987.927 184.744 988.399 185.411C988.871 186.07 989.546 186.4 990.425 186.4C991.28 186.4 991.947 186.074 992.427 185.423C992.907 184.764 993.147 183.714 993.147 182.274C993.147 181.045 992.907 180.093 992.427 179.417C991.947 178.742 991.272 178.404 990.401 178.404C989.538 178.404 988.871 178.742 988.399 179.417C987.927 180.085 987.691 181.122 987.691 182.53ZM1002.1 175.792L1002.21 177.318C1003.15 176.138 1004.41 175.548 1006 175.548C1007.4 175.548 1008.44 175.959 1009.13 176.781C1009.81 177.603 1010.16 178.832 1010.18 180.467V189H1006.65V180.553C1006.65 179.804 1006.49 179.263 1006.16 178.929C1005.83 178.587 1005.29 178.417 1004.54 178.417C1003.54 178.417 1002.8 178.84 1002.3 179.686V189H998.775V175.792H1002.1ZM1017.09 172.545V175.792H1019.34V178.38H1017.09V184.972C1017.09 185.46 1017.18 185.81 1017.37 186.021C1017.55 186.233 1017.91 186.339 1018.44 186.339C1018.83 186.339 1019.18 186.31 1019.48 186.253V188.927C1018.79 189.138 1018.07 189.244 1017.34 189.244C1014.87 189.244 1013.61 187.995 1013.56 185.497V178.38H1011.63V175.792H1013.56V172.545H1017.09ZM1028.96 189C1028.8 188.683 1028.68 188.288 1028.61 187.816C1027.75 188.768 1026.64 189.244 1025.28 189.244C1023.98 189.244 1022.91 188.87 1022.05 188.121C1021.21 187.372 1020.78 186.428 1020.78 185.289C1020.78 183.889 1021.3 182.815 1022.33 182.066C1023.38 181.318 1024.88 180.939 1026.84 180.931H1028.46V180.174C1028.46 179.564 1028.3 179.076 1027.99 178.709C1027.68 178.343 1027.18 178.16 1026.51 178.16C1025.92 178.16 1025.45 178.303 1025.11 178.587C1024.77 178.872 1024.6 179.263 1024.6 179.759H1021.08C1021.08 178.994 1021.31 178.286 1021.79 177.635C1022.26 176.984 1022.92 176.476 1023.79 176.109C1024.65 175.735 1025.62 175.548 1026.69 175.548C1028.32 175.548 1029.61 175.959 1030.56 176.781C1031.52 177.595 1032 178.742 1032 180.223V185.948C1032.01 187.201 1032.19 188.15 1032.53 188.792V189H1028.96ZM1026.05 186.546C1026.57 186.546 1027.05 186.432 1027.49 186.205C1027.93 185.969 1028.25 185.655 1028.46 185.265V182.994H1027.14C1025.38 182.994 1024.44 183.604 1024.32 184.825L1024.31 185.033C1024.31 185.472 1024.47 185.834 1024.78 186.119C1025.09 186.404 1025.51 186.546 1026.05 186.546ZM1038.44 189H1034.9V175.792H1038.44V189ZM1034.69 172.374C1034.69 171.845 1034.86 171.41 1035.21 171.068C1035.57 170.726 1036.06 170.555 1036.67 170.555C1037.27 170.555 1037.75 170.726 1038.11 171.068C1038.46 171.41 1038.64 171.845 1038.64 172.374C1038.64 172.911 1038.46 173.351 1038.09 173.692C1037.74 174.034 1037.26 174.205 1036.67 174.205C1036.07 174.205 1035.59 174.034 1035.23 173.692C1034.87 173.351 1034.69 172.911 1034.69 172.374ZM1044.6 175.792L1044.71 177.318C1045.65 176.138 1046.92 175.548 1048.51 175.548C1049.91 175.548 1050.95 175.959 1051.63 176.781C1052.31 177.603 1052.66 178.832 1052.68 180.467V189H1049.15V180.553C1049.15 179.804 1048.99 179.263 1048.67 178.929C1048.34 178.587 1047.8 178.417 1047.04 178.417C1046.05 178.417 1045.3 178.84 1044.81 179.686V189H1041.28V175.792H1044.6ZM1061.45 189.244C1059.51 189.244 1057.93 188.65 1056.71 187.462C1055.5 186.274 1054.89 184.691 1054.89 182.713V182.372C1054.89 181.045 1055.15 179.861 1055.66 178.819C1056.17 177.77 1056.9 176.964 1057.83 176.402C1058.78 175.833 1059.85 175.548 1061.06 175.548C1062.86 175.548 1064.28 176.118 1065.32 177.257C1066.36 178.396 1066.88 180.012 1066.88 182.103V183.543H1058.47C1058.58 184.406 1058.92 185.098 1059.49 185.619C1060.07 186.139 1060.8 186.4 1061.68 186.4C1063.04 186.4 1064.1 185.908 1064.86 184.923L1066.6 186.864C1066.07 187.612 1065.35 188.198 1064.45 188.622C1063.55 189.037 1062.54 189.244 1061.45 189.244ZM1061.04 178.404C1060.34 178.404 1059.77 178.64 1059.33 179.112C1058.9 179.584 1058.63 180.26 1058.5 181.139H1063.41V180.858C1063.39 180.077 1063.18 179.474 1062.78 179.051C1062.37 178.62 1061.79 178.404 1061.04 178.404ZM1076.31 179.1C1075.83 179.035 1075.41 179.002 1075.04 179.002C1073.71 179.002 1072.83 179.454 1072.42 180.357V189H1068.89V175.792H1072.22L1072.32 177.367C1073.03 176.154 1074.01 175.548 1075.26 175.548C1075.65 175.548 1076.02 175.601 1076.36 175.707L1076.31 179.1Z" fill="white"/>
<path d="M1083.33 0C1053.93 0 1030 19.1413 1030 42.6667C1030 58.1707 1040.12 72.08 1056.67 79.648V106.667L1085.15 85.3067C1113.72 84.5493 1136.67 65.7067 1136.67 42.6667C1136.67 19.1413 1112.74 0 1083.33 0ZM1103.1 54.896L1095.56 62.4373L1083.33 50.208L1071.1 62.4373L1063.56 54.896L1075.79 42.6667L1063.56 30.4373L1071.1 22.896L1083.33 35.1253L1095.56 22.896L1103.1 30.4373L1090.87 42.6667L1103.1 54.896Z" fill="#FF0000"/>
<rect x="1969" width="500" height="250" fill="#C4C4C4"/>
<rect x="1974" y="73" width="240" height="168" fill="#A4FB96"/>
<rect x="1979" y="131" width="230" height="100" fill="#7367FF"/>
<path d="M2199.46 48H2194.33L2184.35 31.6279V48H2179.22V23.1172H2184.35L2194.35 39.5234V23.1172H2199.46V48ZM2202.84 38.5835C2202.84 36.7492 2203.19 35.1143 2203.9 33.6787C2204.61 32.2432 2205.62 31.1323 2206.94 30.3462C2208.27 29.5601 2209.82 29.167 2211.57 29.167C2214.07 29.167 2216.1 29.9303 2217.67 31.457C2219.26 32.9837 2220.14 35.0573 2220.32 37.6777L2220.36 38.9424C2220.36 41.7793 2219.57 44.0579 2217.98 45.7783C2216.4 47.4873 2214.27 48.3418 2211.61 48.3418C2208.94 48.3418 2206.81 47.4873 2205.22 45.7783C2203.63 44.0693 2202.84 41.7451 2202.84 38.8057V38.5835ZM2207.78 38.9424C2207.78 40.6969 2208.11 42.0413 2208.77 42.9756C2209.43 43.8984 2210.38 44.3599 2211.61 44.3599C2212.8 44.3599 2213.74 43.9041 2214.41 42.9927C2215.08 42.0698 2215.42 40.6001 2215.42 38.5835C2215.42 36.8631 2215.08 35.5301 2214.41 34.5845C2213.74 33.6388 2212.79 33.166 2211.57 33.166C2210.37 33.166 2209.43 33.6388 2208.77 34.5845C2208.11 35.5187 2207.78 36.9714 2207.78 38.9424ZM2222.63 38.6177C2222.63 35.7352 2223.27 33.4395 2224.56 31.7305C2225.86 30.0215 2227.63 29.167 2229.88 29.167C2231.68 29.167 2233.16 29.8392 2234.34 31.1836V21.75H2239.29V48H2234.83L2234.59 46.0347C2233.36 47.5728 2231.78 48.3418 2229.84 48.3418C2227.67 48.3418 2225.92 47.4873 2224.6 45.7783C2223.28 44.0579 2222.63 41.6711 2222.63 38.6177ZM2227.57 38.9766C2227.57 40.7083 2227.87 42.0356 2228.47 42.9585C2229.08 43.8813 2229.96 44.3428 2231.11 44.3428C2232.63 44.3428 2233.71 43.6991 2234.34 42.4116V35.1143C2233.72 33.8268 2232.66 33.1831 2231.14 33.1831C2228.76 33.1831 2227.57 35.1143 2227.57 38.9766ZM2251.63 48.3418C2248.92 48.3418 2246.71 47.5101 2245 45.8467C2243.3 44.1833 2242.45 41.9673 2242.45 39.1987V38.7202C2242.45 36.8631 2242.81 35.2054 2243.53 33.7471C2244.25 32.2773 2245.26 31.1494 2246.57 30.3633C2247.89 29.5658 2249.4 29.167 2251.08 29.167C2253.61 29.167 2255.6 29.9645 2257.05 31.5596C2258.51 33.1546 2259.24 35.4162 2259.24 38.3442V40.3608H2247.46C2247.62 41.5685 2248.1 42.5369 2248.9 43.2661C2249.71 43.9953 2250.73 44.3599 2251.96 44.3599C2253.86 44.3599 2255.35 43.6706 2256.42 42.292L2258.84 45.0093C2258.1 46.0575 2257.1 46.8778 2255.84 47.4702C2254.57 48.0513 2253.17 48.3418 2251.63 48.3418ZM2251.07 33.166C2250.09 33.166 2249.29 33.4964 2248.67 34.1572C2248.07 34.818 2247.68 35.7637 2247.51 36.9941H2254.38V36.6011C2254.36 35.5073 2254.06 34.6642 2253.49 34.0718C2252.92 33.4679 2252.12 33.166 2251.07 33.166Z" fill="black"/>
<path d="M2073.3 104.485V112H2068.9V90.6719H2077.22C2078.83 90.6719 2080.23 90.9648 2081.44 91.5508C2082.66 92.1367 2083.6 92.9717 2084.26 94.0557C2084.91 95.1299 2085.24 96.3555 2085.24 97.7324C2085.24 99.8223 2084.52 101.473 2083.08 102.684C2081.66 103.885 2079.68 104.485 2077.15 104.485H2073.3ZM2073.3 100.926H2077.22C2078.39 100.926 2079.27 100.652 2079.88 100.105C2080.49 99.5586 2080.8 98.7773 2080.8 97.7617C2080.8 96.7168 2080.49 95.8721 2079.88 95.2275C2079.26 94.583 2078.41 94.251 2077.33 94.2314H2073.3V100.926ZM2087.13 103.929C2087.13 102.356 2087.43 100.955 2088.04 99.7246C2088.64 98.4941 2089.51 97.542 2090.64 96.8682C2091.79 96.1943 2093.11 95.8574 2094.61 95.8574C2096.75 95.8574 2098.49 96.5117 2099.84 97.8203C2101.2 99.1289 2101.96 100.906 2102.11 103.152L2102.14 104.236C2102.14 106.668 2101.46 108.621 2100.11 110.096C2098.75 111.561 2096.93 112.293 2094.64 112.293C2092.36 112.293 2090.53 111.561 2089.16 110.096C2087.81 108.631 2087.13 106.639 2087.13 104.119V103.929ZM2091.36 104.236C2091.36 105.74 2091.64 106.893 2092.21 107.693C2092.78 108.484 2093.59 108.88 2094.64 108.88C2095.67 108.88 2096.47 108.489 2097.04 107.708C2097.62 106.917 2097.91 105.657 2097.91 103.929C2097.91 102.454 2097.62 101.312 2097.04 100.501C2096.47 99.6904 2095.66 99.2852 2094.61 99.2852C2093.58 99.2852 2092.78 99.6904 2092.21 100.501C2091.64 101.302 2091.36 102.547 2091.36 104.236ZM2104.09 103.958C2104.09 101.487 2104.64 99.5195 2105.75 98.0547C2106.86 96.5898 2108.38 95.8574 2110.3 95.8574C2111.84 95.8574 2113.12 96.4336 2114.12 97.5859V89.5H2118.37V112H2114.55L2114.34 110.315C2113.29 111.634 2111.93 112.293 2110.27 112.293C2108.41 112.293 2106.91 111.561 2105.77 110.096C2104.65 108.621 2104.09 106.575 2104.09 103.958ZM2108.32 104.266C2108.32 105.75 2108.58 106.888 2109.1 107.679C2109.62 108.47 2110.37 108.865 2111.36 108.865C2112.66 108.865 2113.59 108.313 2114.12 107.21V100.955C2113.6 99.8516 2112.68 99.2998 2111.38 99.2998C2109.34 99.2998 2108.32 100.955 2108.32 104.266Z" fill="black"/>
<path d="M2054.54 183.08C2054.4 184.992 2053.69 186.498 2052.42 187.596C2051.15 188.695 2049.47 189.244 2047.39 189.244C2045.11 189.244 2043.31 188.479 2042 186.949C2040.7 185.411 2040.05 183.303 2040.05 180.626V179.54C2040.05 177.831 2040.35 176.325 2040.95 175.023C2041.56 173.721 2042.41 172.724 2043.53 172.032C2044.65 171.332 2045.95 170.982 2047.44 170.982C2049.49 170.982 2051.14 171.532 2052.39 172.63C2053.64 173.729 2054.37 175.271 2054.56 177.257H2050.9C2050.81 176.109 2050.49 175.279 2049.94 174.767C2049.39 174.246 2048.56 173.985 2047.44 173.985C2046.21 173.985 2045.3 174.425 2044.69 175.304C2044.09 176.174 2043.78 177.529 2043.76 179.369V180.711C2043.76 182.632 2044.05 184.036 2044.63 184.923C2045.21 185.81 2046.13 186.253 2047.39 186.253C2048.52 186.253 2049.36 185.997 2049.91 185.484C2050.47 184.964 2050.8 184.162 2050.88 183.08H2054.54ZM2056.16 182.274C2056.16 180.964 2056.42 179.796 2056.92 178.771C2057.42 177.745 2058.15 176.952 2059.09 176.39C2060.04 175.829 2061.15 175.548 2062.4 175.548C2064.18 175.548 2065.64 176.093 2066.76 177.184C2067.89 178.274 2068.52 179.755 2068.65 181.627L2068.68 182.53C2068.68 184.557 2068.11 186.184 2066.98 187.413C2065.85 188.634 2064.33 189.244 2062.43 189.244C2060.52 189.244 2059 188.634 2057.86 187.413C2056.73 186.192 2056.16 184.532 2056.16 182.433V182.274ZM2059.69 182.53C2059.69 183.784 2059.93 184.744 2060.4 185.411C2060.87 186.07 2061.55 186.4 2062.43 186.4C2063.28 186.4 2063.95 186.074 2064.43 185.423C2064.91 184.764 2065.15 183.714 2065.15 182.274C2065.15 181.045 2064.91 180.093 2064.43 179.417C2063.95 178.742 2063.27 178.404 2062.4 178.404C2061.54 178.404 2060.87 178.742 2060.4 179.417C2059.93 180.085 2059.69 181.122 2059.69 182.53ZM2074.1 175.792L2074.21 177.318C2075.15 176.138 2076.41 175.548 2078 175.548C2079.4 175.548 2080.44 175.959 2081.13 176.781C2081.81 177.603 2082.16 178.832 2082.18 180.467V189H2078.65V180.553C2078.65 179.804 2078.49 179.263 2078.16 178.929C2077.83 178.587 2077.29 178.417 2076.54 178.417C2075.54 178.417 2074.8 178.84 2074.3 179.686V189H2070.77V175.792H2074.1ZM2089.09 172.545V175.792H2091.34V178.38H2089.09V184.972C2089.09 185.46 2089.18 185.81 2089.37 186.021C2089.55 186.233 2089.91 186.339 2090.44 186.339C2090.83 186.339 2091.18 186.31 2091.48 186.253V188.927C2090.79 189.138 2090.07 189.244 2089.34 189.244C2086.87 189.244 2085.61 187.995 2085.56 185.497V178.38H2083.63V175.792H2085.56V172.545H2089.09ZM2100.96 189C2100.8 188.683 2100.68 188.288 2100.61 187.816C2099.75 188.768 2098.64 189.244 2097.28 189.244C2095.98 189.244 2094.91 188.87 2094.05 188.121C2093.21 187.372 2092.78 186.428 2092.78 185.289C2092.78 183.889 2093.3 182.815 2094.33 182.066C2095.38 181.318 2096.88 180.939 2098.84 180.931H2100.46V180.174C2100.46 179.564 2100.3 179.076 2099.99 178.709C2099.68 178.343 2099.18 178.16 2098.51 178.16C2097.92 178.16 2097.45 178.303 2097.11 178.587C2096.77 178.872 2096.6 179.263 2096.6 179.759H2093.08C2093.08 178.994 2093.31 178.286 2093.79 177.635C2094.26 176.984 2094.92 176.476 2095.79 176.109C2096.65 175.735 2097.62 175.548 2098.69 175.548C2100.32 175.548 2101.61 175.959 2102.56 176.781C2103.52 177.595 2104 178.742 2104 180.223V185.948C2104.01 187.201 2104.19 188.15 2104.53 188.792V189H2100.96ZM2098.05 186.546C2098.57 186.546 2099.05 186.432 2099.49 186.205C2099.93 185.969 2100.25 185.655 2100.46 185.265V182.994H2099.14C2097.38 182.994 2096.44 183.604 2096.32 184.825L2096.31 185.033C2096.31 185.472 2096.47 185.834 2096.78 186.119C2097.09 186.404 2097.51 186.546 2098.05 186.546ZM2110.44 189H2106.9V175.792H2110.44V189ZM2106.69 172.374C2106.69 171.845 2106.86 171.41 2107.21 171.068C2107.57 170.726 2108.06 170.555 2108.67 170.555C2109.27 170.555 2109.75 170.726 2110.11 171.068C2110.46 171.41 2110.64 171.845 2110.64 172.374C2110.64 172.911 2110.46 173.351 2110.09 173.692C2109.74 174.034 2109.26 174.205 2108.67 174.205C2108.07 174.205 2107.59 174.034 2107.23 173.692C2106.87 173.351 2106.69 172.911 2106.69 172.374ZM2116.6 175.792L2116.71 177.318C2117.65 176.138 2118.92 175.548 2120.51 175.548C2121.91 175.548 2122.95 175.959 2123.63 176.781C2124.31 177.603 2124.66 178.832 2124.68 180.467V189H2121.15V180.553C2121.15 179.804 2120.99 179.263 2120.67 178.929C2120.34 178.587 2119.8 178.417 2119.04 178.417C2118.05 178.417 2117.3 178.84 2116.81 179.686V189H2113.28V175.792H2116.6ZM2133.45 189.244C2131.51 189.244 2129.93 188.65 2128.71 187.462C2127.5 186.274 2126.89 184.691 2126.89 182.713V182.372C2126.89 181.045 2127.15 179.861 2127.66 178.819C2128.17 177.77 2128.9 176.964 2129.83 176.402C2130.78 175.833 2131.85 175.548 2133.06 175.548C2134.86 175.548 2136.28 176.118 2137.32 177.257C2138.36 178.396 2138.88 180.012 2138.88 182.103V183.543H2130.47C2130.58 184.406 2130.92 185.098 2131.49 185.619C2132.07 186.139 2132.8 186.4 2133.68 186.4C2135.04 186.4 2136.1 185.908 2136.86 184.923L2138.6 186.864C2138.07 187.612 2137.35 188.198 2136.45 188.622C2135.55 189.037 2134.54 189.244 2133.45 189.244ZM2133.04 178.404C2132.34 178.404 2131.77 178.64 2131.33 179.112C2130.9 179.584 2130.63 180.26 2130.5 181.139H2135.41V180.858C2135.39 180.077 2135.18 179.474 2134.78 179.051C2134.37 178.62 2133.79 178.404 2133.04 178.404ZM2148.31 179.1C2147.83 179.035 2147.41 179.002 2147.04 179.002C2145.71 179.002 2144.83 179.454 2144.42 180.357V189H2140.89V175.792H2144.22L2144.32 177.367C2145.03 176.154 2146.01 175.548 2147.26 175.548C2147.65 175.548 2148.02 175.601 2148.36 175.707L2148.31 179.1Z" fill="white"/>
<rect x="2224" y="73" width="240" height="168" fill="#A4FB96"/>
<rect x="2229" y="131" width="230" height="100" fill="#7367FF"/>
<path d="M2323.3 104.485V112H2318.9V90.6719H2327.22C2328.83 90.6719 2330.23 90.9648 2331.44 91.5508C2332.66 92.1367 2333.6 92.9717 2334.26 94.0557C2334.91 95.1299 2335.24 96.3555 2335.24 97.7324C2335.24 99.8223 2334.52 101.473 2333.08 102.684C2331.66 103.885 2329.68 104.485 2327.15 104.485H2323.3ZM2323.3 100.926H2327.22C2328.39 100.926 2329.27 100.652 2329.88 100.105C2330.49 99.5586 2330.8 98.7773 2330.8 97.7617C2330.8 96.7168 2330.49 95.8721 2329.88 95.2275C2329.26 94.583 2328.41 94.251 2327.33 94.2314H2323.3V100.926ZM2337.13 103.929C2337.13 102.356 2337.43 100.955 2338.04 99.7246C2338.64 98.4941 2339.51 97.542 2340.64 96.8682C2341.79 96.1943 2343.11 95.8574 2344.61 95.8574C2346.75 95.8574 2348.49 96.5117 2349.84 97.8203C2351.2 99.1289 2351.96 100.906 2352.11 103.152L2352.14 104.236C2352.14 106.668 2351.46 108.621 2350.11 110.096C2348.75 111.561 2346.93 112.293 2344.64 112.293C2342.36 112.293 2340.53 111.561 2339.16 110.096C2337.81 108.631 2337.13 106.639 2337.13 104.119V103.929ZM2341.36 104.236C2341.36 105.74 2341.64 106.893 2342.21 107.693C2342.78 108.484 2343.59 108.88 2344.64 108.88C2345.67 108.88 2346.47 108.489 2347.04 107.708C2347.62 106.917 2347.91 105.657 2347.91 103.929C2347.91 102.454 2347.62 101.312 2347.04 100.501C2346.47 99.6904 2345.66 99.2852 2344.61 99.2852C2343.58 99.2852 2342.78 99.6904 2342.21 100.501C2341.64 101.302 2341.36 102.547 2341.36 104.236ZM2354.09 103.958C2354.09 101.487 2354.64 99.5195 2355.75 98.0547C2356.86 96.5898 2358.38 95.8574 2360.3 95.8574C2361.84 95.8574 2363.12 96.4336 2364.12 97.5859V89.5H2368.37V112H2364.55L2364.34 110.315C2363.29 111.634 2361.93 112.293 2360.27 112.293C2358.41 112.293 2356.91 111.561 2355.77 110.096C2354.65 108.621 2354.09 106.575 2354.09 103.958ZM2358.32 104.266C2358.32 105.75 2358.58 106.888 2359.1 107.679C2359.62 108.47 2360.37 108.865 2361.36 108.865C2362.66 108.865 2363.59 108.313 2364.12 107.21V100.955C2363.6 99.8516 2362.68 99.2998 2361.38 99.2998C2359.34 99.2998 2358.32 100.955 2358.32 104.266Z" fill="black"/>
<path d="M2304.54 183.08C2304.4 184.992 2303.69 186.498 2302.42 187.596C2301.15 188.695 2299.47 189.244 2297.39 189.244C2295.11 189.244 2293.31 188.479 2292 186.949C2290.7 185.411 2290.05 183.303 2290.05 180.626V179.54C2290.05 177.831 2290.35 176.325 2290.95 175.023C2291.56 173.721 2292.41 172.724 2293.53 172.032C2294.65 171.332 2295.95 170.982 2297.44 170.982C2299.49 170.982 2301.14 171.532 2302.39 172.63C2303.64 173.729 2304.37 175.271 2304.56 177.257H2300.9C2300.81 176.109 2300.49 175.279 2299.94 174.767C2299.39 174.246 2298.56 173.985 2297.44 173.985C2296.21 173.985 2295.3 174.425 2294.69 175.304C2294.09 176.174 2293.78 177.529 2293.76 179.369V180.711C2293.76 182.632 2294.05 184.036 2294.63 184.923C2295.21 185.81 2296.13 186.253 2297.39 186.253C2298.52 186.253 2299.36 185.997 2299.91 185.484C2300.47 184.964 2300.8 184.162 2300.88 183.08H2304.54ZM2306.16 182.274C2306.16 180.964 2306.42 179.796 2306.92 178.771C2307.42 177.745 2308.15 176.952 2309.09 176.39C2310.04 175.829 2311.15 175.548 2312.4 175.548C2314.18 175.548 2315.64 176.093 2316.76 177.184C2317.89 178.274 2318.52 179.755 2318.65 181.627L2318.68 182.53C2318.68 184.557 2318.11 186.184 2316.98 187.413C2315.85 188.634 2314.33 189.244 2312.43 189.244C2310.52 189.244 2309 188.634 2307.86 187.413C2306.73 186.192 2306.16 184.532 2306.16 182.433V182.274ZM2309.69 182.53C2309.69 183.784 2309.93 184.744 2310.4 185.411C2310.87 186.07 2311.55 186.4 2312.43 186.4C2313.28 186.4 2313.95 186.074 2314.43 185.423C2314.91 184.764 2315.15 183.714 2315.15 182.274C2315.15 181.045 2314.91 180.093 2314.43 179.417C2313.95 178.742 2313.27 178.404 2312.4 178.404C2311.54 178.404 2310.87 178.742 2310.4 179.417C2309.93 180.085 2309.69 181.122 2309.69 182.53ZM2324.1 175.792L2324.21 177.318C2325.15 176.138 2326.41 175.548 2328 175.548C2329.4 175.548 2330.44 175.959 2331.13 176.781C2331.81 177.603 2332.16 178.832 2332.18 180.467V189H2328.65V180.553C2328.65 179.804 2328.49 179.263 2328.16 178.929C2327.83 178.587 2327.29 178.417 2326.54 178.417C2325.54 178.417 2324.8 178.84 2324.3 179.686V189H2320.77V175.792H2324.1ZM2339.09 172.545V175.792H2341.34V178.38H2339.09V184.972C2339.09 185.46 2339.18 185.81 2339.37 186.021C2339.55 186.233 2339.91 186.339 2340.44 186.339C2340.83 186.339 2341.18 186.31 2341.48 186.253V188.927C2340.79 189.138 2340.07 189.244 2339.34 189.244C2336.87 189.244 2335.61 187.995 2335.56 185.497V178.38H2333.63V175.792H2335.56V172.545H2339.09ZM2350.96 189C2350.8 188.683 2350.68 188.288 2350.61 187.816C2349.75 188.768 2348.64 189.244 2347.28 189.244C2345.98 189.244 2344.91 188.87 2344.05 188.121C2343.21 187.372 2342.78 186.428 2342.78 185.289C2342.78 183.889 2343.3 182.815 2344.33 182.066C2345.38 181.318 2346.88 180.939 2348.84 180.931H2350.46V180.174C2350.46 179.564 2350.3 179.076 2349.99 178.709C2349.68 178.343 2349.18 178.16 2348.51 178.16C2347.92 178.16 2347.45 178.303 2347.11 178.587C2346.77 178.872 2346.6 179.263 2346.6 179.759H2343.08C2343.08 178.994 2343.31 178.286 2343.79 177.635C2344.26 176.984 2344.92 176.476 2345.79 176.109C2346.65 175.735 2347.62 175.548 2348.69 175.548C2350.32 175.548 2351.61 175.959 2352.56 176.781C2353.52 177.595 2354 178.742 2354 180.223V185.948C2354.01 187.201 2354.19 188.15 2354.53 188.792V189H2350.96ZM2348.05 186.546C2348.57 186.546 2349.05 186.432 2349.49 186.205C2349.93 185.969 2350.25 185.655 2350.46 185.265V182.994H2349.14C2347.38 182.994 2346.44 183.604 2346.32 184.825L2346.31 185.033C2346.31 185.472 2346.47 185.834 2346.78 186.119C2347.09 186.404 2347.51 186.546 2348.05 186.546ZM2360.44 189H2356.9V175.792H2360.44V189ZM2356.69 172.374C2356.69 171.845 2356.86 171.41 2357.21 171.068C2357.57 170.726 2358.06 170.555 2358.67 170.555C2359.27 170.555 2359.75 170.726 2360.11 171.068C2360.46 171.41 2360.64 171.845 2360.64 172.374C2360.64 172.911 2360.46 173.351 2360.09 173.692C2359.74 174.034 2359.26 174.205 2358.67 174.205C2358.07 174.205 2357.59 174.034 2357.23 173.692C2356.87 173.351 2356.69 172.911 2356.69 172.374ZM2366.6 175.792L2366.71 177.318C2367.65 176.138 2368.92 175.548 2370.51 175.548C2371.91 175.548 2372.95 175.959 2373.63 176.781C2374.31 177.603 2374.66 178.832 2374.68 180.467V189H2371.15V180.553C2371.15 179.804 2370.99 179.263 2370.67 178.929C2370.34 178.587 2369.8 178.417 2369.04 178.417C2368.05 178.417 2367.3 178.84 2366.81 179.686V189H2363.28V175.792H2366.6ZM2383.45 189.244C2381.51 189.244 2379.93 188.65 2378.71 187.462C2377.5 186.274 2376.89 184.691 2376.89 182.713V182.372C2376.89 181.045 2377.15 179.861 2377.66 178.819C2378.17 177.77 2378.9 176.964 2379.83 176.402C2380.78 175.833 2381.85 175.548 2383.06 175.548C2384.86 175.548 2386.28 176.118 2387.32 177.257C2388.36 178.396 2388.88 180.012 2388.88 182.103V183.543H2380.47C2380.58 184.406 2380.92 185.098 2381.49 185.619C2382.07 186.139 2382.8 186.4 2383.68 186.4C2385.04 186.4 2386.1 185.908 2386.86 184.923L2388.6 186.864C2388.07 187.612 2387.35 188.198 2386.45 188.622C2385.55 189.037 2384.54 189.244 2383.45 189.244ZM2383.04 178.404C2382.34 178.404 2381.77 178.64 2381.33 179.112C2380.9 179.584 2380.63 180.26 2380.5 181.139H2385.41V180.858C2385.39 180.077 2385.18 179.474 2384.78 179.051C2384.37 178.62 2383.79 178.404 2383.04 178.404ZM2398.31 179.1C2397.83 179.035 2397.41 179.002 2397.04 179.002C2395.71 179.002 2394.83 179.454 2394.42 180.357V189H2390.89V175.792H2394.22L2394.32 177.367C2395.03 176.154 2396.01 175.548 2397.26 175.548C2397.65 175.548 2398.02 175.601 2398.36 175.707L2398.31 179.1Z" fill="white"/>
<path d="M1927.74 135.794C1928.73 134.833 1928.76 133.25 1927.79 132.259L1912.13 116.11C1911.17 115.119 1909.58 115.095 1908.59 116.057C1907.6 117.018 1907.58 118.601 1908.54 119.592L1922.46 133.946L1908.11 147.873C1907.12 148.834 1907.1 150.417 1908.06 151.408C1909.02 152.399 1910.6 152.423 1911.59 151.461L1927.74 135.794ZM1859.96 135.5L1925.96 136.5L1926.04 131.5L1860.04 130.5L1859.96 135.5Z" fill="black"/>
</svg>
