<svg width="1211" height="275" viewBox="0 0 1211 275" fill="none" xmlns="http://www.w3.org/2000/svg">
<path d="M755.085 244.934C749.139 244.934 743.524 242.292 739.725 237.502L681.92 165.657C678.121 160.867 676.635 154.757 678.121 148.81L698.766 59.128C700.087 53.182 704.051 48.392 709.502 45.75L793.073 5.78001C795.716 4.46001 798.689 3.79901 801.662 3.79901C804.635 3.79901 807.607 4.45901 810.25 5.78101L893.822 45.585C899.272 48.227 903.236 53.017 904.557 58.963L925.202 148.645C926.524 154.591 925.202 160.702 921.404 165.492L863.597 237.337C859.798 241.961 854.183 244.769 848.237 244.769L755.087 244.934H755.085Z" fill="#326DE6"/>
<path d="M801.495 7.92798C803.808 7.92798 806.12 8.42298 808.267 9.41398L891.839 49.218C896.133 51.365 899.436 55.329 900.427 59.954L921.072 149.636C922.228 154.426 921.072 159.381 917.934 163.179L860.128 235.025C857.155 238.823 852.53 240.97 847.741 240.97H755.085C750.295 240.97 745.671 238.823 742.698 235.025L684.892 163.179C681.919 159.381 680.762 154.426 681.754 149.636L702.399 59.954C703.555 55.164 706.693 51.2 710.987 49.218L794.56 9.24998C796.707 8.42398 799.184 7.92898 801.496 7.92898L801.495 7.92798ZM801.495 0.164978C798.027 0.164978 794.559 0.990978 791.255 2.47698L707.684 42.447C701.077 45.585 696.453 51.365 694.801 58.467L674.156 148.15C672.505 155.252 674.156 162.519 678.781 168.3L736.587 240.145C741.047 245.76 747.818 248.898 754.92 248.898H847.575C854.677 248.898 861.449 245.76 865.908 240.145L923.715 168.299C928.339 162.684 929.991 155.252 928.339 148.149L907.694 58.467C906.043 51.365 901.418 45.585 894.812 42.447L811.57 2.47598C808.432 0.990978 804.964 0.164978 801.495 0.164978V0.164978Z" fill="white"/>
<path d="M885.232 142.534C885.067 142.534 885.067 142.534 885.232 142.534H885.067C884.902 142.534 884.737 142.534 884.737 142.369C884.407 142.369 884.077 142.204 883.746 142.204C882.59 142.039 881.599 141.874 880.608 141.874C880.112 141.874 879.617 141.874 878.956 141.708H878.791C875.323 141.378 872.515 141.048 869.872 140.222C868.716 139.726 868.386 139.066 868.055 138.405C868.055 138.24 867.89 138.24 867.89 138.075L865.743 137.415C866.757 129.645 866.366 121.757 864.587 114.126C862.784 106.432 859.654 99.1103 855.338 92.49L856.99 91.004V90.674C856.99 89.848 857.155 89.022 857.815 88.196C859.797 86.379 862.275 84.893 865.248 83.076C865.743 82.746 866.238 82.581 866.734 82.25C867.725 81.755 868.551 81.26 869.542 80.599C869.707 80.434 870.037 80.269 870.368 79.939C870.533 79.773 870.698 79.773 870.698 79.608C873.01 77.626 873.506 74.323 871.854 72.175C871.028 71.019 869.542 70.359 868.055 70.359C866.735 70.359 865.578 70.854 864.422 71.68L864.092 72.01C863.762 72.175 863.596 72.506 863.266 72.671C862.44 73.497 861.779 74.157 861.119 74.983C860.789 75.313 860.459 75.809 859.963 76.139C857.65 78.617 855.503 80.599 853.356 82.085C852.861 82.415 852.366 82.581 851.87 82.581C851.54 82.581 851.209 82.581 850.879 82.415H850.549L848.566 83.737C846.419 81.425 844.107 79.443 841.795 77.461C831.839 69.6791 819.858 64.9208 807.276 63.752L807.111 61.605L806.781 61.275C806.285 60.779 805.625 60.284 805.459 59.128C805.294 56.485 805.625 53.512 805.955 50.209V50.044C805.955 49.548 806.12 48.888 806.285 48.392C806.45 47.402 806.615 46.41 806.781 45.254V43.768C806.781 40.795 804.468 38.318 801.661 38.318C800.339 38.318 799.018 38.978 798.027 39.969C797.037 40.96 796.541 42.281 796.541 43.768V45.089C796.541 46.245 796.706 47.236 797.036 48.227C797.201 48.723 797.201 49.218 797.366 49.879V50.044C797.696 53.347 798.192 56.32 797.862 58.963C797.697 60.119 797.036 60.614 796.541 61.11L796.211 61.44L796.045 63.587C793.072 63.917 790.099 64.247 787.126 64.908C774.409 67.716 763.178 74.158 754.425 83.406L752.773 82.25H752.443C752.113 82.25 751.782 82.415 751.452 82.415C750.956 82.415 750.461 82.25 749.965 81.92C747.818 80.434 745.671 78.286 743.359 75.809C743.029 75.479 742.699 74.983 742.203 74.653C741.542 73.827 740.881 73.166 740.055 72.341C739.89 72.175 739.56 72.011 739.23 71.68C739.065 71.515 738.9 71.515 738.9 71.35C737.877 70.5046 736.593 70.0377 735.266 70.028C733.779 70.028 732.293 70.689 731.467 71.845C729.815 73.992 730.311 77.295 732.623 79.277C732.788 79.277 732.788 79.443 732.953 79.443C733.283 79.608 733.449 79.938 733.779 80.103C734.77 80.763 735.596 81.259 736.587 81.755C737.083 81.92 737.578 82.25 738.074 82.581C741.046 84.397 743.524 85.884 745.506 87.701C746.332 88.526 746.332 89.352 746.332 90.178V90.508L747.983 91.995C747.653 92.49 747.323 92.821 747.157 93.316C738.899 106.364 735.761 121.724 737.908 136.919L735.761 137.579C735.761 137.745 735.596 137.745 735.596 137.909C735.266 138.57 734.77 139.231 733.779 139.726C731.302 140.552 728.329 140.883 724.861 141.213H724.695C724.2 141.213 723.539 141.213 723.044 141.378C722.053 141.378 721.062 141.543 719.906 141.708C719.576 141.708 719.246 141.874 718.915 141.874C718.75 141.874 718.585 141.874 718.419 142.039C715.446 142.699 713.629 145.507 714.125 148.149C714.621 150.462 716.768 151.949 719.41 151.949C719.906 151.949 720.236 151.949 720.732 151.783C720.897 151.783 721.062 151.783 721.062 151.618C721.392 151.618 721.722 151.453 722.052 151.453C723.209 151.123 724.035 150.793 725.026 150.297C725.521 150.132 726.016 149.801 726.512 149.637H726.677C729.815 148.48 732.623 147.489 735.266 147.159H735.596C736.587 147.159 737.248 147.654 737.743 147.985C737.908 147.985 737.908 148.15 738.073 148.15L740.386 147.82C744.35 160.041 751.947 170.942 762.022 178.87C764.334 180.686 766.646 182.173 769.124 183.66L768.133 185.806C768.133 185.972 768.298 185.972 768.298 186.136C768.628 186.797 768.958 187.623 768.628 188.779C767.638 191.257 766.151 193.734 764.334 196.542V196.707C764.004 197.203 763.674 197.533 763.344 198.028C762.683 198.854 762.187 199.68 761.526 200.671C761.361 200.836 761.196 201.166 761.031 201.497C761.031 201.662 760.866 201.827 760.866 201.827C759.545 204.635 760.536 207.773 763.013 208.929C763.673 209.259 764.334 209.425 764.995 209.425C766.977 209.425 768.959 208.103 769.95 206.286C769.95 206.121 770.115 205.956 770.115 205.956C770.28 205.626 770.445 205.296 770.61 205.13C771.106 203.974 771.271 203.148 771.601 202.157L772.097 200.671C773.253 197.368 774.079 194.725 775.565 192.413C776.225 191.422 777.052 191.257 777.712 190.926C777.877 190.926 777.877 190.926 778.042 190.761L779.199 188.614C786.466 191.422 794.394 192.908 802.321 192.908C807.111 192.908 812.066 192.413 816.691 191.257C819.601 190.606 822.469 189.779 825.279 188.779L826.269 190.596C826.435 190.596 826.435 190.596 826.6 190.761C827.426 190.926 828.086 191.257 828.747 192.248C830.068 194.56 831.059 197.368 832.215 200.506V200.671L832.711 202.157C833.041 203.148 833.206 204.139 833.701 205.13C833.867 205.46 834.032 205.626 834.197 205.956C834.197 206.121 834.363 206.286 834.363 206.286C835.353 208.268 837.335 209.425 839.317 209.425C839.978 209.425 840.639 209.259 841.299 208.929C842.455 208.269 843.446 207.277 843.777 205.956C844.107 204.635 844.107 203.148 843.447 201.827C843.447 201.662 843.281 201.662 843.281 201.497C843.116 201.167 842.951 200.837 842.786 200.671C842.29 199.68 841.63 198.854 840.969 198.028C840.639 197.533 840.309 197.203 839.979 196.708V196.542C838.161 193.734 836.509 191.257 835.684 188.779C835.354 187.623 835.684 186.963 835.849 186.137C835.849 185.972 836.014 185.972 836.014 185.807L835.188 183.825C843.942 178.705 851.374 171.437 856.99 162.519C859.963 157.894 862.275 152.774 863.926 147.654L865.908 147.984C866.074 147.984 866.074 147.819 866.238 147.819C866.899 147.489 867.395 146.994 868.386 146.994H868.716C871.359 147.324 874.166 148.314 877.305 149.471H877.47C877.965 149.636 878.46 149.966 878.956 150.131C879.947 150.627 880.773 150.957 881.929 151.288C882.259 151.288 882.589 151.453 882.92 151.453C883.085 151.453 883.25 151.453 883.415 151.618C883.911 151.783 884.241 151.783 884.737 151.783C887.214 151.783 889.361 150.132 890.022 147.985C890.022 146.003 888.205 143.36 885.232 142.535V142.534ZM808.762 134.441L801.495 137.91L794.228 134.441L792.412 126.679L797.366 120.403H805.459L810.414 126.679L808.763 134.441H808.762ZM851.87 117.265C853.151 122.726 853.542 128.359 853.026 133.945L827.756 126.679C825.444 126.019 824.123 123.706 824.618 121.394C824.783 120.733 825.114 120.072 825.609 119.577L845.594 101.574C848.401 106.199 850.548 111.484 851.87 117.264V117.265ZM837.666 91.665L816.03 107.025C814.213 108.181 811.735 107.85 810.249 106.034C809.754 105.538 809.589 104.877 809.423 104.217L807.937 77.295C819.185 78.5902 829.663 83.6551 837.666 91.665V91.665ZM789.769 78.12C791.586 77.79 793.237 77.46 795.054 77.13L793.568 103.555C793.403 105.867 791.586 107.849 789.108 107.849C788.448 107.849 787.622 107.684 787.126 107.354L765.16 91.665C771.932 84.893 780.355 80.268 789.769 78.121V78.12ZM757.232 101.573L776.886 119.08C778.703 120.567 778.868 123.374 777.382 125.191C776.886 125.851 776.226 126.347 775.4 126.513L749.8 133.945C748.809 122.714 751.286 111.318 757.232 101.573V101.573ZM752.772 146.332L779.034 141.872C781.181 141.707 783.163 143.194 783.658 145.341C783.823 146.331 783.823 147.158 783.493 147.984L773.418 172.262C764.169 166.316 756.737 157.232 752.773 146.332H752.772ZM813.057 179.199C809.258 180.025 805.459 180.52 801.495 180.52C795.715 180.52 790.099 179.53 784.815 177.878L797.862 154.26C799.183 152.773 801.33 152.113 803.147 153.104C803.918 153.576 804.591 154.193 805.129 154.92L817.846 177.878C816.36 178.373 814.708 178.704 813.056 179.199H813.057ZM845.263 156.242C841.134 162.848 835.683 168.133 829.408 172.262L819.003 147.322C818.507 145.341 819.333 143.194 821.315 142.202C821.975 141.872 822.801 141.707 823.627 141.707L850.053 146.167C849.062 149.8 847.41 153.104 845.263 156.242V156.242Z" fill="white"/>
<path d="M768.372 214.227L772.938 227.117L777.479 214.227H782.288V232H778.614V227.142L778.98 218.755L774.183 232H771.668L766.883 218.768L767.249 227.142V232H763.587V214.227H768.372ZM792.908 232C792.745 231.683 792.627 231.288 792.554 230.816C791.7 231.768 790.589 232.244 789.222 232.244C787.928 232.244 786.854 231.87 785.999 231.121C785.153 230.372 784.729 229.428 784.729 228.289C784.729 226.889 785.246 225.815 786.28 225.066C787.321 224.318 788.823 223.939 790.784 223.931H792.408V223.174C792.408 222.564 792.249 222.076 791.932 221.709C791.622 221.343 791.13 221.16 790.455 221.16C789.861 221.16 789.393 221.303 789.051 221.587C788.717 221.872 788.55 222.263 788.55 222.759H785.022C785.022 221.994 785.258 221.286 785.73 220.635C786.202 219.984 786.87 219.476 787.732 219.109C788.595 218.735 789.563 218.548 790.638 218.548C792.265 218.548 793.555 218.959 794.507 219.781C795.468 220.595 795.948 221.742 795.948 223.223V228.948C795.956 230.201 796.131 231.15 796.473 231.792V232H792.908ZM789.991 229.546C790.512 229.546 790.992 229.432 791.431 229.205C791.871 228.969 792.196 228.655 792.408 228.265V225.994H791.089C789.323 225.994 788.383 226.604 788.27 227.825L788.257 228.033C788.257 228.472 788.412 228.834 788.721 229.119C789.03 229.404 789.454 229.546 789.991 229.546ZM805.811 228.35C805.811 227.919 805.595 227.581 805.164 227.337C804.741 227.085 804.057 226.861 803.113 226.666C799.972 226.006 798.401 224.672 798.401 222.662C798.401 221.49 798.886 220.513 799.854 219.732C800.831 218.943 802.104 218.548 803.675 218.548C805.351 218.548 806.69 218.943 807.691 219.732C808.7 220.521 809.205 221.547 809.205 222.808H805.677C805.677 222.304 805.514 221.889 805.188 221.563C804.863 221.229 804.354 221.062 803.663 221.062C803.069 221.062 802.609 221.197 802.283 221.465C801.958 221.734 801.795 222.076 801.795 222.491C801.795 222.881 801.978 223.199 802.344 223.443C802.719 223.679 803.345 223.886 804.224 224.065C805.103 224.236 805.844 224.432 806.446 224.651C808.309 225.335 809.241 226.519 809.241 228.204C809.241 229.408 808.724 230.385 807.691 231.133C806.657 231.874 805.323 232.244 803.687 232.244C802.58 232.244 801.596 232.049 800.733 231.658C799.878 231.259 799.207 230.718 798.719 230.035C798.23 229.343 797.986 228.598 797.986 227.801H801.331C801.364 228.427 801.596 228.908 802.027 229.241C802.458 229.575 803.036 229.742 803.76 229.742C804.436 229.742 804.944 229.616 805.286 229.363C805.636 229.103 805.811 228.765 805.811 228.35ZM815.748 215.545V218.792H818.006V221.38H815.748V227.972C815.748 228.46 815.841 228.81 816.028 229.021C816.215 229.233 816.574 229.339 817.103 229.339C817.493 229.339 817.839 229.31 818.14 229.253V231.927C817.448 232.138 816.736 232.244 816.004 232.244C813.53 232.244 812.269 230.995 812.22 228.497V221.38H810.291V218.792H812.22V215.545H815.748ZM826.05 232.244C824.113 232.244 822.535 231.65 821.314 230.462C820.101 229.274 819.495 227.691 819.495 225.713V225.372C819.495 224.045 819.751 222.861 820.264 221.819C820.777 220.77 821.501 219.964 822.437 219.402C823.381 218.833 824.455 218.548 825.66 218.548C827.466 218.548 828.886 219.118 829.92 220.257C830.962 221.396 831.482 223.012 831.482 225.103V226.543H823.072C823.186 227.406 823.528 228.098 824.097 228.619C824.675 229.139 825.403 229.4 826.282 229.4C827.641 229.4 828.703 228.908 829.468 227.923L831.202 229.864C830.673 230.612 829.957 231.198 829.053 231.622C828.15 232.037 827.149 232.244 826.05 232.244ZM825.647 221.404C824.948 221.404 824.378 221.64 823.938 222.112C823.507 222.584 823.23 223.26 823.108 224.139H828.016V223.858C827.999 223.077 827.788 222.474 827.381 222.051C826.974 221.62 826.396 221.404 825.647 221.404ZM840.918 222.1C840.438 222.035 840.015 222.002 839.649 222.002C838.314 222.002 837.439 222.454 837.024 223.357V232H833.497V218.792H836.829L836.927 220.367C837.635 219.154 838.615 218.548 839.869 218.548C840.259 218.548 840.625 218.601 840.967 218.707L840.918 222.1Z" fill="black"/>
<rect x="981" y="14" width="230" height="100" fill="#326DE6"/>
<rect x="981" y="138" width="230" height="100" fill="#326DE6"/>
<rect x="391" y="14" width="230" height="100" fill="#326DE6"/>
<rect x="391" y="138" width="230" height="100" fill="#326DE6"/>
<path d="M488.434 73.2441C486.497 73.2441 484.918 72.6501 483.698 71.4619C482.485 70.2738 481.879 68.6909 481.879 66.7134V66.3716C481.879 65.0451 482.135 63.861 482.648 62.8193C483.161 61.7695 483.885 60.9639 484.821 60.4023C485.765 59.8327 486.839 59.5479 488.043 59.5479C489.85 59.5479 491.27 60.1175 492.304 61.2568C493.345 62.3962 493.866 64.0116 493.866 66.103V67.5435H485.456C485.569 68.4061 485.911 69.0978 486.481 69.6187C487.059 70.1395 487.787 70.3999 488.666 70.3999C490.025 70.3999 491.087 69.9076 491.852 68.9229L493.585 70.8638C493.056 71.6125 492.34 72.1984 491.437 72.6216C490.534 73.0366 489.533 73.2441 488.434 73.2441ZM488.031 62.4043C487.331 62.4043 486.762 62.6403 486.322 63.1123C485.891 63.5843 485.614 64.2598 485.492 65.1387H490.399V64.8579C490.383 64.0767 490.172 63.4744 489.765 63.0513C489.358 62.62 488.78 62.4043 488.031 62.4043ZM500.104 56.5449V59.792H502.362V62.3799H500.104V68.9717C500.104 69.46 500.198 69.8099 500.385 70.0215C500.572 70.2331 500.93 70.3389 501.459 70.3389C501.85 70.3389 502.195 70.3104 502.497 70.2534V72.9268C501.805 73.1383 501.093 73.2441 500.36 73.2441C497.886 73.2441 496.625 71.995 496.576 69.4966V62.3799H494.647V59.792H496.576V56.5449H500.104ZM509.821 70.3999C510.472 70.3999 511.001 70.2209 511.408 69.8628C511.815 69.5047 512.026 69.0286 512.042 68.4346H515.351C515.342 69.3298 515.098 70.1517 514.618 70.9004C514.138 71.641 513.479 72.2188 512.641 72.6338C511.811 73.0407 510.891 73.2441 509.882 73.2441C507.994 73.2441 506.505 72.646 505.414 71.4497C504.324 70.2453 503.778 68.5851 503.778 66.4692V66.2373C503.778 64.2028 504.319 62.5793 505.402 61.3667C506.484 60.1541 507.969 59.5479 509.857 59.5479C511.509 59.5479 512.832 60.0199 513.825 60.9639C514.826 61.8997 515.334 63.1489 515.351 64.7114H512.042C512.026 64.0278 511.815 63.4744 511.408 63.0513C511.001 62.62 510.464 62.4043 509.796 62.4043C508.974 62.4043 508.352 62.7054 507.929 63.3076C507.514 63.9017 507.306 64.8701 507.306 66.2129V66.5791C507.306 67.9382 507.514 68.9147 507.929 69.5088C508.344 70.1029 508.974 70.3999 509.821 70.3999ZM516.815 66.2983C516.815 64.2394 517.275 62.5996 518.195 61.3789C519.123 60.1582 520.388 59.5479 521.991 59.5479C523.277 59.5479 524.339 60.028 525.177 60.9883V54.25H528.717V73H525.531L525.36 71.5962C524.481 72.6948 523.35 73.2441 521.967 73.2441C520.412 73.2441 519.163 72.6338 518.219 71.4131C517.283 70.1842 516.815 68.4793 516.815 66.2983ZM520.343 66.5547C520.343 67.7917 520.559 68.7397 520.99 69.3989C521.422 70.0581 522.048 70.3877 522.87 70.3877C523.961 70.3877 524.73 69.9279 525.177 69.0083V63.7959C524.738 62.8763 523.977 62.4165 522.895 62.4165C521.194 62.4165 520.343 63.7959 520.343 66.5547Z" fill="white"/>
<path d="M496.621 192.338H490.2L488.979 196H485.085L491.702 178.227H495.095L501.748 196H497.854L496.621 192.338ZM491.189 189.372H495.632L493.398 182.719L491.189 189.372ZM507.07 189.738V196H503.408V178.227H510.342C511.676 178.227 512.848 178.471 513.857 178.959C514.875 179.447 515.656 180.143 516.201 181.046C516.746 181.942 517.019 182.963 517.019 184.11C517.019 185.852 516.421 187.227 515.225 188.236C514.036 189.237 512.389 189.738 510.281 189.738H507.07ZM507.07 186.771H510.342C511.31 186.771 512.047 186.544 512.551 186.088C513.064 185.632 513.32 184.981 513.32 184.135C513.32 183.264 513.064 182.56 512.551 182.023C512.039 181.486 511.331 181.209 510.427 181.193H507.07V186.771ZM523.44 196H519.778V178.227H523.44V196Z" fill="white"/>
<path d="M1049.8 192.337C1049.8 191.645 1049.56 191.116 1049.07 190.75C1048.58 190.376 1047.7 189.985 1046.43 189.578C1045.16 189.163 1044.16 188.756 1043.42 188.357C1041.4 187.267 1040.39 185.798 1040.39 183.951C1040.39 182.99 1040.66 182.136 1041.2 181.387C1041.74 180.63 1042.52 180.04 1043.53 179.617C1044.55 179.194 1045.69 178.982 1046.95 178.982C1048.22 178.982 1049.35 179.214 1050.34 179.678C1051.33 180.134 1052.1 180.781 1052.65 181.619C1053.2 182.457 1053.48 183.41 1053.48 184.476H1049.82C1049.82 183.662 1049.56 183.031 1049.05 182.583C1048.53 182.128 1047.81 181.9 1046.89 181.9C1045.99 181.9 1045.29 182.091 1044.8 182.474C1044.3 182.848 1044.05 183.344 1044.05 183.963C1044.05 184.541 1044.34 185.025 1044.92 185.416C1045.51 185.806 1046.36 186.172 1047.5 186.514C1049.58 187.141 1051.1 187.918 1052.05 188.846C1053 189.773 1053.48 190.929 1053.48 192.312C1053.48 193.851 1052.9 195.059 1051.73 195.938C1050.57 196.809 1049 197.244 1047.03 197.244C1045.67 197.244 1044.42 196.996 1043.3 196.5C1042.17 195.995 1041.32 195.307 1040.72 194.437C1040.14 193.566 1039.84 192.557 1039.84 191.409H1043.52C1043.52 193.37 1044.69 194.351 1047.03 194.351C1047.9 194.351 1048.58 194.176 1049.07 193.826C1049.56 193.468 1049.8 192.972 1049.8 192.337ZM1061.23 194.4C1061.88 194.4 1062.41 194.221 1062.82 193.863C1063.22 193.505 1063.43 193.029 1063.45 192.435H1066.76C1066.75 193.33 1066.51 194.152 1066.03 194.9C1065.55 195.641 1064.89 196.219 1064.05 196.634C1063.22 197.041 1062.3 197.244 1061.29 197.244C1059.4 197.244 1057.91 196.646 1056.82 195.45C1055.73 194.245 1055.19 192.585 1055.19 190.469V190.237C1055.19 188.203 1055.73 186.579 1056.81 185.367C1057.89 184.154 1059.38 183.548 1061.27 183.548C1062.92 183.548 1064.24 184.02 1065.23 184.964C1066.23 185.9 1066.74 187.149 1066.76 188.711H1063.45C1063.43 188.028 1063.22 187.474 1062.82 187.051C1062.41 186.62 1061.87 186.404 1061.2 186.404C1060.38 186.404 1059.76 186.705 1059.34 187.308C1058.92 187.902 1058.71 188.87 1058.71 190.213V190.579C1058.71 191.938 1058.92 192.915 1059.34 193.509C1059.75 194.103 1060.38 194.4 1061.23 194.4ZM1072.22 185.232C1073.15 184.109 1074.33 183.548 1075.74 183.548C1078.61 183.548 1080.06 185.212 1080.1 188.541V197H1076.57V188.638C1076.57 187.881 1076.41 187.324 1076.08 186.966C1075.76 186.6 1075.22 186.417 1074.46 186.417C1073.43 186.417 1072.68 186.815 1072.22 187.613V197H1068.69V178.25H1072.22V185.232ZM1088.84 197.244C1086.9 197.244 1085.33 196.65 1084.1 195.462C1082.89 194.274 1082.29 192.691 1082.29 190.713V190.372C1082.29 189.045 1082.54 187.861 1083.06 186.819C1083.57 185.77 1084.29 184.964 1085.23 184.402C1086.17 183.833 1087.25 183.548 1088.45 183.548C1090.26 183.548 1091.68 184.118 1092.71 185.257C1093.75 186.396 1094.27 188.012 1094.27 190.103V191.543H1085.86C1085.98 192.406 1086.32 193.098 1086.89 193.619C1087.47 194.139 1088.19 194.4 1089.07 194.4C1090.43 194.4 1091.49 193.908 1092.26 192.923L1093.99 194.864C1093.46 195.612 1092.75 196.198 1091.84 196.622C1090.94 197.037 1089.94 197.244 1088.84 197.244ZM1088.44 186.404C1087.74 186.404 1087.17 186.64 1086.73 187.112C1086.3 187.584 1086.02 188.26 1085.9 189.139H1090.81V188.858C1090.79 188.077 1090.58 187.474 1090.17 187.051C1089.76 186.62 1089.19 186.404 1088.44 186.404ZM1095.74 190.298C1095.74 188.239 1096.2 186.6 1097.12 185.379C1098.05 184.158 1099.31 183.548 1100.91 183.548C1102.2 183.548 1103.26 184.028 1104.1 184.988V178.25H1107.64V197H1104.45L1104.28 195.596C1103.4 196.695 1102.27 197.244 1100.89 197.244C1099.34 197.244 1098.09 196.634 1097.14 195.413C1096.21 194.184 1095.74 192.479 1095.74 190.298ZM1099.27 190.555C1099.27 191.792 1099.48 192.74 1099.91 193.399C1100.34 194.058 1100.97 194.388 1101.79 194.388C1102.88 194.388 1103.65 193.928 1104.1 193.008V187.796C1103.66 186.876 1102.9 186.417 1101.82 186.417C1100.12 186.417 1099.27 187.796 1099.27 190.555ZM1118.28 195.657C1117.41 196.715 1116.21 197.244 1114.67 197.244C1113.26 197.244 1112.17 196.837 1111.42 196.023C1110.68 195.21 1110.31 194.017 1110.29 192.447V183.792H1113.82V192.325C1113.82 193.7 1114.44 194.388 1115.7 194.388C1116.89 194.388 1117.72 193.973 1118.16 193.143V183.792H1121.7V197H1118.38L1118.28 195.657ZM1128.09 197H1124.55V178.25H1128.09V197ZM1137.08 197.244C1135.15 197.244 1133.57 196.65 1132.35 195.462C1131.13 194.274 1130.53 192.691 1130.53 190.713V190.372C1130.53 189.045 1130.78 187.861 1131.3 186.819C1131.81 185.77 1132.53 184.964 1133.47 184.402C1134.41 183.833 1135.49 183.548 1136.69 183.548C1138.5 183.548 1139.92 184.118 1140.95 185.257C1141.99 186.396 1142.52 188.012 1142.52 190.103V191.543H1134.1C1134.22 192.406 1134.56 193.098 1135.13 193.619C1135.71 194.139 1136.44 194.4 1137.32 194.4C1138.67 194.4 1139.74 193.908 1140.5 192.923L1142.23 194.864C1141.71 195.612 1140.99 196.198 1140.09 196.622C1139.18 197.037 1138.18 197.244 1137.08 197.244ZM1136.68 186.404C1135.98 186.404 1135.41 186.64 1134.97 187.112C1134.54 187.584 1134.26 188.26 1134.14 189.139H1139.05V188.858C1139.03 188.077 1138.82 187.474 1138.41 187.051C1138.01 186.62 1137.43 186.404 1136.68 186.404ZM1151.95 187.1C1151.47 187.035 1151.05 187.002 1150.68 187.002C1149.35 187.002 1148.47 187.454 1148.06 188.357V197H1144.53V183.792H1147.86L1147.96 185.367C1148.67 184.154 1149.65 183.548 1150.9 183.548C1151.29 183.548 1151.66 183.601 1152 183.707L1151.95 187.1Z" fill="white"/>
<path d="M1055.68 52.0796C1055.54 53.992 1054.83 55.4976 1053.56 56.5962C1052.29 57.6948 1050.61 58.2441 1048.53 58.2441C1046.25 58.2441 1044.45 57.4792 1043.14 55.9492C1041.84 54.4111 1041.19 52.3034 1041.19 49.626V48.5396C1041.19 46.8306 1041.49 45.325 1042.09 44.0229C1042.7 42.7209 1043.55 41.724 1044.67 41.0322C1045.79 40.3324 1047.09 39.9824 1048.58 39.9824C1050.63 39.9824 1052.28 40.5317 1053.53 41.6304C1054.78 42.729 1055.51 44.2712 1055.7 46.2568H1052.04C1051.95 45.1094 1051.63 44.2793 1051.08 43.7666C1050.53 43.2458 1049.7 42.9854 1048.58 42.9854C1047.35 42.9854 1046.44 43.4248 1045.83 44.3037C1045.23 45.1745 1044.92 46.5295 1044.9 48.3687V49.7114C1044.9 51.632 1045.19 53.0358 1045.77 53.9229C1046.35 54.8099 1047.27 55.2534 1048.53 55.2534C1049.66 55.2534 1050.5 54.9971 1051.05 54.4844C1051.62 53.9635 1051.94 53.1619 1052.02 52.0796H1055.68ZM1057.3 51.2739C1057.3 49.9637 1057.56 48.7959 1058.06 47.7705C1058.57 46.7451 1059.29 45.9517 1060.23 45.3901C1061.19 44.8286 1062.29 44.5479 1063.54 44.5479C1065.32 44.5479 1066.78 45.0931 1067.9 46.1836C1069.03 47.2741 1069.66 48.7552 1069.79 50.627L1069.82 51.5303C1069.82 53.5566 1069.25 55.1842 1068.12 56.4131C1066.99 57.6338 1065.47 58.2441 1063.57 58.2441C1061.66 58.2441 1060.14 57.6338 1059 56.4131C1057.87 55.1924 1057.3 53.5322 1057.3 51.4326V51.2739ZM1060.83 51.5303C1060.83 52.7835 1061.07 53.7438 1061.54 54.4111C1062.01 55.0703 1062.69 55.3999 1063.57 55.3999C1064.42 55.3999 1065.09 55.0744 1065.57 54.4233C1066.05 53.7642 1066.29 52.7144 1066.29 51.2739C1066.29 50.0451 1066.05 49.0929 1065.57 48.4175C1065.09 47.742 1064.41 47.4043 1063.54 47.4043C1062.68 47.4043 1062.01 47.742 1061.54 48.4175C1061.07 49.0848 1060.83 50.1224 1060.83 51.5303ZM1075.24 44.792L1075.35 46.3179C1076.29 45.1379 1077.56 44.5479 1079.14 44.5479C1080.54 44.5479 1081.58 44.9588 1082.27 45.7808C1082.95 46.6027 1083.3 47.8315 1083.32 49.4673V58H1079.79V49.5527C1079.79 48.804 1079.63 48.2629 1079.3 47.9292C1078.98 47.5874 1078.43 47.4165 1077.68 47.4165C1076.68 47.4165 1075.94 47.8397 1075.44 48.686V58H1071.92V44.792H1075.24ZM1090.23 41.5449V44.792H1092.48V47.3799H1090.23V53.9717C1090.23 54.46 1090.32 54.8099 1090.51 55.0215C1090.69 55.2331 1091.05 55.3389 1091.58 55.3389C1091.97 55.3389 1092.32 55.3104 1092.62 55.2534V57.9268C1091.93 58.1383 1091.21 58.2441 1090.48 58.2441C1088.01 58.2441 1086.75 56.995 1086.7 54.4966V47.3799H1084.77V44.792H1086.7V41.5449H1090.23ZM1101.87 48.1001C1101.39 48.035 1100.97 48.0024 1100.6 48.0024C1099.27 48.0024 1098.39 48.4541 1097.98 49.3574V58H1094.45V44.792H1097.78L1097.88 46.3667C1098.59 45.1541 1099.57 44.5479 1100.82 44.5479C1101.21 44.5479 1101.58 44.6007 1101.92 44.7065L1101.87 48.1001ZM1102.59 51.2739C1102.59 49.9637 1102.84 48.7959 1103.35 47.7705C1103.85 46.7451 1104.58 45.9517 1105.52 45.3901C1106.47 44.8286 1107.58 44.5479 1108.83 44.5479C1110.61 44.5479 1112.06 45.0931 1113.19 46.1836C1114.32 47.2741 1114.95 48.7552 1115.08 50.627L1115.1 51.5303C1115.1 53.5566 1114.54 55.1842 1113.41 56.4131C1112.28 57.6338 1110.76 58.2441 1108.85 58.2441C1106.95 58.2441 1105.43 57.6338 1104.29 56.4131C1103.16 55.1924 1102.59 53.5322 1102.59 51.4326V51.2739ZM1106.12 51.5303C1106.12 52.7835 1106.36 53.7438 1106.83 54.4111C1107.3 55.0703 1107.98 55.3999 1108.85 55.3999C1109.71 55.3999 1110.38 55.0744 1110.86 54.4233C1111.34 53.7642 1111.58 52.7144 1111.58 51.2739C1111.58 50.0451 1111.34 49.0929 1110.86 48.4175C1110.38 47.742 1109.7 47.4043 1108.83 47.4043C1107.97 47.4043 1107.3 47.742 1106.83 48.4175C1106.36 49.0848 1106.12 50.1224 1106.12 51.5303ZM1121 58H1117.46V39.25H1121V58ZM1127.64 58H1124.1V39.25H1127.64V58ZM1136.64 58.2441C1134.7 58.2441 1133.12 57.6501 1131.9 56.4619C1130.69 55.2738 1130.08 53.6909 1130.08 51.7134V51.3716C1130.08 50.0451 1130.34 48.861 1130.85 47.8193C1131.36 46.7695 1132.09 45.9639 1133.02 45.4023C1133.97 44.8327 1135.04 44.5479 1136.25 44.5479C1138.05 44.5479 1139.47 45.1175 1140.51 46.2568C1141.55 47.3962 1142.07 49.0116 1142.07 51.103V52.5435H1133.66C1133.77 53.4061 1134.11 54.0978 1134.68 54.6187C1135.26 55.1395 1135.99 55.3999 1136.87 55.3999C1138.23 55.3999 1139.29 54.9076 1140.06 53.9229L1141.79 55.8638C1141.26 56.6125 1140.54 57.1984 1139.64 57.6216C1138.74 58.0366 1137.74 58.2441 1136.64 58.2441ZM1136.23 47.4043C1135.53 47.4043 1134.96 47.6403 1134.53 48.1123C1134.09 48.5843 1133.82 49.2598 1133.7 50.1387H1138.6V49.8579C1138.59 49.0767 1138.37 48.4744 1137.97 48.0513C1137.56 47.62 1136.98 47.4043 1136.23 47.4043ZM1151.51 48.1001C1151.03 48.035 1150.6 48.0024 1150.24 48.0024C1148.9 48.0024 1148.03 48.4541 1147.61 49.3574V58H1144.08V44.792H1147.42L1147.51 46.3667C1148.22 45.1541 1149.2 44.5479 1150.46 44.5479C1150.85 44.5479 1151.21 44.6007 1151.55 44.7065L1151.51 48.1001ZM1052.54 69.2266L1057.11 82.1172L1061.65 69.2266H1066.46V87H1062.78V82.1416L1063.15 73.7554L1058.35 87H1055.84L1051.05 73.7676L1051.42 82.1416V87H1047.76V69.2266H1052.54ZM1077.08 87C1076.92 86.6826 1076.8 86.2879 1076.73 85.8159C1075.87 86.7681 1074.76 87.2441 1073.39 87.2441C1072.1 87.2441 1071.02 86.8698 1070.17 86.1211C1069.32 85.3724 1068.9 84.4284 1068.9 83.2891C1068.9 81.8893 1069.42 80.8151 1070.45 80.0664C1071.49 79.3177 1072.99 78.9393 1074.96 78.9312H1076.58V78.1743C1076.58 77.564 1076.42 77.0757 1076.1 76.7095C1075.79 76.3433 1075.3 76.1602 1074.63 76.1602C1074.03 76.1602 1073.56 76.3026 1073.22 76.5874C1072.89 76.8722 1072.72 77.2629 1072.72 77.7593H1069.19C1069.19 76.9943 1069.43 76.2863 1069.9 75.6353C1070.37 74.9842 1071.04 74.4756 1071.9 74.1094C1072.77 73.735 1073.73 73.5479 1074.81 73.5479C1076.44 73.5479 1077.73 73.9588 1078.68 74.7808C1079.64 75.5946 1080.12 76.742 1080.12 78.2231V83.9482C1080.13 85.2015 1080.3 86.1496 1080.64 86.7925V87H1077.08ZM1074.16 84.5464C1074.68 84.5464 1075.16 84.4325 1075.6 84.2046C1076.04 83.9686 1076.37 83.6553 1076.58 83.2646V80.9941H1075.26C1073.49 80.9941 1072.55 81.6045 1072.44 82.8252L1072.43 83.0327C1072.43 83.4722 1072.58 83.8343 1072.89 84.1191C1073.2 84.404 1073.62 84.5464 1074.16 84.5464ZM1086.08 73.792L1086.19 75.3179C1087.13 74.1379 1088.4 73.5479 1089.98 73.5479C1091.38 73.5479 1092.42 73.9588 1093.11 74.7808C1093.79 75.6027 1094.14 76.8315 1094.16 78.4673V87H1090.63V78.5527C1090.63 77.804 1090.47 77.2629 1090.14 76.9292C1089.82 76.5874 1089.27 76.4165 1088.52 76.4165C1087.52 76.4165 1086.78 76.8397 1086.28 77.686V87H1082.76V73.792H1086.08ZM1104.5 87C1104.33 86.6826 1104.22 86.2879 1104.14 85.8159C1103.29 86.7681 1102.18 87.2441 1100.81 87.2441C1099.52 87.2441 1098.44 86.8698 1097.59 86.1211C1096.74 85.3724 1096.32 84.4284 1096.32 83.2891C1096.32 81.8893 1096.83 80.8151 1097.87 80.0664C1098.91 79.3177 1100.41 78.9393 1102.37 78.9312H1104V78.1743C1104 77.564 1103.84 77.0757 1103.52 76.7095C1103.21 76.3433 1102.72 76.1602 1102.04 76.1602C1101.45 76.1602 1100.98 76.3026 1100.64 76.5874C1100.31 76.8722 1100.14 77.2629 1100.14 77.7593H1096.61C1096.61 76.9943 1096.85 76.2863 1097.32 75.6353C1097.79 74.9842 1098.46 74.4756 1099.32 74.1094C1100.18 73.735 1101.15 73.5479 1102.23 73.5479C1103.85 73.5479 1105.14 73.9588 1106.1 74.7808C1107.06 75.5946 1107.54 76.742 1107.54 78.2231V83.9482C1107.54 85.2015 1107.72 86.1496 1108.06 86.7925V87H1104.5ZM1101.58 84.5464C1102.1 84.5464 1102.58 84.4325 1103.02 84.2046C1103.46 83.9686 1103.78 83.6553 1104 83.2646V80.9941H1102.68C1100.91 80.9941 1099.97 81.6045 1099.86 82.8252L1099.85 83.0327C1099.85 83.4722 1100 83.8343 1100.31 84.1191C1100.62 84.404 1101.04 84.5464 1101.58 84.5464ZM1109.73 80.2983C1109.73 78.272 1110.21 76.6403 1111.17 75.4033C1112.14 74.1663 1113.44 73.5479 1115.08 73.5479C1116.53 73.5479 1117.66 74.0443 1118.46 75.0371L1118.61 73.792H1121.81V86.5605C1121.81 87.7161 1121.54 88.7212 1121.01 89.5757C1120.49 90.4302 1119.75 91.0812 1118.8 91.5288C1117.85 91.9764 1116.74 92.2002 1115.46 92.2002C1114.49 92.2002 1113.55 92.0049 1112.63 91.6143C1111.71 91.2318 1111.01 90.7354 1110.54 90.125L1112.1 87.9766C1112.98 88.9613 1114.05 89.4536 1115.3 89.4536C1116.24 89.4536 1116.96 89.2013 1117.48 88.6968C1118.01 88.2004 1118.27 87.4924 1118.27 86.5728V85.8647C1117.45 86.7843 1116.38 87.2441 1115.06 87.2441C1113.47 87.2441 1112.18 86.6257 1111.2 85.3887C1110.22 84.1436 1109.73 82.4956 1109.73 80.4448V80.2983ZM1113.26 80.5547C1113.26 81.751 1113.5 82.6909 1113.98 83.3745C1114.46 84.05 1115.12 84.3877 1115.96 84.3877C1117.03 84.3877 1117.8 83.9849 1118.27 83.1792V77.625C1117.79 76.8193 1117.03 76.4165 1115.98 76.4165C1115.14 76.4165 1114.47 76.7624 1113.98 77.4541C1113.5 78.1458 1113.26 79.1794 1113.26 80.5547ZM1130.61 87.2441C1128.67 87.2441 1127.09 86.6501 1125.87 85.4619C1124.66 84.2738 1124.05 82.6909 1124.05 80.7134V80.3716C1124.05 79.0451 1124.31 77.861 1124.82 76.8193C1125.33 75.7695 1126.06 74.9639 1126.99 74.4023C1127.94 73.8327 1129.01 73.5479 1130.22 73.5479C1132.02 73.5479 1133.44 74.1175 1134.48 75.2568C1135.52 76.3962 1136.04 78.0116 1136.04 80.103V81.5435H1127.63C1127.74 82.4061 1128.08 83.0978 1128.65 83.6187C1129.23 84.1395 1129.96 84.3999 1130.84 84.3999C1132.2 84.3999 1133.26 83.9076 1134.02 82.9229L1135.76 84.8638C1135.23 85.6125 1134.51 86.1984 1133.61 86.6216C1132.71 87.0366 1131.71 87.2441 1130.61 87.2441ZM1130.2 76.4043C1129.5 76.4043 1128.93 76.6403 1128.5 77.1123C1128.06 77.5843 1127.79 78.2598 1127.67 79.1387H1132.57V78.8579C1132.56 78.0767 1132.34 77.4744 1131.94 77.0513C1131.53 76.62 1130.95 76.4043 1130.2 76.4043ZM1145.48 77.1001C1144.99 77.035 1144.57 77.0024 1144.21 77.0024C1142.87 77.0024 1142 77.4541 1141.58 78.3574V87H1138.05V73.792H1141.39L1141.48 75.3667C1142.19 74.1541 1143.17 73.5479 1144.43 73.5479C1144.82 73.5479 1145.18 73.6007 1145.52 73.7065L1145.48 77.1001Z" fill="white"/>
<path d="M370.754 190.812C371.738 189.844 371.75 188.261 370.781 187.277L354.995 171.244C354.026 170.26 352.444 170.248 351.46 171.217C350.476 172.186 350.464 173.768 351.432 174.752L365.464 189.004L351.213 203.036C350.229 204.004 350.217 205.587 351.186 206.571C352.154 207.555 353.737 207.567 354.721 206.599L370.754 190.812ZM235.981 190.5L368.98 191.531L369.019 186.531L236.019 185.5L235.981 190.5Z" fill="black"/>
<line x1="621" y1="64.5" x2="673" y2="64.5" stroke="black"/>
<line x1="621" y1="187.5" x2="673" y2="187.5" stroke="black"/>
<line x1="929" y1="187.5" x2="981" y2="187.5" stroke="black"/>
<line x1="929" y1="64.5" x2="981" y2="64.5" stroke="black"/>
<path fill-rule="evenodd" clip-rule="evenodd" d="M170.625 116.188H24.375C21.1427 116.188 18.0427 117.472 15.7571 119.757C13.4715 122.043 12.1875 125.143 12.1875 128.375V250.25C12.1875 253.482 13.4715 256.582 15.7571 258.868C18.0427 261.153 21.1427 262.438 24.375 262.438H170.625C173.857 262.438 176.957 261.153 179.243 258.868C181.528 256.582 182.812 253.482 182.812 250.25V128.375C182.812 125.143 181.528 122.043 179.243 119.757C176.957 117.472 173.857 116.188 170.625 116.188V116.188ZM24.375 104C17.9103 104 11.7105 106.568 7.13927 111.139C2.56807 115.71 0 121.91 0 128.375L0 250.25C0 256.715 2.56807 262.915 7.13927 267.486C11.7105 272.057 17.9103 274.625 24.375 274.625H170.625C177.09 274.625 183.29 272.057 187.861 267.486C192.432 262.915 195 256.715 195 250.25V128.375C195 121.91 192.432 115.71 187.861 111.139C183.29 106.568 177.09 104 170.625 104H24.375Z" fill="black"/>
<path fill-rule="evenodd" clip-rule="evenodd" d="M73.1249 201.5C73.1249 199.884 73.7669 198.334 74.9097 197.191C76.0525 196.048 77.6025 195.406 79.2187 195.406H115.781C117.397 195.406 118.947 196.048 120.09 197.191C121.233 198.334 121.875 199.884 121.875 201.5C121.875 203.116 121.233 204.666 120.09 205.809C118.947 206.952 117.397 207.594 115.781 207.594H79.2187C77.6025 207.594 76.0525 206.952 74.9097 205.809C73.7669 204.666 73.1249 203.116 73.1249 201.5ZM38.3418 142.342C38.9078 141.774 39.5803 141.324 40.3206 141.017C41.061 140.71 41.8546 140.552 42.6562 140.552C43.4577 140.552 44.2514 140.71 44.9917 141.017C45.732 141.324 46.4045 141.774 46.9705 142.342L71.3455 166.717C71.913 167.283 72.3633 167.955 72.6705 168.696C72.9777 169.436 73.1358 170.23 73.1358 171.031C73.1358 171.833 72.9777 172.626 72.6705 173.367C72.3633 174.107 71.913 174.78 71.3455 175.346L46.9705 199.721C45.8263 200.865 44.2744 201.508 42.6562 201.508C41.038 201.508 39.486 200.865 38.3418 199.721C37.1975 198.576 36.5547 197.024 36.5547 195.406C36.5547 193.788 37.1975 192.236 38.3418 191.092L58.4146 171.031L38.3418 150.971C37.7743 150.405 37.3241 149.732 37.0168 148.992C36.7096 148.251 36.5515 147.458 36.5515 146.656C36.5515 145.855 36.7096 145.061 37.0168 144.321C37.3241 143.58 37.7743 142.908 38.3418 142.342V142.342Z" fill="black"/>
<path d="M45.6133 242.583L43.8359 244.36V250H38.897V223.75H43.8359V238.293L44.793 237.063L49.5269 231.509H55.457L48.7749 239.216L56.0381 250H50.3643L45.6133 242.583ZM68.6675 248.12C67.4484 249.601 65.7622 250.342 63.6089 250.342C61.6265 250.342 60.1112 249.772 59.063 248.633C58.0262 247.493 57.4964 245.824 57.4736 243.625V231.509H62.4126V243.455C62.4126 245.38 63.2899 246.343 65.0444 246.343C66.7192 246.343 67.87 245.762 68.4966 244.6V231.509H73.4526V250H68.8042L68.6675 248.12ZM93.8408 240.925C93.8408 243.888 93.2085 246.2 91.9438 247.864C90.6792 249.516 88.9132 250.342 86.646 250.342C84.6408 250.342 83.04 249.573 81.8438 248.035L81.6216 250H77.1782V223.75H82.1172V233.167C83.2565 231.833 84.7547 231.167 86.6118 231.167C88.8677 231.167 90.6336 231.999 91.9097 233.662C93.1971 235.314 93.8408 237.644 93.8408 240.652V240.925ZM88.9019 240.566C88.9019 238.698 88.6056 237.336 88.0132 236.482C87.4207 235.616 86.5378 235.183 85.3643 235.183C83.792 235.183 82.7096 235.827 82.1172 237.114V244.412C82.721 245.71 83.8148 246.36 85.3984 246.36C86.9935 246.36 88.0417 245.574 88.543 244.001C88.7822 243.25 88.9019 242.104 88.9019 240.566ZM105.411 250.342C102.699 250.342 100.489 249.51 98.7798 247.847C97.0822 246.183 96.2334 243.967 96.2334 241.199V240.72C96.2334 238.863 96.5923 237.205 97.3101 235.747C98.0278 234.277 99.0418 233.149 100.352 232.363C101.674 231.566 103.178 231.167 104.864 231.167C107.393 231.167 109.381 231.965 110.828 233.56C112.286 235.155 113.016 237.416 113.016 240.344V242.361H101.241C101.4 243.569 101.879 244.537 102.676 245.266C103.485 245.995 104.505 246.36 105.735 246.36C107.638 246.36 109.125 245.671 110.196 244.292L112.623 247.009C111.882 248.057 110.879 248.878 109.615 249.47C108.35 250.051 106.949 250.342 105.411 250.342ZM104.847 235.166C103.867 235.166 103.069 235.496 102.454 236.157C101.85 236.818 101.463 237.764 101.292 238.994H108.162V238.601C108.139 237.507 107.843 236.664 107.273 236.072C106.704 235.468 105.895 235.166 104.847 235.166ZM123.526 246.36C124.437 246.36 125.178 246.109 125.748 245.608C126.317 245.107 126.613 244.44 126.636 243.608H131.268C131.256 244.862 130.914 246.012 130.242 247.061C129.57 248.097 128.647 248.906 127.474 249.487C126.312 250.057 125.024 250.342 123.611 250.342C120.968 250.342 118.883 249.504 117.356 247.83C115.83 246.143 115.066 243.819 115.066 240.857V240.532C115.066 237.684 115.824 235.411 117.339 233.713C118.855 232.016 120.934 231.167 123.577 231.167C125.89 231.167 127.741 231.828 129.131 233.149C130.533 234.46 131.245 236.208 131.268 238.396H126.636C126.613 237.439 126.317 236.664 125.748 236.072C125.178 235.468 124.426 235.166 123.492 235.166C122.341 235.166 121.469 235.588 120.877 236.431C120.296 237.262 120.005 238.618 120.005 240.498V241.011C120.005 242.913 120.296 244.281 120.877 245.112C121.458 245.944 122.341 246.36 123.526 246.36ZM140 226.963V231.509H143.162V235.132H140V244.36C140 245.044 140.132 245.534 140.394 245.83C140.656 246.126 141.157 246.274 141.897 246.274C142.444 246.274 142.929 246.235 143.35 246.155V249.897C142.382 250.194 141.385 250.342 140.359 250.342C136.896 250.342 135.13 248.593 135.062 245.095V235.132H132.361V231.509H135.062V226.963H140ZM151.126 250H146.17V223.75H151.126V250Z" fill="black"/>
</svg>
