<svg width="617" height="532" viewBox="0 0 617 532" fill="none" xmlns="http://www.w3.org/2000/svg">
<rect y="282" width="250" height="250" fill="#C4C4C4"/>
<path d="M106.376 327H101.25L91.269 310.628V327H86.1421V302.117H91.269L101.267 318.523V302.117H106.376V327ZM109.76 317.583C109.76 315.749 110.113 314.114 110.82 312.679C111.526 311.243 112.54 310.132 113.862 309.346C115.195 308.56 116.739 308.167 118.493 308.167C120.988 308.167 123.022 308.93 124.594 310.457C126.178 311.984 127.061 314.057 127.243 316.678L127.277 317.942C127.277 320.779 126.486 323.058 124.902 324.778C123.318 326.487 121.193 327.342 118.527 327.342C115.861 327.342 113.731 326.487 112.136 324.778C110.552 323.069 109.76 320.745 109.76 317.806V317.583ZM114.699 317.942C114.699 319.697 115.03 321.041 115.69 321.976C116.351 322.898 117.297 323.36 118.527 323.36C119.724 323.36 120.658 322.904 121.33 321.993C122.002 321.07 122.338 319.6 122.338 317.583C122.338 315.863 122.002 314.53 121.33 313.584C120.658 312.639 119.712 312.166 118.493 312.166C117.285 312.166 116.351 312.639 115.69 313.584C115.03 314.519 114.699 315.971 114.699 317.942ZM129.55 317.618C129.55 314.735 130.194 312.439 131.481 310.73C132.78 309.021 134.552 308.167 136.796 308.167C138.597 308.167 140.083 308.839 141.257 310.184V300.75H146.213V327H141.752L141.513 325.035C140.283 326.573 138.699 327.342 136.762 327.342C134.586 327.342 132.837 326.487 131.516 324.778C130.205 323.058 129.55 320.671 129.55 317.618ZM134.489 317.977C134.489 319.708 134.791 321.036 135.395 321.958C135.999 322.881 136.876 323.343 138.027 323.343C139.554 323.343 140.63 322.699 141.257 321.412V314.114C140.642 312.827 139.576 312.183 138.061 312.183C135.68 312.183 134.489 314.114 134.489 317.977ZM158.552 327.342C155.84 327.342 153.63 326.51 151.921 324.847C150.223 323.183 149.375 320.967 149.375 318.199V317.72C149.375 315.863 149.733 314.205 150.451 312.747C151.169 311.277 152.183 310.149 153.493 309.363C154.815 308.566 156.319 308.167 158.005 308.167C160.534 308.167 162.522 308.965 163.969 310.56C165.428 312.155 166.157 314.416 166.157 317.344V319.361H154.382C154.541 320.569 155.02 321.537 155.817 322.266C156.626 322.995 157.646 323.36 158.876 323.36C160.779 323.36 162.266 322.671 163.337 321.292L165.764 324.009C165.023 325.057 164.021 325.878 162.756 326.47C161.491 327.051 160.09 327.342 158.552 327.342ZM157.988 312.166C157.008 312.166 156.21 312.496 155.595 313.157C154.991 313.818 154.604 314.764 154.433 315.994H161.303V315.601C161.28 314.507 160.984 313.664 160.415 313.072C159.845 312.468 159.036 312.166 157.988 312.166ZM56.9526 358.925C56.9526 361.774 56.3032 364.058 55.0044 365.778C53.717 367.487 51.9738 368.342 49.7749 368.342C47.9064 368.342 46.3968 367.692 45.2461 366.394V375.109H40.3071V349.509H44.8872L45.0581 351.32C46.2544 349.885 47.8153 349.167 49.7407 349.167C52.0194 349.167 53.791 350.01 55.0557 351.696C56.3203 353.382 56.9526 355.707 56.9526 358.669V358.925ZM52.0137 358.566C52.0137 356.846 51.7061 355.519 51.0908 354.584C50.487 353.65 49.604 353.183 48.4419 353.183C46.8924 353.183 45.8271 353.776 45.2461 354.96V362.531C45.8499 363.75 46.9266 364.36 48.4761 364.36C50.8345 364.36 52.0137 362.429 52.0137 358.566ZM59.2598 358.583C59.2598 356.749 59.613 355.114 60.3193 353.679C61.0257 352.243 62.0397 351.132 63.3613 350.346C64.6943 349.56 66.2381 349.167 67.9927 349.167C70.4878 349.167 72.5215 349.93 74.0938 351.457C75.6774 352.984 76.5604 355.057 76.7427 357.678L76.7769 358.942C76.7769 361.779 75.985 364.058 74.4014 365.778C72.8177 367.487 70.6929 368.342 68.0269 368.342C65.3608 368.342 63.2303 367.487 61.6353 365.778C60.0516 364.069 59.2598 361.745 59.2598 358.806V358.583ZM64.1987 358.942C64.1987 360.697 64.5291 362.041 65.1899 362.976C65.8507 363.898 66.7964 364.36 68.0269 364.36C69.2231 364.36 70.1574 363.904 70.8296 362.993C71.5018 362.07 71.8379 360.6 71.8379 358.583C71.8379 356.863 71.5018 355.53 70.8296 354.584C70.1574 353.639 69.2118 353.166 67.9927 353.166C66.785 353.166 65.8507 353.639 65.1899 354.584C64.5291 355.519 64.1987 356.971 64.1987 358.942ZM90.2095 354.14C89.5373 354.049 88.9448 354.003 88.4321 354.003C86.5636 354.003 85.3389 354.636 84.7578 355.9V368H79.8188V349.509H84.4844L84.6211 351.713C85.6123 350.016 86.9852 349.167 88.7397 349.167C89.2866 349.167 89.7993 349.241 90.2778 349.389L90.2095 354.14ZM99.3696 344.963V349.509H102.531V353.132H99.3696V362.36C99.3696 363.044 99.5007 363.534 99.7627 363.83C100.025 364.126 100.526 364.274 101.267 364.274C101.813 364.274 102.298 364.235 102.719 364.155V367.897C101.751 368.194 100.754 368.342 99.7285 368.342C96.265 368.342 94.499 366.593 94.4307 363.095V353.132H91.7305V349.509H94.4307V344.963H99.3696ZM118.818 353.371H121.45C122.703 353.371 123.632 353.058 124.235 352.431C124.839 351.805 125.141 350.973 125.141 349.936C125.141 348.933 124.839 348.153 124.235 347.595C123.643 347.036 122.823 346.757 121.774 346.757C120.829 346.757 120.037 347.019 119.399 347.543C118.761 348.056 118.442 348.728 118.442 349.56H113.503C113.503 348.261 113.85 347.099 114.545 346.074C115.252 345.037 116.232 344.228 117.485 343.647C118.75 343.066 120.139 342.775 121.655 342.775C124.287 342.775 126.349 343.408 127.841 344.672C129.334 345.926 130.08 347.657 130.08 349.868C130.08 351.007 129.733 352.055 129.038 353.012C128.343 353.969 127.431 354.704 126.303 355.217C127.705 355.718 128.747 356.47 129.431 357.473C130.126 358.475 130.473 359.66 130.473 361.027C130.473 363.238 129.664 365.009 128.046 366.342C126.44 367.675 124.309 368.342 121.655 368.342C119.171 368.342 117.137 367.687 115.554 366.376C113.981 365.066 113.195 363.334 113.195 361.181H118.134C118.134 362.115 118.482 362.879 119.177 363.471C119.883 364.064 120.749 364.36 121.774 364.36C122.948 364.36 123.865 364.052 124.526 363.437C125.198 362.81 125.534 361.984 125.534 360.959C125.534 358.475 124.167 357.233 121.433 357.233H118.818V353.371ZM150.639 357.712C150.639 361.153 149.927 363.785 148.503 365.607C147.079 367.43 144.994 368.342 142.248 368.342C139.536 368.342 137.463 367.447 136.027 365.659C134.592 363.87 133.857 361.306 133.823 357.968V353.388C133.823 349.913 134.541 347.276 135.976 345.476C137.423 343.675 139.502 342.775 142.214 342.775C144.925 342.775 146.999 343.67 148.435 345.458C149.87 347.236 150.605 349.794 150.639 353.132V357.712ZM145.7 352.688C145.7 350.625 145.415 349.127 144.846 348.193C144.287 347.247 143.41 346.774 142.214 346.774C141.052 346.774 140.192 347.224 139.633 348.125C139.086 349.013 138.796 350.409 138.762 352.312V358.361C138.762 360.389 139.035 361.899 139.582 362.89C140.14 363.87 141.029 364.36 142.248 364.36C143.456 364.36 144.327 363.887 144.863 362.941C145.398 361.996 145.677 360.549 145.7 358.601V352.688ZM165.986 368H161.047V348.962L155.151 350.791V346.774L165.456 343.083H165.986V368ZM190.834 357.712C190.834 361.153 190.122 363.785 188.698 365.607C187.274 367.43 185.189 368.342 182.443 368.342C179.732 368.342 177.658 367.447 176.223 365.659C174.787 363.87 174.052 361.306 174.018 357.968V353.388C174.018 349.913 174.736 347.276 176.171 345.476C177.618 343.675 179.698 342.775 182.409 342.775C185.121 342.775 187.194 343.67 188.63 345.458C190.065 347.236 190.8 349.794 190.834 353.132V357.712ZM185.896 352.688C185.896 350.625 185.611 349.127 185.041 348.193C184.483 347.247 183.605 346.774 182.409 346.774C181.247 346.774 180.387 347.224 179.829 348.125C179.282 349.013 178.991 350.409 178.957 352.312V358.361C178.957 360.389 179.23 361.899 179.777 362.89C180.336 363.87 181.224 364.36 182.443 364.36C183.651 364.36 184.523 363.887 185.058 362.941C185.594 361.996 185.873 360.549 185.896 358.601V352.688ZM210.932 357.712C210.932 361.153 210.22 363.785 208.796 365.607C207.372 367.43 205.287 368.342 202.541 368.342C199.829 368.342 197.756 367.447 196.32 365.659C194.885 363.87 194.15 361.306 194.116 357.968V353.388C194.116 349.913 194.833 347.276 196.269 345.476C197.716 343.675 199.795 342.775 202.507 342.775C205.218 342.775 207.292 343.67 208.728 345.458C210.163 347.236 210.898 349.794 210.932 353.132V357.712ZM205.993 352.688C205.993 350.625 205.708 349.127 205.139 348.193C204.58 347.247 203.703 346.774 202.507 346.774C201.345 346.774 200.485 347.224 199.926 348.125C199.379 349.013 199.089 350.409 199.055 352.312V358.361C199.055 360.389 199.328 361.899 199.875 362.89C200.433 363.87 201.322 364.36 202.541 364.36C203.749 364.36 204.62 363.887 205.156 362.941C205.691 361.996 205.97 360.549 205.993 358.601V352.688Z" fill="black"/>
<rect x="188" width="230" height="100" fill="#2396ED"/>
<path d="M231.601 41.0581H239.376V44H227.938V26.2266H231.601V41.0581ZM240.707 37.2739C240.707 35.9637 240.959 34.7959 241.464 33.7705C241.968 32.7451 242.693 31.9517 243.637 31.3901C244.589 30.8286 245.692 30.5479 246.945 30.5479C248.727 30.5479 250.18 31.0931 251.303 32.1836C252.434 33.2741 253.065 34.7552 253.195 36.627L253.219 37.5303C253.219 39.5566 252.654 41.1842 251.522 42.4131C250.391 43.6338 248.874 44.2441 246.969 44.2441C245.065 44.2441 243.543 43.6338 242.404 42.4131C241.273 41.1924 240.707 39.5322 240.707 37.4326V37.2739ZM244.235 37.5303C244.235 38.7835 244.471 39.7438 244.943 40.4111C245.415 41.0703 246.09 41.3999 246.969 41.3999C247.824 41.3999 248.491 41.0744 248.971 40.4233C249.451 39.7642 249.691 38.7144 249.691 37.2739C249.691 36.0451 249.451 35.0929 248.971 34.4175C248.491 33.742 247.816 33.4043 246.945 33.4043C246.082 33.4043 245.415 33.742 244.943 34.4175C244.471 35.0848 244.235 36.1224 244.235 37.5303ZM263.046 44C262.883 43.6826 262.765 43.2879 262.692 42.8159C261.837 43.7681 260.727 44.2441 259.359 44.2441C258.065 44.2441 256.991 43.8698 256.137 43.1211C255.29 42.3724 254.867 41.4284 254.867 40.2891C254.867 38.8893 255.384 37.8151 256.417 37.0664C257.459 36.3177 258.961 35.9393 260.922 35.9312H262.545V35.1743C262.545 34.564 262.387 34.0757 262.069 33.7095C261.76 33.3433 261.268 33.1602 260.592 33.1602C259.998 33.1602 259.53 33.3026 259.188 33.5874C258.855 33.8722 258.688 34.2629 258.688 34.7593H255.16C255.16 33.9943 255.396 33.2863 255.868 32.6353C256.34 31.9842 257.007 31.4756 257.87 31.1094C258.733 30.735 259.701 30.5479 260.775 30.5479C262.403 30.5479 263.693 30.9588 264.645 31.7808C265.605 32.5946 266.085 33.742 266.085 35.2231V40.9482C266.094 42.2015 266.269 43.1496 266.61 43.7925V44H263.046ZM260.128 41.5464C260.649 41.5464 261.129 41.4325 261.569 41.2046C262.008 40.9686 262.334 40.6553 262.545 40.2646V37.9941H261.227C259.461 37.9941 258.521 38.6045 258.407 39.8252L258.395 40.0327C258.395 40.4722 258.55 40.8343 258.859 41.1191C259.168 41.404 259.591 41.5464 260.128 41.5464ZM268.246 37.2983C268.246 35.2394 268.706 33.5996 269.625 32.3789C270.553 31.1582 271.819 30.5479 273.422 30.5479C274.708 30.5479 275.77 31.028 276.608 31.9883V25.25H280.148V44H276.962L276.791 42.5962C275.912 43.6948 274.781 44.2441 273.397 44.2441C271.843 44.2441 270.594 43.6338 269.65 42.4131C268.714 41.1842 268.246 39.4793 268.246 37.2983ZM271.774 37.5547C271.774 38.7917 271.99 39.7397 272.421 40.3989C272.852 41.0581 273.479 41.3877 274.301 41.3877C275.391 41.3877 276.16 40.9279 276.608 40.0083V34.7959C276.168 33.8763 275.408 33.4165 274.325 33.4165C272.624 33.4165 271.774 34.7959 271.774 37.5547ZM283.114 44V26.2266H289.34C291.496 26.2266 293.132 26.6416 294.247 27.4717C295.362 28.2936 295.919 29.5021 295.919 31.0972C295.919 31.9679 295.696 32.737 295.248 33.4043C294.8 34.0635 294.178 34.5477 293.38 34.8569C294.292 35.0848 295.008 35.5446 295.529 36.2363C296.058 36.9281 296.322 37.7744 296.322 38.7754C296.322 40.4844 295.777 41.7783 294.687 42.6572C293.596 43.5361 292.042 43.9837 290.023 44H283.114ZM286.776 36.2607V41.0581H289.914C290.776 41.0581 291.448 40.8547 291.928 40.4478C292.416 40.0327 292.66 39.4631 292.66 38.7388C292.66 37.1112 291.818 36.2852 290.133 36.2607H286.776ZM286.776 33.6729H289.486C291.334 33.6403 292.257 32.9038 292.257 31.4634C292.257 30.6577 292.021 30.0799 291.549 29.73C291.085 29.3719 290.349 29.1929 289.34 29.1929H286.776V33.6729ZM306.503 44C306.34 43.6826 306.222 43.2879 306.149 42.8159C305.294 43.7681 304.184 44.2441 302.816 44.2441C301.522 44.2441 300.448 43.8698 299.594 43.1211C298.747 42.3724 298.324 41.4284 298.324 40.2891C298.324 38.8893 298.841 37.8151 299.875 37.0664C300.916 36.3177 302.418 35.9393 304.379 35.9312H306.002V35.1743C306.002 34.564 305.844 34.0757 305.526 33.7095C305.217 33.3433 304.725 33.1602 304.049 33.1602C303.455 33.1602 302.987 33.3026 302.646 33.5874C302.312 33.8722 302.145 34.2629 302.145 34.7593H298.617C298.617 33.9943 298.853 33.2863 299.325 32.6353C299.797 31.9842 300.465 31.4756 301.327 31.1094C302.19 30.735 303.158 30.5479 304.232 30.5479C305.86 30.5479 307.15 30.9588 308.102 31.7808C309.062 32.5946 309.542 33.742 309.542 35.2231V40.9482C309.551 42.2015 309.726 43.1496 310.067 43.7925V44H306.503ZM303.585 41.5464C304.106 41.5464 304.586 41.4325 305.026 41.2046C305.465 40.9686 305.791 40.6553 306.002 40.2646V37.9941H304.684C302.918 37.9941 301.978 38.6045 301.864 39.8252L301.852 40.0327C301.852 40.4722 302.007 40.8343 302.316 41.1191C302.625 41.404 303.048 41.5464 303.585 41.5464ZM315.976 44H312.436V25.25H315.976V44ZM326.547 44C326.384 43.6826 326.266 43.2879 326.193 42.8159C325.338 43.7681 324.228 44.2441 322.86 44.2441C321.566 44.2441 320.492 43.8698 319.638 43.1211C318.791 42.3724 318.368 41.4284 318.368 40.2891C318.368 38.8893 318.885 37.8151 319.918 37.0664C320.96 36.3177 322.462 35.9393 324.423 35.9312H326.046V35.1743C326.046 34.564 325.888 34.0757 325.57 33.7095C325.261 33.3433 324.769 33.1602 324.093 33.1602C323.499 33.1602 323.031 33.3026 322.689 33.5874C322.356 33.8722 322.189 34.2629 322.189 34.7593H318.661C318.661 33.9943 318.897 33.2863 319.369 32.6353C319.841 31.9842 320.508 31.4756 321.371 31.1094C322.234 30.735 323.202 30.5479 324.276 30.5479C325.904 30.5479 327.194 30.9588 328.146 31.7808C329.106 32.5946 329.586 33.742 329.586 35.2231V40.9482C329.595 42.2015 329.77 43.1496 330.111 43.7925V44H326.547ZM323.629 41.5464C324.15 41.5464 324.63 41.4325 325.07 41.2046C325.509 40.9686 325.835 40.6553 326.046 40.2646V37.9941H324.728C322.962 37.9941 322.022 38.6045 321.908 39.8252L321.896 40.0327C321.896 40.4722 322.051 40.8343 322.36 41.1191C322.669 41.404 323.092 41.5464 323.629 41.5464ZM335.543 30.792L335.653 32.3179C336.597 31.1379 337.863 30.5479 339.45 30.5479C340.849 30.5479 341.891 30.9588 342.575 31.7808C343.258 32.6027 343.608 33.8315 343.625 35.4673V44H340.097V35.5527C340.097 34.804 339.934 34.2629 339.608 33.9292C339.283 33.5874 338.742 33.4165 337.985 33.4165C336.992 33.4165 336.247 33.8397 335.751 34.686V44H332.223V30.792H335.543ZM351.803 41.3999C352.454 41.3999 352.983 41.2209 353.39 40.8628C353.797 40.5047 354.009 40.0286 354.025 39.4346H357.333C357.325 40.3298 357.081 41.1517 356.601 41.9004C356.12 42.641 355.461 43.2188 354.623 43.6338C353.793 44.0407 352.873 44.2441 351.864 44.2441C349.976 44.2441 348.487 43.646 347.396 42.4497C346.306 41.2453 345.761 39.5851 345.761 37.4692V37.2373C345.761 35.2028 346.302 33.5793 347.384 32.3667C348.467 31.1541 349.952 30.5479 351.84 30.5479C353.492 30.5479 354.814 31.0199 355.807 31.9639C356.808 32.8997 357.317 34.1489 357.333 35.7114H354.025C354.009 35.0278 353.797 34.4744 353.39 34.0513C352.983 33.62 352.446 33.4043 351.779 33.4043C350.957 33.4043 350.334 33.7054 349.911 34.3076C349.496 34.9017 349.289 35.8701 349.289 37.2129V37.5791C349.289 38.9382 349.496 39.9147 349.911 40.5088C350.326 41.1029 350.957 41.3999 351.803 41.3999ZM365.426 44.2441C363.489 44.2441 361.911 43.6501 360.69 42.4619C359.477 41.2738 358.871 39.6909 358.871 37.7134V37.3716C358.871 36.0451 359.127 34.861 359.64 33.8193C360.153 32.7695 360.877 31.9639 361.813 31.4023C362.757 30.8327 363.831 30.5479 365.036 30.5479C366.842 30.5479 368.262 31.1175 369.296 32.2568C370.338 33.3962 370.858 35.0116 370.858 37.103V38.5435H362.448C362.562 39.4061 362.903 40.0978 363.473 40.6187C364.051 41.1395 364.779 41.3999 365.658 41.3999C367.017 41.3999 368.079 40.9076 368.844 39.9229L370.578 41.8638C370.049 42.6125 369.333 43.1984 368.429 43.6216C367.526 44.0366 366.525 44.2441 365.426 44.2441ZM365.023 33.4043C364.324 33.4043 363.754 33.6403 363.314 34.1123C362.883 34.5843 362.606 35.2598 362.484 36.1387H367.392V35.8579C367.375 35.0767 367.164 34.4744 366.757 34.0513C366.35 33.62 365.772 33.4043 365.023 33.4043ZM380.294 34.1001C379.814 34.035 379.391 34.0024 379.025 34.0024C377.69 34.0024 376.815 34.4541 376.4 35.3574V44H372.873V30.792H376.205L376.303 32.3667C377.011 31.1541 377.991 30.5479 379.245 30.5479C379.635 30.5479 380.001 30.6007 380.343 30.7065L380.294 34.1001ZM255.771 73H252.243V59.4014L248.031 60.7075V57.8389L255.392 55.2021H255.771V73ZM261.886 71.2666C261.886 70.7051 262.073 70.2493 262.448 69.8994C262.83 69.5495 263.306 69.3745 263.876 69.3745C264.454 69.3745 264.93 69.5495 265.304 69.8994C265.687 70.2493 265.878 70.7051 265.878 71.2666C265.878 71.82 265.691 72.2716 265.316 72.6216C264.942 72.9634 264.462 73.1343 263.876 73.1343C263.298 73.1343 262.822 72.9634 262.448 72.6216C262.073 72.2716 261.886 71.82 261.886 71.2666ZM281.015 73H268.832V70.583L274.582 64.4551C275.371 63.5924 275.953 62.8397 276.327 62.1968C276.71 61.5539 276.901 60.9435 276.901 60.3657C276.901 59.5763 276.701 58.9578 276.303 58.5103C275.904 58.0545 275.334 57.8267 274.594 57.8267C273.796 57.8267 273.166 58.1034 272.702 58.6567C272.246 59.202 272.018 59.9222 272.018 60.8174H268.478C268.478 59.735 268.734 58.7463 269.247 57.8511C269.768 56.9559 270.5 56.256 271.444 55.7515C272.388 55.2388 273.458 54.9824 274.655 54.9824C276.486 54.9824 277.906 55.4219 278.915 56.3008C279.932 57.1797 280.441 58.4207 280.441 60.0239C280.441 60.9028 280.213 61.798 279.757 62.7095C279.302 63.6209 278.52 64.6829 277.414 65.8955L273.373 70.1558H281.015V73ZM283.517 71.2666C283.517 70.7051 283.704 70.2493 284.079 69.8994C284.461 69.5495 284.937 69.3745 285.507 69.3745C286.085 69.3745 286.561 69.5495 286.935 69.8994C287.318 70.2493 287.509 70.7051 287.509 71.2666C287.509 71.82 287.322 72.2716 286.947 72.6216C286.573 72.9634 286.093 73.1343 285.507 73.1343C284.929 73.1343 284.453 72.9634 284.079 72.6216C283.704 72.2716 283.517 71.82 283.517 71.2666ZM294.052 62.5508H295.932C296.827 62.5508 297.49 62.327 297.921 61.8794C298.353 61.4318 298.568 60.8377 298.568 60.0972C298.568 59.381 298.353 58.8236 297.921 58.4248C297.498 58.026 296.912 57.8267 296.164 57.8267C295.488 57.8267 294.923 58.0138 294.467 58.3882C294.011 58.7544 293.783 59.2345 293.783 59.8286H290.255C290.255 58.9009 290.504 58.0708 291 57.3384C291.505 56.5978 292.204 56.02 293.1 55.605C294.003 55.1899 294.996 54.9824 296.078 54.9824C297.958 54.9824 299.431 55.4341 300.497 56.3374C301.563 57.2326 302.096 58.4696 302.096 60.0483C302.096 60.8621 301.848 61.6108 301.352 62.2944C300.855 62.978 300.204 63.5029 299.398 63.8691C300.399 64.2272 301.144 64.7643 301.632 65.4805C302.129 66.1966 302.377 67.043 302.377 68.0195C302.377 69.5983 301.799 70.8638 300.644 71.8159C299.496 72.7681 297.974 73.2441 296.078 73.2441C294.304 73.2441 292.851 72.7762 291.72 71.8403C290.597 70.9045 290.036 69.6675 290.036 68.1294H293.563C293.563 68.7967 293.812 69.342 294.308 69.7651C294.813 70.1883 295.431 70.3999 296.164 70.3999C297.002 70.3999 297.657 70.1802 298.129 69.7407C298.609 69.2931 298.849 68.7031 298.849 67.9707C298.849 66.1966 297.873 65.3096 295.919 65.3096H294.052V62.5508ZM305.148 71.2666C305.148 70.7051 305.335 70.2493 305.709 69.8994C306.092 69.5495 306.568 69.3745 307.138 69.3745C307.715 69.3745 308.192 69.5495 308.566 69.8994C308.948 70.2493 309.14 70.7051 309.14 71.2666C309.14 71.82 308.952 72.2716 308.578 72.6216C308.204 72.9634 307.724 73.1343 307.138 73.1343C306.56 73.1343 306.084 72.9634 305.709 72.6216C305.335 72.2716 305.148 71.82 305.148 71.2666ZM322.531 66.3105H324.545V69.1548H322.531V73H319.003V69.1548H311.715L311.557 66.9331L318.966 55.2266H322.531V66.3105ZM315.072 66.3105H319.003V60.0361L318.771 60.439L315.072 66.3105ZM326.767 71.2666C326.767 70.7051 326.954 70.2493 327.328 69.8994C327.711 69.5495 328.187 69.3745 328.756 69.3745C329.334 69.3745 329.81 69.5495 330.185 69.8994C330.567 70.2493 330.758 70.7051 330.758 71.2666C330.758 71.82 330.571 72.2716 330.197 72.6216C329.822 72.9634 329.342 73.1343 328.756 73.1343C328.179 73.1343 327.702 72.9634 327.328 72.6216C326.954 72.2716 326.767 71.82 326.767 71.2666ZM326.767 61.269C326.767 60.7075 326.954 60.2518 327.328 59.9019C327.711 59.5519 328.187 59.377 328.756 59.377C329.334 59.377 329.81 59.5519 330.185 59.9019C330.567 60.2518 330.758 60.7075 330.758 61.269C330.758 61.8224 330.571 62.2741 330.197 62.624C329.822 62.9658 329.342 63.1367 328.756 63.1367C328.179 63.1367 327.702 62.9658 327.328 62.624C326.954 62.2741 326.767 61.8224 326.767 61.269ZM345.089 59.9507C345.089 60.8133 344.874 61.5783 344.442 62.2456C344.011 62.9129 343.417 63.446 342.66 63.8447C343.523 64.2598 344.206 64.8335 344.711 65.5659C345.215 66.2902 345.468 67.1447 345.468 68.1294C345.468 69.7082 344.931 70.9574 343.856 71.877C342.782 72.7884 341.321 73.2441 339.474 73.2441C337.627 73.2441 336.162 72.7843 335.08 71.8647C333.997 70.9451 333.456 69.7 333.456 68.1294C333.456 67.1447 333.708 66.2861 334.213 65.5537C334.717 64.8213 335.397 64.2516 336.251 63.8447C335.495 63.446 334.901 62.9129 334.469 62.2456C334.046 61.5783 333.834 60.8133 333.834 59.9507C333.834 58.437 334.339 57.2326 335.348 56.3374C336.357 55.4341 337.729 54.9824 339.462 54.9824C341.187 54.9824 342.554 55.43 343.563 56.3252C344.581 57.2122 345.089 58.4207 345.089 59.9507ZM341.928 67.873C341.928 67.0999 341.704 66.4814 341.256 66.0176C340.809 65.5537 340.207 65.3218 339.45 65.3218C338.701 65.3218 338.103 65.5537 337.655 66.0176C337.208 66.4733 336.984 67.0918 336.984 67.873C336.984 68.6299 337.204 69.2402 337.643 69.7041C338.083 70.168 338.693 70.3999 339.474 70.3999C340.239 70.3999 340.837 70.1761 341.269 69.7285C341.708 69.2809 341.928 68.6624 341.928 67.873ZM341.562 60.1216C341.562 59.4299 341.378 58.8765 341.012 58.4614C340.646 58.0382 340.129 57.8267 339.462 57.8267C338.803 57.8267 338.29 58.0301 337.924 58.437C337.558 58.8439 337.375 59.4054 337.375 60.1216C337.375 60.8296 337.558 61.3993 337.924 61.8306C338.29 62.2619 338.807 62.4775 339.474 62.4775C340.141 62.4775 340.654 62.2619 341.012 61.8306C341.378 61.3993 341.562 60.8296 341.562 60.1216ZM359.823 65.6514C359.823 68.109 359.315 69.9889 358.297 71.291C357.28 72.5931 355.791 73.2441 353.83 73.2441C351.893 73.2441 350.412 72.6053 349.386 71.3276C348.361 70.05 347.836 68.2189 347.812 65.8345V62.563C347.812 60.0809 348.324 58.1969 349.35 56.9111C350.383 55.6253 351.868 54.9824 353.805 54.9824C355.742 54.9824 357.223 55.6213 358.249 56.8989C359.274 58.1685 359.799 59.9954 359.823 62.3799V65.6514ZM356.295 62.0625C356.295 60.5895 356.092 59.5194 355.685 58.8521C355.286 58.1766 354.66 57.8389 353.805 57.8389C352.975 57.8389 352.361 58.1603 351.962 58.8032C351.571 59.438 351.364 60.4349 351.339 61.7939V66.1152C351.339 67.5638 351.535 68.6421 351.925 69.3501C352.324 70.05 352.959 70.3999 353.83 70.3999C354.692 70.3999 355.315 70.0622 355.697 69.3867C356.08 68.7113 356.279 67.6777 356.295 66.2861V62.0625Z" fill="white"/>
<rect x="10" y="407" width="230" height="100" fill="#E96969"/>
<path d="M93.75 446.337C93.75 445.645 93.5059 445.116 93.0176 444.75C92.5293 444.376 91.6504 443.985 90.3809 443.578C89.1113 443.163 88.1063 442.756 87.3657 442.357C85.3475 441.267 84.3384 439.798 84.3384 437.951C84.3384 436.99 84.6069 436.136 85.144 435.387C85.6893 434.63 86.4665 434.04 87.4756 433.617C88.4928 433.194 89.6322 432.982 90.8936 432.982C92.1631 432.982 93.2943 433.214 94.2871 433.678C95.2799 434.134 96.049 434.781 96.5942 435.619C97.1476 436.457 97.4243 437.41 97.4243 438.476H93.7622C93.7622 437.662 93.5059 437.031 92.9932 436.583C92.4805 436.128 91.7603 435.9 90.8325 435.9C89.9373 435.9 89.2415 436.091 88.7451 436.474C88.2487 436.848 88.0005 437.344 88.0005 437.963C88.0005 438.541 88.2894 439.025 88.8672 439.416C89.4531 439.806 90.3117 440.172 91.4429 440.514C93.5262 441.141 95.0439 441.918 95.9961 442.846C96.9482 443.773 97.4243 444.929 97.4243 446.312C97.4243 447.851 96.8424 449.059 95.6787 449.938C94.515 450.809 92.9484 451.244 90.979 451.244C89.6118 451.244 88.3667 450.996 87.2437 450.5C86.1206 449.995 85.262 449.307 84.668 448.437C84.082 447.566 83.7891 446.557 83.7891 445.409H87.4634C87.4634 447.37 88.6353 448.351 90.979 448.351C91.8498 448.351 92.5293 448.176 93.0176 447.826C93.5059 447.468 93.75 446.972 93.75 446.337ZM105.762 451.244C103.825 451.244 102.246 450.65 101.025 449.462C99.8128 448.274 99.2065 446.691 99.2065 444.713V444.372C99.2065 443.045 99.4629 441.861 99.9756 440.819C100.488 439.77 101.213 438.964 102.148 438.402C103.092 437.833 104.167 437.548 105.371 437.548C107.178 437.548 108.598 438.118 109.631 439.257C110.673 440.396 111.194 442.012 111.194 444.103V445.543H102.783C102.897 446.406 103.239 447.098 103.809 447.619C104.386 448.139 105.115 448.4 105.994 448.4C107.353 448.4 108.415 447.908 109.18 446.923L110.913 448.864C110.384 449.612 109.668 450.198 108.765 450.622C107.861 451.037 106.86 451.244 105.762 451.244ZM105.359 440.404C104.659 440.404 104.089 440.64 103.65 441.112C103.219 441.584 102.942 442.26 102.82 443.139H107.727V442.858C107.711 442.077 107.499 441.474 107.092 441.051C106.685 440.62 106.108 440.404 105.359 440.404ZM120.63 441.1C120.15 441.035 119.727 441.002 119.36 441.002C118.026 441.002 117.151 441.454 116.736 442.357V451H113.208V437.792H116.541L116.638 439.367C117.346 438.154 118.327 437.548 119.58 437.548C119.971 437.548 120.337 437.601 120.679 437.707L120.63 441.1ZM127.502 446.691L129.956 437.792H133.643L129.187 451H125.818L121.362 437.792H125.049L127.502 446.691ZM138.928 451H135.388V437.792H138.928V451ZM135.181 434.374C135.181 433.845 135.356 433.41 135.706 433.068C136.064 432.726 136.548 432.555 137.158 432.555C137.76 432.555 138.241 432.726 138.599 433.068C138.957 433.41 139.136 433.845 139.136 434.374C139.136 434.911 138.953 435.351 138.586 435.692C138.228 436.034 137.752 436.205 137.158 436.205C136.564 436.205 136.084 436.034 135.718 435.692C135.36 435.351 135.181 434.911 135.181 434.374ZM147.339 448.4C147.99 448.4 148.519 448.221 148.926 447.863C149.333 447.505 149.544 447.029 149.561 446.435H152.869C152.861 447.33 152.616 448.152 152.136 448.9C151.656 449.641 150.997 450.219 150.159 450.634C149.329 451.041 148.409 451.244 147.4 451.244C145.512 451.244 144.023 450.646 142.932 449.45C141.842 448.245 141.296 446.585 141.296 444.469V444.237C141.296 442.203 141.838 440.579 142.92 439.367C144.002 438.154 145.487 437.548 147.375 437.548C149.028 437.548 150.35 438.02 151.343 438.964C152.344 439.9 152.852 441.149 152.869 442.711H149.561C149.544 442.028 149.333 441.474 148.926 441.051C148.519 440.62 147.982 440.404 147.314 440.404C146.493 440.404 145.87 440.705 145.447 441.308C145.032 441.902 144.824 442.87 144.824 444.213V444.579C144.824 445.938 145.032 446.915 145.447 447.509C145.862 448.103 146.493 448.4 147.339 448.4ZM160.962 451.244C159.025 451.244 157.446 450.65 156.226 449.462C155.013 448.274 154.407 446.691 154.407 444.713V444.372C154.407 443.045 154.663 441.861 155.176 440.819C155.688 439.77 156.413 438.964 157.349 438.402C158.293 437.833 159.367 437.548 160.571 437.548C162.378 437.548 163.798 438.118 164.832 439.257C165.873 440.396 166.394 442.012 166.394 444.103V445.543H157.983C158.097 446.406 158.439 447.098 159.009 447.619C159.587 448.139 160.315 448.4 161.194 448.4C162.553 448.4 163.615 447.908 164.38 446.923L166.113 448.864C165.584 449.612 164.868 450.198 163.965 450.622C163.062 451.037 162.061 451.244 160.962 451.244ZM160.559 440.404C159.859 440.404 159.29 440.64 158.85 441.112C158.419 441.584 158.142 442.26 158.02 443.139H162.927V442.858C162.911 442.077 162.699 441.474 162.292 441.051C161.886 440.62 161.308 440.404 160.559 440.404ZM87.1948 480H83.5327L76.4038 468.306V480H72.7417V462.227H76.4038L83.5449 473.945V462.227H87.1948V480ZM89.6118 473.274C89.6118 471.964 89.8641 470.796 90.3687 469.771C90.8732 468.745 91.5975 467.952 92.5415 467.39C93.4937 466.829 94.5964 466.548 95.8496 466.548C97.6318 466.548 99.0845 467.093 100.208 468.184C101.339 469.274 101.969 470.755 102.1 472.627L102.124 473.53C102.124 475.557 101.558 477.184 100.427 478.413C99.2961 479.634 97.7783 480.244 95.874 480.244C93.9697 480.244 92.4479 479.634 91.3086 478.413C90.1774 477.192 89.6118 475.532 89.6118 473.433V473.274ZM93.1396 473.53C93.1396 474.784 93.3757 475.744 93.8477 476.411C94.3197 477.07 94.9951 477.4 95.874 477.4C96.7285 477.4 97.3958 477.074 97.876 476.423C98.3561 475.764 98.5962 474.714 98.5962 473.274C98.5962 472.045 98.3561 471.093 97.876 470.417C97.3958 469.742 96.7204 469.404 95.8496 469.404C94.987 469.404 94.3197 469.742 93.8477 470.417C93.3757 471.085 93.1396 472.122 93.1396 473.53ZM103.748 473.298C103.748 471.239 104.207 469.6 105.127 468.379C106.055 467.158 107.32 466.548 108.923 466.548C110.209 466.548 111.271 467.028 112.109 467.988V461.25H115.649V480H112.463L112.292 478.596C111.414 479.695 110.282 480.244 108.899 480.244C107.345 480.244 106.095 479.634 105.151 478.413C104.215 477.184 103.748 475.479 103.748 473.298ZM107.275 473.555C107.275 474.792 107.491 475.74 107.922 476.399C108.354 477.058 108.98 477.388 109.802 477.388C110.893 477.388 111.662 476.928 112.109 476.008V470.796C111.67 469.876 110.909 469.417 109.827 469.417C108.126 469.417 107.275 470.796 107.275 473.555ZM124.463 480.244C122.526 480.244 120.947 479.65 119.727 478.462C118.514 477.274 117.908 475.691 117.908 473.713V473.372C117.908 472.045 118.164 470.861 118.677 469.819C119.189 468.77 119.914 467.964 120.85 467.402C121.794 466.833 122.868 466.548 124.072 466.548C125.879 466.548 127.299 467.118 128.333 468.257C129.374 469.396 129.895 471.012 129.895 473.103V474.543H121.484C121.598 475.406 121.94 476.098 122.51 476.619C123.088 477.139 123.816 477.4 124.695 477.4C126.054 477.4 127.116 476.908 127.881 475.923L129.614 477.864C129.085 478.612 128.369 479.198 127.466 479.622C126.562 480.037 125.562 480.244 124.463 480.244ZM124.06 469.404C123.36 469.404 122.791 469.64 122.351 470.112C121.92 470.584 121.643 471.26 121.521 472.139H126.428V471.858C126.412 471.077 126.2 470.474 125.793 470.051C125.387 469.62 124.809 469.404 124.06 469.404ZM135.803 473.738V480H132.141V462.227H139.075C140.409 462.227 141.581 462.471 142.59 462.959C143.608 463.447 144.389 464.143 144.934 465.046C145.479 465.942 145.752 466.963 145.752 468.11C145.752 469.852 145.154 471.227 143.958 472.236C142.769 473.237 141.121 473.738 139.014 473.738H135.803ZM135.803 470.771H139.075C140.043 470.771 140.78 470.544 141.284 470.088C141.797 469.632 142.053 468.981 142.053 468.135C142.053 467.264 141.797 466.56 141.284 466.023C140.771 465.486 140.063 465.209 139.16 465.193H135.803V470.771ZM147.327 473.274C147.327 471.964 147.579 470.796 148.083 469.771C148.588 468.745 149.312 467.952 150.256 467.39C151.208 466.829 152.311 466.548 153.564 466.548C155.347 466.548 156.799 467.093 157.922 468.184C159.054 469.274 159.684 470.755 159.814 472.627L159.839 473.53C159.839 475.557 159.273 477.184 158.142 478.413C157.011 479.634 155.493 480.244 153.589 480.244C151.685 480.244 150.163 479.634 149.023 478.413C147.892 477.192 147.327 475.532 147.327 473.433V473.274ZM150.854 473.53C150.854 474.784 151.09 475.744 151.562 476.411C152.035 477.07 152.71 477.4 153.589 477.4C154.443 477.4 155.111 477.074 155.591 476.423C156.071 475.764 156.311 474.714 156.311 473.274C156.311 472.045 156.071 471.093 155.591 470.417C155.111 469.742 154.435 469.404 153.564 469.404C152.702 469.404 152.035 469.742 151.562 470.417C151.09 471.085 150.854 472.122 150.854 473.53ZM169.434 470.1C168.953 470.035 168.53 470.002 168.164 470.002C166.829 470.002 165.955 470.454 165.54 471.357V480H162.012V466.792H165.344L165.442 468.367C166.15 467.154 167.131 466.548 168.384 466.548C168.774 466.548 169.141 466.601 169.482 466.707L169.434 470.1ZM175.977 463.545V466.792H178.235V469.38H175.977V475.972C175.977 476.46 176.07 476.81 176.257 477.021C176.444 477.233 176.803 477.339 177.332 477.339C177.722 477.339 178.068 477.31 178.369 477.253V479.927C177.677 480.138 176.965 480.244 176.233 480.244C173.759 480.244 172.498 478.995 172.449 476.497V469.38H170.52V466.792H172.449V463.545H175.977Z" fill="white"/>
<rect x="367" y="282" width="250" height="250" fill="#C4C4C4"/>
<path d="M473.376 327H468.25L458.269 310.628V327H453.142V302.117H458.269L468.267 318.523V302.117H473.376V327ZM476.76 317.583C476.76 315.749 477.113 314.114 477.82 312.679C478.526 311.243 479.54 310.132 480.862 309.346C482.195 308.56 483.739 308.167 485.493 308.167C487.988 308.167 490.022 308.93 491.594 310.457C493.178 311.984 494.061 314.057 494.243 316.678L494.277 317.942C494.277 320.779 493.486 323.058 491.902 324.778C490.318 326.487 488.193 327.342 485.527 327.342C482.861 327.342 480.731 326.487 479.136 324.778C477.552 323.069 476.76 320.745 476.76 317.806V317.583ZM481.699 317.942C481.699 319.697 482.03 321.041 482.69 321.976C483.351 322.898 484.297 323.36 485.527 323.36C486.724 323.36 487.658 322.904 488.33 321.993C489.002 321.07 489.338 319.6 489.338 317.583C489.338 315.863 489.002 314.53 488.33 313.584C487.658 312.639 486.712 312.166 485.493 312.166C484.285 312.166 483.351 312.639 482.69 313.584C482.03 314.519 481.699 315.971 481.699 317.942ZM496.55 317.618C496.55 314.735 497.194 312.439 498.481 310.73C499.78 309.021 501.552 308.167 503.796 308.167C505.597 308.167 507.083 308.839 508.257 310.184V300.75H513.213V327H508.752L508.513 325.035C507.283 326.573 505.699 327.342 503.762 327.342C501.586 327.342 499.837 326.487 498.516 324.778C497.205 323.058 496.55 320.671 496.55 317.618ZM501.489 317.977C501.489 319.708 501.791 321.036 502.395 321.958C502.999 322.881 503.876 323.343 505.027 323.343C506.554 323.343 507.63 322.699 508.257 321.412V314.114C507.642 312.827 506.576 312.183 505.061 312.183C502.68 312.183 501.489 314.114 501.489 317.977ZM525.552 327.342C522.84 327.342 520.63 326.51 518.921 324.847C517.223 323.183 516.375 320.967 516.375 318.199V317.72C516.375 315.863 516.733 314.205 517.451 312.747C518.169 311.277 519.183 310.149 520.493 309.363C521.815 308.566 523.319 308.167 525.005 308.167C527.534 308.167 529.522 308.965 530.969 310.56C532.428 312.155 533.157 314.416 533.157 317.344V319.361H521.382C521.541 320.569 522.02 321.537 522.817 322.266C523.626 322.995 524.646 323.36 525.876 323.36C527.779 323.36 529.266 322.671 530.337 321.292L532.764 324.009C532.023 325.057 531.021 325.878 529.756 326.47C528.491 327.051 527.09 327.342 525.552 327.342ZM524.988 312.166C524.008 312.166 523.21 312.496 522.595 313.157C521.991 313.818 521.604 314.764 521.433 315.994H528.303V315.601C528.28 314.507 527.984 313.664 527.415 313.072C526.845 312.468 526.036 312.166 524.988 312.166ZM423.953 358.925C423.953 361.774 423.303 364.058 422.004 365.778C420.717 367.487 418.974 368.342 416.775 368.342C414.906 368.342 413.397 367.692 412.246 366.394V375.109H407.307V349.509H411.887L412.058 351.32C413.254 349.885 414.815 349.167 416.741 349.167C419.019 349.167 420.791 350.01 422.056 351.696C423.32 353.382 423.953 355.707 423.953 358.669V358.925ZM419.014 358.566C419.014 356.846 418.706 355.519 418.091 354.584C417.487 353.65 416.604 353.183 415.442 353.183C413.892 353.183 412.827 353.776 412.246 354.96V362.531C412.85 363.75 413.927 364.36 415.476 364.36C417.834 364.36 419.014 362.429 419.014 358.566ZM426.26 358.583C426.26 356.749 426.613 355.114 427.319 353.679C428.026 352.243 429.04 351.132 430.361 350.346C431.694 349.56 433.238 349.167 434.993 349.167C437.488 349.167 439.521 349.93 441.094 351.457C442.677 352.984 443.56 355.057 443.743 357.678L443.777 358.942C443.777 361.779 442.985 364.058 441.401 365.778C439.818 367.487 437.693 368.342 435.027 368.342C432.361 368.342 430.23 367.487 428.635 365.778C427.052 364.069 426.26 361.745 426.26 358.806V358.583ZM431.199 358.942C431.199 360.697 431.529 362.041 432.19 362.976C432.851 363.898 433.796 364.36 435.027 364.36C436.223 364.36 437.157 363.904 437.83 362.993C438.502 362.07 438.838 360.6 438.838 358.583C438.838 356.863 438.502 355.53 437.83 354.584C437.157 353.639 436.212 353.166 434.993 353.166C433.785 353.166 432.851 353.639 432.19 354.584C431.529 355.519 431.199 356.971 431.199 358.942ZM457.209 354.14C456.537 354.049 455.945 354.003 455.432 354.003C453.564 354.003 452.339 354.636 451.758 355.9V368H446.819V349.509H451.484L451.621 351.713C452.612 350.016 453.985 349.167 455.74 349.167C456.287 349.167 456.799 349.241 457.278 349.389L457.209 354.14ZM466.37 344.963V349.509H469.531V353.132H466.37V362.36C466.37 363.044 466.501 363.534 466.763 363.83C467.025 364.126 467.526 364.274 468.267 364.274C468.813 364.274 469.298 364.235 469.719 364.155V367.897C468.751 368.194 467.754 368.342 466.729 368.342C463.265 368.342 461.499 366.593 461.431 363.095V353.132H458.73V349.509H461.431V344.963H466.37ZM485.818 353.371H488.45C489.703 353.371 490.632 353.058 491.235 352.431C491.839 351.805 492.141 350.973 492.141 349.936C492.141 348.933 491.839 348.153 491.235 347.595C490.643 347.036 489.823 346.757 488.774 346.757C487.829 346.757 487.037 347.019 486.399 347.543C485.761 348.056 485.442 348.728 485.442 349.56H480.503C480.503 348.261 480.85 347.099 481.545 346.074C482.252 345.037 483.232 344.228 484.485 343.647C485.75 343.066 487.139 342.775 488.655 342.775C491.287 342.775 493.349 343.408 494.841 344.672C496.334 345.926 497.08 347.657 497.08 349.868C497.08 351.007 496.733 352.055 496.038 353.012C495.343 353.969 494.431 354.704 493.303 355.217C494.705 355.718 495.747 356.47 496.431 357.473C497.126 358.475 497.473 359.66 497.473 361.027C497.473 363.238 496.664 365.009 495.046 366.342C493.44 367.675 491.309 368.342 488.655 368.342C486.171 368.342 484.137 367.687 482.554 366.376C480.981 365.066 480.195 363.334 480.195 361.181H485.134C485.134 362.115 485.482 362.879 486.177 363.471C486.883 364.064 487.749 364.36 488.774 364.36C489.948 364.36 490.865 364.052 491.526 363.437C492.198 362.81 492.534 361.984 492.534 360.959C492.534 358.475 491.167 357.233 488.433 357.233H485.818V353.371ZM517.639 357.712C517.639 361.153 516.927 363.785 515.503 365.607C514.079 367.43 511.994 368.342 509.248 368.342C506.536 368.342 504.463 367.447 503.027 365.659C501.592 363.87 500.857 361.306 500.823 357.968V353.388C500.823 349.913 501.541 347.276 502.976 345.476C504.423 343.675 506.502 342.775 509.214 342.775C511.925 342.775 513.999 343.67 515.435 345.458C516.87 347.236 517.605 349.794 517.639 353.132V357.712ZM512.7 352.688C512.7 350.625 512.415 349.127 511.846 348.193C511.287 347.247 510.41 346.774 509.214 346.774C508.052 346.774 507.192 347.224 506.633 348.125C506.086 349.013 505.796 350.409 505.762 352.312V358.361C505.762 360.389 506.035 361.899 506.582 362.89C507.14 363.87 508.029 364.36 509.248 364.36C510.456 364.36 511.327 363.887 511.863 362.941C512.398 361.996 512.677 360.549 512.7 358.601V352.688ZM532.986 368H528.047V348.962L522.151 350.791V346.774L532.456 343.083H532.986V368ZM557.834 357.712C557.834 361.153 557.122 363.785 555.698 365.607C554.274 367.43 552.189 368.342 549.443 368.342C546.732 368.342 544.658 367.447 543.223 365.659C541.787 363.87 541.052 361.306 541.018 357.968V353.388C541.018 349.913 541.736 347.276 543.171 345.476C544.618 343.675 546.698 342.775 549.409 342.775C552.121 342.775 554.194 343.67 555.63 345.458C557.065 347.236 557.8 349.794 557.834 353.132V357.712ZM552.896 352.688C552.896 350.625 552.611 349.127 552.041 348.193C551.483 347.247 550.605 346.774 549.409 346.774C548.247 346.774 547.387 347.224 546.829 348.125C546.282 349.013 545.991 350.409 545.957 352.312V358.361C545.957 360.389 546.23 361.899 546.777 362.89C547.336 363.87 548.224 364.36 549.443 364.36C550.651 364.36 551.523 363.887 552.058 362.941C552.594 361.996 552.873 360.549 552.896 358.601V352.688ZM577.932 357.712C577.932 361.153 577.22 363.785 575.796 365.607C574.372 367.43 572.287 368.342 569.541 368.342C566.829 368.342 564.756 367.447 563.32 365.659C561.885 363.87 561.15 361.306 561.116 357.968V353.388C561.116 349.913 561.833 347.276 563.269 345.476C564.716 343.675 566.795 342.775 569.507 342.775C572.218 342.775 574.292 343.67 575.728 345.458C577.163 347.236 577.898 349.794 577.932 353.132V357.712ZM572.993 352.688C572.993 350.625 572.708 349.127 572.139 348.193C571.58 347.247 570.703 346.774 569.507 346.774C568.345 346.774 567.485 347.224 566.926 348.125C566.379 349.013 566.089 350.409 566.055 352.312V358.361C566.055 360.389 566.328 361.899 566.875 362.89C567.433 363.87 568.322 364.36 569.541 364.36C570.749 364.36 571.62 363.887 572.156 362.941C572.691 361.996 572.97 360.549 572.993 358.601V352.688Z" fill="black"/>
<rect x="377" y="407" width="230" height="100" fill="#E96969"/>
<path d="M460.75 446.337C460.75 445.645 460.506 445.116 460.018 444.75C459.529 444.376 458.65 443.985 457.381 443.578C456.111 443.163 455.106 442.756 454.366 442.357C452.347 441.267 451.338 439.798 451.338 437.951C451.338 436.99 451.607 436.136 452.144 435.387C452.689 434.63 453.466 434.04 454.476 433.617C455.493 433.194 456.632 432.982 457.894 432.982C459.163 432.982 460.294 433.214 461.287 433.678C462.28 434.134 463.049 434.781 463.594 435.619C464.148 436.457 464.424 437.41 464.424 438.476H460.762C460.762 437.662 460.506 437.031 459.993 436.583C459.48 436.128 458.76 435.9 457.833 435.9C456.937 435.9 456.242 436.091 455.745 436.474C455.249 436.848 455 437.344 455 437.963C455 438.541 455.289 439.025 455.867 439.416C456.453 439.806 457.312 440.172 458.443 440.514C460.526 441.141 462.044 441.918 462.996 442.846C463.948 443.773 464.424 444.929 464.424 446.312C464.424 447.851 463.842 449.059 462.679 449.938C461.515 450.809 459.948 451.244 457.979 451.244C456.612 451.244 455.367 450.996 454.244 450.5C453.121 449.995 452.262 449.307 451.668 448.437C451.082 447.566 450.789 446.557 450.789 445.409H454.463C454.463 447.37 455.635 448.351 457.979 448.351C458.85 448.351 459.529 448.176 460.018 447.826C460.506 447.468 460.75 446.972 460.75 446.337ZM472.762 451.244C470.825 451.244 469.246 450.65 468.025 449.462C466.813 448.274 466.207 446.691 466.207 444.713V444.372C466.207 443.045 466.463 441.861 466.976 440.819C467.488 439.77 468.213 438.964 469.148 438.402C470.092 437.833 471.167 437.548 472.371 437.548C474.178 437.548 475.598 438.118 476.631 439.257C477.673 440.396 478.194 442.012 478.194 444.103V445.543H469.783C469.897 446.406 470.239 447.098 470.809 447.619C471.386 448.139 472.115 448.4 472.994 448.4C474.353 448.4 475.415 447.908 476.18 446.923L477.913 448.864C477.384 449.612 476.668 450.198 475.765 450.622C474.861 451.037 473.86 451.244 472.762 451.244ZM472.359 440.404C471.659 440.404 471.089 440.64 470.65 441.112C470.219 441.584 469.942 442.26 469.82 443.139H474.727V442.858C474.711 442.077 474.499 441.474 474.092 441.051C473.685 440.62 473.108 440.404 472.359 440.404ZM487.63 441.1C487.15 441.035 486.727 441.002 486.36 441.002C485.026 441.002 484.151 441.454 483.736 442.357V451H480.208V437.792H483.541L483.638 439.367C484.346 438.154 485.327 437.548 486.58 437.548C486.971 437.548 487.337 437.601 487.679 437.707L487.63 441.1ZM494.502 446.691L496.956 437.792H500.643L496.187 451H492.818L488.362 437.792H492.049L494.502 446.691ZM505.928 451H502.388V437.792H505.928V451ZM502.181 434.374C502.181 433.845 502.356 433.41 502.706 433.068C503.064 432.726 503.548 432.555 504.158 432.555C504.76 432.555 505.241 432.726 505.599 433.068C505.957 433.41 506.136 433.845 506.136 434.374C506.136 434.911 505.953 435.351 505.586 435.692C505.228 436.034 504.752 436.205 504.158 436.205C503.564 436.205 503.084 436.034 502.718 435.692C502.36 435.351 502.181 434.911 502.181 434.374ZM514.339 448.4C514.99 448.4 515.519 448.221 515.926 447.863C516.333 447.505 516.544 447.029 516.561 446.435H519.869C519.861 447.33 519.616 448.152 519.136 448.9C518.656 449.641 517.997 450.219 517.159 450.634C516.329 451.041 515.409 451.244 514.4 451.244C512.512 451.244 511.023 450.646 509.932 449.45C508.842 448.245 508.296 446.585 508.296 444.469V444.237C508.296 442.203 508.838 440.579 509.92 439.367C511.002 438.154 512.487 437.548 514.375 437.548C516.028 437.548 517.35 438.02 518.343 438.964C519.344 439.9 519.852 441.149 519.869 442.711H516.561C516.544 442.028 516.333 441.474 515.926 441.051C515.519 440.62 514.982 440.404 514.314 440.404C513.493 440.404 512.87 440.705 512.447 441.308C512.032 441.902 511.824 442.87 511.824 444.213V444.579C511.824 445.938 512.032 446.915 512.447 447.509C512.862 448.103 513.493 448.4 514.339 448.4ZM527.962 451.244C526.025 451.244 524.446 450.65 523.226 449.462C522.013 448.274 521.407 446.691 521.407 444.713V444.372C521.407 443.045 521.663 441.861 522.176 440.819C522.688 439.77 523.413 438.964 524.349 438.402C525.293 437.833 526.367 437.548 527.571 437.548C529.378 437.548 530.798 438.118 531.832 439.257C532.873 440.396 533.394 442.012 533.394 444.103V445.543H524.983C525.097 446.406 525.439 447.098 526.009 447.619C526.587 448.139 527.315 448.4 528.194 448.4C529.553 448.4 530.615 447.908 531.38 446.923L533.113 448.864C532.584 449.612 531.868 450.198 530.965 450.622C530.062 451.037 529.061 451.244 527.962 451.244ZM527.559 440.404C526.859 440.404 526.29 440.64 525.85 441.112C525.419 441.584 525.142 442.26 525.02 443.139H529.927V442.858C529.911 442.077 529.699 441.474 529.292 441.051C528.886 440.62 528.308 440.404 527.559 440.404ZM454.195 480H450.533L443.404 468.306V480H439.742V462.227H443.404L450.545 473.945V462.227H454.195V480ZM456.612 473.274C456.612 471.964 456.864 470.796 457.369 469.771C457.873 468.745 458.597 467.952 459.542 467.39C460.494 466.829 461.596 466.548 462.85 466.548C464.632 466.548 466.084 467.093 467.208 468.184C468.339 469.274 468.969 470.755 469.1 472.627L469.124 473.53C469.124 475.557 468.558 477.184 467.427 478.413C466.296 479.634 464.778 480.244 462.874 480.244C460.97 480.244 459.448 479.634 458.309 478.413C457.177 477.192 456.612 475.532 456.612 473.433V473.274ZM460.14 473.53C460.14 474.784 460.376 475.744 460.848 476.411C461.32 477.07 461.995 477.4 462.874 477.4C463.729 477.4 464.396 477.074 464.876 476.423C465.356 475.764 465.596 474.714 465.596 473.274C465.596 472.045 465.356 471.093 464.876 470.417C464.396 469.742 463.72 469.404 462.85 469.404C461.987 469.404 461.32 469.742 460.848 470.417C460.376 471.085 460.14 472.122 460.14 473.53ZM470.748 473.298C470.748 471.239 471.207 469.6 472.127 468.379C473.055 467.158 474.32 466.548 475.923 466.548C477.209 466.548 478.271 467.028 479.109 467.988V461.25H482.649V480H479.463L479.292 478.596C478.414 479.695 477.282 480.244 475.899 480.244C474.345 480.244 473.095 479.634 472.151 478.413C471.215 477.184 470.748 475.479 470.748 473.298ZM474.275 473.555C474.275 474.792 474.491 475.74 474.922 476.399C475.354 477.058 475.98 477.388 476.802 477.388C477.893 477.388 478.662 476.928 479.109 476.008V470.796C478.67 469.876 477.909 469.417 476.827 469.417C475.126 469.417 474.275 470.796 474.275 473.555ZM491.463 480.244C489.526 480.244 487.947 479.65 486.727 478.462C485.514 477.274 484.908 475.691 484.908 473.713V473.372C484.908 472.045 485.164 470.861 485.677 469.819C486.189 468.77 486.914 467.964 487.85 467.402C488.794 466.833 489.868 466.548 491.072 466.548C492.879 466.548 494.299 467.118 495.333 468.257C496.374 469.396 496.895 471.012 496.895 473.103V474.543H488.484C488.598 475.406 488.94 476.098 489.51 476.619C490.088 477.139 490.816 477.4 491.695 477.4C493.054 477.4 494.116 476.908 494.881 475.923L496.614 477.864C496.085 478.612 495.369 479.198 494.466 479.622C493.562 480.037 492.562 480.244 491.463 480.244ZM491.06 469.404C490.36 469.404 489.791 469.64 489.351 470.112C488.92 470.584 488.643 471.26 488.521 472.139H493.428V471.858C493.412 471.077 493.2 470.474 492.793 470.051C492.387 469.62 491.809 469.404 491.06 469.404ZM502.803 473.738V480H499.141V462.227H506.075C507.409 462.227 508.581 462.471 509.59 462.959C510.608 463.447 511.389 464.143 511.934 465.046C512.479 465.942 512.752 466.963 512.752 468.11C512.752 469.852 512.154 471.227 510.958 472.236C509.769 473.237 508.121 473.738 506.014 473.738H502.803ZM502.803 470.771H506.075C507.043 470.771 507.78 470.544 508.284 470.088C508.797 469.632 509.053 468.981 509.053 468.135C509.053 467.264 508.797 466.56 508.284 466.023C507.771 465.486 507.063 465.209 506.16 465.193H502.803V470.771ZM514.327 473.274C514.327 471.964 514.579 470.796 515.083 469.771C515.588 468.745 516.312 467.952 517.256 467.39C518.208 466.829 519.311 466.548 520.564 466.548C522.347 466.548 523.799 467.093 524.922 468.184C526.054 469.274 526.684 470.755 526.814 472.627L526.839 473.53C526.839 475.557 526.273 477.184 525.142 478.413C524.011 479.634 522.493 480.244 520.589 480.244C518.685 480.244 517.163 479.634 516.023 478.413C514.892 477.192 514.327 475.532 514.327 473.433V473.274ZM517.854 473.53C517.854 474.784 518.09 475.744 518.562 476.411C519.035 477.07 519.71 477.4 520.589 477.4C521.443 477.4 522.111 477.074 522.591 476.423C523.071 475.764 523.311 474.714 523.311 473.274C523.311 472.045 523.071 471.093 522.591 470.417C522.111 469.742 521.435 469.404 520.564 469.404C519.702 469.404 519.035 469.742 518.562 470.417C518.09 471.085 517.854 472.122 517.854 473.53ZM536.434 470.1C535.953 470.035 535.53 470.002 535.164 470.002C533.829 470.002 532.955 470.454 532.54 471.357V480H529.012V466.792H532.344L532.442 468.367C533.15 467.154 534.131 466.548 535.384 466.548C535.774 466.548 536.141 466.601 536.482 466.707L536.434 470.1ZM542.977 463.545V466.792H545.235V469.38H542.977V475.972C542.977 476.46 543.07 476.81 543.257 477.021C543.444 477.233 543.803 477.339 544.332 477.339C544.722 477.339 545.068 477.31 545.369 477.253V479.927C544.677 480.138 543.965 480.244 543.233 480.244C540.759 480.244 539.498 478.995 539.449 476.497V469.38H537.52V466.792H539.449V463.545H542.977Z" fill="white"/>
<path d="M122.506 266.828C122.411 268.205 123.45 269.399 124.828 269.494L147.274 271.044C148.652 271.14 149.845 270.1 149.941 268.723C150.036 267.345 148.996 266.151 147.619 266.056L127.666 264.678L129.044 244.726C129.14 243.348 128.1 242.155 126.723 242.059C125.345 241.964 124.151 243.004 124.056 244.381L122.506 266.828ZM301.358 110.115L123.358 265.115L126.642 268.885L304.642 113.885L301.358 110.115Z" fill="black"/>
<path d="M125.232 405.768C126.209 406.744 127.791 406.744 128.768 405.768L144.678 389.858C145.654 388.882 145.654 387.299 144.678 386.322C143.701 385.346 142.118 385.346 141.142 386.322L127 400.464L112.858 386.322C111.882 385.346 110.299 385.346 109.322 386.322C108.346 387.299 108.346 388.882 109.322 389.858L125.232 405.768ZM124.5 377L124.5 404L129.5 404L129.5 377L124.5 377Z" fill="black"/>
<path d="M490.232 405.768C491.209 406.744 492.791 406.744 493.768 405.768L509.678 389.858C510.654 388.882 510.654 387.299 509.678 386.322C508.701 385.346 507.118 385.346 506.142 386.322L492 400.464L477.858 386.322C476.882 385.346 475.299 385.346 474.322 386.322C473.346 387.299 473.346 388.882 474.322 389.858L490.232 405.768ZM489.5 377L489.5 404L494.5 404L494.5 377L489.5 377Z" fill="black"/>
<path d="M492.246 269.488C493.62 269.352 494.624 268.128 494.488 266.754L492.275 244.363C492.139 242.989 490.915 241.985 489.541 242.121C488.167 242.257 487.163 243.481 487.299 244.855L489.266 264.758L469.363 266.725C467.989 266.861 466.985 268.085 467.121 269.459C467.257 270.833 468.481 271.837 469.855 271.701L492.246 269.488ZM301.415 113.933L490.415 268.933L493.585 265.067L304.585 110.067L301.415 113.933Z" fill="black"/>
</svg>
