<svg width="1104" height="414" viewBox="0 0 1104 414" fill="none" xmlns="http://www.w3.org/2000/svg">
<rect x="297" width="500" height="250" fill="#C4C4C4"/>
<rect x="302" y="73" width="240" height="168" fill="#A4FB96"/>
<rect x="307" y="131" width="230" height="100" fill="#7367FF"/>
<rect y="75" width="230" height="100" fill="#C4C4C4"/>
<rect x="432" y="314" width="230" height="100" fill="#C4C4C4"/>
<path d="M527.456 48H522.329L512.349 31.6279V48H507.222V23.1172H512.349L522.346 39.5234V23.1172H527.456V48ZM530.84 38.5835C530.84 36.7492 531.193 35.1143 531.899 33.6787C532.606 32.2432 533.62 31.1323 534.941 30.3462C536.274 29.5601 537.818 29.167 539.573 29.167C542.068 29.167 544.102 29.9303 545.674 31.457C547.257 32.9837 548.14 35.0573 548.323 37.6777L548.357 38.9424C548.357 41.7793 547.565 44.0579 545.981 45.7783C544.398 47.4873 542.273 48.3418 539.607 48.3418C536.941 48.3418 534.81 47.4873 533.215 45.7783C531.632 44.0693 530.84 41.7451 530.84 38.8057V38.5835ZM535.779 38.9424C535.779 40.6969 536.109 42.0413 536.77 42.9756C537.431 43.8984 538.376 44.3599 539.607 44.3599C540.803 44.3599 541.737 43.9041 542.41 42.9927C543.082 42.0698 543.418 40.6001 543.418 38.5835C543.418 36.8631 543.082 35.5301 542.41 34.5845C541.737 33.6388 540.792 33.166 539.573 33.166C538.365 33.166 537.431 33.6388 536.77 34.5845C536.109 35.5187 535.779 36.9714 535.779 38.9424ZM550.63 38.6177C550.63 35.7352 551.274 33.4395 552.561 31.7305C553.86 30.0215 555.632 29.167 557.876 29.167C559.676 29.167 561.163 29.8392 562.336 31.1836V21.75H567.292V48H562.832L562.593 46.0347C561.362 47.5728 559.779 48.3418 557.842 48.3418C555.666 48.3418 553.917 47.4873 552.595 45.7783C551.285 44.0579 550.63 41.6711 550.63 38.6177ZM555.569 38.9766C555.569 40.7083 555.871 42.0356 556.475 42.9585C557.078 43.8813 557.956 44.3428 559.106 44.3428C560.633 44.3428 561.71 43.6991 562.336 42.4116V35.1143C561.721 33.8268 560.656 33.1831 559.141 33.1831C556.759 33.1831 555.569 35.1143 555.569 38.9766ZM579.631 48.3418C576.92 48.3418 574.709 47.5101 573 45.8467C571.303 44.1833 570.454 41.9673 570.454 39.1987V38.7202C570.454 36.8631 570.813 35.2054 571.531 33.7471C572.249 32.2773 573.263 31.1494 574.573 30.3633C575.894 29.5658 577.398 29.167 579.084 29.167C581.614 29.167 583.602 29.9645 585.049 31.5596C586.507 33.1546 587.236 35.4162 587.236 38.3442V40.3608H575.461C575.621 41.5685 576.099 42.5369 576.897 43.2661C577.706 43.9953 578.726 44.3599 579.956 44.3599C581.859 44.3599 583.346 43.6706 584.417 42.292L586.843 45.0093C586.103 46.0575 585.1 46.8778 583.835 47.4702C582.571 48.0513 581.169 48.3418 579.631 48.3418ZM579.067 33.166C578.088 33.166 577.29 33.4964 576.675 34.1572C576.071 34.818 575.684 35.7637 575.513 36.9941H582.383V36.6011C582.36 35.5073 582.064 34.6642 581.494 34.0718C580.924 33.4679 580.116 33.166 579.067 33.166Z" fill="black"/>
<path d="M401.299 104.485V112H396.904V90.6719H405.225C406.826 90.6719 408.232 90.9648 409.443 91.5508C410.664 92.1367 411.602 92.9717 412.256 94.0557C412.91 95.1299 413.237 96.3555 413.237 97.7324C413.237 99.8223 412.52 101.473 411.084 102.684C409.658 103.885 407.681 104.485 405.151 104.485H401.299ZM401.299 100.926H405.225C406.387 100.926 407.271 100.652 407.876 100.105C408.491 99.5586 408.799 98.7773 408.799 97.7617C408.799 96.7168 408.491 95.8721 407.876 95.2275C407.261 94.583 406.411 94.251 405.327 94.2314H401.299V100.926ZM415.127 103.929C415.127 102.356 415.43 100.955 416.035 99.7246C416.641 98.4941 417.51 97.542 418.643 96.8682C419.785 96.1943 421.108 95.8574 422.612 95.8574C424.751 95.8574 426.494 96.5117 427.842 97.8203C429.199 99.1289 429.956 100.906 430.112 103.152L430.142 104.236C430.142 106.668 429.463 108.621 428.105 110.096C426.748 111.561 424.927 112.293 422.642 112.293C420.356 112.293 418.53 111.561 417.163 110.096C415.806 108.631 415.127 106.639 415.127 104.119V103.929ZM419.36 104.236C419.36 105.74 419.644 106.893 420.21 107.693C420.776 108.484 421.587 108.88 422.642 108.88C423.667 108.88 424.468 108.489 425.044 107.708C425.62 106.917 425.908 105.657 425.908 103.929C425.908 102.454 425.62 101.312 425.044 100.501C424.468 99.6904 423.657 99.2852 422.612 99.2852C421.577 99.2852 420.776 99.6904 420.21 100.501C419.644 101.302 419.36 102.547 419.36 104.236ZM432.09 103.958C432.09 101.487 432.642 99.5195 433.745 98.0547C434.858 96.5898 436.377 95.8574 438.301 95.8574C439.844 95.8574 441.118 96.4336 442.124 97.5859V89.5H446.372V112H442.549L442.344 110.315C441.289 111.634 439.932 112.293 438.271 112.293C436.406 112.293 434.907 111.561 433.774 110.096C432.651 108.621 432.09 106.575 432.09 103.958ZM436.323 104.266C436.323 105.75 436.582 106.888 437.1 107.679C437.617 108.47 438.369 108.865 439.355 108.865C440.664 108.865 441.587 108.313 442.124 107.21V100.955C441.597 99.8516 440.684 99.2998 439.385 99.2998C437.344 99.2998 436.323 100.955 436.323 104.266Z" fill="black"/>
<path d="M382.54 183.08C382.401 184.992 381.693 186.498 380.416 187.596C379.146 188.695 377.47 189.244 375.386 189.244C373.108 189.244 371.313 188.479 370.003 186.949C368.701 185.411 368.05 183.303 368.05 180.626V179.54C368.05 177.831 368.351 176.325 368.953 175.023C369.555 173.721 370.414 172.724 371.529 172.032C372.652 171.332 373.954 170.982 375.435 170.982C377.486 170.982 379.138 171.532 380.391 172.63C381.644 173.729 382.369 175.271 382.564 177.257H378.902C378.812 176.109 378.491 175.279 377.938 174.767C377.392 174.246 376.558 173.985 375.435 173.985C374.214 173.985 373.299 174.425 372.688 175.304C372.086 176.174 371.777 177.529 371.761 179.369V180.711C371.761 182.632 372.05 184.036 372.627 184.923C373.213 185.81 374.133 186.253 375.386 186.253C376.517 186.253 377.36 185.997 377.913 185.484C378.475 184.964 378.796 184.162 378.877 183.08H382.54ZM384.163 182.274C384.163 180.964 384.415 179.796 384.92 178.771C385.424 177.745 386.149 176.952 387.093 176.39C388.045 175.829 389.148 175.548 390.401 175.548C392.183 175.548 393.636 176.093 394.759 177.184C395.89 178.274 396.521 179.755 396.651 181.627L396.675 182.53C396.675 184.557 396.11 186.184 394.979 187.413C393.847 188.634 392.33 189.244 390.425 189.244C388.521 189.244 386.999 188.634 385.86 187.413C384.729 186.192 384.163 184.532 384.163 182.433V182.274ZM387.691 182.53C387.691 183.784 387.927 184.744 388.399 185.411C388.871 186.07 389.546 186.4 390.425 186.4C391.28 186.4 391.947 186.074 392.427 185.423C392.907 184.764 393.147 183.714 393.147 182.274C393.147 181.045 392.907 180.093 392.427 179.417C391.947 178.742 391.272 178.404 390.401 178.404C389.538 178.404 388.871 178.742 388.399 179.417C387.927 180.085 387.691 181.122 387.691 182.53ZM402.095 175.792L402.205 177.318C403.149 176.138 404.415 175.548 406.001 175.548C407.401 175.548 408.443 175.959 409.126 176.781C409.81 177.603 410.16 178.832 410.176 180.467V189H406.648V180.553C406.648 179.804 406.486 179.263 406.16 178.929C405.835 178.587 405.293 178.417 404.537 178.417C403.544 178.417 402.799 178.84 402.303 179.686V189H398.775V175.792H402.095ZM417.085 172.545V175.792H419.344V178.38H417.085V184.972C417.085 185.46 417.179 185.81 417.366 186.021C417.553 186.233 417.911 186.339 418.44 186.339C418.831 186.339 419.177 186.31 419.478 186.253V188.927C418.786 189.138 418.074 189.244 417.342 189.244C414.868 189.244 413.606 187.995 413.558 185.497V178.38H411.629V175.792H413.558V172.545H417.085ZM428.963 189C428.8 188.683 428.682 188.288 428.609 187.816C427.754 188.768 426.644 189.244 425.276 189.244C423.982 189.244 422.908 188.87 422.054 188.121C421.207 187.372 420.784 186.428 420.784 185.289C420.784 183.889 421.301 182.815 422.334 182.066C423.376 181.318 424.878 180.939 426.839 180.931H428.462V180.174C428.462 179.564 428.304 179.076 427.986 178.709C427.677 178.343 427.185 178.16 426.509 178.16C425.915 178.16 425.447 178.303 425.105 178.587C424.772 178.872 424.605 179.263 424.605 179.759H421.077C421.077 178.994 421.313 178.286 421.785 177.635C422.257 176.984 422.924 176.476 423.787 176.109C424.65 175.735 425.618 175.548 426.692 175.548C428.32 175.548 429.61 175.959 430.562 176.781C431.522 177.595 432.002 178.742 432.002 180.223V185.948C432.011 187.201 432.186 188.15 432.527 188.792V189H428.963ZM426.045 186.546C426.566 186.546 427.046 186.432 427.486 186.205C427.925 185.969 428.251 185.655 428.462 185.265V182.994H427.144C425.378 182.994 424.438 183.604 424.324 184.825L424.312 185.033C424.312 185.472 424.467 185.834 424.776 186.119C425.085 186.404 425.508 186.546 426.045 186.546ZM438.436 189H434.896V175.792H438.436V189ZM434.688 172.374C434.688 171.845 434.863 171.41 435.213 171.068C435.571 170.726 436.055 170.555 436.666 170.555C437.268 170.555 437.748 170.726 438.106 171.068C438.464 171.41 438.643 171.845 438.643 172.374C438.643 172.911 438.46 173.351 438.094 173.692C437.736 174.034 437.26 174.205 436.666 174.205C436.071 174.205 435.591 174.034 435.225 173.692C434.867 173.351 434.688 172.911 434.688 172.374ZM444.6 175.792L444.71 177.318C445.654 176.138 446.919 175.548 448.506 175.548C449.906 175.548 450.948 175.959 451.631 176.781C452.315 177.603 452.665 178.832 452.681 180.467V189H449.153V180.553C449.153 179.804 448.991 179.263 448.665 178.929C448.34 178.587 447.798 178.417 447.042 178.417C446.049 178.417 445.304 178.84 444.808 179.686V189H441.28V175.792H444.6ZM461.446 189.244C459.509 189.244 457.93 188.65 456.709 187.462C455.497 186.274 454.891 184.691 454.891 182.713V182.372C454.891 181.045 455.147 179.861 455.66 178.819C456.172 177.77 456.897 176.964 457.833 176.402C458.777 175.833 459.851 175.548 461.055 175.548C462.862 175.548 464.282 176.118 465.315 177.257C466.357 178.396 466.878 180.012 466.878 182.103V183.543H458.467C458.581 184.406 458.923 185.098 459.493 185.619C460.07 186.139 460.799 186.4 461.678 186.4C463.037 186.4 464.099 185.908 464.864 184.923L466.597 186.864C466.068 187.612 465.352 188.198 464.449 188.622C463.545 189.037 462.544 189.244 461.446 189.244ZM461.043 178.404C460.343 178.404 459.773 178.64 459.334 179.112C458.903 179.584 458.626 180.26 458.504 181.139H463.411V180.858C463.395 180.077 463.183 179.474 462.776 179.051C462.369 178.62 461.792 178.404 461.043 178.404ZM476.314 179.1C475.834 179.035 475.411 179.002 475.044 179.002C473.71 179.002 472.835 179.454 472.42 180.357V189H468.892V175.792H472.225L472.322 177.367C473.03 176.154 474.011 175.548 475.264 175.548C475.655 175.548 476.021 175.601 476.363 175.707L476.314 179.1Z" fill="white"/>
<path d="M79.1523 126.702L77.8828 127.972V132H74.355V113.25H77.8828V123.638L78.5664 122.759L81.9478 118.792H86.1836L81.4106 124.297L86.5986 132H82.5459L79.1523 126.702ZM95.6196 130.657C94.7489 131.715 93.5444 132.244 92.0063 132.244C90.5903 132.244 89.508 131.837 88.7593 131.023C88.0187 130.21 87.6403 129.017 87.624 127.447V118.792H91.1519V127.325C91.1519 128.7 91.7785 129.388 93.0317 129.388C94.228 129.388 95.05 128.973 95.4976 128.143V118.792H99.0376V132H95.7173L95.6196 130.657ZM113.601 125.518C113.601 127.634 113.149 129.286 112.246 130.474C111.342 131.654 110.081 132.244 108.461 132.244C107.029 132.244 105.886 131.695 105.031 130.596L104.873 132H101.699V113.25H105.227V119.976C106.04 119.024 107.111 118.548 108.437 118.548C110.048 118.548 111.31 119.142 112.221 120.33C113.141 121.51 113.601 123.174 113.601 125.323V125.518ZM110.073 125.262C110.073 123.927 109.861 122.955 109.438 122.344C109.015 121.726 108.384 121.417 107.546 121.417C106.423 121.417 105.65 121.876 105.227 122.796V128.008C105.658 128.936 106.439 129.4 107.57 129.4C108.71 129.4 109.458 128.838 109.816 127.715C109.987 127.178 110.073 126.36 110.073 125.262ZM121.865 132.244C119.928 132.244 118.349 131.65 117.128 130.462C115.916 129.274 115.31 127.691 115.31 125.713V125.372C115.31 124.045 115.566 122.861 116.079 121.819C116.591 120.77 117.316 119.964 118.251 119.402C119.195 118.833 120.27 118.548 121.474 118.548C123.281 118.548 124.701 119.118 125.734 120.257C126.776 121.396 127.297 123.012 127.297 125.103V126.543H118.886C119 127.406 119.342 128.098 119.912 128.619C120.489 129.139 121.218 129.4 122.097 129.4C123.456 129.4 124.518 128.908 125.283 127.923L127.016 129.864C126.487 130.612 125.771 131.198 124.868 131.622C123.964 132.037 122.963 132.244 121.865 132.244ZM121.462 121.404C120.762 121.404 120.192 121.64 119.753 122.112C119.322 122.584 119.045 123.26 118.923 124.139H123.83V123.858C123.814 123.077 123.602 122.474 123.195 122.051C122.788 121.62 122.211 121.404 121.462 121.404ZM133.034 132H129.494V113.25H133.034V132ZM142.031 132.244C140.094 132.244 138.515 131.65 137.294 130.462C136.082 129.274 135.476 127.691 135.476 125.713V125.372C135.476 124.045 135.732 122.861 136.245 121.819C136.757 120.77 137.482 119.964 138.417 119.402C139.361 118.833 140.436 118.548 141.64 118.548C143.447 118.548 144.867 119.118 145.9 120.257C146.942 121.396 147.463 123.012 147.463 125.103V126.543H139.052C139.166 127.406 139.508 128.098 140.078 128.619C140.655 129.139 141.384 129.4 142.263 129.4C143.622 129.4 144.684 128.908 145.449 127.923L147.182 129.864C146.653 130.612 145.937 131.198 145.034 131.622C144.13 132.037 143.129 132.244 142.031 132.244ZM141.628 121.404C140.928 121.404 140.358 121.64 139.919 122.112C139.488 122.584 139.211 123.26 139.089 124.139H143.996V123.858C143.98 123.077 143.768 122.474 143.361 122.051C142.954 121.62 142.377 121.404 141.628 121.404ZM153.701 115.545V118.792H155.959V121.38H153.701V127.972C153.701 128.46 153.794 128.81 153.981 129.021C154.169 129.233 154.527 129.339 155.056 129.339C155.446 129.339 155.792 129.31 156.093 129.253V131.927C155.402 132.138 154.689 132.244 153.957 132.244C151.483 132.244 150.222 130.995 150.173 128.497V121.38H148.244V118.792H150.173V115.545H153.701Z" fill="black"/>
<path d="M489.152 367.702L487.883 368.972V373H484.355V354.25H487.883V364.638L488.566 363.759L491.948 359.792H496.184L491.411 365.297L496.599 373H492.546L489.152 367.702ZM505.62 371.657C504.749 372.715 503.544 373.244 502.006 373.244C500.59 373.244 499.508 372.837 498.759 372.023C498.019 371.21 497.64 370.017 497.624 368.447V359.792H501.152V368.325C501.152 369.7 501.778 370.388 503.032 370.388C504.228 370.388 505.05 369.973 505.498 369.143V359.792H509.038V373H505.717L505.62 371.657ZM523.601 366.518C523.601 368.634 523.149 370.286 522.246 371.474C521.342 372.654 520.081 373.244 518.461 373.244C517.029 373.244 515.886 372.695 515.031 371.596L514.873 373H511.699V354.25H515.227V360.976C516.04 360.024 517.111 359.548 518.437 359.548C520.048 359.548 521.31 360.142 522.221 361.33C523.141 362.51 523.601 364.174 523.601 366.323V366.518ZM520.073 366.262C520.073 364.927 519.861 363.955 519.438 363.344C519.015 362.726 518.384 362.417 517.546 362.417C516.423 362.417 515.65 362.876 515.227 363.796V369.008C515.658 369.936 516.439 370.4 517.57 370.4C518.71 370.4 519.458 369.838 519.816 368.715C519.987 368.178 520.073 367.36 520.073 366.262ZM531.865 373.244C529.928 373.244 528.349 372.65 527.128 371.462C525.916 370.274 525.31 368.691 525.31 366.713V366.372C525.31 365.045 525.566 363.861 526.079 362.819C526.591 361.77 527.316 360.964 528.251 360.402C529.195 359.833 530.27 359.548 531.474 359.548C533.281 359.548 534.701 360.118 535.734 361.257C536.776 362.396 537.297 364.012 537.297 366.103V367.543H528.886C529 368.406 529.342 369.098 529.912 369.619C530.489 370.139 531.218 370.4 532.097 370.4C533.456 370.4 534.518 369.908 535.283 368.923L537.016 370.864C536.487 371.612 535.771 372.198 534.868 372.622C533.964 373.037 532.963 373.244 531.865 373.244ZM531.462 362.404C530.762 362.404 530.192 362.64 529.753 363.112C529.322 363.584 529.045 364.26 528.923 365.139H533.83V364.858C533.814 364.077 533.602 363.474 533.195 363.051C532.788 362.62 532.211 362.404 531.462 362.404ZM546.171 366.811H539.299V363.967H546.171V366.811ZM560.893 366.518C560.893 368.553 560.429 370.184 559.501 371.413C558.582 372.634 557.337 373.244 555.766 373.244C554.431 373.244 553.353 372.78 552.531 371.853V378.078H549.003V359.792H552.275L552.397 361.086C553.251 360.061 554.366 359.548 555.742 359.548C557.369 359.548 558.635 360.15 559.538 361.354C560.441 362.559 560.893 364.219 560.893 366.335V366.518ZM557.365 366.262C557.365 365.033 557.146 364.085 556.706 363.417C556.275 362.75 555.644 362.417 554.814 362.417C553.707 362.417 552.946 362.84 552.531 363.686V369.094C552.963 369.965 553.732 370.4 554.838 370.4C556.523 370.4 557.365 369.021 557.365 366.262ZM570.512 363.1C570.032 363.035 569.609 363.002 569.243 363.002C567.908 363.002 567.033 363.454 566.618 364.357V373H563.09V359.792H566.423L566.521 361.367C567.229 360.154 568.209 359.548 569.462 359.548C569.853 359.548 570.219 359.601 570.561 359.707L570.512 363.1ZM571.232 366.274C571.232 364.964 571.485 363.796 571.989 362.771C572.494 361.745 573.218 360.952 574.162 360.39C575.114 359.829 576.217 359.548 577.47 359.548C579.252 359.548 580.705 360.093 581.828 361.184C582.959 362.274 583.59 363.755 583.72 365.627L583.745 366.53C583.745 368.557 583.179 370.184 582.048 371.413C580.917 372.634 579.399 373.244 577.495 373.244C575.59 373.244 574.069 372.634 572.929 371.413C571.798 370.192 571.232 368.532 571.232 366.433V366.274ZM574.76 366.53C574.76 367.784 574.996 368.744 575.468 369.411C575.94 370.07 576.616 370.4 577.495 370.4C578.349 370.4 579.016 370.074 579.497 369.423C579.977 368.764 580.217 367.714 580.217 366.274C580.217 365.045 579.977 364.093 579.497 363.417C579.016 362.742 578.341 362.404 577.47 362.404C576.608 362.404 575.94 362.742 575.468 363.417C574.996 364.085 574.76 365.122 574.76 366.53ZM590.678 363.735L592.9 359.792H596.672L592.912 366.262L596.831 373H593.046L590.69 368.85L588.347 373H584.55L588.469 366.262L584.721 359.792H588.505L590.678 363.735ZM603.3 368.007L605.742 359.792H609.526L604.216 375.051L603.923 375.747C603.133 377.472 601.831 378.334 600.017 378.334C599.504 378.334 598.983 378.257 598.454 378.103V375.429L598.991 375.441C599.659 375.441 600.155 375.34 600.48 375.136C600.814 374.933 601.075 374.595 601.262 374.123L601.677 373.037L597.05 359.792H600.847L603.3 368.007Z" fill="black"/>
<rect x="552" y="73" width="240" height="168" fill="#A4FB96"/>
<rect x="557" y="131" width="230" height="100" fill="#7367FF"/>
<path d="M651.299 104.485V112H646.904V90.6719H655.225C656.826 90.6719 658.232 90.9648 659.443 91.5508C660.664 92.1367 661.602 92.9717 662.256 94.0557C662.91 95.1299 663.237 96.3555 663.237 97.7324C663.237 99.8223 662.52 101.473 661.084 102.684C659.658 103.885 657.681 104.485 655.151 104.485H651.299ZM651.299 100.926H655.225C656.387 100.926 657.271 100.652 657.876 100.105C658.491 99.5586 658.799 98.7773 658.799 97.7617C658.799 96.7168 658.491 95.8721 657.876 95.2275C657.261 94.583 656.411 94.251 655.327 94.2314H651.299V100.926ZM665.127 103.929C665.127 102.356 665.43 100.955 666.035 99.7246C666.641 98.4941 667.51 97.542 668.643 96.8682C669.785 96.1943 671.108 95.8574 672.612 95.8574C674.751 95.8574 676.494 96.5117 677.842 97.8203C679.199 99.1289 679.956 100.906 680.112 103.152L680.142 104.236C680.142 106.668 679.463 108.621 678.105 110.096C676.748 111.561 674.927 112.293 672.642 112.293C670.356 112.293 668.53 111.561 667.163 110.096C665.806 108.631 665.127 106.639 665.127 104.119V103.929ZM669.36 104.236C669.36 105.74 669.644 106.893 670.21 107.693C670.776 108.484 671.587 108.88 672.642 108.88C673.667 108.88 674.468 108.489 675.044 107.708C675.62 106.917 675.908 105.657 675.908 103.929C675.908 102.454 675.62 101.312 675.044 100.501C674.468 99.6904 673.657 99.2852 672.612 99.2852C671.577 99.2852 670.776 99.6904 670.21 100.501C669.644 101.302 669.36 102.547 669.36 104.236ZM682.09 103.958C682.09 101.487 682.642 99.5195 683.745 98.0547C684.858 96.5898 686.377 95.8574 688.301 95.8574C689.844 95.8574 691.118 96.4336 692.124 97.5859V89.5H696.372V112H692.549L692.344 110.315C691.289 111.634 689.932 112.293 688.271 112.293C686.406 112.293 684.907 111.561 683.774 110.096C682.651 108.621 682.09 106.575 682.09 103.958ZM686.323 104.266C686.323 105.75 686.582 106.888 687.1 107.679C687.617 108.47 688.369 108.865 689.355 108.865C690.664 108.865 691.587 108.313 692.124 107.21V100.955C691.597 99.8516 690.684 99.2998 689.385 99.2998C687.344 99.2998 686.323 100.955 686.323 104.266Z" fill="black"/>
<path d="M632.54 183.08C632.401 184.992 631.693 186.498 630.416 187.596C629.146 188.695 627.47 189.244 625.386 189.244C623.108 189.244 621.313 188.479 620.003 186.949C618.701 185.411 618.05 183.303 618.05 180.626V179.54C618.05 177.831 618.351 176.325 618.953 175.023C619.555 173.721 620.414 172.724 621.529 172.032C622.652 171.332 623.954 170.982 625.435 170.982C627.486 170.982 629.138 171.532 630.391 172.63C631.644 173.729 632.369 175.271 632.564 177.257H628.902C628.812 176.109 628.491 175.279 627.938 174.767C627.392 174.246 626.558 173.985 625.435 173.985C624.214 173.985 623.299 174.425 622.688 175.304C622.086 176.174 621.777 177.529 621.761 179.369V180.711C621.761 182.632 622.05 184.036 622.627 184.923C623.213 185.81 624.133 186.253 625.386 186.253C626.517 186.253 627.36 185.997 627.913 185.484C628.475 184.964 628.796 184.162 628.877 183.08H632.54ZM634.163 182.274C634.163 180.964 634.415 179.796 634.92 178.771C635.424 177.745 636.149 176.952 637.093 176.39C638.045 175.829 639.148 175.548 640.401 175.548C642.183 175.548 643.636 176.093 644.759 177.184C645.89 178.274 646.521 179.755 646.651 181.627L646.675 182.53C646.675 184.557 646.11 186.184 644.979 187.413C643.847 188.634 642.33 189.244 640.425 189.244C638.521 189.244 636.999 188.634 635.86 187.413C634.729 186.192 634.163 184.532 634.163 182.433V182.274ZM637.691 182.53C637.691 183.784 637.927 184.744 638.399 185.411C638.871 186.07 639.546 186.4 640.425 186.4C641.28 186.4 641.947 186.074 642.427 185.423C642.907 184.764 643.147 183.714 643.147 182.274C643.147 181.045 642.907 180.093 642.427 179.417C641.947 178.742 641.272 178.404 640.401 178.404C639.538 178.404 638.871 178.742 638.399 179.417C637.927 180.085 637.691 181.122 637.691 182.53ZM652.095 175.792L652.205 177.318C653.149 176.138 654.415 175.548 656.001 175.548C657.401 175.548 658.443 175.959 659.126 176.781C659.81 177.603 660.16 178.832 660.176 180.467V189H656.648V180.553C656.648 179.804 656.486 179.263 656.16 178.929C655.835 178.587 655.293 178.417 654.537 178.417C653.544 178.417 652.799 178.84 652.303 179.686V189H648.775V175.792H652.095ZM667.085 172.545V175.792H669.344V178.38H667.085V184.972C667.085 185.46 667.179 185.81 667.366 186.021C667.553 186.233 667.911 186.339 668.44 186.339C668.831 186.339 669.177 186.31 669.478 186.253V188.927C668.786 189.138 668.074 189.244 667.342 189.244C664.868 189.244 663.606 187.995 663.558 185.497V178.38H661.629V175.792H663.558V172.545H667.085ZM678.963 189C678.8 188.683 678.682 188.288 678.609 187.816C677.754 188.768 676.644 189.244 675.276 189.244C673.982 189.244 672.908 188.87 672.054 188.121C671.207 187.372 670.784 186.428 670.784 185.289C670.784 183.889 671.301 182.815 672.334 182.066C673.376 181.318 674.878 180.939 676.839 180.931H678.462V180.174C678.462 179.564 678.304 179.076 677.986 178.709C677.677 178.343 677.185 178.16 676.509 178.16C675.915 178.16 675.447 178.303 675.105 178.587C674.772 178.872 674.605 179.263 674.605 179.759H671.077C671.077 178.994 671.313 178.286 671.785 177.635C672.257 176.984 672.924 176.476 673.787 176.109C674.65 175.735 675.618 175.548 676.692 175.548C678.32 175.548 679.61 175.959 680.562 176.781C681.522 177.595 682.002 178.742 682.002 180.223V185.948C682.011 187.201 682.186 188.15 682.527 188.792V189H678.963ZM676.045 186.546C676.566 186.546 677.046 186.432 677.486 186.205C677.925 185.969 678.251 185.655 678.462 185.265V182.994H677.144C675.378 182.994 674.438 183.604 674.324 184.825L674.312 185.033C674.312 185.472 674.467 185.834 674.776 186.119C675.085 186.404 675.508 186.546 676.045 186.546ZM688.436 189H684.896V175.792H688.436V189ZM684.688 172.374C684.688 171.845 684.863 171.41 685.213 171.068C685.571 170.726 686.055 170.555 686.666 170.555C687.268 170.555 687.748 170.726 688.106 171.068C688.464 171.41 688.643 171.845 688.643 172.374C688.643 172.911 688.46 173.351 688.094 173.692C687.736 174.034 687.26 174.205 686.666 174.205C686.071 174.205 685.591 174.034 685.225 173.692C684.867 173.351 684.688 172.911 684.688 172.374ZM694.6 175.792L694.71 177.318C695.654 176.138 696.919 175.548 698.506 175.548C699.906 175.548 700.948 175.959 701.631 176.781C702.315 177.603 702.665 178.832 702.681 180.467V189H699.153V180.553C699.153 179.804 698.991 179.263 698.665 178.929C698.34 178.587 697.798 178.417 697.042 178.417C696.049 178.417 695.304 178.84 694.808 179.686V189H691.28V175.792H694.6ZM711.446 189.244C709.509 189.244 707.93 188.65 706.709 187.462C705.497 186.274 704.891 184.691 704.891 182.713V182.372C704.891 181.045 705.147 179.861 705.66 178.819C706.172 177.77 706.897 176.964 707.833 176.402C708.777 175.833 709.851 175.548 711.055 175.548C712.862 175.548 714.282 176.118 715.315 177.257C716.357 178.396 716.878 180.012 716.878 182.103V183.543H708.467C708.581 184.406 708.923 185.098 709.493 185.619C710.07 186.139 710.799 186.4 711.678 186.4C713.037 186.4 714.099 185.908 714.864 184.923L716.597 186.864C716.068 187.612 715.352 188.198 714.449 188.622C713.545 189.037 712.544 189.244 711.446 189.244ZM711.043 178.404C710.343 178.404 709.773 178.64 709.334 179.112C708.903 179.584 708.626 180.26 708.504 181.139H713.411V180.858C713.395 180.077 713.183 179.474 712.776 179.051C712.369 178.62 711.792 178.404 711.043 178.404ZM726.314 179.1C725.834 179.035 725.411 179.002 725.044 179.002C723.71 179.002 722.835 179.454 722.42 180.357V189H718.892V175.792H722.225L722.322 177.367C723.03 176.154 724.011 175.548 725.264 175.548C725.655 175.548 726.021 175.601 726.363 175.707L726.314 179.1Z" fill="white"/>
<line x1="230" y1="124.5" x2="282" y2="124.5" stroke="black"/>
<line x1="546.5" y1="314" x2="546.5" y2="262" stroke="black"/>
<rect x="874" y="75" width="230" height="100" fill="#C4C4C4"/>
<path d="M942.174 116.4C942.825 116.4 943.354 116.221 943.761 115.863C944.168 115.505 944.38 115.029 944.396 114.435H947.704C947.696 115.33 947.452 116.152 946.972 116.9C946.492 117.641 945.832 118.219 944.994 118.634C944.164 119.041 943.244 119.244 942.235 119.244C940.347 119.244 938.858 118.646 937.768 117.45C936.677 116.245 936.132 114.585 936.132 112.469V112.237C936.132 110.203 936.673 108.579 937.755 107.367C938.838 106.154 940.323 105.548 942.211 105.548C943.863 105.548 945.185 106.02 946.178 106.964C947.179 107.9 947.688 109.149 947.704 110.711H944.396C944.38 110.028 944.168 109.474 943.761 109.051C943.354 108.62 942.817 108.404 942.15 108.404C941.328 108.404 940.705 108.705 940.282 109.308C939.867 109.902 939.66 110.87 939.66 112.213V112.579C939.66 113.938 939.867 114.915 940.282 115.509C940.697 116.103 941.328 116.4 942.174 116.4ZM949.169 112.274C949.169 110.964 949.421 109.796 949.926 108.771C950.43 107.745 951.155 106.952 952.099 106.39C953.051 105.829 954.153 105.548 955.407 105.548C957.189 105.548 958.642 106.093 959.765 107.184C960.896 108.274 961.527 109.755 961.657 111.627L961.681 112.53C961.681 114.557 961.116 116.184 959.984 117.413C958.853 118.634 957.335 119.244 955.431 119.244C953.527 119.244 952.005 118.634 950.866 117.413C949.735 116.192 949.169 114.532 949.169 112.433V112.274ZM952.697 112.53C952.697 113.784 952.933 114.744 953.405 115.411C953.877 116.07 954.552 116.4 955.431 116.4C956.286 116.4 956.953 116.074 957.433 115.423C957.913 114.764 958.153 113.714 958.153 112.274C958.153 111.045 957.913 110.093 957.433 109.417C956.953 108.742 956.278 108.404 955.407 108.404C954.544 108.404 953.877 108.742 953.405 109.417C952.933 110.085 952.697 111.122 952.697 112.53ZM967.101 105.792L967.211 107.318C968.155 106.138 969.42 105.548 971.007 105.548C972.407 105.548 973.449 105.959 974.132 106.781C974.816 107.603 975.166 108.832 975.182 110.467V119H971.654V110.553C971.654 109.804 971.492 109.263 971.166 108.929C970.84 108.587 970.299 108.417 969.542 108.417C968.55 108.417 967.805 108.84 967.309 109.686V119H963.781V105.792H967.101ZM982.091 102.545V105.792H984.35V108.38H982.091V114.972C982.091 115.46 982.185 115.81 982.372 116.021C982.559 116.233 982.917 116.339 983.446 116.339C983.837 116.339 984.183 116.31 984.484 116.253V118.927C983.792 119.138 983.08 119.244 982.348 119.244C979.874 119.244 978.612 117.995 978.563 115.497V108.38H976.635V105.792H978.563V102.545H982.091ZM993.969 119C993.806 118.683 993.688 118.288 993.615 117.816C992.76 118.768 991.649 119.244 990.282 119.244C988.988 119.244 987.914 118.87 987.06 118.121C986.213 117.372 985.79 116.428 985.79 115.289C985.79 113.889 986.307 112.815 987.34 112.066C988.382 111.318 989.883 110.939 991.845 110.931H993.468V110.174C993.468 109.564 993.31 109.076 992.992 108.709C992.683 108.343 992.191 108.16 991.515 108.16C990.921 108.16 990.453 108.303 990.111 108.587C989.778 108.872 989.611 109.263 989.611 109.759H986.083C986.083 108.994 986.319 108.286 986.791 107.635C987.263 106.984 987.93 106.476 988.793 106.109C989.656 105.735 990.624 105.548 991.698 105.548C993.326 105.548 994.616 105.959 995.568 106.781C996.528 107.595 997.008 108.742 997.008 110.223V115.948C997.016 117.201 997.191 118.15 997.533 118.792V119H993.969ZM991.051 116.546C991.572 116.546 992.052 116.432 992.492 116.205C992.931 115.969 993.257 115.655 993.468 115.265V112.994H992.15C990.384 112.994 989.444 113.604 989.33 114.825L989.318 115.033C989.318 115.472 989.472 115.834 989.782 116.119C990.091 116.404 990.514 116.546 991.051 116.546ZM1003.44 119H999.901V105.792H1003.44V119ZM999.694 102.374C999.694 101.845 999.869 101.41 1000.22 101.068C1000.58 100.726 1001.06 100.555 1001.67 100.555C1002.27 100.555 1002.75 100.726 1003.11 101.068C1003.47 101.41 1003.65 101.845 1003.65 102.374C1003.65 102.911 1003.47 103.351 1003.1 103.692C1002.74 104.034 1002.27 104.205 1001.67 104.205C1001.08 104.205 1000.6 104.034 1000.23 103.692C999.873 103.351 999.694 102.911 999.694 102.374ZM1009.61 105.792L1009.72 107.318C1010.66 106.138 1011.93 105.548 1013.51 105.548C1014.91 105.548 1015.95 105.959 1016.64 106.781C1017.32 107.603 1017.67 108.832 1017.69 110.467V119H1014.16V110.553C1014.16 109.804 1014 109.263 1013.67 108.929C1013.35 108.587 1012.8 108.417 1012.05 108.417C1011.05 108.417 1010.31 108.84 1009.81 109.686V119H1006.29V105.792H1009.61ZM1026.45 119.244C1024.51 119.244 1022.94 118.65 1021.72 117.462C1020.5 116.274 1019.9 114.691 1019.9 112.713V112.372C1019.9 111.045 1020.15 109.861 1020.67 108.819C1021.18 107.77 1021.9 106.964 1022.84 106.402C1023.78 105.833 1024.86 105.548 1026.06 105.548C1027.87 105.548 1029.29 106.118 1030.32 107.257C1031.36 108.396 1031.88 110.012 1031.88 112.103V113.543H1023.47C1023.59 114.406 1023.93 115.098 1024.5 115.619C1025.08 116.139 1025.8 116.4 1026.68 116.4C1028.04 116.4 1029.1 115.908 1029.87 114.923L1031.6 116.864C1031.07 117.612 1030.36 118.198 1029.45 118.622C1028.55 119.037 1027.55 119.244 1026.45 119.244ZM1026.05 108.404C1025.35 108.404 1024.78 108.64 1024.34 109.112C1023.91 109.584 1023.63 110.26 1023.51 111.139H1028.42V110.858C1028.4 110.077 1028.19 109.474 1027.78 109.051C1027.38 108.62 1026.8 108.404 1026.05 108.404ZM1041.32 109.1C1040.84 109.035 1040.42 109.002 1040.05 109.002C1038.72 109.002 1037.84 109.454 1037.43 110.357V119H1033.9V105.792H1037.23L1037.33 107.367C1038.04 106.154 1039.02 105.548 1040.27 105.548C1040.66 105.548 1041.03 105.601 1041.37 105.707L1041.32 109.1ZM953.576 138.1C953.096 138.035 952.672 138.002 952.306 138.002C950.972 138.002 950.097 138.454 949.682 139.357V148H946.154V134.792H949.486L949.584 136.367C950.292 135.154 951.273 134.548 952.526 134.548C952.917 134.548 953.283 134.601 953.625 134.707L953.576 138.1ZM963.195 146.657C962.324 147.715 961.12 148.244 959.582 148.244C958.166 148.244 957.083 147.837 956.334 147.023C955.594 146.21 955.215 145.017 955.199 143.447V134.792H958.727V143.325C958.727 144.7 959.354 145.388 960.607 145.388C961.803 145.388 962.625 144.973 963.073 144.143V134.792H966.613V148H963.292L963.195 146.657ZM972.521 134.792L972.631 136.318C973.575 135.138 974.84 134.548 976.427 134.548C977.827 134.548 978.869 134.959 979.552 135.781C980.236 136.603 980.586 137.832 980.602 139.467V148H977.074V139.553C977.074 138.804 976.911 138.263 976.586 137.929C976.26 137.587 975.719 137.417 974.962 137.417C973.97 137.417 973.225 137.84 972.729 138.686V148H969.201V134.792H972.521ZM987.511 131.545V134.792H989.77V137.38H987.511V143.972C987.511 144.46 987.605 144.81 987.792 145.021C987.979 145.233 988.337 145.339 988.866 145.339C989.257 145.339 989.603 145.31 989.904 145.253V147.927C989.212 148.138 988.5 148.244 987.768 148.244C985.294 148.244 984.032 146.995 983.983 144.497V137.38H982.055V134.792H983.983V131.545H987.511ZM995.458 148H991.918V134.792H995.458V148ZM991.71 131.374C991.71 130.845 991.885 130.41 992.235 130.068C992.593 129.726 993.078 129.555 993.688 129.555C994.29 129.555 994.77 129.726 995.128 130.068C995.486 130.41 995.666 130.845 995.666 131.374C995.666 131.911 995.482 132.351 995.116 132.692C994.758 133.034 994.282 133.205 993.688 133.205C993.094 133.205 992.614 133.034 992.248 132.692C991.889 132.351 991.71 131.911 991.71 131.374ZM1001.68 134.792L1001.79 136.269C1002.73 135.122 1003.99 134.548 1005.59 134.548C1007.29 134.548 1008.46 135.219 1009.09 136.562C1010.02 135.219 1011.34 134.548 1013.06 134.548C1014.49 134.548 1015.56 134.967 1016.26 135.805C1016.96 136.635 1017.31 137.889 1017.31 139.565V148H1013.77V139.577C1013.77 138.828 1013.62 138.283 1013.33 137.941C1013.04 137.591 1012.52 137.417 1011.78 137.417C1010.72 137.417 1009.99 137.921 1009.58 138.93L1009.59 148H1006.07V139.589C1006.07 138.824 1005.92 138.271 1005.61 137.929C1005.31 137.587 1004.8 137.417 1004.08 137.417C1003.08 137.417 1002.35 137.832 1001.9 138.662V148H998.375V134.792H1001.68ZM1026.11 148.244C1024.17 148.244 1022.59 147.65 1021.37 146.462C1020.16 145.274 1019.55 143.691 1019.55 141.713V141.372C1019.55 140.045 1019.81 138.861 1020.32 137.819C1020.84 136.77 1021.56 135.964 1022.5 135.402C1023.44 134.833 1024.51 134.548 1025.72 134.548C1027.53 134.548 1028.95 135.118 1029.98 136.257C1031.02 137.396 1031.54 139.012 1031.54 141.103V142.543H1023.13C1023.25 143.406 1023.59 144.098 1024.16 144.619C1024.73 145.139 1025.46 145.4 1026.34 145.4C1027.7 145.4 1028.76 144.908 1029.53 143.923L1031.26 145.864C1030.73 146.612 1030.02 147.198 1029.11 147.622C1028.21 148.037 1027.21 148.244 1026.11 148.244ZM1025.71 137.404C1025.01 137.404 1024.44 137.64 1024 138.112C1023.57 138.584 1023.29 139.26 1023.17 140.139H1028.08V139.858C1028.06 139.077 1027.85 138.474 1027.44 138.051C1027.03 137.62 1026.46 137.404 1025.71 137.404Z" fill="black"/>
<line x1="822" y1="124.5" x2="874" y2="124.5" stroke="black"/>
</svg>
