<svg width="510" height="450" viewBox="0 0 510 450" fill="none" xmlns="http://www.w3.org/2000/svg">
<rect width="510" height="450" fill="#C4C4C4"/>
<path d="M236.376 38H231.25L221.269 21.6279V38H216.142V13.1172H221.269L231.267 29.5234V13.1172H236.376V38ZM239.76 28.5835C239.76 26.7492 240.113 25.1143 240.82 23.6787C241.526 22.2432 242.54 21.1323 243.862 20.3462C245.195 19.5601 246.739 19.167 248.493 19.167C250.988 19.167 253.022 19.9303 254.594 21.457C256.178 22.9837 257.061 25.0573 257.243 27.6777L257.277 28.9424C257.277 31.7793 256.486 34.0579 254.902 35.7783C253.318 37.4873 251.193 38.3418 248.527 38.3418C245.861 38.3418 243.731 37.4873 242.136 35.7783C240.552 34.0693 239.76 31.7451 239.76 28.8057V28.5835ZM244.699 28.9424C244.699 30.6969 245.03 32.0413 245.69 32.9756C246.351 33.8984 247.297 34.3599 248.527 34.3599C249.724 34.3599 250.658 33.9041 251.33 32.9927C252.002 32.0698 252.338 30.6001 252.338 28.5835C252.338 26.8631 252.002 25.5301 251.33 24.5845C250.658 23.6388 249.712 23.166 248.493 23.166C247.285 23.166 246.351 23.6388 245.69 24.5845C245.03 25.5187 244.699 26.9714 244.699 28.9424ZM259.55 28.6177C259.55 25.7352 260.194 23.4395 261.481 21.7305C262.78 20.0215 264.552 19.167 266.796 19.167C268.597 19.167 270.083 19.8392 271.257 21.1836V11.75H276.213V38H271.752L271.513 36.0347C270.283 37.5728 268.699 38.3418 266.762 38.3418C264.586 38.3418 262.837 37.4873 261.516 35.7783C260.205 34.0579 259.55 31.6711 259.55 28.6177ZM264.489 28.9766C264.489 30.7083 264.791 32.0356 265.395 32.9585C265.999 33.8813 266.876 34.3428 268.027 34.3428C269.554 34.3428 270.63 33.6991 271.257 32.4116V25.1143C270.642 23.8268 269.576 23.1831 268.061 23.1831C265.68 23.1831 264.489 25.1143 264.489 28.9766ZM288.552 38.3418C285.84 38.3418 283.63 37.5101 281.921 35.8467C280.223 34.1833 279.375 31.9673 279.375 29.1987V28.7202C279.375 26.8631 279.733 25.2054 280.451 23.7471C281.169 22.2773 282.183 21.1494 283.493 20.3633C284.815 19.5658 286.319 19.167 288.005 19.167C290.534 19.167 292.522 19.9645 293.969 21.5596C295.428 23.1546 296.157 25.4162 296.157 28.3442V30.3608H284.382C284.541 31.5685 285.02 32.5369 285.817 33.2661C286.626 33.9953 287.646 34.3599 288.876 34.3599C290.779 34.3599 292.266 33.6706 293.337 32.292L295.764 35.0093C295.023 36.0575 294.021 36.8778 292.756 37.4702C291.491 38.0513 290.09 38.3418 288.552 38.3418ZM287.988 23.166C287.008 23.166 286.21 23.4964 285.595 24.1572C284.991 24.818 284.604 25.7637 284.433 26.9941H291.303V26.6011C291.28 25.5073 290.984 24.6642 290.415 24.0718C289.845 23.4679 289.036 23.166 287.988 23.166ZM186.953 69.9253C186.953 72.7736 186.303 75.0579 185.004 76.7783C183.717 78.4873 181.974 79.3418 179.775 79.3418C177.906 79.3418 176.397 78.6924 175.246 77.3936V86.1094H170.307V60.5088H174.887L175.058 62.3203C176.254 60.8848 177.815 60.167 179.741 60.167C182.019 60.167 183.791 61.0101 185.056 62.6963C186.32 64.3825 186.953 66.7067 186.953 69.6689V69.9253ZM182.014 69.5664C182.014 67.846 181.706 66.5187 181.091 65.5845C180.487 64.6502 179.604 64.1831 178.442 64.1831C176.892 64.1831 175.827 64.7756 175.246 65.9604V73.5312C175.85 74.7503 176.927 75.3599 178.476 75.3599C180.834 75.3599 182.014 73.4287 182.014 69.5664ZM189.26 69.5835C189.26 67.7492 189.613 66.1143 190.319 64.6787C191.026 63.2432 192.04 62.1323 193.361 61.3462C194.694 60.5601 196.238 60.167 197.993 60.167C200.488 60.167 202.521 60.9303 204.094 62.457C205.677 63.9837 206.56 66.0573 206.743 68.6777L206.777 69.9424C206.777 72.7793 205.985 75.0579 204.401 76.7783C202.818 78.4873 200.693 79.3418 198.027 79.3418C195.361 79.3418 193.23 78.4873 191.635 76.7783C190.052 75.0693 189.26 72.7451 189.26 69.8057V69.5835ZM194.199 69.9424C194.199 71.6969 194.529 73.0413 195.19 73.9756C195.851 74.8984 196.796 75.3599 198.027 75.3599C199.223 75.3599 200.157 74.9041 200.83 73.9927C201.502 73.0698 201.838 71.6001 201.838 69.5835C201.838 67.8631 201.502 66.5301 200.83 65.5845C200.157 64.6388 199.212 64.166 197.993 64.166C196.785 64.166 195.851 64.6388 195.19 65.5845C194.529 66.5187 194.199 67.9714 194.199 69.9424ZM220.209 65.1401C219.537 65.049 218.945 65.0034 218.432 65.0034C216.564 65.0034 215.339 65.6357 214.758 66.9004V79H209.819V60.5088H214.484L214.621 62.7134C215.612 61.0158 216.985 60.167 218.74 60.167C219.287 60.167 219.799 60.241 220.278 60.3892L220.209 65.1401ZM229.37 55.9629V60.5088H232.531V64.1318H229.37V73.3604C229.37 74.0439 229.501 74.5339 229.763 74.8301C230.025 75.1263 230.526 75.2744 231.267 75.2744C231.813 75.2744 232.298 75.2345 232.719 75.1548V78.8975C231.751 79.1937 230.754 79.3418 229.729 79.3418C226.265 79.3418 224.499 77.5929 224.431 74.0952V64.1318H221.73V60.5088H224.431V55.9629H229.37ZM248.818 64.3711H251.45C252.703 64.3711 253.632 64.0578 254.235 63.4312C254.839 62.8045 255.141 61.9728 255.141 60.936C255.141 59.9334 254.839 59.153 254.235 58.5947C253.643 58.0365 252.823 57.7573 251.774 57.7573C250.829 57.7573 250.037 58.0194 249.399 58.5435C248.761 59.0562 248.442 59.7284 248.442 60.5601H243.503C243.503 59.2612 243.85 58.0991 244.545 57.0737C245.252 56.0369 246.232 55.228 247.485 54.647C248.75 54.0659 250.139 53.7754 251.655 53.7754C254.287 53.7754 256.349 54.4077 257.841 55.6724C259.334 56.9256 260.08 58.6574 260.08 60.8677C260.08 62.007 259.733 63.0552 259.038 64.0122C258.343 64.9692 257.431 65.7041 256.303 66.2168C257.705 66.7181 258.747 67.4701 259.431 68.4727C260.126 69.4753 260.473 70.6602 260.473 72.0273C260.473 74.2376 259.664 76.0093 258.046 77.3423C256.44 78.6753 254.309 79.3418 251.655 79.3418C249.171 79.3418 247.137 78.6867 245.554 77.3765C243.981 76.0662 243.195 74.3345 243.195 72.1812H248.134C248.134 73.1154 248.482 73.8787 249.177 74.4712C249.883 75.0636 250.749 75.3599 251.774 75.3599C252.948 75.3599 253.865 75.0522 254.526 74.437C255.198 73.8104 255.534 72.9844 255.534 71.959C255.534 69.4753 254.167 68.2334 251.433 68.2334H248.818V64.3711ZM280.639 68.7119C280.639 72.1527 279.927 74.7845 278.503 76.6074C277.079 78.4303 274.994 79.3418 272.248 79.3418C269.536 79.3418 267.463 78.4474 266.027 76.6587C264.592 74.87 263.857 72.3065 263.823 68.9683V64.3882C263.823 60.9132 264.541 58.2757 265.976 56.4756C267.423 54.6755 269.502 53.7754 272.214 53.7754C274.925 53.7754 276.999 54.6698 278.435 56.4585C279.87 58.2358 280.605 60.7936 280.639 64.1318V68.7119ZM275.7 63.6875C275.7 61.6253 275.415 60.1271 274.846 59.1929C274.287 58.2472 273.41 57.7744 272.214 57.7744C271.052 57.7744 270.192 58.2244 269.633 59.1245C269.086 60.0132 268.796 61.4089 268.762 63.3115V69.3613C268.762 71.3893 269.035 72.8989 269.582 73.8901C270.14 74.87 271.029 75.3599 272.248 75.3599C273.456 75.3599 274.327 74.887 274.863 73.9414C275.398 72.9958 275.677 71.5488 275.7 69.6006V63.6875ZM295.986 79H291.047V59.9619L285.151 61.7905V57.7744L295.456 54.083H295.986V79ZM320.834 68.7119C320.834 72.1527 320.122 74.7845 318.698 76.6074C317.274 78.4303 315.189 79.3418 312.443 79.3418C309.732 79.3418 307.658 78.4474 306.223 76.6587C304.787 74.87 304.052 72.3065 304.018 68.9683V64.3882C304.018 60.9132 304.736 58.2757 306.171 56.4756C307.618 54.6755 309.698 53.7754 312.409 53.7754C315.121 53.7754 317.194 54.6698 318.63 56.4585C320.065 58.2358 320.8 60.7936 320.834 64.1318V68.7119ZM315.896 63.6875C315.896 61.6253 315.611 60.1271 315.041 59.1929C314.483 58.2472 313.605 57.7744 312.409 57.7744C311.247 57.7744 310.387 58.2244 309.829 59.1245C309.282 60.0132 308.991 61.4089 308.957 63.3115V69.3613C308.957 71.3893 309.23 72.8989 309.777 73.8901C310.336 74.87 311.224 75.3599 312.443 75.3599C313.651 75.3599 314.523 74.887 315.058 73.9414C315.594 72.9958 315.873 71.5488 315.896 69.6006V63.6875ZM340.932 68.7119C340.932 72.1527 340.22 74.7845 338.796 76.6074C337.372 78.4303 335.287 79.3418 332.541 79.3418C329.829 79.3418 327.756 78.4474 326.32 76.6587C324.885 74.87 324.15 72.3065 324.116 68.9683V64.3882C324.116 60.9132 324.833 58.2757 326.269 56.4756C327.716 54.6755 329.795 53.7754 332.507 53.7754C335.218 53.7754 337.292 54.6698 338.728 56.4585C340.163 58.2358 340.898 60.7936 340.932 64.1318V68.7119ZM335.993 63.6875C335.993 61.6253 335.708 60.1271 335.139 59.1929C334.58 58.2472 333.703 57.7744 332.507 57.7744C331.345 57.7744 330.485 58.2244 329.926 59.1245C329.379 60.0132 329.089 61.4089 329.055 63.3115V69.3613C329.055 71.3893 329.328 72.8989 329.875 73.8901C330.433 74.87 331.322 75.3599 332.541 75.3599C333.749 75.3599 334.62 74.887 335.156 73.9414C335.691 72.9958 335.97 71.5488 335.993 69.6006V63.6875Z" fill="black"/>
<rect x="13" y="269" width="240" height="168" fill="#A4FB96"/>
<rect x="18" y="327" width="230" height="100" fill="#7367FF"/>
<path d="M109.299 300.485V308H104.904V286.672H113.225C114.826 286.672 116.232 286.965 117.443 287.551C118.664 288.137 119.602 288.972 120.256 290.056C120.91 291.13 121.237 292.355 121.237 293.732C121.237 295.822 120.52 297.473 119.084 298.684C117.658 299.885 115.681 300.485 113.151 300.485H109.299ZM109.299 296.926H113.225C114.387 296.926 115.271 296.652 115.876 296.105C116.491 295.559 116.799 294.777 116.799 293.762C116.799 292.717 116.491 291.872 115.876 291.228C115.261 290.583 114.411 290.251 113.327 290.231H109.299V296.926ZM123.127 299.929C123.127 298.356 123.43 296.955 124.035 295.725C124.641 294.494 125.51 293.542 126.643 292.868C127.785 292.194 129.108 291.857 130.612 291.857C132.751 291.857 134.494 292.512 135.842 293.82C137.199 295.129 137.956 296.906 138.112 299.152L138.142 300.236C138.142 302.668 137.463 304.621 136.105 306.096C134.748 307.561 132.927 308.293 130.642 308.293C128.356 308.293 126.53 307.561 125.163 306.096C123.806 304.631 123.127 302.639 123.127 300.119V299.929ZM127.36 300.236C127.36 301.74 127.644 302.893 128.21 303.693C128.776 304.484 129.587 304.88 130.642 304.88C131.667 304.88 132.468 304.489 133.044 303.708C133.62 302.917 133.908 301.657 133.908 299.929C133.908 298.454 133.62 297.312 133.044 296.501C132.468 295.69 131.657 295.285 130.612 295.285C129.577 295.285 128.776 295.69 128.21 296.501C127.644 297.302 127.36 298.547 127.36 300.236ZM140.09 299.958C140.09 297.487 140.642 295.52 141.745 294.055C142.858 292.59 144.377 291.857 146.301 291.857C147.844 291.857 149.118 292.434 150.124 293.586V285.5H154.372V308H150.549L150.344 306.315C149.289 307.634 147.932 308.293 146.271 308.293C144.406 308.293 142.907 307.561 141.774 306.096C140.651 304.621 140.09 302.575 140.09 299.958ZM144.323 300.266C144.323 301.75 144.582 302.888 145.1 303.679C145.617 304.47 146.369 304.865 147.355 304.865C148.664 304.865 149.587 304.313 150.124 303.21V296.955C149.597 295.852 148.684 295.3 147.385 295.3C145.344 295.3 144.323 296.955 144.323 300.266Z" fill="black"/>
<path d="M93.5396 379.08C93.4012 380.992 92.6932 382.498 91.4155 383.596C90.146 384.695 88.4696 385.244 86.3862 385.244C84.1076 385.244 82.3132 384.479 81.0029 382.949C79.7008 381.411 79.0498 379.303 79.0498 376.626V375.54C79.0498 373.831 79.3509 372.325 79.9531 371.023C80.5553 369.721 81.4139 368.724 82.5288 368.032C83.6519 367.332 84.9539 366.982 86.4351 366.982C88.4858 366.982 90.1379 367.532 91.3911 368.63C92.6444 369.729 93.3687 371.271 93.564 373.257H89.9019C89.8123 372.109 89.4909 371.279 88.9375 370.767C88.3923 370.246 87.5581 369.985 86.4351 369.985C85.2144 369.985 84.2988 370.425 83.6885 371.304C83.0863 372.174 82.777 373.529 82.7607 375.369V376.711C82.7607 378.632 83.0496 380.036 83.6274 380.923C84.2134 381.81 85.133 382.253 86.3862 382.253C87.5174 382.253 88.3597 381.997 88.9131 381.484C89.4746 380.964 89.7961 380.162 89.8774 379.08H93.5396ZM95.1631 378.274C95.1631 376.964 95.4154 375.796 95.9199 374.771C96.4245 373.745 97.1488 372.952 98.0928 372.39C99.0449 371.829 100.148 371.548 101.401 371.548C103.183 371.548 104.636 372.093 105.759 373.184C106.89 374.274 107.521 375.755 107.651 377.627L107.675 378.53C107.675 380.557 107.11 382.184 105.979 383.413C104.847 384.634 103.33 385.244 101.425 385.244C99.521 385.244 97.9992 384.634 96.8599 383.413C95.7287 382.192 95.1631 380.532 95.1631 378.433V378.274ZM98.6909 378.53C98.6909 379.784 98.9269 380.744 99.3989 381.411C99.8709 382.07 100.546 382.4 101.425 382.4C102.28 382.4 102.947 382.074 103.427 381.423C103.907 380.764 104.147 379.714 104.147 378.274C104.147 377.045 103.907 376.093 103.427 375.417C102.947 374.742 102.272 374.404 101.401 374.404C100.538 374.404 99.8709 374.742 99.3989 375.417C98.9269 376.085 98.6909 377.122 98.6909 378.53ZM113.095 371.792L113.205 373.318C114.149 372.138 115.415 371.548 117.001 371.548C118.401 371.548 119.443 371.959 120.126 372.781C120.81 373.603 121.16 374.832 121.176 376.467V385H117.648V376.553C117.648 375.804 117.486 375.263 117.16 374.929C116.835 374.587 116.293 374.417 115.537 374.417C114.544 374.417 113.799 374.84 113.303 375.686V385H109.775V371.792H113.095ZM128.085 368.545V371.792H130.344V374.38H128.085V380.972C128.085 381.46 128.179 381.81 128.366 382.021C128.553 382.233 128.911 382.339 129.44 382.339C129.831 382.339 130.177 382.31 130.478 382.253V384.927C129.786 385.138 129.074 385.244 128.342 385.244C125.868 385.244 124.606 383.995 124.558 381.497V374.38H122.629V371.792H124.558V368.545H128.085ZM139.963 385C139.8 384.683 139.682 384.288 139.609 383.816C138.754 384.768 137.644 385.244 136.276 385.244C134.982 385.244 133.908 384.87 133.054 384.121C132.207 383.372 131.784 382.428 131.784 381.289C131.784 379.889 132.301 378.815 133.334 378.066C134.376 377.318 135.878 376.939 137.839 376.931H139.462V376.174C139.462 375.564 139.304 375.076 138.986 374.709C138.677 374.343 138.185 374.16 137.509 374.16C136.915 374.16 136.447 374.303 136.105 374.587C135.772 374.872 135.605 375.263 135.605 375.759H132.077C132.077 374.994 132.313 374.286 132.785 373.635C133.257 372.984 133.924 372.476 134.787 372.109C135.65 371.735 136.618 371.548 137.692 371.548C139.32 371.548 140.61 371.959 141.562 372.781C142.522 373.595 143.002 374.742 143.002 376.223V381.948C143.011 383.201 143.186 384.15 143.527 384.792V385H139.963ZM137.045 382.546C137.566 382.546 138.046 382.432 138.486 382.205C138.925 381.969 139.251 381.655 139.462 381.265V378.994H138.144C136.378 378.994 135.438 379.604 135.324 380.825L135.312 381.033C135.312 381.472 135.467 381.834 135.776 382.119C136.085 382.404 136.508 382.546 137.045 382.546ZM149.436 385H145.896V371.792H149.436V385ZM145.688 368.374C145.688 367.845 145.863 367.41 146.213 367.068C146.571 366.726 147.055 366.555 147.666 366.555C148.268 366.555 148.748 366.726 149.106 367.068C149.464 367.41 149.643 367.845 149.643 368.374C149.643 368.911 149.46 369.351 149.094 369.692C148.736 370.034 148.26 370.205 147.666 370.205C147.071 370.205 146.591 370.034 146.225 369.692C145.867 369.351 145.688 368.911 145.688 368.374ZM155.6 371.792L155.71 373.318C156.654 372.138 157.919 371.548 159.506 371.548C160.906 371.548 161.948 371.959 162.631 372.781C163.315 373.603 163.665 374.832 163.681 376.467V385H160.153V376.553C160.153 375.804 159.991 375.263 159.665 374.929C159.34 374.587 158.798 374.417 158.042 374.417C157.049 374.417 156.304 374.84 155.808 375.686V385H152.28V371.792H155.6ZM172.446 385.244C170.509 385.244 168.93 384.65 167.709 383.462C166.497 382.274 165.891 380.691 165.891 378.713V378.372C165.891 377.045 166.147 375.861 166.66 374.819C167.172 373.77 167.897 372.964 168.833 372.402C169.777 371.833 170.851 371.548 172.055 371.548C173.862 371.548 175.282 372.118 176.315 373.257C177.357 374.396 177.878 376.012 177.878 378.103V379.543H169.467C169.581 380.406 169.923 381.098 170.493 381.619C171.07 382.139 171.799 382.4 172.678 382.4C174.037 382.4 175.099 381.908 175.864 380.923L177.597 382.864C177.068 383.612 176.352 384.198 175.449 384.622C174.545 385.037 173.544 385.244 172.446 385.244ZM172.043 374.404C171.343 374.404 170.773 374.64 170.334 375.112C169.903 375.584 169.626 376.26 169.504 377.139H174.411V376.858C174.395 376.077 174.183 375.474 173.776 375.051C173.369 374.62 172.792 374.404 172.043 374.404ZM187.314 375.1C186.834 375.035 186.411 375.002 186.044 375.002C184.71 375.002 183.835 375.454 183.42 376.357V385H179.892V371.792H183.225L183.322 373.367C184.03 372.154 185.011 371.548 186.264 371.548C186.655 371.548 187.021 371.601 187.363 371.707L187.314 375.1Z" fill="white"/>
<rect x="258" y="269" width="240" height="168" fill="#A4FB96"/>
<rect x="263" y="327" width="230" height="100" fill="#7367FF"/>
<path d="M354.299 300.485V308H349.904V286.672H358.225C359.826 286.672 361.232 286.965 362.443 287.551C363.664 288.137 364.602 288.972 365.256 290.056C365.91 291.13 366.237 292.355 366.237 293.732C366.237 295.822 365.52 297.473 364.084 298.684C362.658 299.885 360.681 300.485 358.151 300.485H354.299ZM354.299 296.926H358.225C359.387 296.926 360.271 296.652 360.876 296.105C361.491 295.559 361.799 294.777 361.799 293.762C361.799 292.717 361.491 291.872 360.876 291.228C360.261 290.583 359.411 290.251 358.327 290.231H354.299V296.926ZM368.127 299.929C368.127 298.356 368.43 296.955 369.035 295.725C369.641 294.494 370.51 293.542 371.643 292.868C372.785 292.194 374.108 291.857 375.612 291.857C377.751 291.857 379.494 292.512 380.842 293.82C382.199 295.129 382.956 296.906 383.112 299.152L383.142 300.236C383.142 302.668 382.463 304.621 381.105 306.096C379.748 307.561 377.927 308.293 375.642 308.293C373.356 308.293 371.53 307.561 370.163 306.096C368.806 304.631 368.127 302.639 368.127 300.119V299.929ZM372.36 300.236C372.36 301.74 372.644 302.893 373.21 303.693C373.776 304.484 374.587 304.88 375.642 304.88C376.667 304.88 377.468 304.489 378.044 303.708C378.62 302.917 378.908 301.657 378.908 299.929C378.908 298.454 378.62 297.312 378.044 296.501C377.468 295.69 376.657 295.285 375.612 295.285C374.577 295.285 373.776 295.69 373.21 296.501C372.644 297.302 372.36 298.547 372.36 300.236ZM385.09 299.958C385.09 297.487 385.642 295.52 386.745 294.055C387.858 292.59 389.377 291.857 391.301 291.857C392.844 291.857 394.118 292.434 395.124 293.586V285.5H399.372V308H395.549L395.344 306.315C394.289 307.634 392.932 308.293 391.271 308.293C389.406 308.293 387.907 307.561 386.774 306.096C385.651 304.621 385.09 302.575 385.09 299.958ZM389.323 300.266C389.323 301.75 389.582 302.888 390.1 303.679C390.617 304.47 391.369 304.865 392.355 304.865C393.664 304.865 394.587 304.313 395.124 303.21V296.955C394.597 295.852 393.684 295.3 392.385 295.3C390.344 295.3 389.323 296.955 389.323 300.266Z" fill="black"/>
<path d="M338.54 379.08C338.401 380.992 337.693 382.498 336.416 383.596C335.146 384.695 333.47 385.244 331.386 385.244C329.108 385.244 327.313 384.479 326.003 382.949C324.701 381.411 324.05 379.303 324.05 376.626V375.54C324.05 373.831 324.351 372.325 324.953 371.023C325.555 369.721 326.414 368.724 327.529 368.032C328.652 367.332 329.954 366.982 331.435 366.982C333.486 366.982 335.138 367.532 336.391 368.63C337.644 369.729 338.369 371.271 338.564 373.257H334.902C334.812 372.109 334.491 371.279 333.938 370.767C333.392 370.246 332.558 369.985 331.435 369.985C330.214 369.985 329.299 370.425 328.688 371.304C328.086 372.174 327.777 373.529 327.761 375.369V376.711C327.761 378.632 328.05 380.036 328.627 380.923C329.213 381.81 330.133 382.253 331.386 382.253C332.517 382.253 333.36 381.997 333.913 381.484C334.475 380.964 334.796 380.162 334.877 379.08H338.54ZM340.163 378.274C340.163 376.964 340.415 375.796 340.92 374.771C341.424 373.745 342.149 372.952 343.093 372.39C344.045 371.829 345.148 371.548 346.401 371.548C348.183 371.548 349.636 372.093 350.759 373.184C351.89 374.274 352.521 375.755 352.651 377.627L352.675 378.53C352.675 380.557 352.11 382.184 350.979 383.413C349.847 384.634 348.33 385.244 346.425 385.244C344.521 385.244 342.999 384.634 341.86 383.413C340.729 382.192 340.163 380.532 340.163 378.433V378.274ZM343.691 378.53C343.691 379.784 343.927 380.744 344.399 381.411C344.871 382.07 345.546 382.4 346.425 382.4C347.28 382.4 347.947 382.074 348.427 381.423C348.907 380.764 349.147 379.714 349.147 378.274C349.147 377.045 348.907 376.093 348.427 375.417C347.947 374.742 347.272 374.404 346.401 374.404C345.538 374.404 344.871 374.742 344.399 375.417C343.927 376.085 343.691 377.122 343.691 378.53ZM358.095 371.792L358.205 373.318C359.149 372.138 360.415 371.548 362.001 371.548C363.401 371.548 364.443 371.959 365.126 372.781C365.81 373.603 366.16 374.832 366.176 376.467V385H362.648V376.553C362.648 375.804 362.486 375.263 362.16 374.929C361.835 374.587 361.293 374.417 360.537 374.417C359.544 374.417 358.799 374.84 358.303 375.686V385H354.775V371.792H358.095ZM373.085 368.545V371.792H375.344V374.38H373.085V380.972C373.085 381.46 373.179 381.81 373.366 382.021C373.553 382.233 373.911 382.339 374.44 382.339C374.831 382.339 375.177 382.31 375.478 382.253V384.927C374.786 385.138 374.074 385.244 373.342 385.244C370.868 385.244 369.606 383.995 369.558 381.497V374.38H367.629V371.792H369.558V368.545H373.085ZM384.963 385C384.8 384.683 384.682 384.288 384.609 383.816C383.754 384.768 382.644 385.244 381.276 385.244C379.982 385.244 378.908 384.87 378.054 384.121C377.207 383.372 376.784 382.428 376.784 381.289C376.784 379.889 377.301 378.815 378.334 378.066C379.376 377.318 380.878 376.939 382.839 376.931H384.462V376.174C384.462 375.564 384.304 375.076 383.986 374.709C383.677 374.343 383.185 374.16 382.509 374.16C381.915 374.16 381.447 374.303 381.105 374.587C380.772 374.872 380.605 375.263 380.605 375.759H377.077C377.077 374.994 377.313 374.286 377.785 373.635C378.257 372.984 378.924 372.476 379.787 372.109C380.65 371.735 381.618 371.548 382.692 371.548C384.32 371.548 385.61 371.959 386.562 372.781C387.522 373.595 388.002 374.742 388.002 376.223V381.948C388.011 383.201 388.186 384.15 388.527 384.792V385H384.963ZM382.045 382.546C382.566 382.546 383.046 382.432 383.486 382.205C383.925 381.969 384.251 381.655 384.462 381.265V378.994H383.144C381.378 378.994 380.438 379.604 380.324 380.825L380.312 381.033C380.312 381.472 380.467 381.834 380.776 382.119C381.085 382.404 381.508 382.546 382.045 382.546ZM394.436 385H390.896V371.792H394.436V385ZM390.688 368.374C390.688 367.845 390.863 367.41 391.213 367.068C391.571 366.726 392.055 366.555 392.666 366.555C393.268 366.555 393.748 366.726 394.106 367.068C394.464 367.41 394.643 367.845 394.643 368.374C394.643 368.911 394.46 369.351 394.094 369.692C393.736 370.034 393.26 370.205 392.666 370.205C392.071 370.205 391.591 370.034 391.225 369.692C390.867 369.351 390.688 368.911 390.688 368.374ZM400.6 371.792L400.71 373.318C401.654 372.138 402.919 371.548 404.506 371.548C405.906 371.548 406.948 371.959 407.631 372.781C408.315 373.603 408.665 374.832 408.681 376.467V385H405.153V376.553C405.153 375.804 404.991 375.263 404.665 374.929C404.34 374.587 403.798 374.417 403.042 374.417C402.049 374.417 401.304 374.84 400.808 375.686V385H397.28V371.792H400.6ZM417.446 385.244C415.509 385.244 413.93 384.65 412.709 383.462C411.497 382.274 410.891 380.691 410.891 378.713V378.372C410.891 377.045 411.147 375.861 411.66 374.819C412.172 373.77 412.897 372.964 413.833 372.402C414.777 371.833 415.851 371.548 417.055 371.548C418.862 371.548 420.282 372.118 421.315 373.257C422.357 374.396 422.878 376.012 422.878 378.103V379.543H414.467C414.581 380.406 414.923 381.098 415.493 381.619C416.07 382.139 416.799 382.4 417.678 382.4C419.037 382.4 420.099 381.908 420.864 380.923L422.597 382.864C422.068 383.612 421.352 384.198 420.449 384.622C419.545 385.037 418.544 385.244 417.446 385.244ZM417.043 374.404C416.343 374.404 415.773 374.64 415.334 375.112C414.903 375.584 414.626 376.26 414.504 377.139H419.411V376.858C419.395 376.077 419.183 375.474 418.776 375.051C418.369 374.62 417.792 374.404 417.043 374.404ZM432.314 375.1C431.834 375.035 431.411 375.002 431.044 375.002C429.71 375.002 428.835 375.454 428.42 376.357V385H424.892V371.792H428.225L428.322 373.367C429.03 372.154 430.011 371.548 431.264 371.548C431.655 371.548 432.021 371.601 432.363 371.707L432.314 375.1Z" fill="white"/>
<rect x="140" y="90" width="230" height="100" fill="#E96969"/>
<path d="M224.803 144.337C224.803 143.645 224.559 143.116 224.071 142.75C223.583 142.376 222.704 141.985 221.434 141.578C220.165 141.163 219.16 140.756 218.419 140.357C216.401 139.267 215.392 137.798 215.392 135.951C215.392 134.99 215.66 134.136 216.197 133.387C216.743 132.63 217.52 132.04 218.529 131.617C219.546 131.194 220.685 130.982 221.947 130.982C223.216 130.982 224.347 131.214 225.34 131.678C226.333 132.134 227.102 132.781 227.647 133.619C228.201 134.457 228.478 135.41 228.478 136.476H224.815C224.815 135.662 224.559 135.031 224.046 134.583C223.534 134.128 222.813 133.9 221.886 133.9C220.991 133.9 220.295 134.091 219.798 134.474C219.302 134.848 219.054 135.344 219.054 135.963C219.054 136.541 219.343 137.025 219.92 137.416C220.506 137.806 221.365 138.172 222.496 138.514C224.579 139.141 226.097 139.918 227.049 140.846C228.001 141.773 228.478 142.929 228.478 144.312C228.478 145.851 227.896 147.059 226.732 147.938C225.568 148.809 224.002 149.244 222.032 149.244C220.665 149.244 219.42 148.996 218.297 148.5C217.174 147.995 216.315 147.307 215.721 146.437C215.135 145.566 214.842 144.557 214.842 143.409H218.517C218.517 145.37 219.688 146.351 222.032 146.351C222.903 146.351 223.583 146.176 224.071 145.826C224.559 145.468 224.803 144.972 224.803 144.337ZM236.815 149.244C234.878 149.244 233.299 148.65 232.079 147.462C230.866 146.274 230.26 144.691 230.26 142.713V142.372C230.26 141.045 230.516 139.861 231.029 138.819C231.542 137.77 232.266 136.964 233.202 136.402C234.146 135.833 235.22 135.548 236.424 135.548C238.231 135.548 239.651 136.118 240.685 137.257C241.726 138.396 242.247 140.012 242.247 142.103V143.543H233.836C233.95 144.406 234.292 145.098 234.862 145.619C235.44 146.139 236.168 146.4 237.047 146.4C238.406 146.4 239.468 145.908 240.233 144.923L241.966 146.864C241.437 147.612 240.721 148.198 239.818 148.622C238.915 149.037 237.914 149.244 236.815 149.244ZM236.412 138.404C235.712 138.404 235.143 138.64 234.703 139.112C234.272 139.584 233.995 140.26 233.873 141.139H238.78V140.858C238.764 140.077 238.552 139.474 238.146 139.051C237.739 138.62 237.161 138.404 236.412 138.404ZM251.683 139.1C251.203 139.035 250.78 139.002 250.414 139.002C249.079 139.002 248.204 139.454 247.789 140.357V149H244.261V135.792H247.594L247.691 137.367C248.399 136.154 249.38 135.548 250.633 135.548C251.024 135.548 251.39 135.601 251.732 135.707L251.683 139.1ZM258.556 144.691L261.009 135.792H264.696L260.24 149H256.871L252.416 135.792H256.102L258.556 144.691ZM269.981 149H266.441V135.792H269.981V149ZM266.234 132.374C266.234 131.845 266.409 131.41 266.759 131.068C267.117 130.726 267.601 130.555 268.211 130.555C268.814 130.555 269.294 130.726 269.652 131.068C270.01 131.41 270.189 131.845 270.189 132.374C270.189 132.911 270.006 133.351 269.64 133.692C269.282 134.034 268.806 134.205 268.211 134.205C267.617 134.205 267.137 134.034 266.771 133.692C266.413 133.351 266.234 132.911 266.234 132.374ZM278.392 146.4C279.043 146.4 279.572 146.221 279.979 145.863C280.386 145.505 280.597 145.029 280.614 144.435H283.922C283.914 145.33 283.67 146.152 283.189 146.9C282.709 147.641 282.05 148.219 281.212 148.634C280.382 149.041 279.462 149.244 278.453 149.244C276.565 149.244 275.076 148.646 273.985 147.45C272.895 146.245 272.35 144.585 272.35 142.469V142.237C272.35 140.203 272.891 138.579 273.973 137.367C275.056 136.154 276.541 135.548 278.429 135.548C280.081 135.548 281.403 136.02 282.396 136.964C283.397 137.9 283.906 139.149 283.922 140.711H280.614C280.597 140.028 280.386 139.474 279.979 139.051C279.572 138.62 279.035 138.404 278.368 138.404C277.546 138.404 276.923 138.705 276.5 139.308C276.085 139.902 275.877 140.87 275.877 142.213V142.579C275.877 143.938 276.085 144.915 276.5 145.509C276.915 146.103 277.546 146.4 278.392 146.4ZM292.015 149.244C290.078 149.244 288.5 148.65 287.279 147.462C286.066 146.274 285.46 144.691 285.46 142.713V142.372C285.46 141.045 285.716 139.861 286.229 138.819C286.742 137.77 287.466 136.964 288.402 136.402C289.346 135.833 290.42 135.548 291.625 135.548C293.431 135.548 294.851 136.118 295.885 137.257C296.926 138.396 297.447 140.012 297.447 142.103V143.543H289.037C289.151 144.406 289.492 145.098 290.062 145.619C290.64 146.139 291.368 146.4 292.247 146.4C293.606 146.4 294.668 145.908 295.433 144.923L297.167 146.864C296.638 147.612 295.921 148.198 295.018 148.622C294.115 149.037 293.114 149.244 292.015 149.244ZM291.612 138.404C290.912 138.404 290.343 138.64 289.903 139.112C289.472 139.584 289.195 140.26 289.073 141.139H293.98V140.858C293.964 140.077 293.753 139.474 293.346 139.051C292.939 138.62 292.361 138.404 291.612 138.404Z" fill="white"/>
<path d="M129.647 254.155C129.18 255.455 129.856 256.886 131.155 257.353L152.331 264.957C153.63 265.424 155.062 264.749 155.529 263.45C155.995 262.15 155.32 260.718 154.021 260.252L135.198 253.492L141.957 234.669C142.424 233.37 141.749 231.938 140.45 231.471C139.15 231.005 137.718 231.68 137.252 232.979L129.647 254.155ZM253.934 194.739L130.934 252.739L133.066 257.261L256.066 199.261L253.934 194.739Z" fill="black"/>
<path d="M379.852 257.35C381.15 256.88 381.821 255.446 381.35 254.148L373.68 232.996C373.209 231.698 371.775 231.027 370.477 231.498C369.179 231.968 368.509 233.402 368.979 234.7L375.797 253.502L356.996 260.32C355.698 260.791 355.027 262.225 355.498 263.523C355.968 264.821 357.402 265.491 358.7 265.021L379.852 257.35ZM253.941 199.265L377.941 257.265L380.059 252.735L256.059 194.735L253.941 199.265Z" fill="black"/>
</svg>
