<svg width="500" height="250" viewBox="0 0 500 250" fill="none" xmlns="http://www.w3.org/2000/svg">
<rect width="500" height="250" fill="#C4C4C4"/>
<rect x="5" y="73" width="240" height="168" fill="#A4FB96"/>
<rect x="10" y="131" width="230" height="100" fill="#7367FF"/>
<path d="M230.456 48H225.329L215.349 31.6279V48H210.222V23.1172H215.349L225.346 39.5234V23.1172H230.456V48ZM233.84 38.5835C233.84 36.7492 234.193 35.1143 234.899 33.6787C235.606 32.2432 236.62 31.1323 237.941 30.3462C239.274 29.5601 240.818 29.167 242.573 29.167C245.068 29.167 247.102 29.9303 248.674 31.457C250.257 32.9837 251.14 35.0573 251.323 37.6777L251.357 38.9424C251.357 41.7793 250.565 44.0579 248.981 45.7783C247.398 47.4873 245.273 48.3418 242.607 48.3418C239.941 48.3418 237.81 47.4873 236.215 45.7783C234.632 44.0693 233.84 41.7451 233.84 38.8057V38.5835ZM238.779 38.9424C238.779 40.6969 239.109 42.0413 239.77 42.9756C240.431 43.8984 241.376 44.3599 242.607 44.3599C243.803 44.3599 244.737 43.9041 245.41 42.9927C246.082 42.0698 246.418 40.6001 246.418 38.5835C246.418 36.8631 246.082 35.5301 245.41 34.5845C244.737 33.6388 243.792 33.166 242.573 33.166C241.365 33.166 240.431 33.6388 239.77 34.5845C239.109 35.5187 238.779 36.9714 238.779 38.9424ZM253.63 38.6177C253.63 35.7352 254.274 33.4395 255.561 31.7305C256.86 30.0215 258.632 29.167 260.876 29.167C262.676 29.167 264.163 29.8392 265.336 31.1836V21.75H270.292V48H265.832L265.593 46.0347C264.362 47.5728 262.779 48.3418 260.842 48.3418C258.666 48.3418 256.917 47.4873 255.595 45.7783C254.285 44.0579 253.63 41.6711 253.63 38.6177ZM258.569 38.9766C258.569 40.7083 258.871 42.0356 259.475 42.9585C260.078 43.8813 260.956 44.3428 262.106 44.3428C263.633 44.3428 264.71 43.6991 265.336 42.4116V35.1143C264.721 33.8268 263.656 33.1831 262.141 33.1831C259.759 33.1831 258.569 35.1143 258.569 38.9766ZM282.631 48.3418C279.92 48.3418 277.709 47.5101 276 45.8467C274.303 44.1833 273.454 41.9673 273.454 39.1987V38.7202C273.454 36.8631 273.813 35.2054 274.531 33.7471C275.249 32.2773 276.263 31.1494 277.573 30.3633C278.894 29.5658 280.398 29.167 282.084 29.167C284.614 29.167 286.602 29.9645 288.049 31.5596C289.507 33.1546 290.236 35.4162 290.236 38.3442V40.3608H278.461C278.621 41.5685 279.099 42.5369 279.897 43.2661C280.706 43.9953 281.726 44.3599 282.956 44.3599C284.859 44.3599 286.346 43.6706 287.417 42.292L289.843 45.0093C289.103 46.0575 288.1 46.8778 286.835 47.4702C285.571 48.0513 284.169 48.3418 282.631 48.3418ZM282.067 33.166C281.088 33.166 280.29 33.4964 279.675 34.1572C279.071 34.818 278.684 35.7637 278.513 36.9941H285.383V36.6011C285.36 35.5073 285.064 34.6642 284.494 34.0718C283.924 33.4679 283.116 33.166 282.067 33.166Z" fill="black"/>
<path d="M43.2988 104.485V112H38.9043V90.6719H47.2246C48.8262 90.6719 50.2324 90.9648 51.4434 91.5508C52.6641 92.1367 53.6016 92.9717 54.2559 94.0557C54.9102 95.1299 55.2373 96.3555 55.2373 97.7324C55.2373 99.8223 54.5195 101.473 53.084 102.684C51.6582 103.885 49.6807 104.485 47.1514 104.485H43.2988ZM43.2988 100.926H47.2246C48.3867 100.926 49.2705 100.652 49.876 100.105C50.4912 99.5586 50.7988 98.7773 50.7988 97.7617C50.7988 96.7168 50.4912 95.8721 49.876 95.2275C49.2607 94.583 48.4111 94.251 47.3271 94.2314H43.2988V100.926ZM57.127 103.929C57.127 102.356 57.4297 100.955 58.0352 99.7246C58.6406 98.4941 59.5098 97.542 60.6426 96.8682C61.7852 96.1943 63.1084 95.8574 64.6123 95.8574C66.751 95.8574 68.4941 96.5117 69.8418 97.8203C71.1992 99.1289 71.9561 100.906 72.1123 103.152L72.1416 104.236C72.1416 106.668 71.4629 108.621 70.1055 110.096C68.748 111.561 66.9268 112.293 64.6416 112.293C62.3564 112.293 60.5303 111.561 59.1631 110.096C57.8057 108.631 57.127 106.639 57.127 104.119V103.929ZM61.3604 104.236C61.3604 105.74 61.6436 106.893 62.21 107.693C62.7764 108.484 63.5869 108.88 64.6416 108.88C65.667 108.88 66.4678 108.489 67.0439 107.708C67.6201 106.917 67.9082 105.657 67.9082 103.929C67.9082 102.454 67.6201 101.312 67.0439 100.501C66.4678 99.6904 65.6572 99.2852 64.6123 99.2852C63.5771 99.2852 62.7764 99.6904 62.21 100.501C61.6436 101.302 61.3604 102.547 61.3604 104.236ZM74.0898 103.958C74.0898 101.487 74.6416 99.5195 75.7451 98.0547C76.8584 96.5898 78.377 95.8574 80.3008 95.8574C81.8438 95.8574 83.1182 96.4336 84.124 97.5859V89.5H88.3721V112H84.5488L84.3438 110.315C83.2891 111.634 81.9316 112.293 80.2715 112.293C78.4062 112.293 76.9072 111.561 75.7744 110.096C74.6514 108.621 74.0898 106.575 74.0898 103.958ZM78.3232 104.266C78.3232 105.75 78.582 106.888 79.0996 107.679C79.6172 108.47 80.3691 108.865 81.3555 108.865C82.6641 108.865 83.5869 108.313 84.124 107.21V100.955C83.5967 99.8516 82.6836 99.2998 81.3848 99.2998C79.3438 99.2998 78.3232 100.955 78.3232 104.266ZM99.3145 103.328C99.3145 101.092 99.6123 98.9629 100.208 96.9414C100.804 94.9199 101.683 93.1328 102.845 91.5801C104.007 90.0176 105.267 88.9336 106.624 88.3281L107.444 90.6133C106.019 91.668 104.905 93.2988 104.104 95.5059C103.304 97.7129 102.903 100.291 102.903 103.24V103.694C102.903 106.653 103.299 109.241 104.09 111.458C104.881 113.675 105.999 115.33 107.444 116.424L106.624 118.665C105.296 118.069 104.056 117.015 102.903 115.501C101.761 113.997 100.887 112.259 100.281 110.286C99.6758 108.313 99.3535 106.253 99.3145 104.104V103.328ZM119.778 112H115.545V95.6816L110.491 97.249V93.8066L119.324 90.6426H119.778V112ZM127.117 109.92C127.117 109.246 127.342 108.699 127.791 108.279C128.25 107.859 128.821 107.649 129.505 107.649C130.198 107.649 130.77 107.859 131.219 108.279C131.678 108.699 131.907 109.246 131.907 109.92C131.907 110.584 131.683 111.126 131.233 111.546C130.784 111.956 130.208 112.161 129.505 112.161C128.812 112.161 128.24 111.956 127.791 111.546C127.342 111.126 127.117 110.584 127.117 109.92ZM145.735 112H141.502V95.6816L136.448 97.249V93.8066L145.281 90.6426H145.735V112ZM153.074 109.92C153.074 109.246 153.299 108.699 153.748 108.279C154.207 107.859 154.778 107.649 155.462 107.649C156.155 107.649 156.727 107.859 157.176 108.279C157.635 108.699 157.864 109.246 157.864 109.92C157.864 110.584 157.64 111.126 157.19 111.546C156.741 111.956 156.165 112.161 155.462 112.161C154.769 112.161 154.197 111.956 153.748 111.546C153.299 111.126 153.074 110.584 153.074 109.92ZM171.692 112H167.459V95.6816L162.405 97.249V93.8066L171.238 90.6426H171.692V112ZM179.031 109.92C179.031 109.246 179.256 108.699 179.705 108.279C180.164 107.859 180.735 107.649 181.419 107.649C182.112 107.649 182.684 107.859 183.133 108.279C183.592 108.699 183.821 109.246 183.821 109.92C183.821 110.584 183.597 111.126 183.147 111.546C182.698 111.956 182.122 112.161 181.419 112.161C180.726 112.161 180.154 111.956 179.705 111.546C179.256 111.126 179.031 110.584 179.031 109.92ZM197.649 112H193.416V95.6816L188.362 97.249V93.8066L197.195 90.6426H197.649V112ZM212.063 103.665C212.063 105.872 211.746 107.996 211.111 110.037C210.477 112.078 209.563 113.88 208.372 115.442C207.181 117.005 205.906 118.079 204.549 118.665L203.729 116.424C205.115 115.379 206.209 113.768 207.01 111.59C207.811 109.412 208.226 106.907 208.255 104.075V103.299C208.255 100.379 207.854 97.8057 207.054 95.5791C206.263 93.3525 205.154 91.6826 203.729 90.5693L204.549 88.3281C205.877 88.9043 207.127 89.9492 208.299 91.4629C209.48 92.9766 210.394 94.7393 211.038 96.751C211.692 98.7627 212.034 100.848 212.063 103.006V103.665Z" fill="black"/>
<path d="M85.5396 183.08C85.4012 184.992 84.6932 186.498 83.4155 187.596C82.146 188.695 80.4696 189.244 78.3862 189.244C76.1076 189.244 74.3132 188.479 73.0029 186.949C71.7008 185.411 71.0498 183.303 71.0498 180.626V179.54C71.0498 177.831 71.3509 176.325 71.9531 175.023C72.5553 173.721 73.4139 172.724 74.5288 172.032C75.6519 171.332 76.9539 170.982 78.4351 170.982C80.4858 170.982 82.1379 171.532 83.3911 172.63C84.6444 173.729 85.3687 175.271 85.564 177.257H81.9019C81.8123 176.109 81.4909 175.279 80.9375 174.767C80.3923 174.246 79.5581 173.985 78.4351 173.985C77.2144 173.985 76.2988 174.425 75.6885 175.304C75.0863 176.174 74.777 177.529 74.7607 179.369V180.711C74.7607 182.632 75.0496 184.036 75.6274 184.923C76.2134 185.81 77.133 186.253 78.3862 186.253C79.5174 186.253 80.3597 185.997 80.9131 185.484C81.4746 184.964 81.7961 184.162 81.8774 183.08H85.5396ZM87.1631 182.274C87.1631 180.964 87.4154 179.796 87.9199 178.771C88.4245 177.745 89.1488 176.952 90.0928 176.39C91.0449 175.829 92.1476 175.548 93.4009 175.548C95.1831 175.548 96.6357 176.093 97.7588 177.184C98.89 178.274 99.5207 179.755 99.6509 181.627L99.6753 182.53C99.6753 184.557 99.1097 186.184 97.9785 187.413C96.8473 188.634 95.3296 189.244 93.4253 189.244C91.521 189.244 89.9992 188.634 88.8599 187.413C87.7287 186.192 87.1631 184.532 87.1631 182.433V182.274ZM90.6909 182.53C90.6909 183.784 90.9269 184.744 91.3989 185.411C91.8709 186.07 92.5464 186.4 93.4253 186.4C94.2798 186.4 94.9471 186.074 95.4272 185.423C95.9074 184.764 96.1475 183.714 96.1475 182.274C96.1475 181.045 95.9074 180.093 95.4272 179.417C94.9471 178.742 94.2716 178.404 93.4009 178.404C92.5382 178.404 91.8709 178.742 91.3989 179.417C90.9269 180.085 90.6909 181.122 90.6909 182.53ZM105.095 175.792L105.205 177.318C106.149 176.138 107.415 175.548 109.001 175.548C110.401 175.548 111.443 175.959 112.126 176.781C112.81 177.603 113.16 178.832 113.176 180.467V189H109.648V180.553C109.648 179.804 109.486 179.263 109.16 178.929C108.835 178.587 108.293 178.417 107.537 178.417C106.544 178.417 105.799 178.84 105.303 179.686V189H101.775V175.792H105.095ZM120.085 172.545V175.792H122.344V178.38H120.085V184.972C120.085 185.46 120.179 185.81 120.366 186.021C120.553 186.233 120.911 186.339 121.44 186.339C121.831 186.339 122.177 186.31 122.478 186.253V188.927C121.786 189.138 121.074 189.244 120.342 189.244C117.868 189.244 116.606 187.995 116.558 185.497V178.38H114.629V175.792H116.558V172.545H120.085ZM131.963 189C131.8 188.683 131.682 188.288 131.609 187.816C130.754 188.768 129.644 189.244 128.276 189.244C126.982 189.244 125.908 188.87 125.054 188.121C124.207 187.372 123.784 186.428 123.784 185.289C123.784 183.889 124.301 182.815 125.334 182.066C126.376 181.318 127.878 180.939 129.839 180.931H131.462V180.174C131.462 179.564 131.304 179.076 130.986 178.709C130.677 178.343 130.185 178.16 129.509 178.16C128.915 178.16 128.447 178.303 128.105 178.587C127.772 178.872 127.605 179.263 127.605 179.759H124.077C124.077 178.994 124.313 178.286 124.785 177.635C125.257 176.984 125.924 176.476 126.787 176.109C127.65 175.735 128.618 175.548 129.692 175.548C131.32 175.548 132.61 175.959 133.562 176.781C134.522 177.595 135.002 178.742 135.002 180.223V185.948C135.011 187.201 135.186 188.15 135.527 188.792V189H131.963ZM129.045 186.546C129.566 186.546 130.046 186.432 130.486 186.205C130.925 185.969 131.251 185.655 131.462 185.265V182.994H130.144C128.378 182.994 127.438 183.604 127.324 184.825L127.312 185.033C127.312 185.472 127.467 185.834 127.776 186.119C128.085 186.404 128.508 186.546 129.045 186.546ZM141.436 189H137.896V175.792H141.436V189ZM137.688 172.374C137.688 171.845 137.863 171.41 138.213 171.068C138.571 170.726 139.055 170.555 139.666 170.555C140.268 170.555 140.748 170.726 141.106 171.068C141.464 171.41 141.643 171.845 141.643 172.374C141.643 172.911 141.46 173.351 141.094 173.692C140.736 174.034 140.26 174.205 139.666 174.205C139.071 174.205 138.591 174.034 138.225 173.692C137.867 173.351 137.688 172.911 137.688 172.374ZM147.6 175.792L147.71 177.318C148.654 176.138 149.919 175.548 151.506 175.548C152.906 175.548 153.948 175.959 154.631 176.781C155.315 177.603 155.665 178.832 155.681 180.467V189H152.153V180.553C152.153 179.804 151.991 179.263 151.665 178.929C151.34 178.587 150.798 178.417 150.042 178.417C149.049 178.417 148.304 178.84 147.808 179.686V189H144.28V175.792H147.6ZM164.446 189.244C162.509 189.244 160.93 188.65 159.709 187.462C158.497 186.274 157.891 184.691 157.891 182.713V182.372C157.891 181.045 158.147 179.861 158.66 178.819C159.172 177.77 159.897 176.964 160.833 176.402C161.777 175.833 162.851 175.548 164.055 175.548C165.862 175.548 167.282 176.118 168.315 177.257C169.357 178.396 169.878 180.012 169.878 182.103V183.543H161.467C161.581 184.406 161.923 185.098 162.493 185.619C163.07 186.139 163.799 186.4 164.678 186.4C166.037 186.4 167.099 185.908 167.864 184.923L169.597 186.864C169.068 187.612 168.352 188.198 167.449 188.622C166.545 189.037 165.544 189.244 164.446 189.244ZM164.043 178.404C163.343 178.404 162.773 178.64 162.334 179.112C161.903 179.584 161.626 180.26 161.504 181.139H166.411V180.858C166.395 180.077 166.183 179.474 165.776 179.051C165.369 178.62 164.792 178.404 164.043 178.404ZM179.314 179.1C178.834 179.035 178.411 179.002 178.044 179.002C176.71 179.002 175.835 179.454 175.42 180.357V189H171.892V175.792H175.225L175.322 177.367C176.03 176.154 177.011 175.548 178.264 175.548C178.655 175.548 179.021 175.601 179.363 175.707L179.314 179.1Z" fill="white"/>
<rect x="255" y="73" width="240" height="168" fill="#A4FB96"/>
<rect x="260" y="131" width="110" height="100" fill="#7367FF"/>
<path d="M293.299 104.485V112H288.904V90.6719H297.225C298.826 90.6719 300.232 90.9648 301.443 91.5508C302.664 92.1367 303.602 92.9717 304.256 94.0557C304.91 95.1299 305.237 96.3555 305.237 97.7324C305.237 99.8223 304.52 101.473 303.084 102.684C301.658 103.885 299.681 104.485 297.151 104.485H293.299ZM293.299 100.926H297.225C298.387 100.926 299.271 100.652 299.876 100.105C300.491 99.5586 300.799 98.7773 300.799 97.7617C300.799 96.7168 300.491 95.8721 299.876 95.2275C299.261 94.583 298.411 94.251 297.327 94.2314H293.299V100.926ZM307.127 103.929C307.127 102.356 307.43 100.955 308.035 99.7246C308.641 98.4941 309.51 97.542 310.643 96.8682C311.785 96.1943 313.108 95.8574 314.612 95.8574C316.751 95.8574 318.494 96.5117 319.842 97.8203C321.199 99.1289 321.956 100.906 322.112 103.152L322.142 104.236C322.142 106.668 321.463 108.621 320.105 110.096C318.748 111.561 316.927 112.293 314.642 112.293C312.356 112.293 310.53 111.561 309.163 110.096C307.806 108.631 307.127 106.639 307.127 104.119V103.929ZM311.36 104.236C311.36 105.74 311.644 106.893 312.21 107.693C312.776 108.484 313.587 108.88 314.642 108.88C315.667 108.88 316.468 108.489 317.044 107.708C317.62 106.917 317.908 105.657 317.908 103.929C317.908 102.454 317.62 101.312 317.044 100.501C316.468 99.6904 315.657 99.2852 314.612 99.2852C313.577 99.2852 312.776 99.6904 312.21 100.501C311.644 101.302 311.36 102.547 311.36 104.236ZM324.09 103.958C324.09 101.487 324.642 99.5195 325.745 98.0547C326.858 96.5898 328.377 95.8574 330.301 95.8574C331.844 95.8574 333.118 96.4336 334.124 97.5859V89.5H338.372V112H334.549L334.344 110.315C333.289 111.634 331.932 112.293 330.271 112.293C328.406 112.293 326.907 111.561 325.774 110.096C324.651 108.621 324.09 106.575 324.09 103.958ZM328.323 104.266C328.323 105.75 328.582 106.888 329.1 107.679C329.617 108.47 330.369 108.865 331.355 108.865C332.664 108.865 333.587 108.313 334.124 107.21V100.955C333.597 99.8516 332.684 99.2998 331.385 99.2998C329.344 99.2998 328.323 100.955 328.323 104.266ZM349.314 103.328C349.314 101.092 349.612 98.9629 350.208 96.9414C350.804 94.9199 351.683 93.1328 352.845 91.5801C354.007 90.0176 355.267 88.9336 356.624 88.3281L357.444 90.6133C356.019 91.668 354.905 93.2988 354.104 95.5059C353.304 97.7129 352.903 100.291 352.903 103.24V103.694C352.903 106.653 353.299 109.241 354.09 111.458C354.881 113.675 355.999 115.33 357.444 116.424L356.624 118.665C355.296 118.069 354.056 117.015 352.903 115.501C351.761 113.997 350.887 112.259 350.281 110.286C349.676 108.313 349.354 106.253 349.314 104.104V103.328ZM369.778 112H365.545V95.6816L360.491 97.249V93.8066L369.324 90.6426H369.778V112ZM377.117 109.92C377.117 109.246 377.342 108.699 377.791 108.279C378.25 107.859 378.821 107.649 379.505 107.649C380.198 107.649 380.77 107.859 381.219 108.279C381.678 108.699 381.907 109.246 381.907 109.92C381.907 110.584 381.683 111.126 381.233 111.546C380.784 111.956 380.208 112.161 379.505 112.161C378.812 112.161 378.24 111.956 377.791 111.546C377.342 111.126 377.117 110.584 377.117 109.92ZM395.735 112H391.502V95.6816L386.448 97.249V93.8066L395.281 90.6426H395.735V112ZM403.074 109.92C403.074 109.246 403.299 108.699 403.748 108.279C404.207 107.859 404.778 107.649 405.462 107.649C406.155 107.649 406.727 107.859 407.176 108.279C407.635 108.699 407.864 109.246 407.864 109.92C407.864 110.584 407.64 111.126 407.19 111.546C406.741 111.956 406.165 112.161 405.462 112.161C404.769 112.161 404.197 111.956 403.748 111.546C403.299 111.126 403.074 110.584 403.074 109.92ZM421.692 112H417.459V95.6816L412.405 97.249V93.8066L421.238 90.6426H421.692V112ZM429.031 109.92C429.031 109.246 429.256 108.699 429.705 108.279C430.164 107.859 430.735 107.649 431.419 107.649C432.112 107.649 432.684 107.859 433.133 108.279C433.592 108.699 433.821 109.246 433.821 109.92C433.821 110.584 433.597 111.126 433.147 111.546C432.698 111.956 432.122 112.161 431.419 112.161C430.726 112.161 430.154 111.956 429.705 111.546C429.256 111.126 429.031 110.584 429.031 109.92ZM451.985 112H437.366V109.1L444.266 101.746C445.213 100.711 445.911 99.8076 446.36 99.0361C446.819 98.2646 447.049 97.5322 447.049 96.8389C447.049 95.8916 446.81 95.1494 446.331 94.6123C445.853 94.0654 445.169 93.792 444.28 93.792C443.323 93.792 442.566 94.124 442.01 94.7881C441.463 95.4424 441.189 96.3066 441.189 97.3809H436.941C436.941 96.082 437.249 94.8955 437.864 93.8213C438.489 92.7471 439.368 91.9072 440.501 91.3018C441.634 90.6865 442.918 90.3789 444.354 90.3789C446.551 90.3789 448.255 90.9062 449.466 91.9609C450.687 93.0156 451.297 94.5049 451.297 96.4287C451.297 97.4834 451.023 98.5576 450.477 99.6514C449.93 100.745 448.992 102.02 447.664 103.475L442.815 108.587H451.985V112ZM462.063 103.665C462.063 105.872 461.746 107.996 461.111 110.037C460.477 112.078 459.563 113.88 458.372 115.442C457.181 117.005 455.906 118.079 454.549 118.665L453.729 116.424C455.115 115.379 456.209 113.768 457.01 111.59C457.811 109.412 458.226 106.907 458.255 104.075V103.299C458.255 100.379 457.854 97.8057 457.054 95.5791C456.263 93.3525 455.154 91.6826 453.729 90.5693L454.549 88.3281C455.877 88.9043 457.127 89.9492 458.299 91.4629C459.48 92.9766 460.394 94.7393 461.038 96.751C461.692 98.7627 462.034 100.848 462.063 103.006V103.665Z" fill="black"/>
<path d="M275.54 183.08C275.401 184.992 274.693 186.498 273.416 187.596C272.146 188.695 270.47 189.244 268.386 189.244C266.108 189.244 264.313 188.479 263.003 186.949C261.701 185.411 261.05 183.303 261.05 180.626V179.54C261.05 177.831 261.351 176.325 261.953 175.023C262.555 173.721 263.414 172.724 264.529 172.032C265.652 171.332 266.954 170.982 268.435 170.982C270.486 170.982 272.138 171.532 273.391 172.63C274.644 173.729 275.369 175.271 275.564 177.257H271.902C271.812 176.109 271.491 175.279 270.938 174.767C270.392 174.246 269.558 173.985 268.435 173.985C267.214 173.985 266.299 174.425 265.688 175.304C265.086 176.174 264.777 177.529 264.761 179.369V180.711C264.761 182.632 265.05 184.036 265.627 184.923C266.213 185.81 267.133 186.253 268.386 186.253C269.517 186.253 270.36 185.997 270.913 185.484C271.475 184.964 271.796 184.162 271.877 183.08H275.54ZM277.163 182.274C277.163 180.964 277.415 179.796 277.92 178.771C278.424 177.745 279.149 176.952 280.093 176.39C281.045 175.829 282.148 175.548 283.401 175.548C285.183 175.548 286.636 176.093 287.759 177.184C288.89 178.274 289.521 179.755 289.651 181.627L289.675 182.53C289.675 184.557 289.11 186.184 287.979 187.413C286.847 188.634 285.33 189.244 283.425 189.244C281.521 189.244 279.999 188.634 278.86 187.413C277.729 186.192 277.163 184.532 277.163 182.433V182.274ZM280.691 182.53C280.691 183.784 280.927 184.744 281.399 185.411C281.871 186.07 282.546 186.4 283.425 186.4C284.28 186.4 284.947 186.074 285.427 185.423C285.907 184.764 286.147 183.714 286.147 182.274C286.147 181.045 285.907 180.093 285.427 179.417C284.947 178.742 284.272 178.404 283.401 178.404C282.538 178.404 281.871 178.742 281.399 179.417C280.927 180.085 280.691 181.122 280.691 182.53ZM295.095 175.792L295.205 177.318C296.149 176.138 297.415 175.548 299.001 175.548C300.401 175.548 301.443 175.959 302.126 176.781C302.81 177.603 303.16 178.832 303.176 180.467V189H299.648V180.553C299.648 179.804 299.486 179.263 299.16 178.929C298.835 178.587 298.293 178.417 297.537 178.417C296.544 178.417 295.799 178.84 295.303 179.686V189H291.775V175.792H295.095ZM310.085 172.545V175.792H312.344V178.38H310.085V184.972C310.085 185.46 310.179 185.81 310.366 186.021C310.553 186.233 310.911 186.339 311.44 186.339C311.831 186.339 312.177 186.31 312.478 186.253V188.927C311.786 189.138 311.074 189.244 310.342 189.244C307.868 189.244 306.606 187.995 306.558 185.497V178.38H304.629V175.792H306.558V172.545H310.085ZM321.963 189C321.8 188.683 321.682 188.288 321.609 187.816C320.754 188.768 319.644 189.244 318.276 189.244C316.982 189.244 315.908 188.87 315.054 188.121C314.207 187.372 313.784 186.428 313.784 185.289C313.784 183.889 314.301 182.815 315.334 182.066C316.376 181.318 317.878 180.939 319.839 180.931H321.462V180.174C321.462 179.564 321.304 179.076 320.986 178.709C320.677 178.343 320.185 178.16 319.509 178.16C318.915 178.16 318.447 178.303 318.105 178.587C317.772 178.872 317.605 179.263 317.605 179.759H314.077C314.077 178.994 314.313 178.286 314.785 177.635C315.257 176.984 315.924 176.476 316.787 176.109C317.65 175.735 318.618 175.548 319.692 175.548C321.32 175.548 322.61 175.959 323.562 176.781C324.522 177.595 325.002 178.742 325.002 180.223V185.948C325.011 187.201 325.186 188.15 325.527 188.792V189H321.963ZM319.045 186.546C319.566 186.546 320.046 186.432 320.486 186.205C320.925 185.969 321.251 185.655 321.462 185.265V182.994H320.144C318.378 182.994 317.438 183.604 317.324 184.825L317.312 185.033C317.312 185.472 317.467 185.834 317.776 186.119C318.085 186.404 318.508 186.546 319.045 186.546ZM331.436 189H327.896V175.792H331.436V189ZM327.688 172.374C327.688 171.845 327.863 171.41 328.213 171.068C328.571 170.726 329.055 170.555 329.666 170.555C330.268 170.555 330.748 170.726 331.106 171.068C331.464 171.41 331.643 171.845 331.643 172.374C331.643 172.911 331.46 173.351 331.094 173.692C330.736 174.034 330.26 174.205 329.666 174.205C329.071 174.205 328.591 174.034 328.225 173.692C327.867 173.351 327.688 172.911 327.688 172.374ZM337.6 175.792L337.71 177.318C338.654 176.138 339.919 175.548 341.506 175.548C342.906 175.548 343.948 175.959 344.631 176.781C345.315 177.603 345.665 178.832 345.681 180.467V189H342.153V180.553C342.153 179.804 341.991 179.263 341.665 178.929C341.34 178.587 340.798 178.417 340.042 178.417C339.049 178.417 338.304 178.84 337.808 179.686V189H334.28V175.792H337.6ZM354.446 189.244C352.509 189.244 350.93 188.65 349.709 187.462C348.497 186.274 347.891 184.691 347.891 182.713V182.372C347.891 181.045 348.147 179.861 348.66 178.819C349.172 177.77 349.897 176.964 350.833 176.402C351.777 175.833 352.851 175.548 354.055 175.548C355.862 175.548 357.282 176.118 358.315 177.257C359.357 178.396 359.878 180.012 359.878 182.103V183.543H351.467C351.581 184.406 351.923 185.098 352.493 185.619C353.07 186.139 353.799 186.4 354.678 186.4C356.037 186.4 357.099 185.908 357.864 184.923L359.597 186.864C359.068 187.612 358.352 188.198 357.449 188.622C356.545 189.037 355.544 189.244 354.446 189.244ZM354.043 178.404C353.343 178.404 352.773 178.64 352.334 179.112C351.903 179.584 351.626 180.26 351.504 181.139H356.411V180.858C356.395 180.077 356.183 179.474 355.776 179.051C355.369 178.62 354.792 178.404 354.043 178.404ZM369.314 179.1C368.834 179.035 368.411 179.002 368.044 179.002C366.71 179.002 365.835 179.454 365.42 180.357V189H361.892V175.792H365.225L365.322 177.367C366.03 176.154 367.011 175.548 368.264 175.548C368.655 175.548 369.021 175.601 369.363 175.707L369.314 179.1Z" fill="white"/>
<rect x="380" y="131" width="110" height="100" fill="#7367FF"/>
<path d="M395.54 183.08C395.401 184.992 394.693 186.498 393.416 187.596C392.146 188.695 390.47 189.244 388.386 189.244C386.108 189.244 384.313 188.479 383.003 186.949C381.701 185.411 381.05 183.303 381.05 180.626V179.54C381.05 177.831 381.351 176.325 381.953 175.023C382.555 173.721 383.414 172.724 384.529 172.032C385.652 171.332 386.954 170.982 388.435 170.982C390.486 170.982 392.138 171.532 393.391 172.63C394.644 173.729 395.369 175.271 395.564 177.257H391.902C391.812 176.109 391.491 175.279 390.938 174.767C390.392 174.246 389.558 173.985 388.435 173.985C387.214 173.985 386.299 174.425 385.688 175.304C385.086 176.174 384.777 177.529 384.761 179.369V180.711C384.761 182.632 385.05 184.036 385.627 184.923C386.213 185.81 387.133 186.253 388.386 186.253C389.517 186.253 390.36 185.997 390.913 185.484C391.475 184.964 391.796 184.162 391.877 183.08H395.54ZM397.163 182.274C397.163 180.964 397.415 179.796 397.92 178.771C398.424 177.745 399.149 176.952 400.093 176.39C401.045 175.829 402.148 175.548 403.401 175.548C405.183 175.548 406.636 176.093 407.759 177.184C408.89 178.274 409.521 179.755 409.651 181.627L409.675 182.53C409.675 184.557 409.11 186.184 407.979 187.413C406.847 188.634 405.33 189.244 403.425 189.244C401.521 189.244 399.999 188.634 398.86 187.413C397.729 186.192 397.163 184.532 397.163 182.433V182.274ZM400.691 182.53C400.691 183.784 400.927 184.744 401.399 185.411C401.871 186.07 402.546 186.4 403.425 186.4C404.28 186.4 404.947 186.074 405.427 185.423C405.907 184.764 406.147 183.714 406.147 182.274C406.147 181.045 405.907 180.093 405.427 179.417C404.947 178.742 404.272 178.404 403.401 178.404C402.538 178.404 401.871 178.742 401.399 179.417C400.927 180.085 400.691 181.122 400.691 182.53ZM415.095 175.792L415.205 177.318C416.149 176.138 417.415 175.548 419.001 175.548C420.401 175.548 421.443 175.959 422.126 176.781C422.81 177.603 423.16 178.832 423.176 180.467V189H419.648V180.553C419.648 179.804 419.486 179.263 419.16 178.929C418.835 178.587 418.293 178.417 417.537 178.417C416.544 178.417 415.799 178.84 415.303 179.686V189H411.775V175.792H415.095ZM430.085 172.545V175.792H432.344V178.38H430.085V184.972C430.085 185.46 430.179 185.81 430.366 186.021C430.553 186.233 430.911 186.339 431.44 186.339C431.831 186.339 432.177 186.31 432.478 186.253V188.927C431.786 189.138 431.074 189.244 430.342 189.244C427.868 189.244 426.606 187.995 426.558 185.497V178.38H424.629V175.792H426.558V172.545H430.085ZM441.963 189C441.8 188.683 441.682 188.288 441.609 187.816C440.754 188.768 439.644 189.244 438.276 189.244C436.982 189.244 435.908 188.87 435.054 188.121C434.207 187.372 433.784 186.428 433.784 185.289C433.784 183.889 434.301 182.815 435.334 182.066C436.376 181.318 437.878 180.939 439.839 180.931H441.462V180.174C441.462 179.564 441.304 179.076 440.986 178.709C440.677 178.343 440.185 178.16 439.509 178.16C438.915 178.16 438.447 178.303 438.105 178.587C437.772 178.872 437.605 179.263 437.605 179.759H434.077C434.077 178.994 434.313 178.286 434.785 177.635C435.257 176.984 435.924 176.476 436.787 176.109C437.65 175.735 438.618 175.548 439.692 175.548C441.32 175.548 442.61 175.959 443.562 176.781C444.522 177.595 445.002 178.742 445.002 180.223V185.948C445.011 187.201 445.186 188.15 445.527 188.792V189H441.963ZM439.045 186.546C439.566 186.546 440.046 186.432 440.486 186.205C440.925 185.969 441.251 185.655 441.462 185.265V182.994H440.144C438.378 182.994 437.438 183.604 437.324 184.825L437.312 185.033C437.312 185.472 437.467 185.834 437.776 186.119C438.085 186.404 438.508 186.546 439.045 186.546ZM451.436 189H447.896V175.792H451.436V189ZM447.688 172.374C447.688 171.845 447.863 171.41 448.213 171.068C448.571 170.726 449.055 170.555 449.666 170.555C450.268 170.555 450.748 170.726 451.106 171.068C451.464 171.41 451.643 171.845 451.643 172.374C451.643 172.911 451.46 173.351 451.094 173.692C450.736 174.034 450.26 174.205 449.666 174.205C449.071 174.205 448.591 174.034 448.225 173.692C447.867 173.351 447.688 172.911 447.688 172.374ZM457.6 175.792L457.71 177.318C458.654 176.138 459.919 175.548 461.506 175.548C462.906 175.548 463.948 175.959 464.631 176.781C465.315 177.603 465.665 178.832 465.681 180.467V189H462.153V180.553C462.153 179.804 461.991 179.263 461.665 178.929C461.34 178.587 460.798 178.417 460.042 178.417C459.049 178.417 458.304 178.84 457.808 179.686V189H454.28V175.792H457.6ZM474.446 189.244C472.509 189.244 470.93 188.65 469.709 187.462C468.497 186.274 467.891 184.691 467.891 182.713V182.372C467.891 181.045 468.147 179.861 468.66 178.819C469.172 177.77 469.897 176.964 470.833 176.402C471.777 175.833 472.851 175.548 474.055 175.548C475.862 175.548 477.282 176.118 478.315 177.257C479.357 178.396 479.878 180.012 479.878 182.103V183.543H471.467C471.581 184.406 471.923 185.098 472.493 185.619C473.07 186.139 473.799 186.4 474.678 186.4C476.037 186.4 477.099 185.908 477.864 184.923L479.597 186.864C479.068 187.612 478.352 188.198 477.449 188.622C476.545 189.037 475.544 189.244 474.446 189.244ZM474.043 178.404C473.343 178.404 472.773 178.64 472.334 179.112C471.903 179.584 471.626 180.26 471.504 181.139H476.411V180.858C476.395 180.077 476.183 179.474 475.776 179.051C475.369 178.62 474.792 178.404 474.043 178.404ZM489.314 179.1C488.834 179.035 488.411 179.002 488.044 179.002C486.71 179.002 485.835 179.454 485.42 180.357V189H481.892V175.792H485.225L485.322 177.367C486.03 176.154 487.011 175.548 488.264 175.548C488.655 175.548 489.021 175.601 489.363 175.707L489.314 179.1Z" fill="white"/>
<path d="M79.3867 218H76V204.945L71.957 206.199V203.445L79.0234 200.914H79.3867V218ZM85.2578 216.336C85.2578 215.797 85.4375 215.359 85.7969 215.023C86.1641 214.688 86.6211 214.52 87.168 214.52C87.7227 214.52 88.1797 214.688 88.5391 215.023C88.9062 215.359 89.0898 215.797 89.0898 216.336C89.0898 216.867 88.9102 217.301 88.5508 217.637C88.1914 217.965 87.7305 218.129 87.168 218.129C86.6133 218.129 86.1562 217.965 85.7969 217.637C85.4375 217.301 85.2578 216.867 85.2578 216.336ZM100.152 218H96.7656V204.945L92.7227 206.199V203.445L99.7891 200.914H100.152V218ZM106.023 216.336C106.023 215.797 106.203 215.359 106.562 215.023C106.93 214.688 107.387 214.52 107.934 214.52C108.488 214.52 108.945 214.688 109.305 215.023C109.672 215.359 109.855 215.797 109.855 216.336C109.855 216.867 109.676 217.301 109.316 217.637C108.957 217.965 108.496 218.129 107.934 218.129C107.379 218.129 106.922 217.965 106.562 217.637C106.203 217.301 106.023 216.867 106.023 216.336ZM120.918 218H117.531V204.945L113.488 206.199V203.445L120.555 200.914H120.918V218ZM126.789 216.336C126.789 215.797 126.969 215.359 127.328 215.023C127.695 214.688 128.152 214.52 128.699 214.52C129.254 214.52 129.711 214.688 130.07 215.023C130.438 215.359 130.621 215.797 130.621 216.336C130.621 216.867 130.441 217.301 130.082 217.637C129.723 217.965 129.262 218.129 128.699 218.129C128.145 218.129 127.688 217.965 127.328 217.637C126.969 217.301 126.789 216.867 126.789 216.336ZM141.684 218H138.297V204.945L134.254 206.199V203.445L141.32 200.914H141.684V218ZM147.543 216.336C147.543 215.797 147.723 215.359 148.082 215.023C148.449 214.688 148.906 214.52 149.453 214.52C150.008 214.52 150.465 214.688 150.824 215.023C151.191 215.359 151.375 215.797 151.375 216.336C151.375 216.867 151.195 217.301 150.836 217.637C150.477 217.965 150.016 218.129 149.453 218.129C148.898 218.129 148.441 217.965 148.082 217.637C147.723 217.301 147.543 216.867 147.543 216.336ZM147.543 206.738C147.543 206.199 147.723 205.762 148.082 205.426C148.449 205.09 148.906 204.922 149.453 204.922C150.008 204.922 150.465 205.09 150.824 205.426C151.191 205.762 151.375 206.199 151.375 206.738C151.375 207.27 151.195 207.703 150.836 208.039C150.477 208.367 150.016 208.531 149.453 208.531C148.898 208.531 148.441 208.367 148.082 208.039C147.723 207.703 147.543 207.27 147.543 206.738ZM165.133 205.473C165.133 206.301 164.926 207.035 164.512 207.676C164.098 208.316 163.527 208.828 162.801 209.211C163.629 209.609 164.285 210.16 164.77 210.863C165.254 211.559 165.496 212.379 165.496 213.324C165.496 214.84 164.98 216.039 163.949 216.922C162.918 217.797 161.516 218.234 159.742 218.234C157.969 218.234 156.562 217.793 155.523 216.91C154.484 216.027 153.965 214.832 153.965 213.324C153.965 212.379 154.207 211.555 154.691 210.852C155.176 210.148 155.828 209.602 156.648 209.211C155.922 208.828 155.352 208.316 154.938 207.676C154.531 207.035 154.328 206.301 154.328 205.473C154.328 204.02 154.812 202.863 155.781 202.004C156.75 201.137 158.066 200.703 159.73 200.703C161.387 200.703 162.699 201.133 163.668 201.992C164.645 202.844 165.133 204.004 165.133 205.473ZM162.098 213.078C162.098 212.336 161.883 211.742 161.453 211.297C161.023 210.852 160.445 210.629 159.719 210.629C159 210.629 158.426 210.852 157.996 211.297C157.566 211.734 157.352 212.328 157.352 213.078C157.352 213.805 157.562 214.391 157.984 214.836C158.406 215.281 158.992 215.504 159.742 215.504C160.477 215.504 161.051 215.289 161.465 214.859C161.887 214.43 162.098 213.836 162.098 213.078ZM161.746 205.637C161.746 204.973 161.57 204.441 161.219 204.043C160.867 203.637 160.371 203.434 159.73 203.434C159.098 203.434 158.605 203.629 158.254 204.02C157.902 204.41 157.727 204.949 157.727 205.637C157.727 206.316 157.902 206.863 158.254 207.277C158.605 207.691 159.102 207.898 159.742 207.898C160.383 207.898 160.875 207.691 161.219 207.277C161.57 206.863 161.746 206.316 161.746 205.637ZM179.277 210.945C179.277 213.305 178.789 215.109 177.812 216.359C176.836 217.609 175.406 218.234 173.523 218.234C171.664 218.234 170.242 217.621 169.258 216.395C168.273 215.168 167.77 213.41 167.746 211.121V207.98C167.746 205.598 168.238 203.789 169.223 202.555C170.215 201.32 171.641 200.703 173.5 200.703C175.359 200.703 176.781 201.316 177.766 202.543C178.75 203.762 179.254 205.516 179.277 207.805V210.945ZM175.891 207.5C175.891 206.086 175.695 205.059 175.305 204.418C174.922 203.77 174.32 203.445 173.5 203.445C172.703 203.445 172.113 203.754 171.73 204.371C171.355 204.98 171.156 205.938 171.133 207.242V211.391C171.133 212.781 171.32 213.816 171.695 214.496C172.078 215.168 172.688 215.504 173.523 215.504C174.352 215.504 174.949 215.18 175.316 214.531C175.684 213.883 175.875 212.891 175.891 211.555V207.5Z" fill="white"/>
<path d="M268.387 219H265V205.945L260.957 207.199V204.445L268.023 201.914H268.387V219ZM274.258 217.336C274.258 216.797 274.438 216.359 274.797 216.023C275.164 215.688 275.621 215.52 276.168 215.52C276.723 215.52 277.18 215.688 277.539 216.023C277.906 216.359 278.09 216.797 278.09 217.336C278.09 217.867 277.91 218.301 277.551 218.637C277.191 218.965 276.73 219.129 276.168 219.129C275.613 219.129 275.156 218.965 274.797 218.637C274.438 218.301 274.258 217.867 274.258 217.336ZM289.152 219H285.766V205.945L281.723 207.199V204.445L288.789 201.914H289.152V219ZM295.023 217.336C295.023 216.797 295.203 216.359 295.562 216.023C295.93 215.688 296.387 215.52 296.934 215.52C297.488 215.52 297.945 215.688 298.305 216.023C298.672 216.359 298.855 216.797 298.855 217.336C298.855 217.867 298.676 218.301 298.316 218.637C297.957 218.965 297.496 219.129 296.934 219.129C296.379 219.129 295.922 218.965 295.562 218.637C295.203 218.301 295.023 217.867 295.023 217.336ZM309.918 219H306.531V205.945L302.488 207.199V204.445L309.555 201.914H309.918V219ZM315.789 217.336C315.789 216.797 315.969 216.359 316.328 216.023C316.695 215.688 317.152 215.52 317.699 215.52C318.254 215.52 318.711 215.688 319.07 216.023C319.438 216.359 319.621 216.797 319.621 217.336C319.621 217.867 319.441 218.301 319.082 218.637C318.723 218.965 318.262 219.129 317.699 219.129C317.145 219.129 316.688 218.965 316.328 218.637C315.969 218.301 315.789 217.867 315.789 217.336ZM334.152 219H322.457V216.68L327.977 210.797C328.734 209.969 329.293 209.246 329.652 208.629C330.02 208.012 330.203 207.426 330.203 206.871C330.203 206.113 330.012 205.52 329.629 205.09C329.246 204.652 328.699 204.434 327.988 204.434C327.223 204.434 326.617 204.699 326.172 205.23C325.734 205.754 325.516 206.445 325.516 207.305H322.117C322.117 206.266 322.363 205.316 322.855 204.457C323.355 203.598 324.059 202.926 324.965 202.441C325.871 201.949 326.898 201.703 328.047 201.703C329.805 201.703 331.168 202.125 332.137 202.969C333.113 203.812 333.602 205.004 333.602 206.543C333.602 207.387 333.383 208.246 332.945 209.121C332.508 209.996 331.758 211.016 330.695 212.18L326.816 216.27H334.152V219ZM336.543 217.336C336.543 216.797 336.723 216.359 337.082 216.023C337.449 215.688 337.906 215.52 338.453 215.52C339.008 215.52 339.465 215.688 339.824 216.023C340.191 216.359 340.375 216.797 340.375 217.336C340.375 217.867 340.195 218.301 339.836 218.637C339.477 218.965 339.016 219.129 338.453 219.129C337.898 219.129 337.441 218.965 337.082 218.637C336.723 218.301 336.543 217.867 336.543 217.336ZM336.543 207.738C336.543 207.199 336.723 206.762 337.082 206.426C337.449 206.09 337.906 205.922 338.453 205.922C339.008 205.922 339.465 206.09 339.824 206.426C340.191 206.762 340.375 207.199 340.375 207.738C340.375 208.27 340.195 208.703 339.836 209.039C339.477 209.367 339.016 209.531 338.453 209.531C337.898 209.531 337.441 209.367 337.082 209.039C336.723 208.703 336.543 208.27 336.543 207.738ZM354.133 206.473C354.133 207.301 353.926 208.035 353.512 208.676C353.098 209.316 352.527 209.828 351.801 210.211C352.629 210.609 353.285 211.16 353.77 211.863C354.254 212.559 354.496 213.379 354.496 214.324C354.496 215.84 353.98 217.039 352.949 217.922C351.918 218.797 350.516 219.234 348.742 219.234C346.969 219.234 345.562 218.793 344.523 217.91C343.484 217.027 342.965 215.832 342.965 214.324C342.965 213.379 343.207 212.555 343.691 211.852C344.176 211.148 344.828 210.602 345.648 210.211C344.922 209.828 344.352 209.316 343.938 208.676C343.531 208.035 343.328 207.301 343.328 206.473C343.328 205.02 343.812 203.863 344.781 203.004C345.75 202.137 347.066 201.703 348.73 201.703C350.387 201.703 351.699 202.133 352.668 202.992C353.645 203.844 354.133 205.004 354.133 206.473ZM351.098 214.078C351.098 213.336 350.883 212.742 350.453 212.297C350.023 211.852 349.445 211.629 348.719 211.629C348 211.629 347.426 211.852 346.996 212.297C346.566 212.734 346.352 213.328 346.352 214.078C346.352 214.805 346.562 215.391 346.984 215.836C347.406 216.281 347.992 216.504 348.742 216.504C349.477 216.504 350.051 216.289 350.465 215.859C350.887 215.43 351.098 214.836 351.098 214.078ZM350.746 206.637C350.746 205.973 350.57 205.441 350.219 205.043C349.867 204.637 349.371 204.434 348.73 204.434C348.098 204.434 347.605 204.629 347.254 205.02C346.902 205.41 346.727 205.949 346.727 206.637C346.727 207.316 346.902 207.863 347.254 208.277C347.605 208.691 348.102 208.898 348.742 208.898C349.383 208.898 349.875 208.691 350.219 208.277C350.57 207.863 350.746 207.316 350.746 206.637ZM368.277 211.945C368.277 214.305 367.789 216.109 366.812 217.359C365.836 218.609 364.406 219.234 362.523 219.234C360.664 219.234 359.242 218.621 358.258 217.395C357.273 216.168 356.77 214.41 356.746 212.121V208.98C356.746 206.598 357.238 204.789 358.223 203.555C359.215 202.32 360.641 201.703 362.5 201.703C364.359 201.703 365.781 202.316 366.766 203.543C367.75 204.762 368.254 206.516 368.277 208.805V211.945ZM364.891 208.5C364.891 207.086 364.695 206.059 364.305 205.418C363.922 204.77 363.32 204.445 362.5 204.445C361.703 204.445 361.113 204.754 360.73 205.371C360.355 205.98 360.156 206.938 360.133 208.242V212.391C360.133 213.781 360.32 214.816 360.695 215.496C361.078 216.168 361.688 216.504 362.523 216.504C363.352 216.504 363.949 216.18 364.316 215.531C364.684 214.883 364.875 213.891 364.891 212.555V208.5Z" fill="white"/>
<path d="M390.387 218H387V204.945L382.957 206.199V203.445L390.023 200.914H390.387V218ZM396.258 216.336C396.258 215.797 396.438 215.359 396.797 215.023C397.164 214.688 397.621 214.52 398.168 214.52C398.723 214.52 399.18 214.688 399.539 215.023C399.906 215.359 400.09 215.797 400.09 216.336C400.09 216.867 399.91 217.301 399.551 217.637C399.191 217.965 398.73 218.129 398.168 218.129C397.613 218.129 397.156 217.965 396.797 217.637C396.438 217.301 396.258 216.867 396.258 216.336ZM411.152 218H407.766V204.945L403.723 206.199V203.445L410.789 200.914H411.152V218ZM417.023 216.336C417.023 215.797 417.203 215.359 417.562 215.023C417.93 214.688 418.387 214.52 418.934 214.52C419.488 214.52 419.945 214.688 420.305 215.023C420.672 215.359 420.855 215.797 420.855 216.336C420.855 216.867 420.676 217.301 420.316 217.637C419.957 217.965 419.496 218.129 418.934 218.129C418.379 218.129 417.922 217.965 417.562 217.637C417.203 217.301 417.023 216.867 417.023 216.336ZM431.918 218H428.531V204.945L424.488 206.199V203.445L431.555 200.914H431.918V218ZM437.789 216.336C437.789 215.797 437.969 215.359 438.328 215.023C438.695 214.688 439.152 214.52 439.699 214.52C440.254 214.52 440.711 214.688 441.07 215.023C441.438 215.359 441.621 215.797 441.621 216.336C441.621 216.867 441.441 217.301 441.082 217.637C440.723 217.965 440.262 218.129 439.699 218.129C439.145 218.129 438.688 217.965 438.328 217.637C437.969 217.301 437.789 216.867 437.789 216.336ZM456.152 218H444.457V215.68L449.977 209.797C450.734 208.969 451.293 208.246 451.652 207.629C452.02 207.012 452.203 206.426 452.203 205.871C452.203 205.113 452.012 204.52 451.629 204.09C451.246 203.652 450.699 203.434 449.988 203.434C449.223 203.434 448.617 203.699 448.172 204.23C447.734 204.754 447.516 205.445 447.516 206.305H444.117C444.117 205.266 444.363 204.316 444.855 203.457C445.355 202.598 446.059 201.926 446.965 201.441C447.871 200.949 448.898 200.703 450.047 200.703C451.805 200.703 453.168 201.125 454.137 201.969C455.113 202.812 455.602 204.004 455.602 205.543C455.602 206.387 455.383 207.246 454.945 208.121C454.508 208.996 453.758 210.016 452.695 211.18L448.816 215.27H456.152V218ZM458.543 216.336C458.543 215.797 458.723 215.359 459.082 215.023C459.449 214.688 459.906 214.52 460.453 214.52C461.008 214.52 461.465 214.688 461.824 215.023C462.191 215.359 462.375 215.797 462.375 216.336C462.375 216.867 462.195 217.301 461.836 217.637C461.477 217.965 461.016 218.129 460.453 218.129C459.898 218.129 459.441 217.965 459.082 217.637C458.723 217.301 458.543 216.867 458.543 216.336ZM458.543 206.738C458.543 206.199 458.723 205.762 459.082 205.426C459.449 205.09 459.906 204.922 460.453 204.922C461.008 204.922 461.465 205.09 461.824 205.426C462.191 205.762 462.375 206.199 462.375 206.738C462.375 207.27 462.195 207.703 461.836 208.039C461.477 208.367 461.016 208.531 460.453 208.531C459.898 208.531 459.441 208.367 459.082 208.039C458.723 207.703 458.543 207.27 458.543 206.738ZM476.133 205.473C476.133 206.301 475.926 207.035 475.512 207.676C475.098 208.316 474.527 208.828 473.801 209.211C474.629 209.609 475.285 210.16 475.77 210.863C476.254 211.559 476.496 212.379 476.496 213.324C476.496 214.84 475.98 216.039 474.949 216.922C473.918 217.797 472.516 218.234 470.742 218.234C468.969 218.234 467.562 217.793 466.523 216.91C465.484 216.027 464.965 214.832 464.965 213.324C464.965 212.379 465.207 211.555 465.691 210.852C466.176 210.148 466.828 209.602 467.648 209.211C466.922 208.828 466.352 208.316 465.938 207.676C465.531 207.035 465.328 206.301 465.328 205.473C465.328 204.02 465.812 202.863 466.781 202.004C467.75 201.137 469.066 200.703 470.73 200.703C472.387 200.703 473.699 201.133 474.668 201.992C475.645 202.844 476.133 204.004 476.133 205.473ZM473.098 213.078C473.098 212.336 472.883 211.742 472.453 211.297C472.023 210.852 471.445 210.629 470.719 210.629C470 210.629 469.426 210.852 468.996 211.297C468.566 211.734 468.352 212.328 468.352 213.078C468.352 213.805 468.562 214.391 468.984 214.836C469.406 215.281 469.992 215.504 470.742 215.504C471.477 215.504 472.051 215.289 472.465 214.859C472.887 214.43 473.098 213.836 473.098 213.078ZM472.746 205.637C472.746 204.973 472.57 204.441 472.219 204.043C471.867 203.637 471.371 203.434 470.73 203.434C470.098 203.434 469.605 203.629 469.254 204.02C468.902 204.41 468.727 204.949 468.727 205.637C468.727 206.316 468.902 206.863 469.254 207.277C469.605 207.691 470.102 207.898 470.742 207.898C471.383 207.898 471.875 207.691 472.219 207.277C472.57 206.863 472.746 206.316 472.746 205.637ZM487.02 218H483.633V204.945L479.59 206.199V203.445L486.656 200.914H487.02V218Z" fill="white"/>
</svg>
