<svg width="621" height="384" viewBox="0 0 621 384" fill="none" xmlns="http://www.w3.org/2000/svg">
<rect x="381" width="240" height="168" fill="#A4FB96"/>
<rect x="386" y="58" width="230" height="100" fill="#7367FF"/>
<rect y="155" width="230" height="100" fill="#E96969"/>
<path d="M397.299 31.4854V39H392.904V17.6719H401.225C402.826 17.6719 404.232 17.9648 405.443 18.5508C406.664 19.1367 407.602 19.9717 408.256 21.0557C408.91 22.1299 409.237 23.3555 409.237 24.7324C409.237 26.8223 408.52 28.4727 407.084 29.6836C405.658 30.8848 403.681 31.4854 401.151 31.4854H397.299ZM397.299 27.9258H401.225C402.387 27.9258 403.271 27.6523 403.876 27.1055C404.491 26.5586 404.799 25.7773 404.799 24.7617C404.799 23.7168 404.491 22.8721 403.876 22.2275C403.261 21.583 402.411 21.251 401.327 21.2314H397.299V27.9258ZM411.127 30.9287C411.127 29.3564 411.43 27.9551 412.035 26.7246C412.641 25.4941 413.51 24.542 414.643 23.8682C415.785 23.1943 417.108 22.8574 418.612 22.8574C420.751 22.8574 422.494 23.5117 423.842 24.8203C425.199 26.1289 425.956 27.9062 426.112 30.1523L426.142 31.2363C426.142 33.668 425.463 35.6211 424.105 37.0957C422.748 38.5605 420.927 39.293 418.642 39.293C416.356 39.293 414.53 38.5605 413.163 37.0957C411.806 35.6309 411.127 33.6387 411.127 31.1191V30.9287ZM415.36 31.2363C415.36 32.7402 415.644 33.8926 416.21 34.6934C416.776 35.4844 417.587 35.8799 418.642 35.8799C419.667 35.8799 420.468 35.4893 421.044 34.708C421.62 33.917 421.908 32.6572 421.908 30.9287C421.908 29.4541 421.62 28.3115 421.044 27.501C420.468 26.6904 419.657 26.2852 418.612 26.2852C417.577 26.2852 416.776 26.6904 416.21 27.501C415.644 28.3018 415.36 29.5469 415.36 31.2363ZM428.09 30.958C428.09 28.4873 428.642 26.5195 429.745 25.0547C430.858 23.5898 432.377 22.8574 434.301 22.8574C435.844 22.8574 437.118 23.4336 438.124 24.5859V16.5H442.372V39H438.549L438.344 37.3154C437.289 38.6338 435.932 39.293 434.271 39.293C432.406 39.293 430.907 38.5605 429.774 37.0957C428.651 35.6211 428.09 33.5752 428.09 30.958ZM432.323 31.2656C432.323 32.75 432.582 33.8877 433.1 34.6787C433.617 35.4697 434.369 35.8652 435.355 35.8652C436.664 35.8652 437.587 35.3135 438.124 34.21V27.9551C437.597 26.8516 436.684 26.2998 435.385 26.2998C433.344 26.2998 432.323 27.9551 432.323 31.2656ZM453.314 30.3281C453.314 28.0918 453.612 25.9629 454.208 23.9414C454.804 21.9199 455.683 20.1328 456.845 18.5801C458.007 17.0176 459.267 15.9336 460.624 15.3281L461.444 17.6133C460.019 18.668 458.905 20.2988 458.104 22.5059C457.304 24.7129 456.903 27.291 456.903 30.2402V30.6943C456.903 33.6533 457.299 36.2412 458.09 38.458C458.881 40.6748 459.999 42.3301 461.444 43.4238L460.624 45.665C459.296 45.0693 458.056 44.0146 456.903 42.501C455.761 40.9971 454.887 39.2588 454.281 37.2861C453.676 35.3135 453.354 33.2529 453.314 31.1045V30.3281ZM473.778 39H469.545V22.6816L464.491 24.249V20.8066L473.324 17.6426H473.778V39ZM481.117 36.9199C481.117 36.2461 481.342 35.6992 481.791 35.2793C482.25 34.8594 482.821 34.6494 483.505 34.6494C484.198 34.6494 484.77 34.8594 485.219 35.2793C485.678 35.6992 485.907 36.2461 485.907 36.9199C485.907 37.584 485.683 38.126 485.233 38.5459C484.784 38.9561 484.208 39.1611 483.505 39.1611C482.812 39.1611 482.24 38.9561 481.791 38.5459C481.342 38.126 481.117 37.584 481.117 36.9199ZM499.735 39H495.502V22.6816L490.448 24.249V20.8066L499.281 17.6426H499.735V39ZM507.074 36.9199C507.074 36.2461 507.299 35.6992 507.748 35.2793C508.207 34.8594 508.778 34.6494 509.462 34.6494C510.155 34.6494 510.727 34.8594 511.176 35.2793C511.635 35.6992 511.864 36.2461 511.864 36.9199C511.864 37.584 511.64 38.126 511.19 38.5459C510.741 38.9561 510.165 39.1611 509.462 39.1611C508.769 39.1611 508.197 38.9561 507.748 38.5459C507.299 38.126 507.074 37.584 507.074 36.9199ZM525.692 39H521.459V22.6816L516.405 24.249V20.8066L525.238 17.6426H525.692V39ZM533.031 36.9199C533.031 36.2461 533.256 35.6992 533.705 35.2793C534.164 34.8594 534.735 34.6494 535.419 34.6494C536.112 34.6494 536.684 34.8594 537.133 35.2793C537.592 35.6992 537.821 36.2461 537.821 36.9199C537.821 37.584 537.597 38.126 537.147 38.5459C536.698 38.9561 536.122 39.1611 535.419 39.1611C534.726 39.1611 534.154 38.9561 533.705 38.5459C533.256 38.126 533.031 37.584 533.031 36.9199ZM551.649 39H547.416V22.6816L542.362 24.249V20.8066L551.195 17.6426H551.649V39ZM558.974 36.9199C558.974 36.2461 559.198 35.6992 559.647 35.2793C560.106 34.8594 560.678 34.6494 561.361 34.6494C562.055 34.6494 562.626 34.8594 563.075 35.2793C563.534 35.6992 563.764 36.2461 563.764 36.9199C563.764 37.584 563.539 38.126 563.09 38.5459C562.641 38.9561 562.064 39.1611 561.361 39.1611C560.668 39.1611 560.097 38.9561 559.647 38.5459C559.198 38.126 558.974 37.584 558.974 36.9199ZM558.974 24.9229C558.974 24.249 559.198 23.7021 559.647 23.2822C560.106 22.8623 560.678 22.6523 561.361 22.6523C562.055 22.6523 562.626 22.8623 563.075 23.2822C563.534 23.7021 563.764 24.249 563.764 24.9229C563.764 25.5869 563.539 26.1289 563.09 26.5488C562.641 26.959 562.064 27.1641 561.361 27.1641C560.668 27.1641 560.097 26.959 559.647 26.5488C559.198 26.1289 558.974 25.5869 558.974 24.9229ZM580.961 23.3408C580.961 24.376 580.702 25.2939 580.185 26.0947C579.667 26.8955 578.954 27.5352 578.046 28.0137C579.081 28.5117 579.901 29.2002 580.507 30.0791C581.112 30.9482 581.415 31.9736 581.415 33.1553C581.415 35.0498 580.771 36.5488 579.481 37.6523C578.192 38.7461 576.439 39.293 574.223 39.293C572.006 39.293 570.248 38.7412 568.949 37.6377C567.65 36.5342 567.001 35.04 567.001 33.1553C567.001 31.9736 567.304 30.9434 567.909 30.0645C568.515 29.1855 569.33 28.502 570.355 28.0137C569.447 27.5352 568.734 26.8955 568.217 26.0947C567.709 25.2939 567.455 24.376 567.455 23.3408C567.455 21.5244 568.061 20.0791 569.271 19.0049C570.482 17.9209 572.128 17.3789 574.208 17.3789C576.278 17.3789 577.919 17.916 579.13 18.9902C580.351 20.0547 580.961 21.5049 580.961 23.3408ZM577.167 32.8477C577.167 31.9199 576.898 31.1777 576.361 30.6211C575.824 30.0645 575.102 29.7861 574.193 29.7861C573.295 29.7861 572.577 30.0645 572.04 30.6211C571.503 31.168 571.234 31.9102 571.234 32.8477C571.234 33.7559 571.498 34.4883 572.025 35.0449C572.553 35.6016 573.285 35.8799 574.223 35.8799C575.141 35.8799 575.858 35.6113 576.376 35.0742C576.903 34.5371 577.167 33.7949 577.167 32.8477ZM576.728 23.5459C576.728 22.7158 576.508 22.0518 576.068 21.5537C575.629 21.0459 575.009 20.792 574.208 20.792C573.417 20.792 572.802 21.0361 572.362 21.5244C571.923 22.0127 571.703 22.6865 571.703 23.5459C571.703 24.3955 571.923 25.0791 572.362 25.5967C572.802 26.1143 573.422 26.373 574.223 26.373C575.023 26.373 575.639 26.1143 576.068 25.5967C576.508 25.0791 576.728 24.3955 576.728 23.5459ZM598.642 30.1816C598.642 33.1309 598.031 35.3867 596.811 36.9492C595.59 38.5117 593.803 39.293 591.449 39.293C589.125 39.293 587.348 38.5264 586.117 36.9932C584.887 35.46 584.257 33.2627 584.228 30.4014V26.4756C584.228 23.4971 584.843 21.2363 586.073 19.6934C587.313 18.1504 589.096 17.3789 591.42 17.3789C593.744 17.3789 595.521 18.1455 596.752 19.6787C597.982 21.2021 598.612 23.3945 598.642 26.2559V30.1816ZM594.408 25.875C594.408 24.1074 594.164 22.8232 593.676 22.0225C593.197 21.2119 592.445 20.8066 591.42 20.8066C590.424 20.8066 589.687 21.1924 589.208 21.9639C588.739 22.7256 588.49 23.9219 588.461 25.5527V30.7383C588.461 32.4766 588.695 33.7705 589.164 34.6201C589.643 35.46 590.404 35.8799 591.449 35.8799C592.484 35.8799 593.231 35.4746 593.69 34.6641C594.149 33.8535 594.389 32.6133 594.408 30.9434V25.875ZM608.983 30.665C608.983 32.8721 608.666 34.9961 608.031 37.0371C607.396 39.0781 606.483 40.8799 605.292 42.4424C604.101 44.0049 602.826 45.0791 601.469 45.665L600.648 43.4238C602.035 42.3789 603.129 40.7676 603.93 38.5898C604.73 36.4121 605.146 33.9072 605.175 31.0752V30.2988C605.175 27.3789 604.774 24.8057 603.974 22.5791C603.183 20.3525 602.074 18.6826 600.648 17.5693L601.469 15.3281C602.797 15.9043 604.047 16.9492 605.219 18.4629C606.4 19.9766 607.313 21.7393 607.958 23.751C608.612 25.7627 608.954 27.8477 608.983 30.0059V30.665Z" fill="black"/>
<path d="M57.7334 238H53.5V221.682L48.4463 223.249V219.807L57.2793 216.643H57.7334V238ZM65.0723 235.92C65.0723 235.246 65.2969 234.699 65.7461 234.279C66.2051 233.859 66.7764 233.649 67.46 233.649C68.1533 233.649 68.7246 233.859 69.1738 234.279C69.6328 234.699 69.8623 235.246 69.8623 235.92C69.8623 236.584 69.6377 237.126 69.1885 237.546C68.7393 237.956 68.1631 238.161 67.46 238.161C66.7666 238.161 66.1953 237.956 65.7461 237.546C65.2969 237.126 65.0723 236.584 65.0723 235.92ZM83.6904 238H79.457V221.682L74.4033 223.249V219.807L83.2363 216.643H83.6904V238ZM91.0293 235.92C91.0293 235.246 91.2539 234.699 91.7031 234.279C92.1621 233.859 92.7334 233.649 93.417 233.649C94.1104 233.649 94.6816 233.859 95.1309 234.279C95.5898 234.699 95.8193 235.246 95.8193 235.92C95.8193 236.584 95.5947 237.126 95.1455 237.546C94.6963 237.956 94.1201 238.161 93.417 238.161C92.7236 238.161 92.1523 237.956 91.7031 237.546C91.2539 237.126 91.0293 236.584 91.0293 235.92ZM109.647 238H105.414V221.682L100.36 223.249V219.807L109.193 216.643H109.647V238ZM116.986 235.92C116.986 235.246 117.211 234.699 117.66 234.279C118.119 233.859 118.69 233.649 119.374 233.649C120.067 233.649 120.639 233.859 121.088 234.279C121.547 234.699 121.776 235.246 121.776 235.92C121.776 236.584 121.552 237.126 121.103 237.546C120.653 237.956 120.077 238.161 119.374 238.161C118.681 238.161 118.109 237.956 117.66 237.546C117.211 237.126 116.986 236.584 116.986 235.92ZM139.677 229.182C139.677 232.131 139.066 234.387 137.846 235.949C136.625 237.512 134.838 238.293 132.484 238.293C130.16 238.293 128.383 237.526 127.152 235.993C125.922 234.46 125.292 232.263 125.263 229.401V225.476C125.263 222.497 125.878 220.236 127.108 218.693C128.349 217.15 130.131 216.379 132.455 216.379C134.779 216.379 136.557 217.146 137.787 218.679C139.018 220.202 139.647 222.395 139.677 225.256V229.182ZM135.443 224.875C135.443 223.107 135.199 221.823 134.711 221.022C134.232 220.212 133.48 219.807 132.455 219.807C131.459 219.807 130.722 220.192 130.243 220.964C129.774 221.726 129.525 222.922 129.496 224.553V229.738C129.496 231.477 129.73 232.771 130.199 233.62C130.678 234.46 131.439 234.88 132.484 234.88C133.52 234.88 134.267 234.475 134.726 233.664C135.185 232.854 135.424 231.613 135.443 229.943V224.875ZM142.929 235.92C142.929 235.246 143.153 234.699 143.603 234.279C144.062 233.859 144.633 233.649 145.316 233.649C146.01 233.649 146.581 233.859 147.03 234.279C147.489 234.699 147.719 235.246 147.719 235.92C147.719 236.584 147.494 237.126 147.045 237.546C146.596 237.956 146.02 238.161 145.316 238.161C144.623 238.161 144.052 237.956 143.603 237.546C143.153 237.126 142.929 236.584 142.929 235.92ZM142.929 223.923C142.929 223.249 143.153 222.702 143.603 222.282C144.062 221.862 144.633 221.652 145.316 221.652C146.01 221.652 146.581 221.862 147.03 222.282C147.489 222.702 147.719 223.249 147.719 223.923C147.719 224.587 147.494 225.129 147.045 225.549C146.596 225.959 146.02 226.164 145.316 226.164C144.623 226.164 144.052 225.959 143.603 225.549C143.153 225.129 142.929 224.587 142.929 223.923ZM164.916 222.341C164.916 223.376 164.657 224.294 164.14 225.095C163.622 225.896 162.909 226.535 162.001 227.014C163.036 227.512 163.856 228.2 164.462 229.079C165.067 229.948 165.37 230.974 165.37 232.155C165.37 234.05 164.726 235.549 163.437 236.652C162.147 237.746 160.395 238.293 158.178 238.293C155.961 238.293 154.203 237.741 152.904 236.638C151.605 235.534 150.956 234.04 150.956 232.155C150.956 230.974 151.259 229.943 151.864 229.064C152.47 228.186 153.285 227.502 154.311 227.014C153.402 226.535 152.689 225.896 152.172 225.095C151.664 224.294 151.41 223.376 151.41 222.341C151.41 220.524 152.016 219.079 153.227 218.005C154.438 216.921 156.083 216.379 158.163 216.379C160.233 216.379 161.874 216.916 163.085 217.99C164.306 219.055 164.916 220.505 164.916 222.341ZM161.122 231.848C161.122 230.92 160.854 230.178 160.316 229.621C159.779 229.064 159.057 228.786 158.148 228.786C157.25 228.786 156.532 229.064 155.995 229.621C155.458 230.168 155.189 230.91 155.189 231.848C155.189 232.756 155.453 233.488 155.98 234.045C156.508 234.602 157.24 234.88 158.178 234.88C159.096 234.88 159.813 234.611 160.331 234.074C160.858 233.537 161.122 232.795 161.122 231.848ZM160.683 222.546C160.683 221.716 160.463 221.052 160.023 220.554C159.584 220.046 158.964 219.792 158.163 219.792C157.372 219.792 156.757 220.036 156.317 220.524C155.878 221.013 155.658 221.687 155.658 222.546C155.658 223.396 155.878 224.079 156.317 224.597C156.757 225.114 157.377 225.373 158.178 225.373C158.979 225.373 159.594 225.114 160.023 224.597C160.463 224.079 160.683 223.396 160.683 222.546ZM182.597 229.182C182.597 232.131 181.986 234.387 180.766 235.949C179.545 237.512 177.758 238.293 175.404 238.293C173.08 238.293 171.303 237.526 170.072 235.993C168.842 234.46 168.212 232.263 168.183 229.401V225.476C168.183 222.497 168.798 220.236 170.028 218.693C171.269 217.15 173.051 216.379 175.375 216.379C177.699 216.379 179.477 217.146 180.707 218.679C181.938 220.202 182.567 222.395 182.597 225.256V229.182ZM178.363 224.875C178.363 223.107 178.119 221.823 177.631 221.022C177.152 220.212 176.4 219.807 175.375 219.807C174.379 219.807 173.642 220.192 173.163 220.964C172.694 221.726 172.445 222.922 172.416 224.553V229.738C172.416 231.477 172.65 232.771 173.119 233.62C173.598 234.46 174.359 234.88 175.404 234.88C176.439 234.88 177.187 234.475 177.646 233.664C178.104 232.854 178.344 231.613 178.363 229.943V224.875Z" fill="white"/>
<path d="M461.54 110.08C461.401 111.992 460.693 113.498 459.416 114.596C458.146 115.695 456.47 116.244 454.386 116.244C452.108 116.244 450.313 115.479 449.003 113.949C447.701 112.411 447.05 110.303 447.05 107.626V106.54C447.05 104.831 447.351 103.325 447.953 102.023C448.555 100.721 449.414 99.724 450.529 99.0322C451.652 98.3324 452.954 97.9824 454.435 97.9824C456.486 97.9824 458.138 98.5317 459.391 99.6304C460.644 100.729 461.369 102.271 461.564 104.257H457.902C457.812 103.109 457.491 102.279 456.938 101.767C456.392 101.246 455.558 100.985 454.435 100.985C453.214 100.985 452.299 101.425 451.688 102.304C451.086 103.174 450.777 104.529 450.761 106.369V107.711C450.761 109.632 451.05 111.036 451.627 111.923C452.213 112.81 453.133 113.253 454.386 113.253C455.517 113.253 456.36 112.997 456.913 112.484C457.475 111.964 457.796 111.162 457.877 110.08H461.54ZM463.163 109.274C463.163 107.964 463.415 106.796 463.92 105.771C464.424 104.745 465.149 103.952 466.093 103.39C467.045 102.829 468.148 102.548 469.401 102.548C471.183 102.548 472.636 103.093 473.759 104.184C474.89 105.274 475.521 106.755 475.651 108.627L475.675 109.53C475.675 111.557 475.11 113.184 473.979 114.413C472.847 115.634 471.33 116.244 469.425 116.244C467.521 116.244 465.999 115.634 464.86 114.413C463.729 113.192 463.163 111.532 463.163 109.433V109.274ZM466.691 109.53C466.691 110.784 466.927 111.744 467.399 112.411C467.871 113.07 468.546 113.4 469.425 113.4C470.28 113.4 470.947 113.074 471.427 112.423C471.907 111.764 472.147 110.714 472.147 109.274C472.147 108.045 471.907 107.093 471.427 106.417C470.947 105.742 470.272 105.404 469.401 105.404C468.538 105.404 467.871 105.742 467.399 106.417C466.927 107.085 466.691 108.122 466.691 109.53ZM481.095 102.792L481.205 104.318C482.149 103.138 483.415 102.548 485.001 102.548C486.401 102.548 487.443 102.959 488.126 103.781C488.81 104.603 489.16 105.832 489.176 107.467V116H485.648V107.553C485.648 106.804 485.486 106.263 485.16 105.929C484.835 105.587 484.293 105.417 483.537 105.417C482.544 105.417 481.799 105.84 481.303 106.686V116H477.775V102.792H481.095ZM496.085 99.5449V102.792H498.344V105.38H496.085V111.972C496.085 112.46 496.179 112.81 496.366 113.021C496.553 113.233 496.911 113.339 497.44 113.339C497.831 113.339 498.177 113.31 498.478 113.253V115.927C497.786 116.138 497.074 116.244 496.342 116.244C493.868 116.244 492.606 114.995 492.558 112.497V105.38H490.629V102.792H492.558V99.5449H496.085ZM507.963 116C507.8 115.683 507.682 115.288 507.609 114.816C506.754 115.768 505.644 116.244 504.276 116.244C502.982 116.244 501.908 115.87 501.054 115.121C500.207 114.372 499.784 113.428 499.784 112.289C499.784 110.889 500.301 109.815 501.334 109.066C502.376 108.318 503.878 107.939 505.839 107.931H507.462V107.174C507.462 106.564 507.304 106.076 506.986 105.709C506.677 105.343 506.185 105.16 505.509 105.16C504.915 105.16 504.447 105.303 504.105 105.587C503.772 105.872 503.605 106.263 503.605 106.759H500.077C500.077 105.994 500.313 105.286 500.785 104.635C501.257 103.984 501.924 103.476 502.787 103.109C503.65 102.735 504.618 102.548 505.692 102.548C507.32 102.548 508.61 102.959 509.562 103.781C510.522 104.595 511.002 105.742 511.002 107.223V112.948C511.011 114.201 511.186 115.15 511.527 115.792V116H507.963ZM505.045 113.546C505.566 113.546 506.046 113.432 506.486 113.205C506.925 112.969 507.251 112.655 507.462 112.265V109.994H506.144C504.378 109.994 503.438 110.604 503.324 111.825L503.312 112.033C503.312 112.472 503.467 112.834 503.776 113.119C504.085 113.404 504.508 113.546 505.045 113.546ZM517.436 116H513.896V102.792H517.436V116ZM513.688 99.374C513.688 98.8451 513.863 98.4097 514.213 98.0679C514.571 97.7261 515.055 97.5552 515.666 97.5552C516.268 97.5552 516.748 97.7261 517.106 98.0679C517.464 98.4097 517.643 98.8451 517.643 99.374C517.643 99.9111 517.46 100.351 517.094 100.692C516.736 101.034 516.26 101.205 515.666 101.205C515.071 101.205 514.591 101.034 514.225 100.692C513.867 100.351 513.688 99.9111 513.688 99.374ZM523.6 102.792L523.71 104.318C524.654 103.138 525.919 102.548 527.506 102.548C528.906 102.548 529.948 102.959 530.631 103.781C531.315 104.603 531.665 105.832 531.681 107.467V116H528.153V107.553C528.153 106.804 527.991 106.263 527.665 105.929C527.34 105.587 526.798 105.417 526.042 105.417C525.049 105.417 524.304 105.84 523.808 106.686V116H520.28V102.792H523.6ZM540.446 116.244C538.509 116.244 536.93 115.65 535.709 114.462C534.497 113.274 533.891 111.691 533.891 109.713V109.372C533.891 108.045 534.147 106.861 534.66 105.819C535.172 104.77 535.897 103.964 536.833 103.402C537.777 102.833 538.851 102.548 540.055 102.548C541.862 102.548 543.282 103.118 544.315 104.257C545.357 105.396 545.878 107.012 545.878 109.103V110.543H537.467C537.581 111.406 537.923 112.098 538.493 112.619C539.07 113.139 539.799 113.4 540.678 113.4C542.037 113.4 543.099 112.908 543.864 111.923L545.597 113.864C545.068 114.612 544.352 115.198 543.449 115.622C542.545 116.037 541.544 116.244 540.446 116.244ZM540.043 105.404C539.343 105.404 538.773 105.64 538.334 106.112C537.903 106.584 537.626 107.26 537.504 108.139H542.411V107.858C542.395 107.077 542.183 106.474 541.776 106.051C541.369 105.62 540.792 105.404 540.043 105.404ZM555.314 106.1C554.834 106.035 554.411 106.002 554.044 106.002C552.71 106.002 551.835 106.454 551.42 107.357V116H547.892V102.792H551.225L551.322 104.367C552.03 103.154 553.011 102.548 554.264 102.548C554.655 102.548 555.021 102.601 555.363 102.707L555.314 106.1Z" fill="white"/>
<path d="M83.8032 194.337C83.8032 193.645 83.5591 193.116 83.0708 192.75C82.5825 192.376 81.7036 191.985 80.4341 191.578C79.1646 191.163 78.1595 190.756 77.4189 190.357C75.4007 189.267 74.3916 187.798 74.3916 185.951C74.3916 184.99 74.6602 184.136 75.1973 183.387C75.7425 182.63 76.5197 182.04 77.5288 181.617C78.5461 181.194 79.6854 180.982 80.9468 180.982C82.2163 180.982 83.3475 181.214 84.3403 181.678C85.3332 182.134 86.1022 182.781 86.6475 183.619C87.2008 184.457 87.4775 185.41 87.4775 186.476H83.8154C83.8154 185.662 83.5591 185.031 83.0464 184.583C82.5337 184.128 81.8135 183.9 80.8857 183.9C79.9906 183.9 79.2948 184.091 78.7983 184.474C78.3019 184.848 78.0537 185.344 78.0537 185.963C78.0537 186.541 78.3426 187.025 78.9204 187.416C79.5063 187.806 80.3649 188.172 81.4961 188.514C83.5794 189.141 85.0972 189.918 86.0493 190.846C87.0015 191.773 87.4775 192.929 87.4775 194.312C87.4775 195.851 86.8957 197.059 85.7319 197.938C84.5682 198.809 83.0016 199.244 81.0322 199.244C79.665 199.244 78.4199 198.996 77.2969 198.5C76.1738 197.995 75.3153 197.307 74.7212 196.437C74.1353 195.566 73.8423 194.557 73.8423 193.409H77.5166C77.5166 195.37 78.6885 196.351 81.0322 196.351C81.903 196.351 82.5825 196.176 83.0708 195.826C83.5591 195.468 83.8032 194.972 83.8032 194.337ZM95.8149 199.244C93.8781 199.244 92.2993 198.65 91.0786 197.462C89.866 196.274 89.2598 194.691 89.2598 192.713V192.372C89.2598 191.045 89.5161 189.861 90.0288 188.819C90.5415 187.77 91.2658 186.964 92.2017 186.402C93.1457 185.833 94.2199 185.548 95.4243 185.548C97.231 185.548 98.651 186.118 99.6846 187.257C100.726 188.396 101.247 190.012 101.247 192.103V193.543H92.8364C92.9504 194.406 93.2922 195.098 93.8618 195.619C94.4396 196.139 95.168 196.4 96.0469 196.4C97.4059 196.4 98.4679 195.908 99.2329 194.923L100.966 196.864C100.437 197.612 99.7212 198.198 98.8179 198.622C97.9146 199.037 96.9136 199.244 95.8149 199.244ZM95.4121 188.404C94.7122 188.404 94.1426 188.64 93.7031 189.112C93.2718 189.584 92.9951 190.26 92.873 191.139H97.7803V190.858C97.764 190.077 97.5524 189.474 97.1455 189.051C96.7386 188.62 96.1608 188.404 95.4121 188.404ZM110.683 189.1C110.203 189.035 109.78 189.002 109.414 189.002C108.079 189.002 107.204 189.454 106.789 190.357V199H103.261V185.792H106.594L106.691 187.367C107.399 186.154 108.38 185.548 109.633 185.548C110.024 185.548 110.39 185.601 110.732 185.707L110.683 189.1ZM117.556 194.691L120.009 185.792H123.696L119.24 199H115.871L111.416 185.792H115.102L117.556 194.691ZM128.981 199H125.441V185.792H128.981V199ZM125.234 182.374C125.234 181.845 125.409 181.41 125.759 181.068C126.117 180.726 126.601 180.555 127.211 180.555C127.814 180.555 128.294 180.726 128.652 181.068C129.01 181.41 129.189 181.845 129.189 182.374C129.189 182.911 129.006 183.351 128.64 183.692C128.282 184.034 127.806 184.205 127.211 184.205C126.617 184.205 126.137 184.034 125.771 183.692C125.413 183.351 125.234 182.911 125.234 182.374ZM137.392 196.4C138.043 196.4 138.572 196.221 138.979 195.863C139.386 195.505 139.597 195.029 139.614 194.435H142.922C142.914 195.33 142.67 196.152 142.189 196.9C141.709 197.641 141.05 198.219 140.212 198.634C139.382 199.041 138.462 199.244 137.453 199.244C135.565 199.244 134.076 198.646 132.985 197.45C131.895 196.245 131.35 194.585 131.35 192.469V192.237C131.35 190.203 131.891 188.579 132.973 187.367C134.056 186.154 135.541 185.548 137.429 185.548C139.081 185.548 140.403 186.02 141.396 186.964C142.397 187.9 142.906 189.149 142.922 190.711H139.614C139.597 190.028 139.386 189.474 138.979 189.051C138.572 188.62 138.035 188.404 137.368 188.404C136.546 188.404 135.923 188.705 135.5 189.308C135.085 189.902 134.877 190.87 134.877 192.213V192.579C134.877 193.938 135.085 194.915 135.5 195.509C135.915 196.103 136.546 196.4 137.392 196.4ZM151.015 199.244C149.078 199.244 147.5 198.65 146.279 197.462C145.066 196.274 144.46 194.691 144.46 192.713V192.372C144.46 191.045 144.716 189.861 145.229 188.819C145.742 187.77 146.466 186.964 147.402 186.402C148.346 185.833 149.42 185.548 150.625 185.548C152.431 185.548 153.851 186.118 154.885 187.257C155.926 188.396 156.447 190.012 156.447 192.103V193.543H148.037C148.151 194.406 148.492 195.098 149.062 195.619C149.64 196.139 150.368 196.4 151.247 196.4C152.606 196.4 153.668 195.908 154.433 194.923L156.167 196.864C155.638 197.612 154.921 198.198 154.018 198.622C153.115 199.037 152.114 199.244 151.015 199.244ZM150.612 188.404C149.912 188.404 149.343 188.64 148.903 189.112C148.472 189.584 148.195 190.26 148.073 191.139H152.98V190.858C152.964 190.077 152.753 189.474 152.346 189.051C151.939 188.62 151.361 188.404 150.612 188.404Z" fill="white"/>
<path d="M83.8032 194.337C83.8032 193.645 83.5591 193.116 83.0708 192.75C82.5825 192.376 81.7036 191.985 80.4341 191.578C79.1646 191.163 78.1595 190.756 77.4189 190.357C75.4007 189.267 74.3916 187.798 74.3916 185.951C74.3916 184.99 74.6602 184.136 75.1973 183.387C75.7425 182.63 76.5197 182.04 77.5288 181.617C78.5461 181.194 79.6854 180.982 80.9468 180.982C82.2163 180.982 83.3475 181.214 84.3403 181.678C85.3332 182.134 86.1022 182.781 86.6475 183.619C87.2008 184.457 87.4775 185.41 87.4775 186.476H83.8154C83.8154 185.662 83.5591 185.031 83.0464 184.583C82.5337 184.128 81.8135 183.9 80.8857 183.9C79.9906 183.9 79.2948 184.091 78.7983 184.474C78.3019 184.848 78.0537 185.344 78.0537 185.963C78.0537 186.541 78.3426 187.025 78.9204 187.416C79.5063 187.806 80.3649 188.172 81.4961 188.514C83.5794 189.141 85.0972 189.918 86.0493 190.846C87.0015 191.773 87.4775 192.929 87.4775 194.312C87.4775 195.851 86.8957 197.059 85.7319 197.938C84.5682 198.809 83.0016 199.244 81.0322 199.244C79.665 199.244 78.4199 198.996 77.2969 198.5C76.1738 197.995 75.3153 197.307 74.7212 196.437C74.1353 195.566 73.8423 194.557 73.8423 193.409H77.5166C77.5166 195.37 78.6885 196.351 81.0322 196.351C81.903 196.351 82.5825 196.176 83.0708 195.826C83.5591 195.468 83.8032 194.972 83.8032 194.337ZM95.8149 199.244C93.8781 199.244 92.2993 198.65 91.0786 197.462C89.866 196.274 89.2598 194.691 89.2598 192.713V192.372C89.2598 191.045 89.5161 189.861 90.0288 188.819C90.5415 187.77 91.2658 186.964 92.2017 186.402C93.1457 185.833 94.2199 185.548 95.4243 185.548C97.231 185.548 98.651 186.118 99.6846 187.257C100.726 188.396 101.247 190.012 101.247 192.103V193.543H92.8364C92.9504 194.406 93.2922 195.098 93.8618 195.619C94.4396 196.139 95.168 196.4 96.0469 196.4C97.4059 196.4 98.4679 195.908 99.2329 194.923L100.966 196.864C100.437 197.612 99.7212 198.198 98.8179 198.622C97.9146 199.037 96.9136 199.244 95.8149 199.244ZM95.4121 188.404C94.7122 188.404 94.1426 188.64 93.7031 189.112C93.2718 189.584 92.9951 190.26 92.873 191.139H97.7803V190.858C97.764 190.077 97.5524 189.474 97.1455 189.051C96.7386 188.62 96.1608 188.404 95.4121 188.404ZM110.683 189.1C110.203 189.035 109.78 189.002 109.414 189.002C108.079 189.002 107.204 189.454 106.789 190.357V199H103.261V185.792H106.594L106.691 187.367C107.399 186.154 108.38 185.548 109.633 185.548C110.024 185.548 110.39 185.601 110.732 185.707L110.683 189.1ZM117.556 194.691L120.009 185.792H123.696L119.24 199H115.871L111.416 185.792H115.102L117.556 194.691ZM128.981 199H125.441V185.792H128.981V199ZM125.234 182.374C125.234 181.845 125.409 181.41 125.759 181.068C126.117 180.726 126.601 180.555 127.211 180.555C127.814 180.555 128.294 180.726 128.652 181.068C129.01 181.41 129.189 181.845 129.189 182.374C129.189 182.911 129.006 183.351 128.64 183.692C128.282 184.034 127.806 184.205 127.211 184.205C126.617 184.205 126.137 184.034 125.771 183.692C125.413 183.351 125.234 182.911 125.234 182.374ZM137.392 196.4C138.043 196.4 138.572 196.221 138.979 195.863C139.386 195.505 139.597 195.029 139.614 194.435H142.922C142.914 195.33 142.67 196.152 142.189 196.9C141.709 197.641 141.05 198.219 140.212 198.634C139.382 199.041 138.462 199.244 137.453 199.244C135.565 199.244 134.076 198.646 132.985 197.45C131.895 196.245 131.35 194.585 131.35 192.469V192.237C131.35 190.203 131.891 188.579 132.973 187.367C134.056 186.154 135.541 185.548 137.429 185.548C139.081 185.548 140.403 186.02 141.396 186.964C142.397 187.9 142.906 189.149 142.922 190.711H139.614C139.597 190.028 139.386 189.474 138.979 189.051C138.572 188.62 138.035 188.404 137.368 188.404C136.546 188.404 135.923 188.705 135.5 189.308C135.085 189.902 134.877 190.87 134.877 192.213V192.579C134.877 193.938 135.085 194.915 135.5 195.509C135.915 196.103 136.546 196.4 137.392 196.4ZM151.015 199.244C149.078 199.244 147.5 198.65 146.279 197.462C145.066 196.274 144.46 194.691 144.46 192.713V192.372C144.46 191.045 144.716 189.861 145.229 188.819C145.742 187.77 146.466 186.964 147.402 186.402C148.346 185.833 149.42 185.548 150.625 185.548C152.431 185.548 153.851 186.118 154.885 187.257C155.926 188.396 156.447 190.012 156.447 192.103V193.543H148.037C148.151 194.406 148.492 195.098 149.062 195.619C149.64 196.139 150.368 196.4 151.247 196.4C152.606 196.4 153.668 195.908 154.433 194.923L156.167 196.864C155.638 197.612 154.921 198.198 154.018 198.622C153.115 199.037 152.114 199.244 151.015 199.244ZM150.612 188.404C149.912 188.404 149.343 188.64 148.903 189.112C148.472 189.584 148.195 190.26 148.073 191.139H152.98V190.858C152.964 190.077 152.753 189.474 152.346 189.051C151.939 188.62 151.361 188.404 150.612 188.404Z" fill="white"/>
<rect x="381" y="216" width="240" height="168" fill="#A4FB96"/>
<rect x="386" y="273" width="230" height="100" fill="#7367FF"/>
<path d="M458.54 325.08C458.401 326.992 457.693 328.498 456.416 329.596C455.146 330.695 453.47 331.244 451.386 331.244C449.108 331.244 447.313 330.479 446.003 328.949C444.701 327.411 444.05 325.303 444.05 322.626V321.54C444.05 319.831 444.351 318.325 444.953 317.023C445.555 315.721 446.414 314.724 447.529 314.032C448.652 313.332 449.954 312.982 451.435 312.982C453.486 312.982 455.138 313.532 456.391 314.63C457.644 315.729 458.369 317.271 458.564 319.257H454.902C454.812 318.109 454.491 317.279 453.938 316.767C453.392 316.246 452.558 315.985 451.435 315.985C450.214 315.985 449.299 316.425 448.688 317.304C448.086 318.174 447.777 319.529 447.761 321.369V322.711C447.761 324.632 448.05 326.036 448.627 326.923C449.213 327.81 450.133 328.253 451.386 328.253C452.517 328.253 453.36 327.997 453.913 327.484C454.475 326.964 454.796 326.162 454.877 325.08H458.54ZM460.163 324.274C460.163 322.964 460.415 321.796 460.92 320.771C461.424 319.745 462.149 318.952 463.093 318.39C464.045 317.829 465.148 317.548 466.401 317.548C468.183 317.548 469.636 318.093 470.759 319.184C471.89 320.274 472.521 321.755 472.651 323.627L472.675 324.53C472.675 326.557 472.11 328.184 470.979 329.413C469.847 330.634 468.33 331.244 466.425 331.244C464.521 331.244 462.999 330.634 461.86 329.413C460.729 328.192 460.163 326.532 460.163 324.433V324.274ZM463.691 324.53C463.691 325.784 463.927 326.744 464.399 327.411C464.871 328.07 465.546 328.4 466.425 328.4C467.28 328.4 467.947 328.074 468.427 327.423C468.907 326.764 469.147 325.714 469.147 324.274C469.147 323.045 468.907 322.093 468.427 321.417C467.947 320.742 467.272 320.404 466.401 320.404C465.538 320.404 464.871 320.742 464.399 321.417C463.927 322.085 463.691 323.122 463.691 324.53ZM478.095 317.792L478.205 319.318C479.149 318.138 480.415 317.548 482.001 317.548C483.401 317.548 484.443 317.959 485.126 318.781C485.81 319.603 486.16 320.832 486.176 322.467V331H482.648V322.553C482.648 321.804 482.486 321.263 482.16 320.929C481.835 320.587 481.293 320.417 480.537 320.417C479.544 320.417 478.799 320.84 478.303 321.686V331H474.775V317.792H478.095ZM493.085 314.545V317.792H495.344V320.38H493.085V326.972C493.085 327.46 493.179 327.81 493.366 328.021C493.553 328.233 493.911 328.339 494.44 328.339C494.831 328.339 495.177 328.31 495.478 328.253V330.927C494.786 331.138 494.074 331.244 493.342 331.244C490.868 331.244 489.606 329.995 489.558 327.497V320.38H487.629V317.792H489.558V314.545H493.085ZM504.963 331C504.8 330.683 504.682 330.288 504.609 329.816C503.754 330.768 502.644 331.244 501.276 331.244C499.982 331.244 498.908 330.87 498.054 330.121C497.207 329.372 496.784 328.428 496.784 327.289C496.784 325.889 497.301 324.815 498.334 324.066C499.376 323.318 500.878 322.939 502.839 322.931H504.462V322.174C504.462 321.564 504.304 321.076 503.986 320.709C503.677 320.343 503.185 320.16 502.509 320.16C501.915 320.16 501.447 320.303 501.105 320.587C500.772 320.872 500.605 321.263 500.605 321.759H497.077C497.077 320.994 497.313 320.286 497.785 319.635C498.257 318.984 498.924 318.476 499.787 318.109C500.65 317.735 501.618 317.548 502.692 317.548C504.32 317.548 505.61 317.959 506.562 318.781C507.522 319.595 508.002 320.742 508.002 322.223V327.948C508.011 329.201 508.186 330.15 508.527 330.792V331H504.963ZM502.045 328.546C502.566 328.546 503.046 328.432 503.486 328.205C503.925 327.969 504.251 327.655 504.462 327.265V324.994H503.144C501.378 324.994 500.438 325.604 500.324 326.825L500.312 327.033C500.312 327.472 500.467 327.834 500.776 328.119C501.085 328.404 501.508 328.546 502.045 328.546ZM514.436 331H510.896V317.792H514.436V331ZM510.688 314.374C510.688 313.845 510.863 313.41 511.213 313.068C511.571 312.726 512.055 312.555 512.666 312.555C513.268 312.555 513.748 312.726 514.106 313.068C514.464 313.41 514.643 313.845 514.643 314.374C514.643 314.911 514.46 315.351 514.094 315.692C513.736 316.034 513.26 316.205 512.666 316.205C512.071 316.205 511.591 316.034 511.225 315.692C510.867 315.351 510.688 314.911 510.688 314.374ZM520.6 317.792L520.71 319.318C521.654 318.138 522.919 317.548 524.506 317.548C525.906 317.548 526.948 317.959 527.631 318.781C528.315 319.603 528.665 320.832 528.681 322.467V331H525.153V322.553C525.153 321.804 524.991 321.263 524.665 320.929C524.34 320.587 523.798 320.417 523.042 320.417C522.049 320.417 521.304 320.84 520.808 321.686V331H517.28V317.792H520.6ZM537.446 331.244C535.509 331.244 533.93 330.65 532.709 329.462C531.497 328.274 530.891 326.691 530.891 324.713V324.372C530.891 323.045 531.147 321.861 531.66 320.819C532.172 319.77 532.897 318.964 533.833 318.402C534.777 317.833 535.851 317.548 537.055 317.548C538.862 317.548 540.282 318.118 541.315 319.257C542.357 320.396 542.878 322.012 542.878 324.103V325.543H534.467C534.581 326.406 534.923 327.098 535.493 327.619C536.07 328.139 536.799 328.4 537.678 328.4C539.037 328.4 540.099 327.908 540.864 326.923L542.597 328.864C542.068 329.612 541.352 330.198 540.449 330.622C539.545 331.037 538.544 331.244 537.446 331.244ZM537.043 320.404C536.343 320.404 535.773 320.64 535.334 321.112C534.903 321.584 534.626 322.26 534.504 323.139H539.411V322.858C539.395 322.077 539.183 321.474 538.776 321.051C538.369 320.62 537.792 320.404 537.043 320.404ZM552.314 321.1C551.834 321.035 551.411 321.002 551.044 321.002C549.71 321.002 548.835 321.454 548.42 322.357V331H544.892V317.792H548.225L548.322 319.367C549.03 318.154 550.011 317.548 551.264 317.548C551.655 317.548 552.021 317.601 552.363 317.707L552.314 321.1Z" fill="white"/>
<path d="M397.299 247.485V255H392.904V233.672H401.225C402.826 233.672 404.232 233.965 405.443 234.551C406.664 235.137 407.602 235.972 408.256 237.056C408.91 238.13 409.237 239.355 409.237 240.732C409.237 242.822 408.52 244.473 407.084 245.684C405.658 246.885 403.681 247.485 401.151 247.485H397.299ZM397.299 243.926H401.225C402.387 243.926 403.271 243.652 403.876 243.105C404.491 242.559 404.799 241.777 404.799 240.762C404.799 239.717 404.491 238.872 403.876 238.228C403.261 237.583 402.411 237.251 401.327 237.231H397.299V243.926ZM411.127 246.929C411.127 245.356 411.43 243.955 412.035 242.725C412.641 241.494 413.51 240.542 414.643 239.868C415.785 239.194 417.108 238.857 418.612 238.857C420.751 238.857 422.494 239.512 423.842 240.82C425.199 242.129 425.956 243.906 426.112 246.152L426.142 247.236C426.142 249.668 425.463 251.621 424.105 253.096C422.748 254.561 420.927 255.293 418.642 255.293C416.356 255.293 414.53 254.561 413.163 253.096C411.806 251.631 411.127 249.639 411.127 247.119V246.929ZM415.36 247.236C415.36 248.74 415.644 249.893 416.21 250.693C416.776 251.484 417.587 251.88 418.642 251.88C419.667 251.88 420.468 251.489 421.044 250.708C421.62 249.917 421.908 248.657 421.908 246.929C421.908 245.454 421.62 244.312 421.044 243.501C420.468 242.69 419.657 242.285 418.612 242.285C417.577 242.285 416.776 242.69 416.21 243.501C415.644 244.302 415.36 245.547 415.36 247.236ZM428.09 246.958C428.09 244.487 428.642 242.52 429.745 241.055C430.858 239.59 432.377 238.857 434.301 238.857C435.844 238.857 437.118 239.434 438.124 240.586V232.5H442.372V255H438.549L438.344 253.315C437.289 254.634 435.932 255.293 434.271 255.293C432.406 255.293 430.907 254.561 429.774 253.096C428.651 251.621 428.09 249.575 428.09 246.958ZM432.323 247.266C432.323 248.75 432.582 249.888 433.1 250.679C433.617 251.47 434.369 251.865 435.355 251.865C436.664 251.865 437.587 251.313 438.124 250.21V243.955C437.597 242.852 436.684 242.3 435.385 242.3C433.344 242.3 432.323 243.955 432.323 247.266ZM453.314 246.328C453.314 244.092 453.612 241.963 454.208 239.941C454.804 237.92 455.683 236.133 456.845 234.58C458.007 233.018 459.267 231.934 460.624 231.328L461.444 233.613C460.019 234.668 458.905 236.299 458.104 238.506C457.304 240.713 456.903 243.291 456.903 246.24V246.694C456.903 249.653 457.299 252.241 458.09 254.458C458.881 256.675 459.999 258.33 461.444 259.424L460.624 261.665C459.296 261.069 458.056 260.015 456.903 258.501C455.761 256.997 454.887 255.259 454.281 253.286C453.676 251.313 453.354 249.253 453.314 247.104V246.328ZM473.778 255H469.545V238.682L464.491 240.249V236.807L473.324 233.643H473.778V255ZM481.117 252.92C481.117 252.246 481.342 251.699 481.791 251.279C482.25 250.859 482.821 250.649 483.505 250.649C484.198 250.649 484.77 250.859 485.219 251.279C485.678 251.699 485.907 252.246 485.907 252.92C485.907 253.584 485.683 254.126 485.233 254.546C484.784 254.956 484.208 255.161 483.505 255.161C482.812 255.161 482.24 254.956 481.791 254.546C481.342 254.126 481.117 253.584 481.117 252.92ZM499.735 255H495.502V238.682L490.448 240.249V236.807L499.281 233.643H499.735V255ZM507.074 252.92C507.074 252.246 507.299 251.699 507.748 251.279C508.207 250.859 508.778 250.649 509.462 250.649C510.155 250.649 510.727 250.859 511.176 251.279C511.635 251.699 511.864 252.246 511.864 252.92C511.864 253.584 511.64 254.126 511.19 254.546C510.741 254.956 510.165 255.161 509.462 255.161C508.769 255.161 508.197 254.956 507.748 254.546C507.299 254.126 507.074 253.584 507.074 252.92ZM525.692 255H521.459V238.682L516.405 240.249V236.807L525.238 233.643H525.692V255ZM533.031 252.92C533.031 252.246 533.256 251.699 533.705 251.279C534.164 250.859 534.735 250.649 535.419 250.649C536.112 250.649 536.684 250.859 537.133 251.279C537.592 251.699 537.821 252.246 537.821 252.92C537.821 253.584 537.597 254.126 537.147 254.546C536.698 254.956 536.122 255.161 535.419 255.161C534.726 255.161 534.154 254.956 533.705 254.546C533.256 254.126 533.031 253.584 533.031 252.92ZM555.985 255H541.366V252.1L548.266 244.746C549.213 243.711 549.911 242.808 550.36 242.036C550.819 241.265 551.049 240.532 551.049 239.839C551.049 238.892 550.81 238.149 550.331 237.612C549.853 237.065 549.169 236.792 548.28 236.792C547.323 236.792 546.566 237.124 546.01 237.788C545.463 238.442 545.189 239.307 545.189 240.381H540.941C540.941 239.082 541.249 237.896 541.864 236.821C542.489 235.747 543.368 234.907 544.501 234.302C545.634 233.687 546.918 233.379 548.354 233.379C550.551 233.379 552.255 233.906 553.466 234.961C554.687 236.016 555.297 237.505 555.297 239.429C555.297 240.483 555.023 241.558 554.477 242.651C553.93 243.745 552.992 245.02 551.664 246.475L546.815 251.587H555.985V255ZM558.974 252.92C558.974 252.246 559.198 251.699 559.647 251.279C560.106 250.859 560.678 250.649 561.361 250.649C562.055 250.649 562.626 250.859 563.075 251.279C563.534 251.699 563.764 252.246 563.764 252.92C563.764 253.584 563.539 254.126 563.09 254.546C562.641 254.956 562.064 255.161 561.361 255.161C560.668 255.161 560.097 254.956 559.647 254.546C559.198 254.126 558.974 253.584 558.974 252.92ZM558.974 240.923C558.974 240.249 559.198 239.702 559.647 239.282C560.106 238.862 560.678 238.652 561.361 238.652C562.055 238.652 562.626 238.862 563.075 239.282C563.534 239.702 563.764 240.249 563.764 240.923C563.764 241.587 563.539 242.129 563.09 242.549C562.641 242.959 562.064 243.164 561.361 243.164C560.668 243.164 560.097 242.959 559.647 242.549C559.198 242.129 558.974 241.587 558.974 240.923ZM580.961 239.341C580.961 240.376 580.702 241.294 580.185 242.095C579.667 242.896 578.954 243.535 578.046 244.014C579.081 244.512 579.901 245.2 580.507 246.079C581.112 246.948 581.415 247.974 581.415 249.155C581.415 251.05 580.771 252.549 579.481 253.652C578.192 254.746 576.439 255.293 574.223 255.293C572.006 255.293 570.248 254.741 568.949 253.638C567.65 252.534 567.001 251.04 567.001 249.155C567.001 247.974 567.304 246.943 567.909 246.064C568.515 245.186 569.33 244.502 570.355 244.014C569.447 243.535 568.734 242.896 568.217 242.095C567.709 241.294 567.455 240.376 567.455 239.341C567.455 237.524 568.061 236.079 569.271 235.005C570.482 233.921 572.128 233.379 574.208 233.379C576.278 233.379 577.919 233.916 579.13 234.99C580.351 236.055 580.961 237.505 580.961 239.341ZM577.167 248.848C577.167 247.92 576.898 247.178 576.361 246.621C575.824 246.064 575.102 245.786 574.193 245.786C573.295 245.786 572.577 246.064 572.04 246.621C571.503 247.168 571.234 247.91 571.234 248.848C571.234 249.756 571.498 250.488 572.025 251.045C572.553 251.602 573.285 251.88 574.223 251.88C575.141 251.88 575.858 251.611 576.376 251.074C576.903 250.537 577.167 249.795 577.167 248.848ZM576.728 239.546C576.728 238.716 576.508 238.052 576.068 237.554C575.629 237.046 575.009 236.792 574.208 236.792C573.417 236.792 572.802 237.036 572.362 237.524C571.923 238.013 571.703 238.687 571.703 239.546C571.703 240.396 571.923 241.079 572.362 241.597C572.802 242.114 573.422 242.373 574.223 242.373C575.023 242.373 575.639 242.114 576.068 241.597C576.508 241.079 576.728 240.396 576.728 239.546ZM598.642 246.182C598.642 249.131 598.031 251.387 596.811 252.949C595.59 254.512 593.803 255.293 591.449 255.293C589.125 255.293 587.348 254.526 586.117 252.993C584.887 251.46 584.257 249.263 584.228 246.401V242.476C584.228 239.497 584.843 237.236 586.073 235.693C587.313 234.15 589.096 233.379 591.42 233.379C593.744 233.379 595.521 234.146 596.752 235.679C597.982 237.202 598.612 239.395 598.642 242.256V246.182ZM594.408 241.875C594.408 240.107 594.164 238.823 593.676 238.022C593.197 237.212 592.445 236.807 591.42 236.807C590.424 236.807 589.687 237.192 589.208 237.964C588.739 238.726 588.49 239.922 588.461 241.553V246.738C588.461 248.477 588.695 249.771 589.164 250.62C589.643 251.46 590.404 251.88 591.449 251.88C592.484 251.88 593.231 251.475 593.69 250.664C594.149 249.854 594.389 248.613 594.408 246.943V241.875ZM608.983 246.665C608.983 248.872 608.666 250.996 608.031 253.037C607.396 255.078 606.483 256.88 605.292 258.442C604.101 260.005 602.826 261.079 601.469 261.665L600.648 259.424C602.035 258.379 603.129 256.768 603.93 254.59C604.73 252.412 605.146 249.907 605.175 247.075V246.299C605.175 243.379 604.774 240.806 603.974 238.579C603.183 236.353 602.074 234.683 600.648 233.569L601.469 231.328C602.797 231.904 604.047 232.949 605.219 234.463C606.4 235.977 607.313 237.739 607.958 239.751C608.612 241.763 608.954 243.848 608.983 246.006V246.665Z" fill="black"/>
<path d="M366.493 93.1851C366.595 91.8082 365.562 90.6091 364.185 90.5069L341.747 88.8411C340.37 88.7389 339.171 89.7723 339.069 91.1492C338.966 92.5261 340 93.7252 341.377 93.8274L361.322 95.3081L359.841 115.253C359.739 116.63 360.772 117.829 362.149 117.931C363.526 118.034 364.725 117 364.827 115.623L366.493 93.1851ZM242.632 200.894L365.632 94.8938L362.368 91.1062L239.368 197.106L242.632 200.894Z" fill="black"/>
<path d="M364.151 310.495C365.529 310.412 366.579 309.228 366.495 307.849L365.14 285.39C365.057 284.012 363.872 282.962 362.494 283.045C361.116 283.129 360.066 284.313 360.149 285.691L361.354 305.655L341.39 306.86C340.012 306.943 338.962 308.128 339.045 309.506C339.129 310.884 340.313 311.934 341.691 311.851L364.151 310.495ZM239.342 200.871L362.342 309.871L365.658 306.129L242.658 197.129L239.342 200.871Z" fill="black"/>
<rect x="54" y="124" width="140" height="45" fill="#C4C4C4"/>
<path d="M69.0625 153H66.2305V138H69.0625V153ZM77.5195 153C77.3893 152.746 77.2949 152.43 77.2363 152.053C76.5527 152.814 75.6641 153.195 74.5703 153.195C73.5352 153.195 72.6758 152.896 71.9922 152.297C71.3151 151.698 70.9766 150.943 70.9766 150.031C70.9766 148.911 71.39 148.052 72.2168 147.453C73.0501 146.854 74.2513 146.551 75.8203 146.545H77.1191V145.939C77.1191 145.451 76.9922 145.061 76.7383 144.768C76.4909 144.475 76.097 144.328 75.5566 144.328C75.0814 144.328 74.707 144.442 74.4336 144.67C74.1667 144.898 74.0332 145.21 74.0332 145.607H71.2109C71.2109 144.995 71.3997 144.429 71.7773 143.908C72.1549 143.387 72.6888 142.98 73.3789 142.688C74.069 142.388 74.8438 142.238 75.7031 142.238C77.0052 142.238 78.0371 142.567 78.7988 143.225C79.5671 143.876 79.9512 144.794 79.9512 145.979V150.559C79.9577 151.561 80.0977 152.32 80.3711 152.834V153H77.5195ZM75.1855 151.037C75.6022 151.037 75.9863 150.946 76.3379 150.764C76.6895 150.575 76.9499 150.324 77.1191 150.012V148.195H76.0645C74.6517 148.195 73.8997 148.684 73.8086 149.66L73.7988 149.826C73.7988 150.178 73.9225 150.467 74.1699 150.695C74.4173 150.923 74.7559 151.037 75.1855 151.037ZM91.6406 147.814C91.6406 149.507 91.2793 150.829 90.5566 151.779C89.834 152.723 88.8249 153.195 87.5293 153.195C86.3835 153.195 85.4688 152.756 84.7852 151.877L84.6582 153H82.1191V138H84.9414V143.381C85.5924 142.619 86.4486 142.238 87.5098 142.238C88.7988 142.238 89.8079 142.714 90.5371 143.664C91.2728 144.608 91.6406 145.939 91.6406 147.658V147.814ZM88.8184 147.609C88.8184 146.542 88.6491 145.764 88.3105 145.275C87.972 144.781 87.4674 144.533 86.7969 144.533C85.8984 144.533 85.2799 144.901 84.9414 145.637V149.807C85.2865 150.549 85.9115 150.92 86.8164 150.92C87.7279 150.92 88.3268 150.471 88.6133 149.572C88.75 149.143 88.8184 148.488 88.8184 147.609ZM98.252 153.195C96.7025 153.195 95.4395 152.72 94.4629 151.77C93.4928 150.819 93.0078 149.553 93.0078 147.971V147.697C93.0078 146.636 93.2129 145.689 93.623 144.855C94.0332 144.016 94.6126 143.371 95.3613 142.922C96.1165 142.466 96.9759 142.238 97.9395 142.238C99.3848 142.238 100.521 142.694 101.348 143.605C102.181 144.517 102.598 145.809 102.598 147.482V148.635H95.8691C95.9603 149.325 96.2337 149.878 96.6895 150.295C97.1517 150.712 97.7344 150.92 98.4375 150.92C99.5247 150.92 100.374 150.526 100.986 149.738L102.373 151.291C101.95 151.89 101.377 152.359 100.654 152.697C99.9316 153.029 99.1309 153.195 98.252 153.195ZM97.9297 144.523C97.3698 144.523 96.9141 144.712 96.5625 145.09C96.2174 145.467 95.9961 146.008 95.8984 146.711H99.8242V146.486C99.8112 145.861 99.6419 145.38 99.3164 145.041C98.9909 144.696 98.5286 144.523 97.9297 144.523ZM107.188 153H104.355V138H107.188V153ZM109.658 151.613C109.658 151.164 109.808 150.799 110.107 150.52C110.413 150.24 110.794 150.1 111.25 150.1C111.712 150.1 112.093 150.24 112.393 150.52C112.699 150.799 112.852 151.164 112.852 151.613C112.852 152.056 112.702 152.417 112.402 152.697C112.103 152.971 111.719 153.107 111.25 153.107C110.788 153.107 110.407 152.971 110.107 152.697C109.808 152.417 109.658 152.056 109.658 151.613ZM109.658 143.615C109.658 143.166 109.808 142.801 110.107 142.521C110.413 142.242 110.794 142.102 111.25 142.102C111.712 142.102 112.093 142.242 112.393 142.521C112.699 142.801 112.852 143.166 112.852 143.615C112.852 144.058 112.702 144.419 112.402 144.699C112.103 144.973 111.719 145.109 111.25 145.109C110.788 145.109 110.407 144.973 110.107 144.699C109.808 144.419 109.658 144.058 109.658 143.615ZM117.812 142.434L117.9 143.615C118.649 142.697 119.661 142.238 120.938 142.238C122.298 142.238 123.232 142.775 123.74 143.85C124.482 142.775 125.54 142.238 126.914 142.238C128.06 142.238 128.913 142.574 129.473 143.244C130.033 143.908 130.312 144.911 130.312 146.252V153H127.48V146.262C127.48 145.663 127.363 145.227 127.129 144.953C126.895 144.673 126.481 144.533 125.889 144.533C125.042 144.533 124.456 144.937 124.131 145.744L124.141 153H121.318V146.271C121.318 145.66 121.198 145.217 120.957 144.943C120.716 144.67 120.306 144.533 119.727 144.533C118.926 144.533 118.346 144.865 117.988 145.529V153H115.166V142.434H117.812ZM136.436 149.006L138.389 142.434H141.416L137.168 154.641L136.934 155.197C136.302 156.577 135.26 157.268 133.809 157.268C133.398 157.268 132.982 157.206 132.559 157.082V154.943L132.988 154.953C133.522 154.953 133.919 154.872 134.18 154.709C134.447 154.546 134.655 154.276 134.805 153.898L135.137 153.029L131.436 142.434H134.473L136.436 149.006ZM148.018 148.049H142.52V145.773H148.018V148.049ZM156.406 153C156.276 152.746 156.182 152.43 156.123 152.053C155.439 152.814 154.551 153.195 153.457 153.195C152.422 153.195 151.562 152.896 150.879 152.297C150.202 151.698 149.863 150.943 149.863 150.031C149.863 148.911 150.277 148.052 151.104 147.453C151.937 146.854 153.138 146.551 154.707 146.545H156.006V145.939C156.006 145.451 155.879 145.061 155.625 144.768C155.378 144.475 154.984 144.328 154.443 144.328C153.968 144.328 153.594 144.442 153.32 144.67C153.053 144.898 152.92 145.21 152.92 145.607H150.098C150.098 144.995 150.286 144.429 150.664 143.908C151.042 143.387 151.576 142.98 152.266 142.688C152.956 142.388 153.73 142.238 154.59 142.238C155.892 142.238 156.924 142.567 157.686 143.225C158.454 143.876 158.838 144.794 158.838 145.979V150.559C158.844 151.561 158.984 152.32 159.258 152.834V153H156.406ZM154.072 151.037C154.489 151.037 154.873 150.946 155.225 150.764C155.576 150.575 155.837 150.324 156.006 150.012V148.195H154.951C153.538 148.195 152.786 148.684 152.695 149.66L152.686 149.826C152.686 150.178 152.809 150.467 153.057 150.695C153.304 150.923 153.643 151.037 154.072 151.037ZM170.518 147.814C170.518 149.442 170.146 150.747 169.404 151.73C168.669 152.707 167.673 153.195 166.416 153.195C165.348 153.195 164.486 152.824 163.828 152.082V157.062H161.006V142.434H163.623L163.721 143.469C164.404 142.648 165.296 142.238 166.396 142.238C167.699 142.238 168.711 142.72 169.434 143.684C170.156 144.647 170.518 145.975 170.518 147.668V147.814ZM167.695 147.609C167.695 146.626 167.52 145.868 167.168 145.334C166.823 144.8 166.318 144.533 165.654 144.533C164.769 144.533 164.16 144.872 163.828 145.549V149.875C164.173 150.572 164.788 150.92 165.674 150.92C167.021 150.92 167.695 149.816 167.695 147.609ZM181.787 147.814C181.787 149.442 181.416 150.747 180.674 151.73C179.938 152.707 178.942 153.195 177.686 153.195C176.618 153.195 175.755 152.824 175.098 152.082V157.062H172.275V142.434H174.893L174.99 143.469C175.674 142.648 176.566 142.238 177.666 142.238C178.968 142.238 179.98 142.72 180.703 143.684C181.426 144.647 181.787 145.975 181.787 147.668V147.814ZM178.965 147.609C178.965 146.626 178.789 145.868 178.438 145.334C178.092 144.8 177.588 144.533 176.924 144.533C176.038 144.533 175.43 144.872 175.098 145.549V149.875C175.443 150.572 176.058 150.92 176.943 150.92C178.291 150.92 178.965 149.816 178.965 147.609Z" fill="black"/>
<rect x="428" y="46" width="140" height="45" fill="#C4C4C4"/>
<path d="M443.062 75H440.23V60H443.062V75ZM451.52 75C451.389 74.7461 451.295 74.4303 451.236 74.0527C450.553 74.8145 449.664 75.1953 448.57 75.1953C447.535 75.1953 446.676 74.8958 445.992 74.2969C445.315 73.6979 444.977 72.9427 444.977 72.0312C444.977 70.9115 445.39 70.0521 446.217 69.4531C447.05 68.8542 448.251 68.5514 449.82 68.5449H451.119V67.9395C451.119 67.4512 450.992 67.0605 450.738 66.7676C450.491 66.4746 450.097 66.3281 449.557 66.3281C449.081 66.3281 448.707 66.4421 448.434 66.6699C448.167 66.8978 448.033 67.2103 448.033 67.6074H445.211C445.211 66.9954 445.4 66.429 445.777 65.9082C446.155 65.3874 446.689 64.9805 447.379 64.6875C448.069 64.388 448.844 64.2383 449.703 64.2383C451.005 64.2383 452.037 64.5671 452.799 65.2246C453.567 65.8757 453.951 66.7936 453.951 67.9785V72.5586C453.958 73.5612 454.098 74.3197 454.371 74.834V75H451.52ZM449.186 73.0371C449.602 73.0371 449.986 72.946 450.338 72.7637C450.689 72.5749 450.95 72.3242 451.119 72.0117V70.1953H450.064C448.652 70.1953 447.9 70.6836 447.809 71.6602L447.799 71.8262C447.799 72.1777 447.923 72.4674 448.17 72.6953C448.417 72.9232 448.756 73.0371 449.186 73.0371ZM465.641 69.8145C465.641 71.5072 465.279 72.8288 464.557 73.7793C463.834 74.7233 462.825 75.1953 461.529 75.1953C460.383 75.1953 459.469 74.7559 458.785 73.877L458.658 75H456.119V60H458.941V65.3809C459.592 64.6191 460.449 64.2383 461.51 64.2383C462.799 64.2383 463.808 64.7135 464.537 65.6641C465.273 66.6081 465.641 67.9395 465.641 69.6582V69.8145ZM462.818 69.6094C462.818 68.5417 462.649 67.7637 462.311 67.2754C461.972 66.7806 461.467 66.5332 460.797 66.5332C459.898 66.5332 459.28 66.901 458.941 67.6367V71.8066C459.286 72.5488 459.911 72.9199 460.816 72.9199C461.728 72.9199 462.327 72.4707 462.613 71.5723C462.75 71.1426 462.818 70.4883 462.818 69.6094ZM472.252 75.1953C470.702 75.1953 469.439 74.7201 468.463 73.7695C467.493 72.819 467.008 71.5527 467.008 69.9707V69.6973C467.008 68.6361 467.213 67.6888 467.623 66.8555C468.033 66.0156 468.613 65.3711 469.361 64.9219C470.117 64.4661 470.976 64.2383 471.939 64.2383C473.385 64.2383 474.521 64.694 475.348 65.6055C476.181 66.5169 476.598 67.8092 476.598 69.4824V70.6348H469.869C469.96 71.3249 470.234 71.8783 470.689 72.2949C471.152 72.7116 471.734 72.9199 472.438 72.9199C473.525 72.9199 474.374 72.526 474.986 71.7383L476.373 73.291C475.95 73.89 475.377 74.3587 474.654 74.6973C473.932 75.0293 473.131 75.1953 472.252 75.1953ZM471.93 66.5234C471.37 66.5234 470.914 66.7122 470.562 67.0898C470.217 67.4674 469.996 68.0078 469.898 68.7109H473.824V68.4863C473.811 67.8613 473.642 67.3796 473.316 67.041C472.991 66.696 472.529 66.5234 471.93 66.5234ZM481.188 75H478.355V60H481.188V75ZM483.658 73.6133C483.658 73.1641 483.808 72.7995 484.107 72.5195C484.413 72.2396 484.794 72.0996 485.25 72.0996C485.712 72.0996 486.093 72.2396 486.393 72.5195C486.699 72.7995 486.852 73.1641 486.852 73.6133C486.852 74.056 486.702 74.4173 486.402 74.6973C486.103 74.9707 485.719 75.1074 485.25 75.1074C484.788 75.1074 484.407 74.9707 484.107 74.6973C483.808 74.4173 483.658 74.056 483.658 73.6133ZM483.658 65.6152C483.658 65.166 483.808 64.8014 484.107 64.5215C484.413 64.2415 484.794 64.1016 485.25 64.1016C485.712 64.1016 486.093 64.2415 486.393 64.5215C486.699 64.8014 486.852 65.166 486.852 65.6152C486.852 66.0579 486.702 66.4193 486.402 66.6992C486.103 66.9727 485.719 67.1094 485.25 67.1094C484.788 67.1094 484.407 66.9727 484.107 66.6992C483.808 66.4193 483.658 66.0579 483.658 65.6152ZM491.812 64.4336L491.9 65.6152C492.649 64.6973 493.661 64.2383 494.938 64.2383C496.298 64.2383 497.232 64.7754 497.74 65.8496C498.482 64.7754 499.54 64.2383 500.914 64.2383C502.06 64.2383 502.913 64.5736 503.473 65.2441C504.033 65.9082 504.312 66.9108 504.312 68.252V75H501.48V68.2617C501.48 67.6628 501.363 67.2266 501.129 66.9531C500.895 66.6732 500.481 66.5332 499.889 66.5332C499.042 66.5332 498.456 66.9368 498.131 67.7441L498.141 75H495.318V68.2715C495.318 67.6595 495.198 67.2168 494.957 66.9434C494.716 66.6699 494.306 66.5332 493.727 66.5332C492.926 66.5332 492.346 66.8652 491.988 67.5293V75H489.166V64.4336H491.812ZM510.436 71.0059L512.389 64.4336H515.416L511.168 76.6406L510.934 77.1973C510.302 78.5775 509.26 79.2676 507.809 79.2676C507.398 79.2676 506.982 79.2057 506.559 79.082V76.9434L506.988 76.9531C507.522 76.9531 507.919 76.8717 508.18 76.709C508.447 76.5462 508.655 76.276 508.805 75.8984L509.137 75.0293L505.436 64.4336H508.473L510.436 71.0059ZM522.018 70.0488H516.52V67.7734H522.018V70.0488ZM530.406 75C530.276 74.7461 530.182 74.4303 530.123 74.0527C529.439 74.8145 528.551 75.1953 527.457 75.1953C526.422 75.1953 525.562 74.8958 524.879 74.2969C524.202 73.6979 523.863 72.9427 523.863 72.0312C523.863 70.9115 524.277 70.0521 525.104 69.4531C525.937 68.8542 527.138 68.5514 528.707 68.5449H530.006V67.9395C530.006 67.4512 529.879 67.0605 529.625 66.7676C529.378 66.4746 528.984 66.3281 528.443 66.3281C527.968 66.3281 527.594 66.4421 527.32 66.6699C527.053 66.8978 526.92 67.2103 526.92 67.6074H524.098C524.098 66.9954 524.286 66.429 524.664 65.9082C525.042 65.3874 525.576 64.9805 526.266 64.6875C526.956 64.388 527.73 64.2383 528.59 64.2383C529.892 64.2383 530.924 64.5671 531.686 65.2246C532.454 65.8757 532.838 66.7936 532.838 67.9785V72.5586C532.844 73.5612 532.984 74.3197 533.258 74.834V75H530.406ZM528.072 73.0371C528.489 73.0371 528.873 72.946 529.225 72.7637C529.576 72.5749 529.837 72.3242 530.006 72.0117V70.1953H528.951C527.538 70.1953 526.786 70.6836 526.695 71.6602L526.686 71.8262C526.686 72.1777 526.809 72.4674 527.057 72.6953C527.304 72.9232 527.643 73.0371 528.072 73.0371ZM544.518 69.8145C544.518 71.4421 544.146 72.7474 543.404 73.7305C542.669 74.707 541.673 75.1953 540.416 75.1953C539.348 75.1953 538.486 74.8242 537.828 74.082V79.0625H535.006V64.4336H537.623L537.721 65.4688C538.404 64.6484 539.296 64.2383 540.396 64.2383C541.699 64.2383 542.711 64.7201 543.434 65.6836C544.156 66.6471 544.518 67.9753 544.518 69.668V69.8145ZM541.695 69.6094C541.695 68.6263 541.52 67.8678 541.168 67.334C540.823 66.8001 540.318 66.5332 539.654 66.5332C538.769 66.5332 538.16 66.8717 537.828 67.5488V71.875C538.173 72.5716 538.788 72.9199 539.674 72.9199C541.021 72.9199 541.695 71.8164 541.695 69.6094ZM555.787 69.8145C555.787 71.4421 555.416 72.7474 554.674 73.7305C553.938 74.707 552.942 75.1953 551.686 75.1953C550.618 75.1953 549.755 74.8242 549.098 74.082V79.0625H546.275V64.4336H548.893L548.99 65.4688C549.674 64.6484 550.566 64.2383 551.666 64.2383C552.968 64.2383 553.98 64.7201 554.703 65.6836C555.426 66.6471 555.787 67.9753 555.787 69.668V69.8145ZM552.965 69.6094C552.965 68.6263 552.789 67.8678 552.438 67.334C552.092 66.8001 551.588 66.5332 550.924 66.5332C550.038 66.5332 549.43 66.8717 549.098 67.5488V71.875C549.443 72.5716 550.058 72.9199 550.943 72.9199C552.291 72.9199 552.965 71.8164 552.965 69.6094Z" fill="black"/>
<rect x="428" y="264" width="140" height="45" fill="#C4C4C4"/>
<path d="M443.062 293H440.23V278H443.062V293ZM451.52 293C451.389 292.746 451.295 292.43 451.236 292.053C450.553 292.814 449.664 293.195 448.57 293.195C447.535 293.195 446.676 292.896 445.992 292.297C445.315 291.698 444.977 290.943 444.977 290.031C444.977 288.911 445.39 288.052 446.217 287.453C447.05 286.854 448.251 286.551 449.82 286.545H451.119V285.939C451.119 285.451 450.992 285.061 450.738 284.768C450.491 284.475 450.097 284.328 449.557 284.328C449.081 284.328 448.707 284.442 448.434 284.67C448.167 284.898 448.033 285.21 448.033 285.607H445.211C445.211 284.995 445.4 284.429 445.777 283.908C446.155 283.387 446.689 282.98 447.379 282.688C448.069 282.388 448.844 282.238 449.703 282.238C451.005 282.238 452.037 282.567 452.799 283.225C453.567 283.876 453.951 284.794 453.951 285.979V290.559C453.958 291.561 454.098 292.32 454.371 292.834V293H451.52ZM449.186 291.037C449.602 291.037 449.986 290.946 450.338 290.764C450.689 290.575 450.95 290.324 451.119 290.012V288.195H450.064C448.652 288.195 447.9 288.684 447.809 289.66L447.799 289.826C447.799 290.178 447.923 290.467 448.17 290.695C448.417 290.923 448.756 291.037 449.186 291.037ZM465.641 287.814C465.641 289.507 465.279 290.829 464.557 291.779C463.834 292.723 462.825 293.195 461.529 293.195C460.383 293.195 459.469 292.756 458.785 291.877L458.658 293H456.119V278H458.941V283.381C459.592 282.619 460.449 282.238 461.51 282.238C462.799 282.238 463.808 282.714 464.537 283.664C465.273 284.608 465.641 285.939 465.641 287.658V287.814ZM462.818 287.609C462.818 286.542 462.649 285.764 462.311 285.275C461.972 284.781 461.467 284.533 460.797 284.533C459.898 284.533 459.28 284.901 458.941 285.637V289.807C459.286 290.549 459.911 290.92 460.816 290.92C461.728 290.92 462.327 290.471 462.613 289.572C462.75 289.143 462.818 288.488 462.818 287.609ZM472.252 293.195C470.702 293.195 469.439 292.72 468.463 291.77C467.493 290.819 467.008 289.553 467.008 287.971V287.697C467.008 286.636 467.213 285.689 467.623 284.855C468.033 284.016 468.613 283.371 469.361 282.922C470.117 282.466 470.976 282.238 471.939 282.238C473.385 282.238 474.521 282.694 475.348 283.605C476.181 284.517 476.598 285.809 476.598 287.482V288.635H469.869C469.96 289.325 470.234 289.878 470.689 290.295C471.152 290.712 471.734 290.92 472.438 290.92C473.525 290.92 474.374 290.526 474.986 289.738L476.373 291.291C475.95 291.89 475.377 292.359 474.654 292.697C473.932 293.029 473.131 293.195 472.252 293.195ZM471.93 284.523C471.37 284.523 470.914 284.712 470.562 285.09C470.217 285.467 469.996 286.008 469.898 286.711H473.824V286.486C473.811 285.861 473.642 285.38 473.316 285.041C472.991 284.696 472.529 284.523 471.93 284.523ZM481.188 293H478.355V278H481.188V293ZM483.658 291.613C483.658 291.164 483.808 290.799 484.107 290.52C484.413 290.24 484.794 290.1 485.25 290.1C485.712 290.1 486.093 290.24 486.393 290.52C486.699 290.799 486.852 291.164 486.852 291.613C486.852 292.056 486.702 292.417 486.402 292.697C486.103 292.971 485.719 293.107 485.25 293.107C484.788 293.107 484.407 292.971 484.107 292.697C483.808 292.417 483.658 292.056 483.658 291.613ZM483.658 283.615C483.658 283.166 483.808 282.801 484.107 282.521C484.413 282.242 484.794 282.102 485.25 282.102C485.712 282.102 486.093 282.242 486.393 282.521C486.699 282.801 486.852 283.166 486.852 283.615C486.852 284.058 486.702 284.419 486.402 284.699C486.103 284.973 485.719 285.109 485.25 285.109C484.788 285.109 484.407 284.973 484.107 284.699C483.808 284.419 483.658 284.058 483.658 283.615ZM491.812 282.434L491.9 283.615C492.649 282.697 493.661 282.238 494.938 282.238C496.298 282.238 497.232 282.775 497.74 283.85C498.482 282.775 499.54 282.238 500.914 282.238C502.06 282.238 502.913 282.574 503.473 283.244C504.033 283.908 504.312 284.911 504.312 286.252V293H501.48V286.262C501.48 285.663 501.363 285.227 501.129 284.953C500.895 284.673 500.481 284.533 499.889 284.533C499.042 284.533 498.456 284.937 498.131 285.744L498.141 293H495.318V286.271C495.318 285.66 495.198 285.217 494.957 284.943C494.716 284.67 494.306 284.533 493.727 284.533C492.926 284.533 492.346 284.865 491.988 285.529V293H489.166V282.434H491.812ZM510.436 289.006L512.389 282.434H515.416L511.168 294.641L510.934 295.197C510.302 296.577 509.26 297.268 507.809 297.268C507.398 297.268 506.982 297.206 506.559 297.082V294.943L506.988 294.953C507.522 294.953 507.919 294.872 508.18 294.709C508.447 294.546 508.655 294.276 508.805 293.898L509.137 293.029L505.436 282.434H508.473L510.436 289.006ZM522.018 288.049H516.52V285.773H522.018V288.049ZM530.406 293C530.276 292.746 530.182 292.43 530.123 292.053C529.439 292.814 528.551 293.195 527.457 293.195C526.422 293.195 525.562 292.896 524.879 292.297C524.202 291.698 523.863 290.943 523.863 290.031C523.863 288.911 524.277 288.052 525.104 287.453C525.937 286.854 527.138 286.551 528.707 286.545H530.006V285.939C530.006 285.451 529.879 285.061 529.625 284.768C529.378 284.475 528.984 284.328 528.443 284.328C527.968 284.328 527.594 284.442 527.32 284.67C527.053 284.898 526.92 285.21 526.92 285.607H524.098C524.098 284.995 524.286 284.429 524.664 283.908C525.042 283.387 525.576 282.98 526.266 282.688C526.956 282.388 527.73 282.238 528.59 282.238C529.892 282.238 530.924 282.567 531.686 283.225C532.454 283.876 532.838 284.794 532.838 285.979V290.559C532.844 291.561 532.984 292.32 533.258 292.834V293H530.406ZM528.072 291.037C528.489 291.037 528.873 290.946 529.225 290.764C529.576 290.575 529.837 290.324 530.006 290.012V288.195H528.951C527.538 288.195 526.786 288.684 526.695 289.66L526.686 289.826C526.686 290.178 526.809 290.467 527.057 290.695C527.304 290.923 527.643 291.037 528.072 291.037ZM544.518 287.814C544.518 289.442 544.146 290.747 543.404 291.73C542.669 292.707 541.673 293.195 540.416 293.195C539.348 293.195 538.486 292.824 537.828 292.082V297.062H535.006V282.434H537.623L537.721 283.469C538.404 282.648 539.296 282.238 540.396 282.238C541.699 282.238 542.711 282.72 543.434 283.684C544.156 284.647 544.518 285.975 544.518 287.668V287.814ZM541.695 287.609C541.695 286.626 541.52 285.868 541.168 285.334C540.823 284.8 540.318 284.533 539.654 284.533C538.769 284.533 538.16 284.872 537.828 285.549V289.875C538.173 290.572 538.788 290.92 539.674 290.92C541.021 290.92 541.695 289.816 541.695 287.609ZM555.787 287.814C555.787 289.442 555.416 290.747 554.674 291.73C553.938 292.707 552.942 293.195 551.686 293.195C550.618 293.195 549.755 292.824 549.098 292.082V297.062H546.275V282.434H548.893L548.99 283.469C549.674 282.648 550.566 282.238 551.666 282.238C552.968 282.238 553.98 282.72 554.703 283.684C555.426 284.647 555.787 285.975 555.787 287.668V287.814ZM552.965 287.609C552.965 286.626 552.789 285.868 552.438 285.334C552.092 284.8 551.588 284.533 550.924 284.533C550.038 284.533 549.43 284.872 549.098 285.549V289.875C549.443 290.572 550.058 290.92 550.943 290.92C552.291 290.92 552.965 289.816 552.965 287.609Z" fill="black"/>
</svg>
