<svg width="493" height="186" viewBox="0 0 493 186" fill="none" xmlns="http://www.w3.org/2000/svg">
<rect y="9" width="240" height="168" fill="#A4FB96"/>
<rect x="5" y="67" width="230" height="100" fill="#7367FF"/>
<path d="M96.2988 40.4854V48H91.9043V26.6719H100.225C101.826 26.6719 103.232 26.9648 104.443 27.5508C105.664 28.1367 106.602 28.9717 107.256 30.0557C107.91 31.1299 108.237 32.3555 108.237 33.7324C108.237 35.8223 107.52 37.4727 106.084 38.6836C104.658 39.8848 102.681 40.4854 100.151 40.4854H96.2988ZM96.2988 36.9258H100.225C101.387 36.9258 102.271 36.6523 102.876 36.1055C103.491 35.5586 103.799 34.7773 103.799 33.7617C103.799 32.7168 103.491 31.8721 102.876 31.2275C102.261 30.583 101.411 30.251 100.327 30.2314H96.2988V36.9258ZM110.127 39.9287C110.127 38.3564 110.43 36.9551 111.035 35.7246C111.641 34.4941 112.51 33.542 113.643 32.8682C114.785 32.1943 116.108 31.8574 117.612 31.8574C119.751 31.8574 121.494 32.5117 122.842 33.8203C124.199 35.1289 124.956 36.9062 125.112 39.1523L125.142 40.2363C125.142 42.668 124.463 44.6211 123.105 46.0957C121.748 47.5605 119.927 48.293 117.642 48.293C115.356 48.293 113.53 47.5605 112.163 46.0957C110.806 44.6309 110.127 42.6387 110.127 40.1191V39.9287ZM114.36 40.2363C114.36 41.7402 114.644 42.8926 115.21 43.6934C115.776 44.4844 116.587 44.8799 117.642 44.8799C118.667 44.8799 119.468 44.4893 120.044 43.708C120.62 42.917 120.908 41.6572 120.908 39.9287C120.908 38.4541 120.62 37.3115 120.044 36.501C119.468 35.6904 118.657 35.2852 117.612 35.2852C116.577 35.2852 115.776 35.6904 115.21 36.501C114.644 37.3018 114.36 38.5469 114.36 40.2363ZM127.09 39.958C127.09 37.4873 127.642 35.5195 128.745 34.0547C129.858 32.5898 131.377 31.8574 133.301 31.8574C134.844 31.8574 136.118 32.4336 137.124 33.5859V25.5H141.372V48H137.549L137.344 46.3154C136.289 47.6338 134.932 48.293 133.271 48.293C131.406 48.293 129.907 47.5605 128.774 46.0957C127.651 44.6211 127.09 42.5752 127.09 39.958ZM131.323 40.2656C131.323 41.75 131.582 42.8877 132.1 43.6787C132.617 44.4697 133.369 44.8652 134.355 44.8652C135.664 44.8652 136.587 44.3135 137.124 43.21V36.9551C136.597 35.8516 135.684 35.2998 134.385 35.2998C132.344 35.2998 131.323 36.9551 131.323 40.2656Z" fill="black"/>
<path d="M80.5396 119.08C80.4012 120.992 79.6932 122.498 78.4155 123.596C77.146 124.695 75.4696 125.244 73.3862 125.244C71.1076 125.244 69.3132 124.479 68.0029 122.949C66.7008 121.411 66.0498 119.303 66.0498 116.626V115.54C66.0498 113.831 66.3509 112.325 66.9531 111.023C67.5553 109.721 68.4139 108.724 69.5288 108.032C70.6519 107.332 71.9539 106.982 73.4351 106.982C75.4858 106.982 77.1379 107.532 78.3911 108.63C79.6444 109.729 80.3687 111.271 80.564 113.257H76.9019C76.8123 112.109 76.4909 111.279 75.9375 110.767C75.3923 110.246 74.5581 109.985 73.4351 109.985C72.2144 109.985 71.2988 110.425 70.6885 111.304C70.0863 112.174 69.777 113.529 69.7607 115.369V116.711C69.7607 118.632 70.0496 120.036 70.6274 120.923C71.2134 121.81 72.133 122.253 73.3862 122.253C74.5174 122.253 75.3597 121.997 75.9131 121.484C76.4746 120.964 76.7961 120.162 76.8774 119.08H80.5396ZM82.1631 118.274C82.1631 116.964 82.4154 115.796 82.9199 114.771C83.4245 113.745 84.1488 112.952 85.0928 112.39C86.0449 111.829 87.1476 111.548 88.4009 111.548C90.1831 111.548 91.6357 112.093 92.7588 113.184C93.89 114.274 94.5207 115.755 94.6509 117.627L94.6753 118.53C94.6753 120.557 94.1097 122.184 92.9785 123.413C91.8473 124.634 90.3296 125.244 88.4253 125.244C86.521 125.244 84.9992 124.634 83.8599 123.413C82.7287 122.192 82.1631 120.532 82.1631 118.433V118.274ZM85.6909 118.53C85.6909 119.784 85.9269 120.744 86.3989 121.411C86.8709 122.07 87.5464 122.4 88.4253 122.4C89.2798 122.4 89.9471 122.074 90.4272 121.423C90.9074 120.764 91.1475 119.714 91.1475 118.274C91.1475 117.045 90.9074 116.093 90.4272 115.417C89.9471 114.742 89.2716 114.404 88.4009 114.404C87.5382 114.404 86.8709 114.742 86.3989 115.417C85.9269 116.085 85.6909 117.122 85.6909 118.53ZM100.095 111.792L100.205 113.318C101.149 112.138 102.415 111.548 104.001 111.548C105.401 111.548 106.443 111.959 107.126 112.781C107.81 113.603 108.16 114.832 108.176 116.467V125H104.648V116.553C104.648 115.804 104.486 115.263 104.16 114.929C103.835 114.587 103.293 114.417 102.537 114.417C101.544 114.417 100.799 114.84 100.303 115.686V125H96.7749V111.792H100.095ZM115.085 108.545V111.792H117.344V114.38H115.085V120.972C115.085 121.46 115.179 121.81 115.366 122.021C115.553 122.233 115.911 122.339 116.44 122.339C116.831 122.339 117.177 122.31 117.478 122.253V124.927C116.786 125.138 116.074 125.244 115.342 125.244C112.868 125.244 111.606 123.995 111.558 121.497V114.38H109.629V111.792H111.558V108.545H115.085ZM126.963 125C126.8 124.683 126.682 124.288 126.609 123.816C125.754 124.768 124.644 125.244 123.276 125.244C121.982 125.244 120.908 124.87 120.054 124.121C119.207 123.372 118.784 122.428 118.784 121.289C118.784 119.889 119.301 118.815 120.334 118.066C121.376 117.318 122.878 116.939 124.839 116.931H126.462V116.174C126.462 115.564 126.304 115.076 125.986 114.709C125.677 114.343 125.185 114.16 124.509 114.16C123.915 114.16 123.447 114.303 123.105 114.587C122.772 114.872 122.605 115.263 122.605 115.759H119.077C119.077 114.994 119.313 114.286 119.785 113.635C120.257 112.984 120.924 112.476 121.787 112.109C122.65 111.735 123.618 111.548 124.692 111.548C126.32 111.548 127.61 111.959 128.562 112.781C129.522 113.595 130.002 114.742 130.002 116.223V121.948C130.011 123.201 130.186 124.15 130.527 124.792V125H126.963ZM124.045 122.546C124.566 122.546 125.046 122.432 125.486 122.205C125.925 121.969 126.251 121.655 126.462 121.265V118.994H125.144C123.378 118.994 122.438 119.604 122.324 120.825L122.312 121.033C122.312 121.472 122.467 121.834 122.776 122.119C123.085 122.404 123.508 122.546 124.045 122.546ZM136.436 125H132.896V111.792H136.436V125ZM132.688 108.374C132.688 107.845 132.863 107.41 133.213 107.068C133.571 106.726 134.055 106.555 134.666 106.555C135.268 106.555 135.748 106.726 136.106 107.068C136.464 107.41 136.643 107.845 136.643 108.374C136.643 108.911 136.46 109.351 136.094 109.692C135.736 110.034 135.26 110.205 134.666 110.205C134.071 110.205 133.591 110.034 133.225 109.692C132.867 109.351 132.688 108.911 132.688 108.374ZM142.6 111.792L142.71 113.318C143.654 112.138 144.919 111.548 146.506 111.548C147.906 111.548 148.948 111.959 149.631 112.781C150.315 113.603 150.665 114.832 150.681 116.467V125H147.153V116.553C147.153 115.804 146.991 115.263 146.665 114.929C146.34 114.587 145.798 114.417 145.042 114.417C144.049 114.417 143.304 114.84 142.808 115.686V125H139.28V111.792H142.6ZM159.446 125.244C157.509 125.244 155.93 124.65 154.709 123.462C153.497 122.274 152.891 120.691 152.891 118.713V118.372C152.891 117.045 153.147 115.861 153.66 114.819C154.172 113.77 154.897 112.964 155.833 112.402C156.777 111.833 157.851 111.548 159.055 111.548C160.862 111.548 162.282 112.118 163.315 113.257C164.357 114.396 164.878 116.012 164.878 118.103V119.543H156.467C156.581 120.406 156.923 121.098 157.493 121.619C158.07 122.139 158.799 122.4 159.678 122.4C161.037 122.4 162.099 121.908 162.864 120.923L164.597 122.864C164.068 123.612 163.352 124.198 162.449 124.622C161.545 125.037 160.544 125.244 159.446 125.244ZM159.043 114.404C158.343 114.404 157.773 114.64 157.334 115.112C156.903 115.584 156.626 116.26 156.504 117.139H161.411V116.858C161.395 116.077 161.183 115.474 160.776 115.051C160.369 114.62 159.792 114.404 159.043 114.404ZM174.314 115.1C173.834 115.035 173.411 115.002 173.044 115.002C171.71 115.002 170.835 115.454 170.42 116.357V125H166.892V111.792H170.225L170.322 113.367C171.03 112.154 172.011 111.548 173.264 111.548C173.655 111.548 174.021 111.601 174.363 111.707L174.314 115.1Z" fill="white"/>
<path d="M326.768 49.7678C327.744 48.7915 327.744 47.2085 326.768 46.2322L310.858 30.3223C309.882 29.346 308.299 29.346 307.322 30.3223C306.346 31.2986 306.346 32.8816 307.322 33.8579L321.464 48L307.322 62.1421C306.346 63.1184 306.346 64.7014 307.322 65.6777C308.299 66.654 309.882 66.654 310.858 65.6777L326.768 49.7678ZM247 50.5L325 50.5V45.5L247 45.5V50.5Z" fill="black"/>
<path d="M326.768 139.768C327.744 138.791 327.744 137.209 326.768 136.232L310.858 120.322C309.882 119.346 308.299 119.346 307.322 120.322C306.346 121.299 306.346 122.882 307.322 123.858L321.464 138L307.322 152.142C306.346 153.118 306.346 154.701 307.322 155.678C308.299 156.654 309.882 156.654 310.858 155.678L326.768 139.768ZM247 140.5H325V135.5H247V140.5Z" fill="black"/>
<path fill-rule="evenodd" clip-rule="evenodd" d="M486.143 24H445V18C445 14.04 442.874 12 438.143 12H403.857C400.086 12 397 14.7 397 18V78C397 81.3 400.086 84 403.857 84H486.143C489.914 84 493 81.3 493 78V30C493 26.7 489.914 24 486.143 24ZM438.143 24H403.857V18H438.143V24Z" fill="#2396ED"/>
<path d="M410.154 58.5933L414.183 45.2266H418.26L412.071 63H408.25L402.085 45.2266H406.15L410.154 58.5933ZM418.602 56.2739C418.602 54.9637 418.854 53.7959 419.358 52.7705C419.863 51.7451 420.587 50.9517 421.531 50.3901C422.483 49.8286 423.586 49.5479 424.839 49.5479C426.622 49.5479 428.074 50.0931 429.197 51.1836C430.328 52.2741 430.959 53.7552 431.089 55.627L431.114 56.5303C431.114 58.5566 430.548 60.1842 429.417 61.4131C428.286 62.6338 426.768 63.2441 424.864 63.2441C422.959 63.2441 421.438 62.6338 420.298 61.4131C419.167 60.1924 418.602 58.5322 418.602 56.4326V56.2739ZM422.129 56.5303C422.129 57.7835 422.365 58.7438 422.837 59.4111C423.309 60.0703 423.985 60.3999 424.864 60.3999C425.718 60.3999 426.386 60.0744 426.866 59.4233C427.346 58.7642 427.586 57.7144 427.586 56.2739C427.586 55.0451 427.346 54.0929 426.866 53.4175C426.386 52.742 425.71 52.4043 424.839 52.4043C423.977 52.4043 423.309 52.742 422.837 53.4175C422.365 54.0848 422.129 55.1224 422.129 56.5303ZM437.01 63H433.47V44.25H437.01V63ZM447.837 61.6572C446.967 62.7152 445.762 63.2441 444.224 63.2441C442.808 63.2441 441.726 62.8372 440.977 62.0234C440.236 61.2096 439.858 60.0174 439.842 58.4468V49.792H443.37V58.3247C443.37 59.7 443.996 60.3877 445.25 60.3877C446.446 60.3877 447.268 59.9727 447.715 59.1426V49.792H451.255V63H447.935L447.837 61.6572ZM457.225 49.792L457.334 51.269C458.27 50.1216 459.536 49.5479 461.131 49.5479C462.832 49.5479 464 50.2192 464.634 51.562C465.562 50.2192 466.884 49.5479 468.602 49.5479C470.034 49.5479 471.1 49.967 471.8 50.8052C472.5 51.6353 472.85 52.8885 472.85 54.5649V63H469.31V54.5771C469.31 53.8285 469.163 53.2832 468.87 52.9414C468.577 52.5915 468.06 52.4165 467.32 52.4165C466.262 52.4165 465.529 52.9211 465.123 53.9302L465.135 63H461.607V54.5894C461.607 53.8244 461.456 53.271 461.155 52.9292C460.854 52.5874 460.341 52.4165 459.617 52.4165C458.616 52.4165 457.892 52.8315 457.444 53.6616V63H453.917V49.792H457.225ZM481.651 63.2441C479.714 63.2441 478.135 62.6501 476.915 61.4619C475.702 60.2738 475.096 58.6909 475.096 56.7134V56.3716C475.096 55.0451 475.352 53.861 475.865 52.8193C476.377 51.7695 477.102 50.9639 478.038 50.4023C478.982 49.8327 480.056 49.5479 481.26 49.5479C483.067 49.5479 484.487 50.1175 485.521 51.2568C486.562 52.3962 487.083 54.0116 487.083 56.103V57.5435H478.672C478.786 58.4061 479.128 59.0978 479.698 59.6187C480.276 60.1395 481.004 60.3999 481.883 60.3999C483.242 60.3999 484.304 59.9076 485.069 58.9229L486.802 60.8638C486.273 61.6125 485.557 62.1984 484.654 62.6216C483.75 63.0366 482.75 63.2441 481.651 63.2441ZM481.248 52.4043C480.548 52.4043 479.979 52.6403 479.539 53.1123C479.108 53.5843 478.831 54.2598 478.709 55.1387H483.616V54.8579C483.6 54.0767 483.388 53.4744 482.981 53.0513C482.575 52.62 481.997 52.4043 481.248 52.4043Z" fill="white"/>
<path fill-rule="evenodd" clip-rule="evenodd" d="M486.143 114H445V108C445 104.04 442.874 102 438.143 102H403.857C400.086 102 397 104.7 397 108V168C397 171.3 400.086 174 403.857 174H486.143C489.914 174 493 171.3 493 168V120C493 116.7 489.914 114 486.143 114ZM438.143 114H403.857V108H438.143V114Z" fill="#2396ED"/>
<path d="M410.154 146.593L414.183 133.227H418.26L412.071 151H408.25L402.085 133.227H406.15L410.154 146.593ZM418.602 144.274C418.602 142.964 418.854 141.796 419.358 140.771C419.863 139.745 420.587 138.952 421.531 138.39C422.483 137.829 423.586 137.548 424.839 137.548C426.622 137.548 428.074 138.093 429.197 139.184C430.328 140.274 430.959 141.755 431.089 143.627L431.114 144.53C431.114 146.557 430.548 148.184 429.417 149.413C428.286 150.634 426.768 151.244 424.864 151.244C422.959 151.244 421.438 150.634 420.298 149.413C419.167 148.192 418.602 146.532 418.602 144.433V144.274ZM422.129 144.53C422.129 145.784 422.365 146.744 422.837 147.411C423.309 148.07 423.985 148.4 424.864 148.4C425.718 148.4 426.386 148.074 426.866 147.423C427.346 146.764 427.586 145.714 427.586 144.274C427.586 143.045 427.346 142.093 426.866 141.417C426.386 140.742 425.71 140.404 424.839 140.404C423.977 140.404 423.309 140.742 422.837 141.417C422.365 142.085 422.129 143.122 422.129 144.53ZM437.01 151H433.47V132.25H437.01V151ZM447.837 149.657C446.967 150.715 445.762 151.244 444.224 151.244C442.808 151.244 441.726 150.837 440.977 150.023C440.236 149.21 439.858 148.017 439.842 146.447V137.792H443.37V146.325C443.37 147.7 443.996 148.388 445.25 148.388C446.446 148.388 447.268 147.973 447.715 147.143V137.792H451.255V151H447.935L447.837 149.657ZM457.225 137.792L457.334 139.269C458.27 138.122 459.536 137.548 461.131 137.548C462.832 137.548 464 138.219 464.634 139.562C465.562 138.219 466.884 137.548 468.602 137.548C470.034 137.548 471.1 137.967 471.8 138.805C472.5 139.635 472.85 140.889 472.85 142.565V151H469.31V142.577C469.31 141.828 469.163 141.283 468.87 140.941C468.577 140.591 468.06 140.417 467.32 140.417C466.262 140.417 465.529 140.921 465.123 141.93L465.135 151H461.607V142.589C461.607 141.824 461.456 141.271 461.155 140.929C460.854 140.587 460.341 140.417 459.617 140.417C458.616 140.417 457.892 140.832 457.444 141.662V151H453.917V137.792H457.225ZM481.651 151.244C479.714 151.244 478.135 150.65 476.915 149.462C475.702 148.274 475.096 146.691 475.096 144.713V144.372C475.096 143.045 475.352 141.861 475.865 140.819C476.377 139.77 477.102 138.964 478.038 138.402C478.982 137.833 480.056 137.548 481.26 137.548C483.067 137.548 484.487 138.118 485.521 139.257C486.562 140.396 487.083 142.012 487.083 144.103V145.543H478.672C478.786 146.406 479.128 147.098 479.698 147.619C480.276 148.139 481.004 148.4 481.883 148.4C483.242 148.4 484.304 147.908 485.069 146.923L486.802 148.864C486.273 149.612 485.557 150.198 484.654 150.622C483.75 151.037 482.75 151.244 481.651 151.244ZM481.248 140.404C480.548 140.404 479.979 140.64 479.539 141.112C479.108 141.584 478.831 142.26 478.709 143.139H483.616V142.858C483.6 142.077 483.388 141.474 482.981 141.051C482.575 140.62 481.997 140.404 481.248 140.404Z" fill="white"/>
</svg>
